<?xml version="1.0" encoding="UTF-8"?>
<!DOCTYPE svg PUBLIC "-//W3C//DTD SVG 1.1//EN" "http://www.w3.org/Graphics/SVG/1.1/DTD/svg11.dtd">
<svg version="1.1" xmlns="http://www.w3.org/2000/svg" xmlns:xlink="http://www.w3.org/1999/xlink" x="0" y="0" width="255" height="73.1" viewBox="0, 0, 255, 73.1">
  <defs>
    <radialGradient id="Gradient_1" gradientUnits="userSpaceOnUse" cx="218.5" cy="215" r="268.1" gradientTransform="matrix(0.17, 0, 0, 0.17, 0, 0)">
      <stop offset="0" stop-color="#008751"/>
      <stop offset="1" stop-color="#1A3B5E"/>
    </radialGradient>
  </defs>
  <g id="Layer_1_Copy">
    <g>
      <path d="M35.954,3.995 L38.312,3.995 C44.789,4.233 51.186,6.355 56.439,10.102 C62.331,14.257 66.776,20.366 68.836,27.213 C69.65,29.865 70.076,32.62 70.21,35.386 L70.21,37.71 C69.961,44.185 67.74,50.578 63.824,55.794 C59.802,61.207 54.049,65.352 47.581,67.454 C44.601,68.441 41.474,68.958 38.336,69.105 L35.805,69.105 C29.283,68.816 22.851,66.645 17.598,62.817 C11.962,58.76 7.68,52.906 5.597,46.342 C4.696,43.555 4.22,40.646 4.08,37.727 L4.08,35.433 C4.363,29.256 7.307,23.332 11.907,19.157 C17.552,13.953 25.315,11.085 33.035,11.217 C38.016,11.285 42.971,12.736 47.16,15.396 C53.04,19.098 57.494,25.107 58.853,31.89 C59.8,36.488 59.154,41.414 56.891,45.559 C54.414,50.072 50.349,53.947 45.29,55.462 C39.157,57.349 31.991,55.194 27.99,50.242 C25.959,47.751 25.086,44.389 25.669,41.244 C26.097,38.848 27.325,36.493 29.387,35.08 C30.804,34.088 32.674,33.752 34.348,34.237 C34.537,34.248 34.999,34.431 34.634,34.65 C32.531,36.733 32.574,40.359 34.569,42.499 C36.475,44.719 40.149,45.048 42.455,43.246 C45.776,40.661 46.695,35.499 44.37,31.99 C41.281,27.12 34.677,24.862 29.151,26.583 C25.52,27.662 22.575,30.328 20.595,33.448 C18.581,36.563 17.593,40.329 17.956,44.012 C18.376,48.598 20.686,52.896 23.988,56.109 C28.364,60.424 34.619,62.879 40.821,62.505 C46.006,62.232 50.944,60.034 54.944,56.838 C59.489,53.021 62.696,47.68 63.846,41.906 C64.965,36.42 64.258,30.618 61.965,25.507 C59.426,19.87 55.162,14.947 49.736,11.825 C44.281,8.651 37.793,7.353 31.498,7.876 C23.841,8.489 16.398,11.691 10.818,16.9 C16.625,9.131 26.182,4.316 35.954,3.995 M12.815,25.809 C11.38,26.241 10.222,27.456 9.9,28.901 C9.537,30.356 10.06,31.973 11.19,32.971 C12.381,34.069 14.231,34.388 15.728,33.756 C17.053,33.226 18.06,32.005 18.309,30.62 C18.57,29.292 18.125,27.856 17.155,26.898 C16.068,25.773 14.317,25.332 12.815,25.809 M10.196,37.082 C9.191,37.354 8.428,38.29 8.376,39.316 C8.262,40.714 9.548,42.021 10.976,41.927 C12.422,41.92 13.626,40.491 13.368,39.088 C13.189,37.665 11.59,36.641 10.196,37.082 M10.859,44.98 C9.816,45.397 9.684,46.97 10.637,47.557 C11.499,48.197 12.884,47.608 13.003,46.551 C13.228,45.434 11.886,44.427 10.859,44.98 z" fill="url(#Gradient_1)"/>
      <path d="M35.954,3.995 L38.312,3.995 C44.789,4.233 51.186,6.355 56.439,10.102 C62.331,14.257 66.776,20.366 68.836,27.213 C69.65,29.865 70.076,32.62 70.21,35.386 L70.21,37.71 C69.961,44.185 67.74,50.578 63.824,55.794 C59.802,61.207 54.049,65.352 47.581,67.454 C44.601,68.441 41.474,68.958 38.336,69.105 L35.805,69.105 C29.283,68.816 22.851,66.645 17.598,62.817 C11.962,58.76 7.68,52.906 5.597,46.342 C4.696,43.555 4.22,40.646 4.08,37.727 L4.08,35.433 C4.363,29.256 7.307,23.332 11.907,19.157 C17.552,13.953 25.315,11.085 33.035,11.217 C38.016,11.285 42.971,12.736 47.16,15.396 C53.04,19.098 57.494,25.107 58.853,31.89 C59.8,36.488 59.154,41.414 56.891,45.559 C54.414,50.072 50.349,53.947 45.29,55.462 C39.157,57.349 31.991,55.194 27.99,50.242 C25.959,47.751 25.086,44.389 25.669,41.244 C26.097,38.848 27.325,36.493 29.387,35.08 C30.804,34.088 32.674,33.752 34.348,34.237 C34.537,34.248 34.999,34.431 34.634,34.65 C32.531,36.733 32.574,40.359 34.569,42.499 C36.475,44.719 40.149,45.048 42.455,43.246 C45.776,40.661 46.695,35.499 44.37,31.99 C41.281,27.12 34.677,24.862 29.151,26.583 C25.52,27.662 22.575,30.328 20.595,33.448 C18.581,36.563 17.593,40.329 17.956,44.012 C18.376,48.598 20.686,52.896 23.988,56.109 C28.364,60.424 34.619,62.879 40.821,62.505 C46.006,62.232 50.944,60.034 54.944,56.838 C59.489,53.021 62.696,47.68 63.846,41.906 C64.965,36.42 64.258,30.618 61.965,25.507 C59.426,19.87 55.162,14.947 49.736,11.825 C44.281,8.651 37.793,7.353 31.498,7.876 C23.841,8.489 16.398,11.691 10.818,16.9 C16.625,9.131 26.182,4.316 35.954,3.995 M12.815,25.809 C11.38,26.241 10.222,27.456 9.9,28.901 C9.537,30.356 10.06,31.973 11.19,32.971 C12.381,34.069 14.231,34.388 15.728,33.756 C17.053,33.226 18.06,32.005 18.309,30.62 C18.57,29.292 18.125,27.856 17.155,26.898 C16.068,25.773 14.317,25.332 12.815,25.809 M10.196,37.082 C9.191,37.354 8.428,38.29 8.376,39.316 C8.262,40.714 9.548,42.021 10.976,41.927 C12.422,41.92 13.626,40.491 13.368,39.088 C13.189,37.665 11.59,36.641 10.196,37.082 M10.859,44.98 C9.816,45.397 9.684,46.97 10.637,47.557 C11.499,48.197 12.884,47.608 13.003,46.551 C13.228,45.434 11.886,44.427 10.859,44.98 z" fill-opacity="0" stroke="#FFFFFF" stroke-width="1"/>
    </g>
    <path d="M91.583,37.513 L88.894,37.513 L88.894,30.129 L81.341,30.129 L81.341,37.513 L78.663,37.513 L78.663,21.13 L81.341,21.13 L81.341,27.831 L88.894,27.831 L88.894,21.13 L91.583,21.13 z" fill="#FFFFFF"/>
    <path d="M101.03,37.737 Q98.139,37.737 96.508,36.051 Q94.878,34.364 94.878,31.406 Q94.878,28.369 96.391,26.632 Q97.904,24.895 100.548,24.895 Q103.002,24.895 104.426,26.386 Q105.849,27.876 105.849,30.487 L105.849,31.91 L97.59,31.91 Q97.646,33.714 98.565,34.684 Q99.484,35.653 101.153,35.653 Q102.252,35.653 103.199,35.446 Q104.145,35.238 105.232,34.757 L105.232,36.897 Q104.269,37.356 103.282,37.547 Q102.296,37.737 101.03,37.737 z M100.548,26.89 Q99.293,26.89 98.537,27.686 Q97.78,28.481 97.635,30.005 L103.26,30.005 Q103.238,28.47 102.521,27.68 Q101.803,26.89 100.548,26.89 z" fill="#FFFFFF"/>
    <path d="M116.595,37.513 L116.069,35.788 L115.979,35.788 Q115.083,36.919 114.175,37.328 Q113.267,37.737 111.844,37.737 Q110.017,37.737 108.992,36.751 Q107.967,35.765 107.967,33.961 Q107.967,32.045 109.39,31.07 Q110.813,30.095 113.727,30.005 L115.867,29.938 L115.867,29.277 Q115.867,28.089 115.312,27.501 Q114.757,26.912 113.592,26.912 Q112.64,26.912 111.765,27.193 Q110.891,27.473 110.085,27.854 L109.233,25.971 Q110.241,25.444 111.44,25.17 Q112.64,24.895 113.704,24.895 Q116.069,24.895 117.273,25.926 Q118.478,26.957 118.478,29.165 L118.478,37.513 z M112.673,35.72 Q114.108,35.72 114.976,34.919 Q115.844,34.118 115.844,32.672 L115.844,31.597 L114.253,31.664 Q112.393,31.731 111.547,32.286 Q110.701,32.84 110.701,33.984 Q110.701,34.813 111.194,35.267 Q111.687,35.72 112.673,35.72 z" fill="#FFFFFF"/>
    <path d="M124.787,37.513 L122.154,37.513 L122.154,20.077 L124.787,20.077 z" fill="#FFFFFF"/>
    <path d="M133.169,35.608 Q134.133,35.608 135.096,35.306 L135.096,37.289 Q134.659,37.48 133.97,37.609 Q133.281,37.737 132.542,37.737 Q128.799,37.737 128.799,33.793 L128.799,27.114 L127.107,27.114 L127.107,25.949 L128.922,24.985 L129.818,22.363 L131.443,22.363 L131.443,25.119 L134.973,25.119 L134.973,27.114 L131.443,27.114 L131.443,33.748 Q131.443,34.701 131.919,35.154 Q132.396,35.608 133.169,35.608 z" fill="#FFFFFF"/>
    <path d="M148.476,37.513 L145.832,37.513 L145.832,29.893 Q145.832,28.459 145.255,27.753 Q144.678,27.047 143.423,27.047 Q141.764,27.047 140.985,28.039 Q140.206,29.03 140.206,31.361 L140.206,37.513 L137.573,37.513 L137.573,20.077 L140.206,20.077 L140.206,24.503 Q140.206,25.568 140.072,26.778 L140.24,26.778 Q140.778,25.881 141.736,25.388 Q142.694,24.895 143.972,24.895 Q148.476,24.895 148.476,29.434 z" fill="#FFFFFF"/>
    <path d="M168.547,37.513 L166.91,32.964 L160.646,32.964 L159.044,37.513 L156.22,37.513 L162.35,21.063 L165.263,21.063 L171.393,37.513 z M166.204,30.655 L164.669,26.195 Q164.501,25.747 164.204,24.783 Q163.907,23.82 163.795,23.371 Q163.493,24.75 162.91,26.386 L161.431,30.655 z" fill="#FFFFFF"/>
    <path d="M182.016,37.513 L181.646,35.889 L181.512,35.889 Q180.963,36.751 179.949,37.244 Q178.935,37.737 177.635,37.737 Q175.382,37.737 174.273,36.617 Q173.163,35.496 173.163,33.221 L173.163,25.119 L175.819,25.119 L175.819,32.762 Q175.819,34.185 176.402,34.897 Q176.985,35.608 178.229,35.608 Q179.887,35.608 180.666,34.617 Q181.445,33.625 181.445,31.294 L181.445,25.119 L184.089,25.119 L184.089,37.513 z" fill="#FFFFFF"/>
    <path d="M192.023,37.737 Q189.704,37.737 188.404,36.056 Q187.104,34.376 187.104,31.339 Q187.104,28.291 188.421,26.593 Q189.737,24.895 192.068,24.895 Q194.511,24.895 195.788,26.7 L195.923,26.7 Q195.732,25.366 195.732,24.593 L195.732,20.077 L198.377,20.077 L198.377,37.513 L196.315,37.513 L195.856,35.889 L195.732,35.889 Q194.466,37.737 192.023,37.737 z M192.729,35.608 Q194.354,35.608 195.094,34.695 Q195.833,33.782 195.856,31.731 L195.856,31.361 Q195.856,29.019 195.094,28.033 Q194.332,27.047 192.707,27.047 Q191.317,27.047 190.566,28.173 Q189.816,29.299 189.816,31.384 Q189.816,33.445 190.544,34.527 Q191.272,35.608 192.729,35.608 z" fill="#FFFFFF"/>
    <path d="M204.776,37.513 L202.142,37.513 L202.142,25.119 L204.776,25.119 z M201.985,21.836 Q201.985,21.13 202.372,20.749 Q202.759,20.368 203.476,20.368 Q204.171,20.368 204.557,20.749 Q204.944,21.13 204.944,21.836 Q204.944,22.509 204.557,22.895 Q204.171,23.282 203.476,23.282 Q202.759,23.282 202.372,22.895 Q201.985,22.509 201.985,21.836 z" fill="#FFFFFF"/>
    <path d="M213.158,35.608 Q214.122,35.608 215.085,35.306 L215.085,37.289 Q214.648,37.48 213.959,37.609 Q213.27,37.737 212.53,37.737 Q208.788,37.737 208.788,33.793 L208.788,27.114 L207.095,27.114 L207.095,25.949 L208.911,24.985 L209.807,22.363 L211.432,22.363 L211.432,25.119 L214.962,25.119 L214.962,27.114 L211.432,27.114 L211.432,33.748 Q211.432,34.701 211.908,35.154 Q212.385,35.608 213.158,35.608 z" fill="#FFFFFF"/>
    <path d="M237.453,37.513 L234.169,37.513 L226.112,24.458 L226.022,24.458 L226.078,25.187 Q226.235,27.271 226.235,28.997 L226.235,37.513 L223.804,37.513 L223.804,21.13 L227.053,21.13 L235.088,34.118 L235.155,34.118 Q235.133,33.86 235.066,32.241 Q234.998,30.622 234.998,29.714 L234.998,21.13 L237.453,21.13 z" fill="#FFFFFF"/>
    <path d="M252.077,37.513 L240.355,37.513 L240.355,35.653 L248.614,23.427 L240.579,23.427 L240.579,21.13 L251.852,21.13 L251.852,23.013 L243.56,35.216 L252.077,35.216 z" fill="#FFFFFF"/>
    <path d="M86.389,50.377 L86.389,45.668 Q86.389,44.779 85.984,44.34 Q85.579,43.902 84.716,43.902 Q83.567,43.902 83.039,44.526 Q82.511,45.15 82.511,46.572 L82.511,50.377 L81.409,50.377 L81.409,40.044 L82.511,40.044 L82.511,43.172 Q82.511,43.736 82.458,44.108 L82.524,44.108 Q82.85,43.583 83.451,43.281 Q84.052,42.979 84.822,42.979 Q86.157,42.979 86.824,43.613 Q87.492,44.247 87.492,45.629 L87.492,50.377 z" fill="#FFFFFF"/>
    <path d="M94.232,50.377 L94.013,49.341 L93.96,49.341 Q93.415,50.025 92.874,50.267 Q92.333,50.51 91.522,50.51 Q90.44,50.51 89.826,49.952 Q89.211,49.394 89.211,48.364 Q89.211,46.16 92.738,46.054 L93.973,46.014 L93.973,45.562 Q93.973,44.706 93.604,44.297 Q93.236,43.889 92.426,43.889 Q91.516,43.889 90.367,44.447 L90.028,43.603 Q90.566,43.311 91.207,43.145 Q91.848,42.979 92.492,42.979 Q93.794,42.979 94.421,43.557 Q95.049,44.135 95.049,45.41 L95.049,50.377 z M91.742,49.6 Q92.771,49.6 93.359,49.035 Q93.946,48.471 93.946,47.455 L93.946,46.797 L92.844,46.844 Q91.529,46.89 90.948,47.252 Q90.367,47.614 90.367,48.378 Q90.367,48.975 90.729,49.288 Q91.091,49.6 91.742,49.6 z" fill="#FFFFFF"/>
    <path d="M98.356,43.099 L98.356,47.82 Q98.356,48.71 98.761,49.148 Q99.166,49.586 100.029,49.586 Q101.171,49.586 101.699,48.962 Q102.227,48.338 102.227,46.924 L102.227,43.099 L103.329,43.099 L103.329,50.377 L102.42,50.377 L102.26,49.4 L102.201,49.4 Q101.862,49.938 101.261,50.224 Q100.66,50.51 99.89,50.51 Q98.561,50.51 97.901,49.879 Q97.24,49.248 97.24,47.86 L97.24,43.099 z" fill="#FFFFFF"/>
    <path d="M111.949,46.731 Q111.949,48.511 111.052,49.51 Q110.156,50.51 108.576,50.51 Q107.599,50.51 106.842,50.051 Q106.085,49.593 105.674,48.736 Q105.262,47.88 105.262,46.731 Q105.262,44.951 106.152,43.958 Q107.042,42.966 108.622,42.966 Q110.149,42.966 111.049,43.982 Q111.949,44.998 111.949,46.731 z M106.404,46.731 Q106.404,48.125 106.962,48.856 Q107.52,49.586 108.602,49.586 Q109.685,49.586 110.246,48.859 Q110.807,48.132 110.807,46.731 Q110.807,45.343 110.246,44.623 Q109.685,43.902 108.589,43.902 Q107.506,43.902 106.955,44.613 Q106.404,45.323 106.404,46.731 z" fill="#FFFFFF"/>
    <path d="M117.202,42.966 Q117.686,42.966 118.072,43.045 L117.919,44.068 Q117.467,43.968 117.122,43.968 Q116.239,43.968 115.611,44.686 Q114.984,45.403 114.984,46.472 L114.984,50.377 L113.881,50.377 L113.881,43.099 L114.791,43.099 L114.917,44.447 L114.97,44.447 Q115.376,43.736 115.947,43.351 Q116.518,42.966 117.202,42.966 z" fill="#FFFFFF"/>
    <path d="M123.636,50.377 L123.417,49.341 L123.364,49.341 Q122.82,50.025 122.278,50.267 Q121.737,50.51 120.927,50.51 Q119.845,50.51 119.231,49.952 Q118.616,49.394 118.616,48.364 Q118.616,46.16 122.142,46.054 L123.378,46.014 L123.378,45.562 Q123.378,44.706 123.009,44.297 Q122.64,43.889 121.83,43.889 Q120.92,43.889 119.772,44.447 L119.433,43.603 Q119.971,43.311 120.612,43.145 Q121.253,42.979 121.897,42.979 Q123.198,42.979 123.826,43.557 Q124.453,44.135 124.453,45.41 L124.453,50.377 z M121.146,49.6 Q122.176,49.6 122.763,49.035 Q123.351,48.471 123.351,47.455 L123.351,46.797 L122.249,46.844 Q120.934,46.89 120.353,47.252 Q119.772,47.614 119.772,48.378 Q119.772,48.975 120.134,49.288 Q120.495,49.6 121.146,49.6 z" fill="#FFFFFF"/>
    <path d="M134.733,50.377 L134.514,49.341 L134.461,49.341 Q133.916,50.025 133.375,50.267 Q132.834,50.51 132.024,50.51 Q130.941,50.51 130.327,49.952 Q129.713,49.394 129.713,48.364 Q129.713,46.16 133.239,46.054 L134.474,46.014 L134.474,45.562 Q134.474,44.706 134.106,44.297 Q133.737,43.889 132.927,43.889 Q132.017,43.889 130.868,44.447 L130.529,43.603 Q131.067,43.311 131.708,43.145 Q132.349,42.979 132.993,42.979 Q134.295,42.979 134.922,43.557 Q135.55,44.135 135.55,45.41 L135.55,50.377 z M132.243,49.6 Q133.272,49.6 133.86,49.035 Q134.447,48.471 134.447,47.455 L134.447,46.797 L133.345,46.844 Q132.03,46.89 131.449,47.252 Q130.868,47.614 130.868,48.378 Q130.868,48.975 131.23,49.288 Q131.592,49.6 132.243,49.6 z" fill="#FFFFFF"/>
    <path d="M141.141,42.966 Q141.626,42.966 142.011,43.045 L141.858,44.068 Q141.407,43.968 141.061,43.968 Q140.178,43.968 139.551,44.686 Q138.923,45.403 138.923,46.472 L138.923,50.377 L137.821,50.377 L137.821,43.099 L138.731,43.099 L138.857,44.447 L138.91,44.447 Q139.315,43.736 139.886,43.351 Q140.457,42.966 141.141,42.966 z" fill="#FFFFFF"/>
    <path d="M149.382,46.731 Q149.382,48.511 148.486,49.51 Q147.589,50.51 146.009,50.51 Q145.033,50.51 144.276,50.051 Q143.519,49.593 143.107,48.736 Q142.695,47.88 142.695,46.731 Q142.695,44.951 143.585,43.958 Q144.475,42.966 146.055,42.966 Q147.583,42.966 148.482,43.982 Q149.382,44.998 149.382,46.731 z M143.837,46.731 Q143.837,48.125 144.395,48.856 Q144.953,49.586 146.035,49.586 Q147.118,49.586 147.679,48.859 Q148.24,48.132 148.24,46.731 Q148.24,45.343 147.679,44.623 Q147.118,43.902 146.022,43.902 Q144.94,43.902 144.388,44.613 Q143.837,45.323 143.837,46.731 z" fill="#FFFFFF"/>
    <path d="M153.665,49.6 Q153.958,49.6 154.23,49.557 Q154.502,49.513 154.661,49.467 L154.661,50.31 Q154.482,50.397 154.134,50.453 Q153.785,50.51 153.506,50.51 Q151.394,50.51 151.394,48.285 L151.394,43.955 L150.352,43.955 L150.352,43.424 L151.394,42.966 L151.859,41.412 L152.497,41.412 L152.497,43.099 L154.608,43.099 L154.608,43.955 L152.497,43.955 L152.497,48.238 Q152.497,48.896 152.809,49.248 Q153.121,49.6 153.665,49.6 z" fill="#FFFFFF"/>
    <path d="M160.592,50.377 L160.372,49.341 L160.319,49.341 Q159.775,50.025 159.234,50.267 Q158.692,50.51 157.882,50.51 Q156.8,50.51 156.185,49.952 Q155.571,49.394 155.571,48.364 Q155.571,46.16 159.097,46.054 L160.333,46.014 L160.333,45.562 Q160.333,44.706 159.964,44.297 Q159.595,43.889 158.785,43.889 Q157.876,43.889 156.727,44.447 L156.388,43.603 Q156.926,43.311 157.567,43.145 Q158.208,42.979 158.852,42.979 Q160.153,42.979 160.781,43.557 Q161.408,44.135 161.408,45.41 L161.408,50.377 z M158.101,49.6 Q159.131,49.6 159.718,49.035 Q160.306,48.471 160.306,47.455 L160.306,46.797 L159.204,46.844 Q157.889,46.89 157.308,47.252 Q156.727,47.614 156.727,48.378 Q156.727,48.975 157.089,49.288 Q157.451,49.6 158.101,49.6 z" fill="#FFFFFF"/>
    <path d="M164.769,46.651 Q165.054,46.246 165.638,45.589 L167.989,43.099 L169.297,43.099 L166.349,46.2 L169.503,50.377 L168.169,50.377 L165.599,46.937 L164.769,47.654 L164.769,50.377 L163.679,50.377 L163.679,40.044 L164.769,40.044 L164.769,45.522 Q164.769,45.888 164.715,46.651 z" fill="#FFFFFF"/>
    <path d="M173.62,50.51 Q172.007,50.51 171.074,49.527 Q170.141,48.544 170.141,46.797 Q170.141,45.038 171.007,44.002 Q171.874,42.966 173.335,42.966 Q174.703,42.966 175.5,43.866 Q176.297,44.765 176.297,46.239 L176.297,46.937 L171.283,46.937 Q171.316,48.218 171.931,48.882 Q172.545,49.547 173.66,49.547 Q174.836,49.547 175.984,49.055 L175.984,50.038 Q175.4,50.29 174.879,50.4 Q174.358,50.51 173.62,50.51 z M173.322,43.889 Q172.445,43.889 171.924,44.46 Q171.402,45.031 171.31,46.04 L175.115,46.04 Q175.115,44.998 174.65,44.443 Q174.185,43.889 173.322,43.889 z" fill="#FFFFFF"/>
    <path d="M187.991,46.731 Q187.991,48.511 187.094,49.51 Q186.198,50.51 184.617,50.51 Q183.641,50.51 182.884,50.051 Q182.127,49.593 181.715,48.736 Q181.304,47.88 181.304,46.731 Q181.304,44.951 182.194,43.958 Q183.083,42.966 184.664,42.966 Q186.191,42.966 187.091,43.982 Q187.991,44.998 187.991,46.731 z M182.446,46.731 Q182.446,48.125 183.004,48.856 Q183.562,49.586 184.644,49.586 Q185.726,49.586 186.288,48.859 Q186.849,48.132 186.849,46.731 Q186.849,45.343 186.288,44.623 Q185.726,43.902 184.631,43.902 Q183.548,43.902 182.997,44.613 Q182.446,45.323 182.446,46.731 z" fill="#FFFFFF"/>
    <path d="M197.932,50.377 L197.713,49.341 L197.66,49.341 Q197.115,50.025 196.574,50.267 Q196.033,50.51 195.222,50.51 Q194.14,50.51 193.526,49.952 Q192.912,49.394 192.912,48.364 Q192.912,46.16 196.438,46.054 L197.673,46.014 L197.673,45.562 Q197.673,44.706 197.304,44.297 Q196.936,43.889 196.126,43.889 Q195.216,43.889 194.067,44.447 L193.728,43.603 Q194.266,43.311 194.907,43.145 Q195.548,42.979 196.192,42.979 Q197.494,42.979 198.121,43.557 Q198.749,44.135 198.749,45.41 L198.749,50.377 z M195.442,49.6 Q196.471,49.6 197.059,49.035 Q197.646,48.471 197.646,47.455 L197.646,46.797 L196.544,46.844 Q195.229,46.89 194.648,47.252 Q194.067,47.614 194.067,48.378 Q194.067,48.975 194.429,49.288 Q194.791,49.6 195.442,49.6 z" fill="#FFFFFF"/>
    <path d="M207.302,46.731 Q207.302,48.511 206.405,49.51 Q205.509,50.51 203.928,50.51 Q202.952,50.51 202.195,50.051 Q201.438,49.593 201.026,48.736 Q200.615,47.88 200.615,46.731 Q200.615,44.951 201.504,43.958 Q202.394,42.966 203.975,42.966 Q205.502,42.966 206.402,43.982 Q207.302,44.998 207.302,46.731 z M201.757,46.731 Q201.757,48.125 202.315,48.856 Q202.872,49.586 203.955,49.586 Q205.037,49.586 205.598,48.859 Q206.16,48.132 206.16,46.731 Q206.16,45.343 205.598,44.623 Q205.037,43.902 203.942,43.902 Q202.859,43.902 202.308,44.613 Q201.757,45.323 201.757,46.731 z" fill="#FFFFFF"/>
    <path d="M211.585,49.6 Q211.877,49.6 212.149,49.557 Q212.422,49.513 212.581,49.467 L212.581,50.31 Q212.402,50.397 212.053,50.453 Q211.704,50.51 211.426,50.51 Q209.314,50.51 209.314,48.285 L209.314,43.955 L208.271,43.955 L208.271,43.424 L209.314,42.966 L209.779,41.412 L210.416,41.412 L210.416,43.099 L212.528,43.099 L212.528,43.955 L210.416,43.955 L210.416,48.238 Q210.416,48.896 210.728,49.248 Q211.04,49.6 211.585,49.6 z" fill="#FFFFFF"/>
    <path d="M217.11,50.51 Q215.496,50.51 214.563,49.527 Q213.63,48.544 213.63,46.797 Q213.63,45.038 214.497,44.002 Q215.363,42.966 216.824,42.966 Q218.192,42.966 218.989,43.866 Q219.786,44.765 219.786,46.239 L219.786,46.937 L214.772,46.937 Q214.806,48.218 215.42,48.882 Q216.034,49.547 217.15,49.547 Q218.325,49.547 219.474,49.055 L219.474,50.038 Q218.89,50.29 218.368,50.4 Q217.847,50.51 217.11,50.51 z M216.811,43.889 Q215.935,43.889 215.413,44.46 Q214.892,45.031 214.799,46.04 L218.604,46.04 Q218.604,44.998 218.139,44.443 Q217.674,43.889 216.811,43.889 z" fill="#FFFFFF"/>
    <path d="M226.141,50.377 L225.922,49.341 L225.869,49.341 Q225.324,50.025 224.783,50.267 Q224.242,50.51 223.432,50.51 Q222.349,50.51 221.735,49.952 Q221.121,49.394 221.121,48.364 Q221.121,46.16 224.647,46.054 L225.882,46.014 L225.882,45.562 Q225.882,44.706 225.514,44.297 Q225.145,43.889 224.335,43.889 Q223.425,43.889 222.276,44.447 L221.938,43.603 Q222.476,43.311 223.116,43.145 Q223.757,42.979 224.401,42.979 Q225.703,42.979 226.331,43.557 Q226.958,44.135 226.958,45.41 L226.958,50.377 z M223.651,49.6 Q224.68,49.6 225.268,49.035 Q225.856,48.471 225.856,47.455 L225.856,46.797 L224.753,46.844 Q223.438,46.89 222.857,47.252 Q222.276,47.614 222.276,48.378 Q222.276,48.975 222.638,49.288 Q223,49.6 223.651,49.6 z" fill="#FFFFFF"/>
    <path d="M232.549,42.966 Q233.034,42.966 233.419,43.045 L233.267,44.068 Q232.815,43.968 232.47,43.968 Q231.587,43.968 230.959,44.686 Q230.331,45.403 230.331,46.472 L230.331,50.377 L229.229,50.377 L229.229,43.099 L230.139,43.099 L230.265,44.447 L230.318,44.447 Q230.723,43.736 231.294,43.351 Q231.865,42.966 232.549,42.966 z" fill="#FFFFFF"/>
    <path d="M240.79,46.731 Q240.79,48.511 239.894,49.51 Q238.997,50.51 237.417,50.51 Q236.441,50.51 235.684,50.051 Q234.927,49.593 234.515,48.736 Q234.103,47.88 234.103,46.731 Q234.103,44.951 234.993,43.958 Q235.883,42.966 237.463,42.966 Q238.991,42.966 239.891,43.982 Q240.79,44.998 240.79,46.731 z M235.245,46.731 Q235.245,48.125 235.803,48.856 Q236.361,49.586 237.444,49.586 Q238.526,49.586 239.087,48.859 Q239.648,48.132 239.648,46.731 Q239.648,45.343 239.087,44.623 Q238.526,43.902 237.43,43.902 Q236.348,43.902 235.797,44.613 Q235.245,45.323 235.245,46.731 z" fill="#FFFFFF"/>
    <path d="M247.199,50.377 L246.979,49.341 L246.926,49.341 Q246.382,50.025 245.841,50.267 Q245.299,50.51 244.489,50.51 Q243.407,50.51 242.793,49.952 Q242.178,49.394 242.178,48.364 Q242.178,46.16 245.704,46.054 L246.94,46.014 L246.94,45.562 Q246.94,44.706 246.571,44.297 Q246.203,43.889 245.392,43.889 Q244.483,43.889 243.334,44.447 L242.995,43.603 Q243.533,43.311 244.174,43.145 Q244.815,42.979 245.459,42.979 Q246.76,42.979 247.388,43.557 Q248.015,44.135 248.015,45.41 L248.015,50.377 z M244.708,49.6 Q245.738,49.6 246.325,49.035 Q246.913,48.471 246.913,47.455 L246.913,46.797 L245.811,46.844 Q244.496,46.89 243.915,47.252 Q243.334,47.614 243.334,48.378 Q243.334,48.975 243.696,49.288 Q244.058,49.6 244.708,49.6 z" fill="#FFFFFF"/>
  </g>
</svg>
