<?xml version="1.0" encoding="UTF-8"?>
<!DOCTYPE svg PUBLIC "-//W3C//DTD SVG 1.1//EN" "http://www.w3.org/Graphics/SVG/1.1/DTD/svg11.dtd">
<svg version="1.1" xmlns="http://www.w3.org/2000/svg" xmlns:xlink="http://www.w3.org/1999/xlink" x="0" y="0" width="255" height="73.1" viewBox="0, 0, 1500, 430">
  <defs>
    <radialGradient id="Gradient_1" gradientUnits="userSpaceOnUse" cx="218.5" cy="215" r="268.1">
      <stop offset="0" stop-color="#008751"/>
      <stop offset="1" stop-color="#1A3B5E"/>
    </radialGradient>
    <linearGradient id="Gradient_2" gradientUnits="userSpaceOnUse" x1="462.722" y1="170.042" x2="1482.803" y2="170.042">
      <stop offset="0" stop-color="#008751"/>
      <stop offset="1" stop-color="#1A3B5E"/>
    </linearGradient>
    <linearGradient id="Gradient_3" gradientUnits="userSpaceOnUse" x1="462.722" y1="170.042" x2="1482.803" y2="170.042">
      <stop offset="0" stop-color="#008751"/>
      <stop offset="1" stop-color="#1A3B5E"/>
    </linearGradient>
    <linearGradient id="Gradient_4" gradientUnits="userSpaceOnUse" x1="462.722" y1="170.042" x2="1482.803" y2="170.042">
      <stop offset="0" stop-color="#008751"/>
      <stop offset="1" stop-color="#1A3B5E"/>
    </linearGradient>
    <linearGradient id="Gradient_5" gradientUnits="userSpaceOnUse" x1="462.722" y1="170.042" x2="1482.803" y2="170.042">
      <stop offset="0" stop-color="#008751"/>
      <stop offset="1" stop-color="#1A3B5E"/>
    </linearGradient>
    <linearGradient id="Gradient_6" gradientUnits="userSpaceOnUse" x1="462.722" y1="170.042" x2="1482.803" y2="170.042">
      <stop offset="0" stop-color="#008751"/>
      <stop offset="1" stop-color="#1A3B5E"/>
    </linearGradient>
    <linearGradient id="Gradient_7" gradientUnits="userSpaceOnUse" x1="462.722" y1="170.042" x2="1482.803" y2="170.042">
      <stop offset="0" stop-color="#008751"/>
      <stop offset="1" stop-color="#1A3B5E"/>
    </linearGradient>
    <linearGradient id="Gradient_8" gradientUnits="userSpaceOnUse" x1="462.722" y1="170.042" x2="1482.803" y2="170.042">
      <stop offset="0" stop-color="#008751"/>
      <stop offset="1" stop-color="#1A3B5E"/>
    </linearGradient>
    <linearGradient id="Gradient_9" gradientUnits="userSpaceOnUse" x1="462.722" y1="170.042" x2="1482.803" y2="170.042">
      <stop offset="0" stop-color="#008751"/>
      <stop offset="1" stop-color="#1A3B5E"/>
    </linearGradient>
    <linearGradient id="Gradient_10" gradientUnits="userSpaceOnUse" x1="462.722" y1="170.042" x2="1482.803" y2="170.042">
      <stop offset="0" stop-color="#008751"/>
      <stop offset="1" stop-color="#1A3B5E"/>
    </linearGradient>
    <linearGradient id="Gradient_11" gradientUnits="userSpaceOnUse" x1="462.722" y1="170.042" x2="1482.803" y2="170.042">
      <stop offset="0" stop-color="#008751"/>
      <stop offset="1" stop-color="#1A3B5E"/>
    </linearGradient>
    <linearGradient id="Gradient_12" gradientUnits="userSpaceOnUse" x1="462.722" y1="170.042" x2="1482.803" y2="170.042">
      <stop offset="0" stop-color="#008751"/>
      <stop offset="1" stop-color="#1A3B5E"/>
    </linearGradient>
    <linearGradient id="Gradient_13" gradientUnits="userSpaceOnUse" x1="462.722" y1="170.042" x2="1482.803" y2="170.042">
      <stop offset="0" stop-color="#008751"/>
      <stop offset="1" stop-color="#1A3B5E"/>
    </linearGradient>
    <linearGradient id="Gradient_14" gradientUnits="userSpaceOnUse" x1="462.722" y1="170.042" x2="1482.803" y2="170.042">
      <stop offset="0" stop-color="#008751"/>
      <stop offset="1" stop-color="#1A3B5E"/>
    </linearGradient>
    <linearGradient id="Gradient_15" gradientUnits="userSpaceOnUse" x1="478.875" y1="266.333" x2="1458.914" y2="266.333">
      <stop offset="0" stop-color="#008751"/>
      <stop offset="1" stop-color="#1A3B5E"/>
    </linearGradient>
    <linearGradient id="Gradient_16" gradientUnits="userSpaceOnUse" x1="478.875" y1="266.333" x2="1458.914" y2="266.333">
      <stop offset="0" stop-color="#008751"/>
      <stop offset="1" stop-color="#1A3B5E"/>
    </linearGradient>
    <linearGradient id="Gradient_17" gradientUnits="userSpaceOnUse" x1="478.875" y1="266.333" x2="1458.914" y2="266.333">
      <stop offset="0" stop-color="#008751"/>
      <stop offset="1" stop-color="#1A3B5E"/>
    </linearGradient>
    <linearGradient id="Gradient_18" gradientUnits="userSpaceOnUse" x1="478.875" y1="266.333" x2="1458.914" y2="266.333">
      <stop offset="0" stop-color="#008751"/>
      <stop offset="1" stop-color="#1A3B5E"/>
    </linearGradient>
    <linearGradient id="Gradient_19" gradientUnits="userSpaceOnUse" x1="478.875" y1="266.333" x2="1458.914" y2="266.333">
      <stop offset="0" stop-color="#008751"/>
      <stop offset="1" stop-color="#1A3B5E"/>
    </linearGradient>
    <linearGradient id="Gradient_20" gradientUnits="userSpaceOnUse" x1="478.875" y1="266.333" x2="1458.914" y2="266.333">
      <stop offset="0" stop-color="#008751"/>
      <stop offset="1" stop-color="#1A3B5E"/>
    </linearGradient>
    <linearGradient id="Gradient_21" gradientUnits="userSpaceOnUse" x1="478.875" y1="266.333" x2="1458.914" y2="266.333">
      <stop offset="0" stop-color="#008751"/>
      <stop offset="1" stop-color="#1A3B5E"/>
    </linearGradient>
    <linearGradient id="Gradient_22" gradientUnits="userSpaceOnUse" x1="478.875" y1="266.333" x2="1458.914" y2="266.333">
      <stop offset="0" stop-color="#008751"/>
      <stop offset="1" stop-color="#1A3B5E"/>
    </linearGradient>
    <linearGradient id="Gradient_23" gradientUnits="userSpaceOnUse" x1="478.875" y1="266.333" x2="1458.914" y2="266.333">
      <stop offset="0" stop-color="#008751"/>
      <stop offset="1" stop-color="#1A3B5E"/>
    </linearGradient>
    <linearGradient id="Gradient_24" gradientUnits="userSpaceOnUse" x1="478.875" y1="266.333" x2="1458.914" y2="266.333">
      <stop offset="0" stop-color="#008751"/>
      <stop offset="1" stop-color="#1A3B5E"/>
    </linearGradient>
    <linearGradient id="Gradient_25" gradientUnits="userSpaceOnUse" x1="478.875" y1="266.333" x2="1458.914" y2="266.333">
      <stop offset="0" stop-color="#008751"/>
      <stop offset="1" stop-color="#1A3B5E"/>
    </linearGradient>
    <linearGradient id="Gradient_26" gradientUnits="userSpaceOnUse" x1="478.875" y1="266.333" x2="1458.914" y2="266.333">
      <stop offset="0" stop-color="#008751"/>
      <stop offset="1" stop-color="#1A3B5E"/>
    </linearGradient>
    <linearGradient id="Gradient_27" gradientUnits="userSpaceOnUse" x1="478.875" y1="266.333" x2="1458.914" y2="266.333">
      <stop offset="0" stop-color="#008751"/>
      <stop offset="1" stop-color="#1A3B5E"/>
    </linearGradient>
    <linearGradient id="Gradient_28" gradientUnits="userSpaceOnUse" x1="478.875" y1="266.333" x2="1458.914" y2="266.333">
      <stop offset="0" stop-color="#008751"/>
      <stop offset="1" stop-color="#1A3B5E"/>
    </linearGradient>
    <linearGradient id="Gradient_29" gradientUnits="userSpaceOnUse" x1="478.875" y1="266.333" x2="1458.914" y2="266.333">
      <stop offset="0" stop-color="#008751"/>
      <stop offset="1" stop-color="#1A3B5E"/>
    </linearGradient>
    <linearGradient id="Gradient_30" gradientUnits="userSpaceOnUse" x1="478.875" y1="266.333" x2="1458.914" y2="266.333">
      <stop offset="0" stop-color="#008751"/>
      <stop offset="1" stop-color="#1A3B5E"/>
    </linearGradient>
    <linearGradient id="Gradient_31" gradientUnits="userSpaceOnUse" x1="478.875" y1="266.333" x2="1458.914" y2="266.333">
      <stop offset="0" stop-color="#008751"/>
      <stop offset="1" stop-color="#1A3B5E"/>
    </linearGradient>
    <linearGradient id="Gradient_32" gradientUnits="userSpaceOnUse" x1="478.875" y1="266.333" x2="1458.914" y2="266.333">
      <stop offset="0" stop-color="#008751"/>
      <stop offset="1" stop-color="#1A3B5E"/>
    </linearGradient>
    <linearGradient id="Gradient_33" gradientUnits="userSpaceOnUse" x1="478.875" y1="266.333" x2="1458.914" y2="266.333">
      <stop offset="0" stop-color="#008751"/>
      <stop offset="1" stop-color="#1A3B5E"/>
    </linearGradient>
    <linearGradient id="Gradient_34" gradientUnits="userSpaceOnUse" x1="478.875" y1="266.333" x2="1458.914" y2="266.333">
      <stop offset="0" stop-color="#008751"/>
      <stop offset="1" stop-color="#1A3B5E"/>
    </linearGradient>
    <linearGradient id="Gradient_35" gradientUnits="userSpaceOnUse" x1="478.875" y1="266.333" x2="1458.914" y2="266.333">
      <stop offset="0" stop-color="#008751"/>
      <stop offset="1" stop-color="#1A3B5E"/>
    </linearGradient>
    <linearGradient id="Gradient_36" gradientUnits="userSpaceOnUse" x1="478.875" y1="266.333" x2="1458.914" y2="266.333">
      <stop offset="0" stop-color="#008751"/>
      <stop offset="1" stop-color="#1A3B5E"/>
    </linearGradient>
  </defs>
  <g id="Layer_1_Copy">
    <path d="M211.495,23.5 L225.365,23.5 C263.464,24.902 301.093,37.381 331.996,59.422 C366.651,83.866 392.8,119.801 404.915,160.078 C409.707,175.674 412.212,191.882 413,208.154 L413,221.821 C411.538,259.909 398.47,297.52 375.435,328.198 C351.777,360.039 317.937,384.421 279.888,396.787 C262.358,402.595 243.963,405.636 225.505,406.5 L210.618,406.5 C172.252,404.798 134.42,392.031 103.516,369.514 C70.362,345.646 45.179,311.213 32.924,272.6 C27.623,256.204 24.826,239.094 24,221.922 L24,208.429 C25.665,172.094 42.98,137.248 70.044,112.691 C103.249,82.076 148.912,65.204 194.321,65.98 C223.623,66.381 252.773,74.917 277.409,90.563 C312,112.341 338.2,147.687 346.196,187.589 C351.764,214.637 347.963,243.612 334.653,267.994 C320.085,294.541 296.173,317.334 266.413,326.245 C230.335,337.347 188.181,324.668 164.65,295.543 C152.701,280.886 147.565,261.11 150.997,242.611 C153.514,228.518 160.735,214.662 172.862,206.351 C181.202,200.519 192.198,198.541 202.05,201.395 C203.156,201.457 205.877,202.534 203.728,203.823 C191.359,216.076 191.613,237.404 203.347,249.996 C214.559,263.05 236.17,264.99 249.734,254.389 C269.273,239.182 274.676,208.817 260.998,188.177 C242.832,159.528 203.982,146.248 171.477,156.373 C150.12,162.719 132.793,178.402 121.148,196.751 C109.3,215.075 103.491,237.229 105.626,258.895 C108.093,285.868 121.682,311.151 141.107,330.05 C166.849,355.433 203.639,369.877 240.124,367.674 C270.621,366.072 299.669,353.143 323.199,334.343 C349.934,311.889 368.799,280.473 375.562,246.504 C382.147,214.236 377.99,180.104 364.502,150.04 C349.565,116.884 324.483,87.922 292.563,69.56 C260.476,50.886 222.314,43.251 185.282,46.33 C140.242,49.935 96.461,68.772 63.637,99.412 C97.796,53.714 154.01,25.39 211.495,23.5 M75.384,151.818 C66.943,154.358 60.129,161.505 58.235,170.004 C56.099,178.565 59.175,188.077 65.824,193.948 C72.828,200.406 83.71,202.283 92.52,198.566 C100.313,195.449 106.237,188.265 107.699,180.117 C109.237,172.307 106.618,163.858 100.91,158.226 C94.516,151.605 84.219,149.014 75.384,151.818 M59.976,218.129 C54.065,219.731 49.577,225.238 49.272,231.271 C48.599,239.494 56.162,247.18 64.565,246.629 C73.07,246.591 80.151,238.18 78.638,229.932 C77.583,221.559 68.176,215.538 59.976,218.129 M63.879,264.59 C57.739,267.043 56.963,276.293 62.569,279.747 C67.642,283.514 75.79,280.047 76.49,273.827 C77.812,267.256 69.917,261.335 63.879,264.59 z" fill="url(#Gradient_1)"/>
    <path d="M538.726,220.667 L522.905,220.667 L522.905,177.227 L478.477,177.227 L478.477,220.667 L462.722,220.667 L462.722,124.295 L478.477,124.295 L478.477,163.714 L522.905,163.714 L522.905,124.295 L538.726,124.295 z" fill="url(#Gradient_2)"/>
    <path d="M594.294,221.985 Q577.288,221.985 567.697,212.064 Q558.106,202.144 558.106,184.741 Q558.106,166.878 567.004,156.66 Q575.903,146.443 591.46,146.443 Q605.896,146.443 614.268,155.21 Q622.639,163.977 622.639,179.336 L622.639,187.708 L574.058,187.708 Q574.387,198.32 579.793,204.022 Q585.198,209.724 595.02,209.724 Q601.48,209.724 607.05,208.505 Q612.62,207.285 619.014,204.451 L619.014,217.041 Q613.345,219.744 607.544,220.864 Q601.743,221.985 594.294,221.985 z M591.46,158.176 Q584.077,158.176 579.628,162.857 Q575.178,167.537 574.321,176.502 L607.412,176.502 Q607.28,167.471 603.062,162.824 Q598.843,158.176 591.46,158.176 z" fill="url(#Gradient_3)"/>
    <path d="M685.855,220.667 L682.756,210.515 L682.229,210.515 Q676.956,217.173 671.616,219.579 Q666.277,221.985 657.905,221.985 Q647.161,221.985 641.129,216.184 Q635.098,210.383 635.098,199.771 Q635.098,188.499 643.469,182.764 Q651.841,177.029 668.98,176.502 L681.57,176.106 L681.57,172.217 Q681.57,165.23 678.307,161.769 Q675.044,158.308 668.189,158.308 Q662.586,158.308 657.444,159.956 Q652.302,161.604 647.556,163.845 L642.546,152.771 Q648.479,149.673 655.532,148.058 Q662.586,146.443 668.848,146.443 Q682.756,146.443 689.843,152.508 Q696.929,158.572 696.929,171.558 L696.929,220.667 z M662.783,210.12 Q671.221,210.12 676.329,205.407 Q681.438,200.694 681.438,192.19 L681.438,185.862 L672.078,186.258 Q661.135,186.653 656.159,189.916 Q651.182,193.179 651.182,199.903 Q651.182,204.78 654.082,207.45 Q656.982,210.12 662.783,210.12 z" fill="url(#Gradient_4)"/>
    <path d="M734.041,220.667 L718.55,220.667 L718.55,118.098 L734.041,118.098 z" fill="url(#Gradient_5)"/>
    <path d="M783.347,209.461 Q789.016,209.461 794.685,207.681 L794.685,219.348 Q792.114,220.469 788.06,221.227 Q784.006,221.985 779.656,221.985 Q757.639,221.985 757.639,198.782 L757.639,159.495 L747.686,159.495 L747.686,152.639 L758.364,146.97 L763.638,131.546 L773.196,131.546 L773.196,147.761 L793.96,147.761 L793.96,159.495 L773.196,159.495 L773.196,198.518 Q773.196,204.121 775.997,206.791 Q778.799,209.461 783.347,209.461 z" fill="url(#Gradient_6)"/>
    <path d="M873.391,220.667 L857.835,220.667 L857.835,175.842 Q857.835,167.405 854.44,163.252 Q851.045,159.099 843.662,159.099 Q833.906,159.099 829.325,164.933 Q824.744,170.767 824.744,184.478 L824.744,220.667 L809.253,220.667 L809.253,118.098 L824.744,118.098 L824.744,144.136 Q824.744,150.398 823.953,157.517 L824.941,157.517 Q828.106,152.244 833.742,149.343 Q839.378,146.443 846.892,146.443 Q873.391,146.443 873.391,173.14 z" fill="url(#Gradient_7)"/>
    <path d="M991.45,220.667 L981.826,193.904 L944.978,193.904 L935.552,220.667 L918.94,220.667 L954.998,123.899 L972.136,123.899 L1008.193,220.667 z M977.673,180.325 L968.643,154.09 Q967.654,151.453 965.907,145.784 Q964.16,140.115 963.501,137.478 Q961.721,145.586 958.294,155.21 L949.592,180.325 z" fill="url(#Gradient_8)"/>
    <path d="M1070.684,220.667 L1068.508,211.109 L1067.717,211.109 Q1064.487,216.184 1058.522,219.085 Q1052.556,221.985 1044.91,221.985 Q1031.66,221.985 1025.134,215.393 Q1018.608,208.801 1018.608,195.42 L1018.608,147.761 L1034.231,147.761 L1034.231,192.717 Q1034.231,201.089 1037.659,205.275 Q1041.086,209.461 1048.403,209.461 Q1058.159,209.461 1062.74,203.627 Q1067.322,197.793 1067.322,184.082 L1067.322,147.761 L1082.878,147.761 L1082.878,220.667 z" fill="url(#Gradient_9)"/>
    <path d="M1129.548,221.985 Q1115.903,221.985 1108.257,212.097 Q1100.61,202.21 1100.61,184.346 Q1100.61,166.416 1108.356,156.43 Q1116.101,146.443 1129.812,146.443 Q1144.182,146.443 1151.697,157.056 L1152.488,157.056 Q1151.367,149.212 1151.367,144.663 L1151.367,118.098 L1166.924,118.098 L1166.924,220.667 L1154.795,220.667 L1152.092,211.109 L1151.367,211.109 Q1143.918,221.985 1129.548,221.985 z M1133.701,209.461 Q1143.259,209.461 1147.61,204.088 Q1151.96,198.716 1152.092,186.653 L1152.092,184.478 Q1152.092,170.701 1147.61,164.9 Q1143.127,159.099 1133.569,159.099 Q1125.396,159.099 1120.979,165.724 Q1116.562,172.349 1116.562,184.61 Q1116.562,196.738 1120.847,203.1 Q1125.132,209.461 1133.701,209.461 z" fill="url(#Gradient_10)"/>
    <path d="M1204.563,220.667 L1189.072,220.667 L1189.072,147.761 L1204.563,147.761 z M1188.149,128.447 Q1188.149,124.295 1190.424,122.053 Q1192.698,119.812 1196.917,119.812 Q1201.003,119.812 1203.278,122.053 Q1205.552,124.295 1205.552,128.447 Q1205.552,132.403 1203.278,134.677 Q1201.003,136.951 1196.917,136.951 Q1192.698,136.951 1190.424,134.677 Q1188.149,132.403 1188.149,128.447 z" fill="url(#Gradient_11)"/>
    <path d="M1253.87,209.461 Q1259.539,209.461 1265.208,207.681 L1265.208,219.348 Q1262.637,220.469 1258.583,221.227 Q1254.529,221.985 1250.178,221.985 Q1228.162,221.985 1228.162,198.782 L1228.162,159.495 L1218.208,159.495 L1218.208,152.639 L1228.887,146.97 L1234.16,131.546 L1243.718,131.546 L1243.718,147.761 L1264.482,147.761 L1264.482,159.495 L1243.718,159.495 L1243.718,198.518 Q1243.718,204.121 1246.52,206.791 Q1249.321,209.461 1253.87,209.461 z" fill="url(#Gradient_12)"/>
    <path d="M1396.78,220.667 L1377.466,220.667 L1330.071,143.872 L1329.543,143.872 L1329.873,148.157 Q1330.796,160.418 1330.796,170.569 L1330.796,220.667 L1316.492,220.667 L1316.492,124.295 L1335.608,124.295 L1382.871,200.694 L1383.267,200.694 Q1383.135,199.177 1382.739,189.652 Q1382.344,180.127 1382.344,174.788 L1382.344,124.295 L1396.78,124.295 z" fill="url(#Gradient_13)"/>
    <path d="M1482.803,220.667 L1413.853,220.667 L1413.853,209.724 L1462.434,137.808 L1415.171,137.808 L1415.171,124.295 L1481.484,124.295 L1481.484,135.369 L1432.705,207.154 L1482.803,207.154 z" fill="url(#Gradient_14)"/>
    <path d="M508.172,296.333 L508.172,268.638 Q508.172,263.404 505.789,260.826 Q503.406,258.247 498.328,258.247 Q491.57,258.247 488.465,261.919 Q485.359,265.591 485.359,273.951 L485.359,296.333 L478.875,296.333 L478.875,235.552 L485.359,235.552 L485.359,253.951 Q485.359,257.271 485.047,259.458 L485.438,259.458 Q487.352,256.372 490.887,254.595 Q494.422,252.818 498.953,252.818 Q506.805,252.818 510.731,256.548 Q514.656,260.279 514.656,268.404 L514.656,296.333 z" fill="url(#Gradient_15)"/>
    <path d="M554.305,296.333 L553.016,290.24 L552.703,290.24 Q549.5,294.263 546.316,295.689 Q543.133,297.115 538.367,297.115 Q532,297.115 528.387,293.833 Q524.773,290.552 524.773,284.497 Q524.773,271.529 545.516,270.904 L552.781,270.669 L552.781,268.013 Q552.781,262.974 550.613,260.572 Q548.445,258.169 543.68,258.169 Q538.328,258.169 531.57,261.451 L529.578,256.49 Q532.742,254.771 536.512,253.794 Q540.281,252.818 544.07,252.818 Q551.727,252.818 555.418,256.216 Q559.109,259.615 559.109,267.115 L559.109,296.333 z M539.656,291.763 Q545.711,291.763 549.168,288.443 Q552.625,285.122 552.625,279.146 L552.625,275.279 L546.141,275.552 Q538.406,275.826 534.988,277.954 Q531.57,280.083 531.57,284.576 Q531.57,288.091 533.699,289.927 Q535.828,291.763 539.656,291.763 z" fill="url(#Gradient_16)"/>
    <path d="M578.563,253.521 L578.563,281.294 Q578.563,286.529 580.945,289.107 Q583.328,291.685 588.406,291.685 Q595.125,291.685 598.231,288.013 Q601.336,284.341 601.336,276.021 L601.336,253.521 L607.82,253.521 L607.82,296.333 L602.469,296.333 L601.531,290.591 L601.18,290.591 Q599.188,293.755 595.652,295.435 Q592.117,297.115 587.586,297.115 Q579.773,297.115 575.887,293.404 Q572,289.693 572,281.529 L572,253.521 z" fill="url(#Gradient_17)"/>
    <path d="M658.523,274.888 Q658.523,285.357 653.25,291.236 Q647.977,297.115 638.68,297.115 Q632.938,297.115 628.484,294.419 Q624.031,291.724 621.609,286.685 Q619.188,281.646 619.188,274.888 Q619.188,264.419 624.422,258.579 Q629.656,252.74 638.953,252.74 Q647.938,252.74 653.231,258.716 Q658.523,264.693 658.523,274.888 z M625.906,274.888 Q625.906,283.091 629.188,287.388 Q632.469,291.685 638.836,291.685 Q645.203,291.685 648.504,287.408 Q651.805,283.13 651.805,274.888 Q651.805,266.724 648.504,262.486 Q645.203,258.247 638.758,258.247 Q632.391,258.247 629.148,262.427 Q625.906,266.607 625.906,274.888 z" fill="url(#Gradient_18)"/>
    <path d="M689.422,252.74 Q692.273,252.74 694.539,253.208 L693.641,259.224 Q690.984,258.638 688.953,258.638 Q683.758,258.638 680.066,262.857 Q676.375,267.076 676.375,273.365 L676.375,296.333 L669.891,296.333 L669.891,253.521 L675.242,253.521 L675.984,261.451 L676.297,261.451 Q678.68,257.271 682.039,255.005 Q685.398,252.74 689.422,252.74 z" fill="url(#Gradient_19)"/>
    <path d="M727.273,296.333 L725.984,290.24 L725.672,290.24 Q722.469,294.263 719.285,295.689 Q716.102,297.115 711.336,297.115 Q704.969,297.115 701.356,293.833 Q697.742,290.552 697.742,284.497 Q697.742,271.529 718.484,270.904 L725.75,270.669 L725.75,268.013 Q725.75,262.974 723.582,260.572 Q721.414,258.169 716.648,258.169 Q711.297,258.169 704.539,261.451 L702.547,256.49 Q705.711,254.771 709.481,253.794 Q713.25,252.818 717.039,252.818 Q724.695,252.818 728.387,256.216 Q732.078,259.615 732.078,267.115 L732.078,296.333 z M712.625,291.763 Q718.68,291.763 722.137,288.443 Q725.594,285.122 725.594,279.146 L725.594,275.279 L719.109,275.552 Q711.375,275.826 707.957,277.954 Q704.539,280.083 704.539,284.576 Q704.539,288.091 706.668,289.927 Q708.797,291.763 712.625,291.763 z" fill="url(#Gradient_20)"/>
    <path d="M792.547,296.333 L791.258,290.24 L790.945,290.24 Q787.742,294.263 784.559,295.689 Q781.375,297.115 776.609,297.115 Q770.242,297.115 766.629,293.833 Q763.016,290.552 763.016,284.497 Q763.016,271.529 783.758,270.904 L791.023,270.669 L791.023,268.013 Q791.023,262.974 788.856,260.572 Q786.688,258.169 781.922,258.169 Q776.57,258.169 769.813,261.451 L767.82,256.49 Q770.984,254.771 774.754,253.794 Q778.523,252.818 782.313,252.818 Q789.969,252.818 793.66,256.216 Q797.352,259.615 797.352,267.115 L797.352,296.333 z M777.898,291.763 Q783.953,291.763 787.41,288.443 Q790.867,285.122 790.867,279.146 L790.867,275.279 L784.383,275.552 Q776.648,275.826 773.231,277.954 Q769.813,280.083 769.813,284.576 Q769.813,288.091 771.941,289.927 Q774.07,291.763 777.898,291.763 z" fill="url(#Gradient_21)"/>
    <path d="M830.242,252.74 Q833.094,252.74 835.359,253.208 L834.461,259.224 Q831.805,258.638 829.773,258.638 Q824.578,258.638 820.887,262.857 Q817.195,267.076 817.195,273.365 L817.195,296.333 L810.711,296.333 L810.711,253.521 L816.063,253.521 L816.805,261.451 L817.117,261.451 Q819.5,257.271 822.859,255.005 Q826.219,252.74 830.242,252.74 z" fill="url(#Gradient_22)"/>
    <path d="M878.719,274.888 Q878.719,285.357 873.445,291.236 Q868.172,297.115 858.875,297.115 Q853.133,297.115 848.68,294.419 Q844.227,291.724 841.805,286.685 Q839.383,281.646 839.383,274.888 Q839.383,264.419 844.617,258.579 Q849.852,252.74 859.148,252.74 Q868.133,252.74 873.426,258.716 Q878.719,264.693 878.719,274.888 z M846.102,274.888 Q846.102,283.091 849.383,287.388 Q852.664,291.685 859.031,291.685 Q865.398,291.685 868.699,287.408 Q872,283.13 872,274.888 Q872,266.724 868.699,262.486 Q865.398,258.247 858.953,258.247 Q852.586,258.247 849.344,262.427 Q846.102,266.607 846.102,274.888 z" fill="url(#Gradient_23)"/>
    <path d="M903.914,291.763 Q905.633,291.763 907.234,291.509 Q908.836,291.255 909.773,290.982 L909.773,295.943 Q908.719,296.451 906.668,296.783 Q904.617,297.115 902.977,297.115 Q890.555,297.115 890.555,284.029 L890.555,258.56 L884.422,258.56 L884.422,255.435 L890.555,252.74 L893.289,243.599 L897.039,243.599 L897.039,253.521 L909.461,253.521 L909.461,258.56 L897.039,258.56 L897.039,283.755 Q897.039,287.622 898.875,289.693 Q900.711,291.763 903.914,291.763 z" fill="url(#Gradient_24)"/>
    <path d="M944.656,296.333 L943.367,290.24 L943.055,290.24 Q939.852,294.263 936.668,295.689 Q933.484,297.115 928.719,297.115 Q922.352,297.115 918.738,293.833 Q915.125,290.552 915.125,284.497 Q915.125,271.529 935.867,270.904 L943.133,270.669 L943.133,268.013 Q943.133,262.974 940.965,260.572 Q938.797,258.169 934.031,258.169 Q928.68,258.169 921.922,261.451 L919.93,256.49 Q923.094,254.771 926.863,253.794 Q930.633,252.818 934.422,252.818 Q942.078,252.818 945.77,256.216 Q949.461,259.615 949.461,267.115 L949.461,296.333 z M930.008,291.763 Q936.063,291.763 939.52,288.443 Q942.977,285.122 942.977,279.146 L942.977,275.279 L936.492,275.552 Q928.758,275.826 925.34,277.954 Q921.922,280.083 921.922,284.576 Q921.922,288.091 924.051,289.927 Q926.18,291.763 930.008,291.763 z" fill="url(#Gradient_25)"/>
    <path d="M969.227,274.419 Q970.906,272.036 974.344,268.169 L988.172,253.521 L995.867,253.521 L978.523,271.763 L997.078,296.333 L989.227,296.333 L974.109,276.099 L969.227,280.318 L969.227,296.333 L962.82,296.333 L962.82,235.552 L969.227,235.552 L969.227,267.779 Q969.227,269.927 968.914,274.419 z" fill="url(#Gradient_26)"/>
    <path d="M1021.297,297.115 Q1011.805,297.115 1006.316,291.333 Q1000.828,285.552 1000.828,275.279 Q1000.828,264.927 1005.926,258.833 Q1011.023,252.74 1019.617,252.74 Q1027.664,252.74 1032.352,258.033 Q1037.039,263.326 1037.039,271.997 L1037.039,276.099 L1007.547,276.099 Q1007.742,283.638 1011.356,287.544 Q1014.969,291.451 1021.531,291.451 Q1028.445,291.451 1035.203,288.56 L1035.203,294.341 Q1031.766,295.826 1028.699,296.47 Q1025.633,297.115 1021.297,297.115 z M1019.539,258.169 Q1014.383,258.169 1011.316,261.529 Q1008.25,264.888 1007.703,270.826 L1030.086,270.826 Q1030.086,264.693 1027.352,261.431 Q1024.617,258.169 1019.539,258.169 z" fill="url(#Gradient_27)"/>
    <path d="M1105.828,274.888 Q1105.828,285.357 1100.555,291.236 Q1095.281,297.115 1085.984,297.115 Q1080.242,297.115 1075.789,294.419 Q1071.336,291.724 1068.914,286.685 Q1066.492,281.646 1066.492,274.888 Q1066.492,264.419 1071.727,258.579 Q1076.961,252.74 1086.258,252.74 Q1095.242,252.74 1100.535,258.716 Q1105.828,264.693 1105.828,274.888 z M1073.211,274.888 Q1073.211,283.091 1076.492,287.388 Q1079.774,291.685 1086.141,291.685 Q1092.508,291.685 1095.809,287.408 Q1099.109,283.13 1099.109,274.888 Q1099.109,266.724 1095.809,262.486 Q1092.508,258.247 1086.063,258.247 Q1079.695,258.247 1076.453,262.427 Q1073.211,266.607 1073.211,274.888 z" fill="url(#Gradient_28)"/>
    <path d="M1164.305,296.333 L1163.016,290.24 L1162.703,290.24 Q1159.5,294.263 1156.317,295.689 Q1153.133,297.115 1148.367,297.115 Q1142,297.115 1138.387,293.833 Q1134.774,290.552 1134.774,284.497 Q1134.774,271.529 1155.516,270.904 L1162.781,270.669 L1162.781,268.013 Q1162.781,262.974 1160.613,260.572 Q1158.445,258.169 1153.68,258.169 Q1148.328,258.169 1141.57,261.451 L1139.578,256.49 Q1142.742,254.771 1146.512,253.794 Q1150.281,252.818 1154.07,252.818 Q1161.727,252.818 1165.418,256.216 Q1169.109,259.615 1169.109,267.115 L1169.109,296.333 z M1149.656,291.763 Q1155.711,291.763 1159.168,288.443 Q1162.625,285.122 1162.625,279.146 L1162.625,275.279 L1156.141,275.552 Q1148.406,275.826 1144.988,277.954 Q1141.57,280.083 1141.57,284.576 Q1141.57,288.091 1143.699,289.927 Q1145.828,291.763 1149.656,291.763 z" fill="url(#Gradient_29)"/>
    <path d="M1219.422,274.888 Q1219.422,285.357 1214.149,291.236 Q1208.875,297.115 1199.578,297.115 Q1193.836,297.115 1189.383,294.419 Q1184.93,291.724 1182.508,286.685 Q1180.086,281.646 1180.086,274.888 Q1180.086,264.419 1185.32,258.579 Q1190.555,252.74 1199.852,252.74 Q1208.836,252.74 1214.129,258.716 Q1219.422,264.693 1219.422,274.888 z M1186.805,274.888 Q1186.805,283.091 1190.086,287.388 Q1193.367,291.685 1199.734,291.685 Q1206.102,291.685 1209.402,287.408 Q1212.703,283.13 1212.703,274.888 Q1212.703,266.724 1209.402,262.486 Q1206.102,258.247 1199.656,258.247 Q1193.289,258.247 1190.047,262.427 Q1186.805,266.607 1186.805,274.888 z" fill="url(#Gradient_30)"/>
    <path d="M1244.617,291.763 Q1246.336,291.763 1247.938,291.509 Q1249.539,291.255 1250.477,290.982 L1250.477,295.943 Q1249.422,296.451 1247.371,296.783 Q1245.32,297.115 1243.68,297.115 Q1231.258,297.115 1231.258,284.029 L1231.258,258.56 L1225.125,258.56 L1225.125,255.435 L1231.258,252.74 L1233.992,243.599 L1237.742,243.599 L1237.742,253.521 L1250.164,253.521 L1250.164,258.56 L1237.742,258.56 L1237.742,283.755 Q1237.742,287.622 1239.578,289.693 Q1241.414,291.763 1244.617,291.763 z" fill="url(#Gradient_31)"/>
    <path d="M1277.117,297.115 Q1267.625,297.115 1262.137,291.333 Q1256.649,285.552 1256.649,275.279 Q1256.649,264.927 1261.746,258.833 Q1266.844,252.74 1275.438,252.74 Q1283.484,252.74 1288.172,258.033 Q1292.859,263.326 1292.859,271.997 L1292.859,276.099 L1263.367,276.099 Q1263.563,283.638 1267.176,287.544 Q1270.789,291.451 1277.352,291.451 Q1284.266,291.451 1291.024,288.56 L1291.024,294.341 Q1287.586,295.826 1284.52,296.47 Q1281.453,297.115 1277.117,297.115 z M1275.359,258.169 Q1270.203,258.169 1267.137,261.529 Q1264.07,264.888 1263.524,270.826 L1285.906,270.826 Q1285.906,264.693 1283.172,261.431 Q1280.438,258.169 1275.359,258.169 z" fill="url(#Gradient_32)"/>
    <path d="M1330.242,296.333 L1328.953,290.24 L1328.641,290.24 Q1325.438,294.263 1322.254,295.689 Q1319.07,297.115 1314.305,297.115 Q1307.938,297.115 1304.324,293.833 Q1300.711,290.552 1300.711,284.497 Q1300.711,271.529 1321.453,270.904 L1328.719,270.669 L1328.719,268.013 Q1328.719,262.974 1326.551,260.572 Q1324.383,258.169 1319.617,258.169 Q1314.266,258.169 1307.508,261.451 L1305.516,256.49 Q1308.68,254.771 1312.449,253.794 Q1316.219,252.818 1320.008,252.818 Q1327.664,252.818 1331.356,256.216 Q1335.047,259.615 1335.047,267.115 L1335.047,296.333 z M1315.594,291.763 Q1321.649,291.763 1325.106,288.443 Q1328.563,285.122 1328.563,279.146 L1328.563,275.279 L1322.078,275.552 Q1314.344,275.826 1310.926,277.954 Q1307.508,280.083 1307.508,284.576 Q1307.508,288.091 1309.637,289.927 Q1311.766,291.763 1315.594,291.763 z" fill="url(#Gradient_33)"/>
    <path d="M1367.938,252.74 Q1370.789,252.74 1373.055,253.208 L1372.156,259.224 Q1369.5,258.638 1367.469,258.638 Q1362.274,258.638 1358.582,262.857 Q1354.891,267.076 1354.891,273.365 L1354.891,296.333 L1348.406,296.333 L1348.406,253.521 L1353.758,253.521 L1354.5,261.451 L1354.813,261.451 Q1357.195,257.271 1360.555,255.005 Q1363.914,252.74 1367.938,252.74 z" fill="url(#Gradient_34)"/>
    <path d="M1416.414,274.888 Q1416.414,285.357 1411.141,291.236 Q1405.867,297.115 1396.57,297.115 Q1390.828,297.115 1386.375,294.419 Q1381.922,291.724 1379.5,286.685 Q1377.078,281.646 1377.078,274.888 Q1377.078,264.419 1382.313,258.579 Q1387.547,252.74 1396.844,252.74 Q1405.828,252.74 1411.121,258.716 Q1416.414,264.693 1416.414,274.888 z M1383.797,274.888 Q1383.797,283.091 1387.078,287.388 Q1390.359,291.685 1396.727,291.685 Q1403.094,291.685 1406.395,287.408 Q1409.695,283.13 1409.695,274.888 Q1409.695,266.724 1406.395,262.486 Q1403.094,258.247 1396.649,258.247 Q1390.281,258.247 1387.039,262.427 Q1383.797,266.607 1383.797,274.888 z" fill="url(#Gradient_35)"/>
    <path d="M1454.109,296.333 L1452.82,290.24 L1452.508,290.24 Q1449.305,294.263 1446.121,295.689 Q1442.938,297.115 1438.172,297.115 Q1431.805,297.115 1428.192,293.833 Q1424.578,290.552 1424.578,284.497 Q1424.578,271.529 1445.32,270.904 L1452.586,270.669 L1452.586,268.013 Q1452.586,262.974 1450.418,260.572 Q1448.25,258.169 1443.484,258.169 Q1438.133,258.169 1431.375,261.451 L1429.383,256.49 Q1432.547,254.771 1436.317,253.794 Q1440.086,252.818 1443.875,252.818 Q1451.531,252.818 1455.223,256.216 Q1458.914,259.615 1458.914,267.115 L1458.914,296.333 z M1439.461,291.763 Q1445.516,291.763 1448.973,288.443 Q1452.43,285.122 1452.43,279.146 L1452.43,275.279 L1445.945,275.552 Q1438.211,275.826 1434.793,277.954 Q1431.375,280.083 1431.375,284.576 Q1431.375,288.091 1433.504,289.927 Q1435.633,291.763 1439.461,291.763 z" fill="url(#Gradient_36)"/>
  </g>
</svg>
