<?xml version="1.0" encoding="utf-8"?>
<!-- Generator: Adobe Illustrator 19.0.0, SVG Export Plug-In . SVG Version: 6.00 Build 0)  -->
<svg version="1.1" id="Layer_1" xmlns="http://www.w3.org/2000/svg" xmlns:xlink="http://www.w3.org/1999/xlink" x="0px" y="0px"
	 viewBox="220 51 1400 460" style="enable-background:new 220 51 1400 460;" xml:space="preserve">
<style type="text/css">
	.st0{fill:#FFFFFF;stroke:url(#SVGID_1_);stroke-miterlimit:10;}
	.st1{fill:#FFFFFF;stroke:url(#SVGID_2_);stroke-miterlimit:10;}
	.st2{fill:#FFFFFF;stroke:url(#SVGID_3_);stroke-miterlimit:10;}
	.st3{fill:#FFFFFF;stroke:url(#SVGID_4_);stroke-miterlimit:10;}
	.st4{fill:#FFFFFF;fill-opacity:0;stroke:url(#SVGID_5_);stroke-miterlimit:10;}
	.st5{fill:#FFFFFF;stroke:url(#SVGID_6_);stroke-miterlimit:10;}
	.st6{fill:#FFFFFF;fill-opacity:0;stroke:url(#SVGID_7_);stroke-miterlimit:10;}
</style>
<g id="Layer_1_1_">
	<linearGradient id="SVGID_1_" gradientUnits="userSpaceOnUse" x1="218.8629" y1="257.125" x2="721.5591" y2="257.125">
		<stop  offset="0" style="stop-color:#FCD116"/>
		<stop  offset="1" style="stop-color:#008751"/>
	</linearGradient>
	<path class="st0" d="M475.8,144.8l2.9,0.1c2.2,0.2,5.2,0.7,5.8,3.3c1.5,5.3,0.6,10.8,0.6,16.2c-0.3,6.2,0.7,12.4,1.7,18.6
		c6.2-0.3,12.7-0.2,18.3,2.8c7.5,3.5,11.8,10.8,16.4,17.3c5.5,7.8,9.9,17.1,9.1,26.8c-0.8,7.7-5.2,15.7-12.6,18.7
		c-7.1,3.2-14.4,6-21.3,9.7c2.8,3.7,6.1,7.1,9,10.8c2.9,3.5,3,8.3,2.9,12.7c-0.2,8.4-4.8,15.9-10.1,22.2c-4.3,4.4-9.2,8.2-12.9,13.2
		c4.4,5.3,9.6,10.1,12.6,16.4c2.3,5.9,2.2,13.3-2.2,18.2c-3.6,4.1-7.9,7.5-11.6,11.3c3.5,3.9,7.4,7.6,9.9,12.3
		c1.8,3.3,2.2,7.4,0.7,10.9c-2,4.5-5.6,7.9-8.7,11.6c2.1,5.3,5.4,11,3.6,16.9c-2.2,5.6-6.9,9.5-10.5,14.2c1.8,4,4.3,7.9,4.3,12.3
		c-0.4,4.1-2.6,7.7-4,11.6c3.5,1,7.2,1.5,10.8,0.7c9.7-1.9,19.6-4,28.3-8.7c17.3-9.2,31.6-23.8,40.2-41.4
		c7.1-11.8,9.9-25.6,11.3-39.1c0.8-12.5-2-24.9-5.8-36.8c-1.9-5.8-3.7-12-7.9-16.7c-2.9-3.3-5.8-6.7-7.8-10.6
		c3.5,1.7,6.8,3.8,9.5,6.7c5.4,5.9,10.6,12.2,14,19.4c4.2,8.9,7.4,18.4,8.6,28.3c1.1,10.7,0,21.5-0.1,32.2c6-9.1,8.1-20,9.3-30.6
		c1.9-15,0-30.2-4.1-44.7c-2-6.5-5.3-12.5-7.9-18.8c-3.8-9.6-11.9-16.5-18.7-23.9c3.9,1.9,8.1,3.6,11.3,6.7c2.8,2.7,5.4,5.8,8.1,8.6
		c10.8,11.4,17.9,26,21.4,41.2c3.8,13.8,4.3,28.3,2.5,42.4c-1,7.7-3.7,15-4.6,22.7c2.9-2.9,5.6-6,7.5-9.7c4.1-8.3,7.8-16.8,10-25.8
		c2.4-9.8,5.1-19.6,5.3-29.7c0.1-5.6,0.2-11.2,0-16.8c-0.3-8.5-2.3-16.9-4.2-25.2c-2.2-9.6-5.5-19-10.5-27.5
		c-2.1-3.5-4.2-7-6.2-10.6c-4.7-8.6-11.3-16.2-19.1-22.2c-3-2.3-6-4.7-8.7-7.4c4.4,2.2,8.5,5,12.4,8.1c4.7,3.8,9.8,7.3,14,11.8
		c4.5,4.8,9.6,9.2,13.2,14.8c4.5,7.1,9.6,14,12.8,21.8c4.4,10.4,7.9,21.3,10,32.4c2.1,10.5,1.4,21.3,1.4,32
		c-0.3,22-8.6,43-19.6,61.7c-6.5,11.6-16.1,21.1-26.3,29.6c-7.7,6.7-16.1,12.4-25.1,17.3c-11.1,5.9-23.6,8.1-35,13.2h-49.7
		c-1.1-6.3-1.3-12.8-3.4-19c-2.2,4-3.7,8.4-6.4,12.1c-0.4,0-1.1-0.1-1.5-0.1c-2.8-3.6-4.3-8-6.4-12c-2,6.1-2.3,12.6-3.4,19h-49.7
		c-11.4-5-23.9-7.3-35-13.2c-9-4.9-17.4-10.6-25.1-17.3c-7.9-6.6-15.4-13.8-21.5-22.1c-7.1-10.3-12.7-21.5-17.1-33.2
		c-3.9-9.8-6.2-20.2-7-30.7c-0.4-6.6-0.3-13.3-0.3-19.9c-0.2-16.7,4.7-32.9,10.8-48.2c3.3-8.5,8.6-15.8,13.5-23.4
		c3.6-5.6,8.7-10,13.2-14.8c4.2-4.4,9.3-7.9,14-11.7c3.8-3.1,7.9-5.9,12.4-8.1c-2.7,2.6-5.7,5-8.7,7.4c-7.8,6-14.4,13.6-19.1,22.2
		c-1.8,3.3-3.8,6.6-5.8,9.9c-5.1,8.4-8.4,17.7-10.7,27.3c-2.2,9.3-4.4,18.7-4.5,28.4c-0.1,9.3-0.4,18.7,1.6,27.9
		c2.5,12,5.2,24.1,10.5,35.3c2.5,6.1,5.8,12.1,10.8,16.6c-0.9-8-3.9-15.7-4.7-23.7c-1-8.8-1.2-17.7-0.3-26.4
		c2.6-19.1,8.8-38.4,21.7-53.2c3.4-3.7,6.7-7.4,10.2-11c3.3-3.4,7.7-5.2,11.9-7.2c-6.8,7.5-14.9,14.3-18.7,23.9
		c-2.6,6.3-6,12.3-7.9,18.8c-4.2,14.8-6,30.4-3.9,45.7c1.2,10.3,3.4,20.8,9.2,29.6c-0.1-9-0.9-18.1-0.5-27.1
		c0.4-10.8,3.5-21.3,7.9-31.1c2.1-4.7,4.7-9.2,7.9-13.3c4.7-5.9,9.5-12.1,16.6-15.2c-3.3,7-10.3,11.6-12.8,19.1
		c-5.2,14-9.4,28.9-8.8,44c1.2,14.2,4.3,28.6,11.7,41c8.5,17,22.4,31.2,39.1,40.3c9,4.9,19.1,7.1,29.1,9.1c3.6,0.8,7.3,0.3,10.8-0.7
		c-1.4-3.8-3.6-7.5-4-11.6c0-4.5,2.5-8.4,4.3-12.3c-3.5-4.7-8.3-8.7-10.5-14.3c-1.8-5.9,1.5-11.6,3.6-16.9
		c-3.2-3.7-6.8-7.1-8.7-11.6c-1.6-3.5-1.1-7.6,0.7-10.9c2.5-4.7,6.4-8.4,9.9-12.3c-4.4-4.7-10-8.4-13.5-14c-3-6-2.2-13.7,1.6-19.2
		c3.1-4.6,7-8.6,10.6-12.8c-2.7-3.4-5.6-6.5-8.9-9.3c-4.5-3.8-8-8.7-10.7-13.9c-3.6-6.7-4.4-14.9-2-22.1c2.7-5.1,7.4-8.9,10.7-13.6
		c-6.1-3.2-12.5-5.9-18.9-8.6c-2.8-1.3-5.7-2.4-7.9-4.6c-5.4-5.4-8-13.3-7-20.8c0.9-8.1,4.8-15.3,9.5-21.8
		c4.4-6.2,8.7-13.3,15.9-16.6c5.6-3,12.1-3.1,18.3-2.8c1-6.1,1.9-12.3,1.7-18.6c0-5.4-0.9-10.9,0.6-16.2c0.7-3,4.2-3.2,6.7-3.4
		l4.3-0.1c4.8,0,2.4,0,7.2,0L475.8,144.8z M481.3,408.4c-1.1,0-2.2,0-3.4,0c-0.1,2.4-0.2,4.8-0.3,7.1c1.2-0.2,2.4-0.3,3.6-0.5
		C481.9,412.9,482.3,410.6,481.3,408.4L481.3,408.4z M458,408.4c-1,2.2-0.6,4.5,0.1,6.7c1.2,0.1,2.4,0.3,3.6,0.5
		c-0.1-2.4-0.2-4.8-0.3-7.1C460.2,408.4,459.1,408.4,458,408.4L458,408.4z M481.5,377.9l-0.6,0l-0.7,0.2c-1.8,2.1-1,5.1-1.3,7.6
		c1.7-0.4,3.5-0.8,5.2-1.5c1.8-2,0.8-5.7-2-6.3L481.5,377.9z M458.4,377.9c-3.4-0.1-5.3,3.6-3.2,6.3c1.6,0.7,3.4,1,5.1,1.5
		c-0.2-2.5,0.5-5.5-1.2-7.7L458.4,377.9z M484.2,336.1c-0.9,1.6-1.9,3.2-2.5,4.9c0.2,2,0.8,3.9,1.3,5.9c1.4-1.6,3-3,3.8-4.9
		C486.2,339.9,485.1,338,484.2,336.1L484.2,336.1z M455.1,336.1c-0.9,1.9-2,3.8-2.6,5.9c0.9,1.9,2.5,3.3,3.8,4.9
		c0.5-2,1.1-3.9,1.3-5.9C457,339.3,456,337.7,455.1,336.1L455.1,336.1z M455.7,271.5c-2.4,0.6-5.2,0.8-7.1,2.6
		c-2,1.9-3.5,4.7-3.2,7.5c0.6,6,4.4,11.6,10.1,13.9C457,287.6,456.9,279.4,455.7,271.5L455.7,271.5z M483.6,271.4
		c-1.3,8-1.3,16.1,0.2,24c5.7-2.2,9.5-7.9,10.1-13.9c0.2-2.9-1.2-5.6-3.2-7.5C488.8,272.2,486,272.1,483.6,271.4L483.6,271.4z
		 M488.6,189.7c-1.4,1.8-3.1,3.6-3.4,5.9c-1.8,9.2-1.2,18.7-1.3,28c-0.1,6.6,0,13.2,1,19.8c7.9,1,15.4-2.2,22.3-5.8
		c3.3-1.8,6.9-4.4,7.5-8.4c0.9-5.7-1.4-11.8-5.8-15.5c-4.4-3.8-9.9-6.4-13.4-11.2C492.6,198.4,490.8,193.9,488.6,189.7L488.6,189.7z
		 M450.7,189.7c-3,5.6-5.1,11.9-10,16.2c-4.8,4.4-11.7,7-14.5,13.4c-2.2,4.7-2.8,11.3,1.4,15.1c4.2,3.7,9.5,5.7,14.7,7.6
		c3.9,1.5,8,1.7,12.1,1.4c1-6.5,1.1-13.2,0.9-19.8c-0.1-9.4,0.5-18.8-1.3-28C453.8,193.2,452.1,191.4,450.7,189.7L450.7,189.7z
		 M670.9,56h-3.2c-0.4,3.6-0.5,7.7-3.1,10.6c-5,5.8-10.4,11.5-17.2,15.2c-9.8,5.5-20.6,9-31.4,12.2c-16.2,4.8-33.1,6.1-49.7,8.5
		c-7.5,1.2-15.2,2.4-22.1,5.8c-9.8,4.8-18.7,11.6-26.4,19.3c-3.6,3.5-7.2,7.1-11.7,9.5c-4.2,2.3-9.1,4.1-12,8.1
		c-1.9,2.7-3.7,5.9-3.8,9.4c0.6,3.9,3.1,7.2,3.6,11.1c0.3,2.9,0.2,5.8,0.2,8.7c5.2-3.3,9.3-7.9,13-12.8c2.5,2.6,4.7,5.6,5.5,9.2
		c3.1,11.5,7.6,23.2,16.3,31.6c5.6,5.9,13.2,10.3,21.5,10.7c6.3,0.3,12.6-1,19-0.6c-2.3-1.1-4.7-2.1-7-3.2
		c-8.1-3.7-14.4-10.2-21-16.1c-4.7-4.2-8.1-9.6-10.3-15.5c7.7,0.7,15.4,1.4,23.1-0.2c-1.2-2.4-2.3-4.7-3.4-7.1
		c6,0.3,12.2,0.5,18-1.4c-5.3-5.5-12.7-8.1-18.6-12.8c5.6-0.1,11.1,1,16.7,1.3c3.7,0.3,7.3-0.9,10.8-2.2c-6-5-14.2-5.6-20.4-10.2
		c7.2-0.4,14.4,1.2,21.6,0.3c3.7-0.4,6.5-2.9,9.2-5.2c-5.8-2.5-11.9-4.1-17.7-6.4c8.8-3.4,18.4-1.5,27.6-2
		c15.6-0.8,31.1-2.4,46.3-5.8c19.5-4.7,38.6-11.7,55.4-22.8c3.7-2.4,7.5-4.5,11.2-6.9c4-2.6,7.1-6.2,10.1-9.9l0-17.2
		c-9.4,11.3-20.6,20.9-32.6,29.3c-16.2,10.6-34.4,18.1-53.2,22.8c-16.5,4-33.6,4.6-50.5,5.6c-11.1,0.3-22.5-0.7-33.3,2.3
		c-13.9,3.7-22.5,17.1-36.6,20.4c-4.8,1.6-9.8,0.5-14.2-1.7c4-1.9,8.2-3.3,12.2-5c6.7-2.9,11.8-8.2,17.4-12.7
		c6.4-5.4,13.5-10.2,21.5-13.1c16.2-6.3,33.8-7.3,50.9-9.6c10.3-1.2,20.4-3.6,30.4-6.3c10-2.8,19.9-6.9,28.3-13.1
		c5.2-3.9,9.7-8.9,11.7-15.1C674.6,67.1,672.5,61.4,670.9,56z M271.7,56h-3.2c-1.7,5.4-3.8,11.1-2.2,16.8
		c1.9,6.2,6.5,11.3,11.7,15.1c8.4,6.2,18.2,10.3,28.3,13.1c10,2.7,20.1,5.1,30.4,6.3c17.1,2.3,34.7,3.2,50.9,9.6
		c8,2.9,15,7.7,21.5,13.1c5.6,4.5,10.7,9.7,17.4,12.6c4,1.8,8.2,3.2,12.2,5c-3.8,1.7-8.1,3.2-12.3,2.1c-11.8-2-20.1-11.2-29.9-17.2
		c-12.3-7.2-27.1-5.6-40.8-5.9c-17.3-1-34.7-1.6-51.6-5.7c-18.3-4.6-35.9-11.8-51.8-21.9c-12.1-8.1-23-17.9-32.9-28.6l0,16
		c2.2,3.5,4.7,6.8,8.2,9.1c3.7,2.4,7.5,4.4,11.2,6.8c16.9,11.3,36.3,18.5,56,23.2c15.2,3.4,30.8,5.1,46.3,5.8
		c9.2,0.5,18.7-1.4,27.6,2c-5.8,2.3-11.9,3.9-17.7,6.4c2.7,2.3,5.5,4.9,9.2,5.2c7.2,0.8,14.4-0.8,21.7-0.3
		c-6.2,4.7-14.4,5.3-20.4,10.2c3.5,1.2,7.1,2.4,10.8,2.2c5.6-0.3,11.1-1.4,16.7-1.2c-5.9,4.7-13.3,7.3-18.6,12.8
		c5.8,1.9,12,1.7,18,1.4c-1.1,2.4-2.2,4.7-3.4,7.1c7.6,1.7,15.4,0.9,23.1,0.2c-2.1,5.9-5.6,11.3-10.3,15.5
		c-6.5,5.9-12.8,12.4-21,16.1c-2.3,1.1-4.6,2.2-7,3.2c6.3-0.5,12.6,0.9,19,0.6c8.3-0.5,15.9-4.8,21.5-10.7
		c8.7-8.5,13.2-20.1,16.3-31.6c0.8-3.6,3-6.6,5.5-9.2c3.7,4.8,7.8,9.5,13,12.8c0-2.9-0.1-5.8,0.2-8.7c0.5-3.9,3.1-7.2,3.6-11.1
		c-0.1-3.4-1.9-6.6-3.8-9.4c-2.9-4.1-7.8-5.8-12-8.1c-4.5-2.4-8.1-5.9-11.7-9.5c-7.7-7.8-16.6-14.5-26.4-19.3
		c-6.6-3.3-14-4.4-21.2-5.6c-13-2-26.1-3.1-39-5.8c-8.5-1.9-16.9-4.2-25.1-7.2c-7.5-2.6-14.8-5.7-21.5-10
		c-4.2-2.8-7.7-6.5-11.1-10.1c-1.8-2-3.7-3.9-4.6-6.5C272,60.7,271.9,58.3,271.7,56z M380.6,178.9L380.6,178.9
		c-8.7,2.2-17.4,4.5-26.2,6.5c-6.8,1.5-13.8,1.7-20.6,2.8c0,0.6,0.1,1.7,0.2,2.3c8.7,3.2,18,4.6,27.2,4.7c6.9-0.3,13.7-1.8,20.6-2.4
		c0.1,0.7,0.4,2,0.5,2.6c-6.9,3.8-15.3,2.8-22.2,6.7c4.4,2.6,9.4,3.9,14.4,4.2c4-4.5,9.4-7.5,13.7-11.7c-1.6-0.7-3.2-1.5-4.7-2.2
		c1.7-0.4,3.4-0.8,5.1-1.2c0.1-1.4,0.2-2.8,0.3-4.1C385.9,184.5,383.2,181.8,380.6,178.9z M558.7,178.9L558.7,178.9
		c-2.5,2.9-5.3,5.6-8.2,8.1c0.1,1.4,0.2,2.8,0.3,4.1c1.7,0.4,3.4,0.8,5.1,1.2c-1.6,0.7-3.2,1.5-4.7,2.2c4.3,4.2,9.6,7.2,13.7,11.7
		c5.2-0.2,10.4-1.4,14.4-4.9c-7.2-2.5-15.2-2.5-22.1-5.9c0.1-0.7,0.4-2,0.5-2.6c6.9,0.6,13.7,2.1,20.6,2.4
		c9.2-0.1,18.5-1.5,27.2-4.7c0-0.6,0.1-1.7,0.2-2.3c-6.9-1.1-13.8-1.4-20.6-2.8l-13.1-3.2L558.7,178.9z M580.1,167.4L580.1,167.4
		c-6.2,0-11.3,4.4-15.6,8.5c4.4,2.9,9.3,5.2,14.6,5.6c13.7,1.2,27.7,0.7,40.9-3.1c4-1.1,7.8-3,11.4-5.2c-0.2-0.7-0.5-2.1-0.6-2.8
		c-6.8-0.4-13.6,0.7-20.4,1C600.2,171.2,590.2,168.8,580.1,167.4z M359.3,167.4l-1.3,0l-1.3,0.2c-7.1,1.4-14.2,2.5-21.4,3.4
		c-9.3,1.4-18.6-1.7-28-0.2c1.7,2.6,3.8,5,6.9,5.9c14,5.1,29.2,5.9,43.9,4.9c6-0.3,11.7-2.4,16.6-5.8
		C370.4,171.8,365.6,167.7,359.3,167.4z M280.1,151.1L280.1,151.1c2.4,3,5,6,8.5,7.6c6.5,3,13.6,4.8,20.6,6.3
		c9.8,2.1,19.8,1,29.7,1.4c6.9,0.2,13.8-0.6,20.6-1.5c-1.8-3.5-3.5-7.5-7.2-9.4c-3-1.3-6.4-0.8-9.6-0.5c-14.5,1.8-29.1,0.8-43.5-1.2
		C292.9,152.7,286.6,151.5,280.1,151.1z M659.2,151.1c-6.1,0.5-12.2,1.4-18.2,2.5c-13.4,2-27,2.9-40.5,1.8
		c-4.2-0.3-8.6-1.3-12.7-0.2c-4.2,1.6-6.1,6-8,9.7c12,2.1,24.2,1.3,36.3,1.5c11.1,0.1,21.9-2.7,32.2-6.5c3.9-1.6,7.2-4,9.8-7.3
		L659.2,151.1z M715.4,99.3L715.4,99.3c-8.8,8.3-20.1,13.3-30.8,18.6c-9,4.3-18.5,7.5-28.2,9.7c-3.8,0.8-7.5,2.1-10.9,3.9
		c4.4,0.3,8.8,0.5,13.1-0.5c7.6-1.8,15.4-3,23.1-4.5c-0.2,0.6-0.5,1.8-0.7,2.4c-6.8,1.9-13.5,4-20.5,4.9c-4.6,0.6-9.3,1.3-13.8,2.3
		c-2.1,0.8-4.2,1.6-6.3,1.9c-11.4,1.6-22.9,1.6-34.4,1.3c-3.1,0.1-6.5-0.3-9.3,1.2c-2,2.3-3,5.2-4.2,7.9c4.1,0.5,8.2,0.8,12.4,0.8
		c8.7,0,17.5,0.2,26.2-0.9c9.4-0.7,18.6-2.9,28-3.8c0.3,0.4,0.8,1.1,1.1,1.5c3.3-1.7,6.7-3.2,10.2-4.4c6.3-2.3,12.2-5.5,18-8.7
		c1.8-1.1,3.8-2.1,4.9-4c0.5-2,0.6-4.2,0.8-6.2c3.8-2.6,8-4.6,11.8-7.1C711.2,111.9,715.8,106.1,715.4,99.3z M223.9,99.3L223.9,99.3
		c0.1,3.7,0.9,7.4,3.4,10.3c4.4,6.3,11.9,8.9,18,13.1c0.2,2.1,0.2,4.2,0.8,6.2c1.1,1.8,3.1,2.9,4.9,4c5.8,3.2,11.7,6.4,18,8.7
		c3.5,1.3,6.9,2.7,10.2,4.4c0.3-0.4,0.8-1.1,1.1-1.5c13.6,1.6,27,4.6,40.8,4.6c8.6-0.1,17.3,0.4,25.8-0.8c-1.2-2.7-2.3-5.6-4.2-7.9
		c-2.1-1.2-4.7-1.1-7-1.2c-8.7-0.1-17.4,0.4-26.1-0.3c-5.7-0.5-11.6-0.5-17-2.9c-4.6-1-9.2-1.8-13.8-2.3c-7-0.8-13.7-3-20.5-4.9
		c-0.2-0.6-0.5-1.8-0.7-2.4c7.7,1.5,15.5,2.7,23.1,4.5c4.3,1,8.7,0.9,13.1,0.5c-5.8-3.3-12.5-4.1-18.7-5.9c-7-2-13.8-4.5-20.3-7.7
		C243.9,112.6,232.7,107.6,223.9,99.3z M469.9,97.8c-6.9,0.7-4,0.2-8.7,1.2c-4,1.5-7.2,4.6-10,7.8c-4.2,4.7-3.8,11.6-2.9,17.4
		c1,7.2,6.3,13.9,13.5,15.8c4.6,0.9,9.4,0.9,14,0.3c5-0.6,9.3-3.9,12.1-7.9c2.6-3.8,3.4-8.5,3.7-13c0.1-3.6-0.1-7.5-2-10.6
		c-1.6-2.5-3.7-4.5-5.9-6.4c-3.5-2.6-7.3-4.3-11.8-4.5L469.9,97.8z M263,84.9L263,84.9c0.7,3.7,1.5,7.7,4.2,10.4
		c6.6,7.1,16,10.6,24.7,14.3c14.5,5.2,29.8,7.5,45.1,8.6c7.5,1.1,15,0.6,22.4-0.5c-9.4-2.4-19.1-3.3-28.6-4.6
		c-18.1-2.6-36.6-7-52.2-17C273.1,92.8,268.4,88.4,263,84.9z M676.4,84.9L676.4,84.9L676.4,84.9c-5.5,3.9-10.7,8.2-16.3,11.8
		c-11.6,7.4-25,11.4-38.3,14.3c-13.8,3-28.1,3.3-41.9,6.8c7.4,1.1,15,1.6,22.4,0.5c15.3-1.2,30.6-3.4,45.1-8.6
		c8.7-3.7,18-7.3,24.7-14.3C674.7,92.4,675.8,88.7,676.4,84.9L676.4,84.9z"/>
	<linearGradient id="SVGID_2_" gradientUnits="userSpaceOnUse" x1="505.8393" y1="360.0956" x2="558.6179" y2="360.0956">
		<stop  offset="0" style="stop-color:#FCD116"/>
		<stop  offset="1" style="stop-color:#008751"/>
	</linearGradient>
	<path class="st1" d="M529.1,333c2.1-0.2,4.3-0.5,6.4-0.7c7.1,18.6,13.9,37.4,22.3,55.5c-4.7,0-9.4,0-14.1-0.2
		c-1.6-5.3-3.3-10.5-5.1-15.7c-6.3-0.5-12.6-0.5-18.8-0.2c-2.1,5.3-3.9,10.6-5.5,16c-2.6,0-5.2-0.1-7.7-0.1
		C514.6,369.7,521.9,351.4,529.1,333 M522.1,366.8c4.8,0.1,9.7,0.2,14.6,0c-2.3-6.2-4.5-12.3-7.1-18.4
		C526.6,354.4,524.2,360.6,522.1,366.8z"/>
	<linearGradient id="SVGID_3_" gradientUnits="userSpaceOnUse" x1="381.8761" y1="360.4353" x2="432.3071" y2="360.4353">
		<stop  offset="0" style="stop-color:#FCD116"/>
		<stop  offset="1" style="stop-color:#008751"/>
	</linearGradient>
	<path class="st2" d="M382.4,333c4.3,0,8.6,0,12.9-0.1c-0.2,7.3-0.4,14.5-0.7,21.8c8.3,0.5,16.5,0.5,24.8,0
		c-0.2-7.3-0.5-14.5-0.7-21.8c4.3,0.1,8.6,0.1,12.9,0.1c-0.7,18.3-0.8,36.6,0,54.9c-4.4-0.1-8.8-0.1-13.2-0.2
		c0.7-8.8,0.9-17.6,0.7-26.4c-8.1-0.2-16.3-0.2-24.4,0c-0.1,8.8,0.1,17.6,0.7,26.4c-4.4,0.1-8.8,0.2-13.2,0.2
		C383.2,369.6,383.1,351.3,382.4,333z"/>
</g>
<g id="Layer_2">
	<g>
		<linearGradient id="SVGID_4_" gradientUnits="userSpaceOnUse" x1="701.4156" y1="207.3026" x2="1594.4056" y2="207.3026">
			<stop  offset="0" style="stop-color:#FCD116"/>
			<stop  offset="1" style="stop-color:#008751"/>
		</linearGradient>
		<path class="st3" d="M786.4,263.6h-17.6v-48.3h-49.4v48.3h-17.5V156.5h17.5v43.8h49.4v-43.8h17.6V263.6z M848.2,265
			c-12.6,0-22.5-3.7-29.6-11c-7.1-7.4-10.7-17.5-10.7-30.4c0-13.2,3.3-23.6,9.9-31.2c6.6-7.6,15.7-11.4,27.2-11.4
			c10.7,0,19.1,3.2,25.4,9.7c6.2,6.5,9.3,15.4,9.3,26.8v9.3h-54c0.2,7.9,2.4,13.9,6.4,18.1c4,4.2,9.6,6.3,16.9,6.3
			c4.8,0,9.2-0.5,13.4-1.4c4.1-0.9,8.6-2.4,13.3-4.5v14c-4.2,2-8.5,3.4-12.7,4.3C858.6,264.6,853.7,265,848.2,265z M845,194.1
			c-5.5,0-9.9,1.7-13.2,5.2c-3.3,3.5-5.3,8.5-5.9,15.2h36.8c-0.1-6.7-1.7-11.8-4.8-15.2C854.8,195.8,850.5,194.1,845,194.1z
			 M949.9,263.6l-3.4-11.3h-0.6c-3.9,4.9-7.8,8.3-11.8,10.1c-4,1.8-9,2.7-15.2,2.7c-8,0-14.2-2.1-18.6-6.4
			c-4.5-4.3-6.7-10.4-6.7-18.2c0-8.4,3.1-14.7,9.3-18.9c6.2-4.2,15.7-6.6,28.4-7l14-0.4v-4.3c0-5.2-1.2-9-3.6-11.6
			c-2.4-2.6-6.2-3.8-11.2-3.8c-4.2,0-8.1,0.6-11.9,1.8c-3.8,1.2-7.5,2.7-11,4.3l-5.6-12.3c4.4-2.3,9.2-4,14.4-5.2
			c5.2-1.2,10.2-1.8,14.8-1.8c10.3,0,18.1,2.2,23.3,6.7c5.3,4.5,7.9,11.6,7.9,21.2v54.6H949.9z M924.3,251.9
			c6.3,0,11.3-1.7,15.1-5.2c3.8-3.5,5.7-8.4,5.7-14.7v-7l-10.4,0.4c-8.1,0.3-14,1.6-17.7,4.1c-3.7,2.4-5.5,6.1-5.5,11.1
			c0,3.6,1.1,6.4,3.2,8.4C916.8,250.9,920,251.9,924.3,251.9z M1003.5,263.6h-17.2v-114h17.2V263.6z M1058.3,251.1
			c4.2,0,8.4-0.7,12.6-2v13c-1.9,0.8-4.4,1.5-7.4,2.1c-3,0.6-6.1,0.8-9.3,0.8c-16.3,0-24.5-8.6-24.5-25.8v-43.7h-11.1V188l11.9-6.3
			l5.9-17.1h10.6v18h23.1v13H1047V239c0,4.2,1,7.2,3.1,9.2C1052.2,250.1,1054.9,251.1,1058.3,251.1z M1158.4,263.6h-17.3v-49.8
			c0-6.3-1.3-10.9-3.8-14c-2.5-3.1-6.5-4.6-12-4.6c-7.2,0-12.5,2.2-15.9,6.5c-3.4,4.3-5.1,11.6-5.1,21.7v40.2h-17.2v-114h17.2v28.9
			c0,4.6-0.3,9.6-0.9,14.9h1.1c2.3-3.9,5.6-6.9,9.8-9.1c4.2-2.1,9-3.2,14.6-3.2c19.6,0,29.5,9.9,29.5,29.7V263.6z M1289.6,263.6
			l-10.7-29.7h-41l-10.5,29.7H1209l40.1-107.6h19l40.1,107.6H1289.6z M1274.3,218.7l-10-29.2c-0.7-2-1.7-5-3-9.2
			c-1.3-4.2-2.2-7.3-2.7-9.2c-1.3,6-3.2,12.6-5.8,19.7l-9.7,27.9H1274.3z M1377.7,263.6l-2.4-10.6h-0.9c-2.4,3.8-5.8,6.7-10.2,8.9
			c-4.4,2.1-9.5,3.2-15.1,3.2c-9.8,0-17.1-2.4-22-7.3c-4.8-4.9-7.3-12.3-7.3-22.2v-53h17.4v50c0,6.2,1.3,10.9,3.8,14
			c2.5,3.1,6.5,4.7,11.9,4.7c7.2,0,12.5-2.2,15.9-6.5c3.4-4.3,5.1-11.6,5.1-21.7v-40.4h17.3v81H1377.7z M1443.1,265
			c-10.1,0-18-3.7-23.7-11c-5.7-7.3-8.5-17.6-8.5-30.8c0-13.3,2.9-23.6,8.6-31c5.7-7.4,13.7-11.1,23.8-11.1
			c10.6,0,18.8,3.9,24.3,11.8h0.9c-0.8-5.8-1.2-10.4-1.2-13.8v-29.5h17.3v114h-13.5l-3-10.6h-0.8C1461.8,261,1453.8,265,1443.1,265z
			 M1447.7,251.1c7.1,0,12.2-2,15.5-6c3.2-4,4.9-10.4,5-19.4v-2.4c0-10.2-1.7-17.5-5-21.8c-3.3-4.3-8.5-6.4-15.6-6.4
			c-6.1,0-10.7,2.5-14,7.4c-3.3,4.9-4.9,11.9-4.9,21c0,9,1.6,15.8,4.8,20.6C1436.6,248.8,1441.4,251.1,1447.7,251.1z M1526.5,263.6
			h-17.2v-81h17.2V263.6z M1508.3,161.1c0-3.1,0.8-5.4,2.5-7.1c1.7-1.7,4.1-2.5,7.2-2.5c3,0,5.4,0.8,7.1,2.5c1.7,1.7,2.5,4,2.5,7.1
			c0,2.9-0.8,5.2-2.5,6.9c-1.7,1.7-4,2.5-7.1,2.5c-3.1,0-5.5-0.8-7.2-2.5C1509.1,166.3,1508.3,164,1508.3,161.1z M1581.3,251.1
			c4.2,0,8.4-0.7,12.6-2v13c-1.9,0.8-4.4,1.5-7.4,2.1c-3,0.6-6.1,0.8-9.3,0.8c-16.3,0-24.5-8.6-24.5-25.8v-43.7h-11.1V188l11.9-6.3
			l5.9-17.1h10.6v18h23.1v13H1570V239c0,4.2,1,7.2,3.1,9.2C1575.2,250.1,1577.9,251.1,1581.3,251.1z"/>
		<linearGradient id="SVGID_5_" gradientUnits="userSpaceOnUse" x1="701.4156" y1="207.3026" x2="1594.4056" y2="207.3026">
			<stop  offset="0" style="stop-color:#FCD116"/>
			<stop  offset="1" style="stop-color:#008751"/>
		</linearGradient>
		<path class="st4" d="M786.4,263.6h-17.6v-48.3h-49.4v48.3h-17.5V156.5h17.5v43.8h49.4v-43.8h17.6V263.6z M848.2,265
			c-12.6,0-22.5-3.7-29.6-11c-7.1-7.4-10.7-17.5-10.7-30.4c0-13.2,3.3-23.6,9.9-31.2c6.6-7.6,15.7-11.4,27.2-11.4
			c10.7,0,19.1,3.2,25.4,9.7c6.2,6.5,9.3,15.4,9.3,26.8v9.3h-54c0.2,7.9,2.4,13.9,6.4,18.1c4,4.2,9.6,6.3,16.9,6.3
			c4.8,0,9.2-0.5,13.4-1.4c4.1-0.9,8.6-2.4,13.3-4.5v14c-4.2,2-8.5,3.4-12.7,4.3C858.6,264.6,853.7,265,848.2,265z M845,194.1
			c-5.5,0-9.9,1.7-13.2,5.2c-3.3,3.5-5.3,8.5-5.9,15.2h36.8c-0.1-6.7-1.7-11.8-4.8-15.2C854.8,195.8,850.5,194.1,845,194.1z
			 M949.9,263.6l-3.4-11.3h-0.6c-3.9,4.9-7.8,8.3-11.8,10.1c-4,1.8-9,2.7-15.2,2.7c-8,0-14.2-2.1-18.6-6.4
			c-4.5-4.3-6.7-10.4-6.7-18.2c0-8.4,3.1-14.7,9.3-18.9c6.2-4.2,15.7-6.6,28.4-7l14-0.4v-4.3c0-5.2-1.2-9-3.6-11.6
			c-2.4-2.6-6.2-3.8-11.2-3.8c-4.2,0-8.1,0.6-11.9,1.8c-3.8,1.2-7.5,2.7-11,4.3l-5.6-12.3c4.4-2.3,9.2-4,14.4-5.2
			c5.2-1.2,10.2-1.8,14.8-1.8c10.3,0,18.1,2.2,23.3,6.7c5.3,4.5,7.9,11.6,7.9,21.2v54.6H949.9z M924.3,251.9
			c6.3,0,11.3-1.7,15.1-5.2c3.8-3.5,5.7-8.4,5.7-14.7v-7l-10.4,0.4c-8.1,0.3-14,1.6-17.7,4.1c-3.7,2.4-5.5,6.1-5.5,11.1
			c0,3.6,1.1,6.4,3.2,8.4C916.8,250.9,920,251.9,924.3,251.9z M1003.5,263.6h-17.2v-114h17.2V263.6z M1058.3,251.1
			c4.2,0,8.4-0.7,12.6-2v13c-1.9,0.8-4.4,1.5-7.4,2.1c-3,0.6-6.1,0.8-9.3,0.8c-16.3,0-24.5-8.6-24.5-25.8v-43.7h-11.1V188l11.9-6.3
			l5.9-17.1h10.6v18h23.1v13H1047V239c0,4.2,1,7.2,3.1,9.2C1052.2,250.1,1054.9,251.1,1058.3,251.1z M1158.4,263.6h-17.3v-49.8
			c0-6.3-1.3-10.9-3.8-14c-2.5-3.1-6.5-4.6-12-4.6c-7.2,0-12.5,2.2-15.9,6.5c-3.4,4.3-5.1,11.6-5.1,21.7v40.2h-17.2v-114h17.2v28.9
			c0,4.6-0.3,9.6-0.9,14.9h1.1c2.3-3.9,5.6-6.9,9.8-9.1c4.2-2.1,9-3.2,14.6-3.2c19.6,0,29.5,9.9,29.5,29.7V263.6z M1289.6,263.6
			l-10.7-29.7h-41l-10.5,29.7H1209l40.1-107.6h19l40.1,107.6H1289.6z M1274.3,218.7l-10-29.2c-0.7-2-1.7-5-3-9.2
			c-1.3-4.2-2.2-7.3-2.7-9.2c-1.3,6-3.2,12.6-5.8,19.7l-9.7,27.9H1274.3z M1377.7,263.6l-2.4-10.6h-0.9c-2.4,3.8-5.8,6.7-10.2,8.9
			c-4.4,2.1-9.5,3.2-15.1,3.2c-9.8,0-17.1-2.4-22-7.3c-4.8-4.9-7.3-12.3-7.3-22.2v-53h17.4v50c0,6.2,1.3,10.9,3.8,14
			c2.5,3.1,6.5,4.7,11.9,4.7c7.2,0,12.5-2.2,15.9-6.5c3.4-4.3,5.1-11.6,5.1-21.7v-40.4h17.3v81H1377.7z M1443.1,265
			c-10.1,0-18-3.7-23.7-11c-5.7-7.3-8.5-17.6-8.5-30.8c0-13.3,2.9-23.6,8.6-31c5.7-7.4,13.7-11.1,23.8-11.1
			c10.6,0,18.8,3.9,24.3,11.8h0.9c-0.8-5.8-1.2-10.4-1.2-13.8v-29.5h17.3v114h-13.5l-3-10.6h-0.8C1461.8,261,1453.8,265,1443.1,265z
			 M1447.7,251.1c7.1,0,12.2-2,15.5-6c3.2-4,4.9-10.4,5-19.4v-2.4c0-10.2-1.7-17.5-5-21.8c-3.3-4.3-8.5-6.4-15.6-6.4
			c-6.1,0-10.7,2.5-14,7.4c-3.3,4.9-4.9,11.9-4.9,21c0,9,1.6,15.8,4.8,20.6C1436.6,248.8,1441.4,251.1,1447.7,251.1z M1526.5,263.6
			h-17.2v-81h17.2V263.6z M1508.3,161.1c0-3.1,0.8-5.4,2.5-7.1c1.7-1.7,4.1-2.5,7.2-2.5c3,0,5.4,0.8,7.1,2.5c1.7,1.7,2.5,4,2.5,7.1
			c0,2.9-0.8,5.2-2.5,6.9c-1.7,1.7-4,2.5-7.1,2.5c-3.1,0-5.5-0.8-7.2-2.5C1509.1,166.3,1508.3,164,1508.3,161.1z M1581.3,251.1
			c4.2,0,8.4-0.7,12.6-2v13c-1.9,0.8-4.4,1.5-7.4,2.1c-3,0.6-6.1,0.8-9.3,0.8c-16.3,0-24.5-8.6-24.5-25.8v-43.7h-11.1V188l11.9-6.3
			l5.9-17.1h10.6v18h23.1v13H1570V239c0,4.2,1,7.2,3.1,9.2C1575.2,250.1,1577.9,251.1,1581.3,251.1z"/>
	</g>
	<g>
		<linearGradient id="SVGID_6_" gradientUnits="userSpaceOnUse" x1="805.5898" y1="356.9307" x2="1443.6603" y2="356.9307">
			<stop  offset="0" style="stop-color:#FCD116"/>
			<stop  offset="1" style="stop-color:#008751"/>
		</linearGradient>
		<path class="st5" d="M893.3,416.6l-14.1-36.1h-45.5l-14,36.1h-13.4l44.9-114.1h11.1L907,416.6H893.3z M875.1,368.6l-13.2-35.2
			c-1.7-4.5-3.5-9.9-5.3-16.4c-1.1,5-2.8,10.4-4.9,16.4l-13.4,35.2H875.1z M932.8,331.4v55.2c0,6.9,1.6,12.1,4.7,15.5
			c3.2,3.4,8.1,5.1,14.8,5.1c8.9,0,15.4-2.4,19.5-7.3c4.1-4.9,6.2-12.8,6.2-23.9v-44.8H991v85.2h-10.6l-1.9-11.4h-0.7
			c-2.6,4.2-6.3,7.4-11,9.6c-4.7,2.2-10,3.3-16,3.3c-10.4,0-18.1-2.5-23.3-7.4c-5.2-4.9-7.7-12.8-7.7-23.6v-55.7H932.8z
			 M1073.3,393.4c0,7.9-3,14-8.9,18.3c-5.9,4.3-14.2,6.5-24.9,6.5c-11.3,0-20.1-1.8-26.4-5.4v-12c4.1,2.1,8.5,3.7,13.2,4.9
			c4.7,1.2,9.2,1.8,13.6,1.8c6.7,0,11.9-1.1,15.5-3.2c3.6-2.2,5.4-5.4,5.4-9.8c0-3.3-1.4-6.2-4.3-8.5c-2.9-2.4-8.5-5.1-16.8-8.4
			c-7.9-3-13.6-5.5-16.9-7.7c-3.3-2.2-5.8-4.7-7.5-7.5c-1.6-2.8-2.4-6.1-2.4-10c0-6.9,2.8-12.4,8.5-16.4c5.6-4,13.4-6,23.2-6
			c9.2,0,18.1,1.9,26.9,5.6l-4.6,10.5c-8.5-3.5-16.3-5.3-23.2-5.3c-6.1,0-10.7,1-13.8,2.9c-3.1,1.9-4.7,4.6-4.7,7.9
			c0,2.3,0.6,4.2,1.7,5.8c1.2,1.6,3,3.1,5.6,4.6c2.6,1.5,7.6,3.5,14.9,6.3c10.1,3.7,16.9,7.4,20.5,11.1
			C1071.5,383,1073.3,387.7,1073.3,393.4z M1121.8,407.5c2.3,0,4.5-0.2,6.6-0.5c2.1-0.3,3.8-0.7,5.1-1.1v9.9
			c-1.4,0.7-3.5,1.2-6.2,1.7c-2.7,0.4-5.2,0.7-7.3,0.7c-16.5,0-24.7-8.7-24.7-26v-50.7H1083v-6.2l12.2-5.4l5.4-18.2h7.5v19.7h24.7
			v10h-24.7v50.1c0,5.1,1.2,9.1,3.7,11.8C1114.2,406.1,1117.5,407.5,1121.8,407.5z M1189.3,329.9c3.8,0,7.2,0.3,10.2,0.9l-1.8,12
			c-3.5-0.8-6.6-1.2-9.3-1.2c-6.9,0-12.8,2.8-17.7,8.4c-4.9,5.6-7.3,12.6-7.3,20.9v45.7h-12.9v-85.2h10.6l1.5,15.8h0.6
			c3.2-5.5,7-9.8,11.4-12.8C1179.1,331.4,1184,329.9,1189.3,329.9z M1264.6,416.6l-2.6-12.1h-0.6c-4.2,5.3-8.5,8.9-12.7,10.8
			c-4.2,1.9-9.5,2.8-15.8,2.8c-8.4,0-15.1-2.2-19.9-6.5c-4.8-4.4-7.2-10.5-7.2-18.6c0-17.2,13.8-26.2,41.3-27l14.5-0.5v-5.3
			c0-6.7-1.4-11.6-4.3-14.8c-2.9-3.2-7.5-4.8-13.8-4.8c-7.1,0-15.1,2.2-24.1,6.5l-4-9.9c4.2-2.3,8.8-4.1,13.8-5.4
			c5-1.3,10-1.9,15-1.9c10.2,0,17.7,2.3,22.6,6.8c4.9,4.5,7.3,11.7,7.3,21.7v58.1H1264.6z M1235.5,407.5c8,0,14.3-2.2,18.9-6.6
			c4.6-4.4,6.9-10.6,6.9-18.5v-7.7l-12.9,0.5c-10.3,0.4-17.7,2-22.2,4.8c-4.5,2.8-6.8,7.2-6.8,13.2c0,4.7,1.4,8.2,4.2,10.6
			C1226.4,406.3,1230.4,407.5,1235.5,407.5z M1313.6,416.6h-12.9V295.7h12.9V416.6z M1353.9,416.6H1341v-85.2h12.9V416.6z
			 M1339.9,308.4c0-3,0.7-5.1,2.2-6.5c1.4-1.4,3.3-2.1,5.4-2.1c2.1,0,3.9,0.7,5.4,2.1c1.5,1.4,2.3,3.5,2.3,6.4
			c0,2.9-0.8,5.1-2.3,6.5c-1.5,1.4-3.3,2.1-5.4,2.1c-2.2,0-4-0.7-5.4-2.1C1340.6,313.4,1339.9,311.3,1339.9,308.4z M1433.6,416.6
			l-2.6-12.1h-0.6c-4.2,5.3-8.5,8.9-12.7,10.8c-4.2,1.9-9.5,2.8-15.8,2.8c-8.4,0-15.1-2.2-19.9-6.5c-4.8-4.4-7.2-10.5-7.2-18.6
			c0-17.2,13.8-26.2,41.3-27l14.5-0.5v-5.3c0-6.7-1.4-11.6-4.3-14.8c-2.9-3.2-7.5-4.8-13.8-4.8c-7.1,0-15.1,2.2-24.1,6.5l-4-9.9
			c4.2-2.3,8.8-4.1,13.8-5.4c5-1.3,10-1.9,15-1.9c10.2,0,17.7,2.3,22.6,6.8s7.3,11.7,7.3,21.7v58.1H1433.6z M1404.5,407.5
			c8,0,14.3-2.2,18.9-6.6c4.6-4.4,6.9-10.6,6.9-18.5v-7.7l-12.9,0.5c-10.3,0.4-17.7,2-22.2,4.8c-4.5,2.8-6.8,7.2-6.8,13.2
			c0,4.7,1.4,8.2,4.2,10.6C1395.4,406.3,1399.4,407.5,1404.5,407.5z"/>
		<linearGradient id="SVGID_7_" gradientUnits="userSpaceOnUse" x1="805.5898" y1="356.9307" x2="1443.6603" y2="356.9307">
			<stop  offset="0" style="stop-color:#FCD116"/>
			<stop  offset="1" style="stop-color:#008751"/>
		</linearGradient>
		<path class="st6" d="M893.3,416.6l-14.1-36.1h-45.5l-14,36.1h-13.4l44.9-114.1h11.1L907,416.6H893.3z M875.1,368.6l-13.2-35.2
			c-1.7-4.5-3.5-9.9-5.3-16.4c-1.1,5-2.8,10.4-4.9,16.4l-13.4,35.2H875.1z M932.8,331.4v55.2c0,6.9,1.6,12.1,4.7,15.5
			c3.2,3.4,8.1,5.1,14.8,5.1c8.9,0,15.4-2.4,19.5-7.3c4.1-4.9,6.2-12.8,6.2-23.9v-44.8H991v85.2h-10.6l-1.9-11.4h-0.7
			c-2.6,4.2-6.3,7.4-11,9.6c-4.7,2.2-10,3.3-16,3.3c-10.4,0-18.1-2.5-23.3-7.4c-5.2-4.9-7.7-12.8-7.7-23.6v-55.7H932.8z
			 M1073.3,393.4c0,7.9-3,14-8.9,18.3c-5.9,4.3-14.2,6.5-24.9,6.5c-11.3,0-20.1-1.8-26.4-5.4v-12c4.1,2.1,8.5,3.7,13.2,4.9
			c4.7,1.2,9.2,1.8,13.6,1.8c6.7,0,11.9-1.1,15.5-3.2c3.6-2.2,5.4-5.4,5.4-9.8c0-3.3-1.4-6.2-4.3-8.5c-2.9-2.4-8.5-5.1-16.8-8.4
			c-7.9-3-13.6-5.5-16.9-7.7c-3.3-2.2-5.8-4.7-7.5-7.5c-1.6-2.8-2.4-6.1-2.4-10c0-6.9,2.8-12.4,8.5-16.4c5.6-4,13.4-6,23.2-6
			c9.2,0,18.1,1.9,26.9,5.6l-4.6,10.5c-8.5-3.5-16.3-5.3-23.2-5.3c-6.1,0-10.7,1-13.8,2.9c-3.1,1.9-4.7,4.6-4.7,7.9
			c0,2.3,0.6,4.2,1.7,5.8c1.2,1.6,3,3.1,5.6,4.6c2.6,1.5,7.6,3.5,14.9,6.3c10.1,3.7,16.9,7.4,20.5,11.1
			C1071.5,383,1073.3,387.7,1073.3,393.4z M1121.8,407.5c2.3,0,4.5-0.2,6.6-0.5c2.1-0.3,3.8-0.7,5.1-1.1v9.9
			c-1.4,0.7-3.5,1.2-6.2,1.7c-2.7,0.4-5.2,0.7-7.3,0.7c-16.5,0-24.7-8.7-24.7-26v-50.7H1083v-6.2l12.2-5.4l5.4-18.2h7.5v19.7h24.7
			v10h-24.7v50.1c0,5.1,1.2,9.1,3.7,11.8C1114.2,406.1,1117.5,407.5,1121.8,407.5z M1189.3,329.9c3.8,0,7.2,0.3,10.2,0.9l-1.8,12
			c-3.5-0.8-6.6-1.2-9.3-1.2c-6.9,0-12.8,2.8-17.7,8.4c-4.9,5.6-7.3,12.6-7.3,20.9v45.7h-12.9v-85.2h10.6l1.5,15.8h0.6
			c3.2-5.5,7-9.8,11.4-12.8C1179.1,331.4,1184,329.9,1189.3,329.9z M1264.6,416.6l-2.6-12.1h-0.6c-4.2,5.3-8.5,8.9-12.7,10.8
			c-4.2,1.9-9.5,2.8-15.8,2.8c-8.4,0-15.1-2.2-19.9-6.5c-4.8-4.4-7.2-10.5-7.2-18.6c0-17.2,13.8-26.2,41.3-27l14.5-0.5v-5.3
			c0-6.7-1.4-11.6-4.3-14.8c-2.9-3.2-7.5-4.8-13.8-4.8c-7.1,0-15.1,2.2-24.1,6.5l-4-9.9c4.2-2.3,8.8-4.1,13.8-5.4
			c5-1.3,10-1.9,15-1.9c10.2,0,17.7,2.3,22.6,6.8c4.9,4.5,7.3,11.7,7.3,21.7v58.1H1264.6z M1235.5,407.5c8,0,14.3-2.2,18.9-6.6
			c4.6-4.4,6.9-10.6,6.9-18.5v-7.7l-12.9,0.5c-10.3,0.4-17.7,2-22.2,4.8c-4.5,2.8-6.8,7.2-6.8,13.2c0,4.7,1.4,8.2,4.2,10.6
			C1226.4,406.3,1230.4,407.5,1235.5,407.5z M1313.6,416.6h-12.9V295.7h12.9V416.6z M1353.9,416.6H1341v-85.2h12.9V416.6z
			 M1339.9,308.4c0-3,0.7-5.1,2.2-6.5c1.4-1.4,3.3-2.1,5.4-2.1c2.1,0,3.9,0.7,5.4,2.1c1.5,1.4,2.3,3.5,2.3,6.4
			c0,2.9-0.8,5.1-2.3,6.5c-1.5,1.4-3.3,2.1-5.4,2.1c-2.2,0-4-0.7-5.4-2.1C1340.6,313.4,1339.9,311.3,1339.9,308.4z M1433.6,416.6
			l-2.6-12.1h-0.6c-4.2,5.3-8.5,8.9-12.7,10.8c-4.2,1.9-9.5,2.8-15.8,2.8c-8.4,0-15.1-2.2-19.9-6.5c-4.8-4.4-7.2-10.5-7.2-18.6
			c0-17.2,13.8-26.2,41.3-27l14.5-0.5v-5.3c0-6.7-1.4-11.6-4.3-14.8c-2.9-3.2-7.5-4.8-13.8-4.8c-7.1,0-15.1,2.2-24.1,6.5l-4-9.9
			c4.2-2.3,8.8-4.1,13.8-5.4c5-1.3,10-1.9,15-1.9c10.2,0,17.7,2.3,22.6,6.8s7.3,11.7,7.3,21.7v58.1H1433.6z M1404.5,407.5
			c8,0,14.3-2.2,18.9-6.6c4.6-4.4,6.9-10.6,6.9-18.5v-7.7l-12.9,0.5c-10.3,0.4-17.7,2-22.2,4.8c-4.5,2.8-6.8,7.2-6.8,13.2
			c0,4.7,1.4,8.2,4.2,10.6C1395.4,406.3,1399.4,407.5,1404.5,407.5z"/>
	</g>
</g>
</svg>
