<?xml version="1.0" encoding="UTF-8"?>
<!DOCTYPE svg PUBLIC "-//W3C//DTD SVG 1.1//EN" "http://www.w3.org/Graphics/SVG/1.1/DTD/svg11.dtd">
<svg version="1.1" xmlns="http://www.w3.org/2000/svg" xmlns:xlink="http://www.w3.org/1999/xlink" x="0" y="0" width="1400" height="460" viewBox="0, 0, 1400, 460">
  <defs>
    <linearGradient id="Gradient_1" gradientUnits="userSpaceOnUse" x1="-0.637" y1="230" x2="560.614" y2="230">
      <stop offset="0.252" stop-color="#FCD116"/>
      <stop offset="1" stop-color="#008751"/>
    </linearGradient>
    <linearGradient id="Gradient_2" gradientUnits="userSpaceOnUse" x1="562.722" y1="186.974" x2="1365.208" y2="186.974">
      <stop offset="0" stop-color="#FCD116"/>
      <stop offset="1" stop-color="#008751"/>
    </linearGradient>
    <linearGradient id="Gradient_3" gradientUnits="userSpaceOnUse" x1="784" y1="299.197" x2="1144.176" y2="299.197">
      <stop offset="0" stop-color="#FCD116"/>
      <stop offset="1" stop-color="#008751"/>
    </linearGradient>
  </defs>
  <g id="Layer_1">
    <path d="M286.271,104.322 L289.538,104.475 C292.051,104.7 295.364,105.213 296.039,108.163 C297.714,114.063 296.714,120.263 296.676,126.3 C296.376,133.288 297.451,140.225 298.551,147.1 C305.501,146.713 312.764,146.888 319.076,150.2 C327.414,154.1 332.251,162.325 337.401,169.525 C343.589,178.213 348.514,188.613 347.589,199.538 C346.676,208.15 341.814,217.088 333.439,220.413 C325.464,223.95 317.339,227.15 309.626,231.25 C312.801,235.425 316.439,239.225 319.714,243.325 C322.964,247.275 323.076,252.663 322.976,257.525 C322.789,266.938 317.551,275.338 311.714,282.35 C306.939,287.313 301.389,291.525 297.301,297.125 C302.239,303.013 308.076,308.4 311.414,315.438 C313.964,321.988 313.826,330.338 308.964,335.825 C304.964,340.388 300.176,344.175 295.951,348.513 C299.864,352.925 304.251,357.05 307.051,362.313 C309.064,366.025 309.564,370.638 307.801,374.55 C305.601,379.575 301.551,383.413 298.026,387.5 C300.326,393.45 304.051,399.838 302.039,406.4 C299.564,412.625 294.264,417.075 290.326,422.338 C292.289,426.763 295.139,431.125 295.126,436.125 C294.626,440.713 292.214,444.788 290.601,449.05 C294.526,450.213 298.689,450.688 302.726,449.8 C313.576,447.663 324.601,445.338 334.439,440.088 C353.739,429.8 369.776,413.45 379.426,393.788 C387.339,380.55 390.514,365.175 392.014,350 C392.939,336.013 389.776,322.113 385.514,308.863 C383.364,302.325 381.376,295.413 376.664,290.175 C373.389,286.488 370.214,282.675 367.939,278.275 C371.839,280.2 375.576,282.575 378.526,285.825 C384.601,292.4 390.376,299.425 394.214,307.575 C398.951,317.563 402.514,328.2 403.789,339.213 C405.051,351.213 403.814,363.263 403.714,375.275 C410.401,365.113 412.726,352.925 414.101,341.038 C416.239,324.275 414.101,307.25 409.564,291.063 C407.351,283.75 403.651,277.038 400.689,270.038 C396.401,259.3 387.401,251.625 379.789,243.288 C384.189,245.4 388.851,247.3 392.426,250.738 C395.601,253.788 398.426,257.188 401.476,260.375 C413.576,273.113 421.526,289.413 425.464,306.45 C429.714,321.85 430.226,338.063 428.239,353.85 C427.176,362.438 424.064,370.625 423.114,379.238 C426.351,376 429.414,372.513 431.476,368.4 C436.101,359.163 440.201,349.6 442.651,339.525 C445.339,328.6 448.314,317.6 448.576,306.275 C448.739,300.013 448.751,293.738 448.539,287.463 C448.201,277.9 445.989,268.563 443.851,259.275 C441.376,248.55 437.726,238.013 432.101,228.513 C429.751,224.588 427.351,220.688 425.151,216.675 C419.914,207 412.539,198.513 403.814,191.8 C400.451,189.2 397.139,186.525 394.089,183.563 C399.039,186.038 403.626,189.163 407.914,192.675 C413.176,196.975 418.864,200.838 423.526,205.825 C428.564,211.225 434.214,216.138 438.264,222.375 C443.351,230.313 449.026,237.988 452.639,246.763 C457.514,258.45 461.501,270.563 463.826,283.038 C466.139,294.825 465.414,306.888 465.426,318.813 C465.051,343.388 455.751,366.875 443.489,387.825 C436.164,400.825 425.426,411.475 414.014,420.925 C405.451,428.438 395.951,434.838 385.939,440.275 C373.564,446.888 359.576,449.375 346.801,455 L291.151,455 C289.926,447.925 289.689,440.663 287.401,433.8 C284.976,438.275 283.264,443.175 280.201,447.288 C279.789,447.263 278.951,447.213 278.539,447.188 C275.389,443.163 273.751,438.238 271.326,433.8 C269.051,440.663 268.789,447.925 267.576,455 L211.926,455 C199.139,449.375 185.151,446.888 172.789,440.275 C162.776,434.838 153.276,428.438 144.714,420.925 C135.839,413.588 127.464,405.538 120.626,396.238 C112.701,384.738 106.389,372.188 101.451,359.138 C97.064,348.175 94.539,336.525 93.576,324.775 C93.076,317.35 93.264,309.9 93.239,302.463 C92.976,283.825 98.501,265.675 105.339,248.525 C108.989,239.063 115.001,230.838 120.464,222.388 C124.501,216.138 130.164,211.225 135.201,205.813 C139.864,200.838 145.551,196.975 150.814,192.675 C155.089,189.163 159.689,186.038 164.651,183.563 C161.589,186.525 158.276,189.2 154.914,191.8 C146.189,198.513 138.801,207 133.576,216.688 C131.514,220.425 129.301,224.075 127.089,227.738 C121.401,237.138 117.651,247.588 115.126,258.25 C112.676,268.675 110.189,279.213 110.114,289.975 C109.989,300.4 109.689,310.95 111.851,321.213 C114.676,334.638 117.639,348.2 123.576,360.65 C126.414,367.525 130.051,374.175 135.614,379.238 C134.601,370.25 131.289,361.713 130.339,352.713 C129.214,342.913 129.039,332.963 130.051,323.138 C132.914,301.725 139.951,280.213 154.276,263.65 C158.051,259.525 161.776,255.35 165.664,251.338 C169.326,247.55 174.276,245.513 178.939,243.288 C171.326,251.625 162.326,259.3 158.039,270.038 C155.076,277.038 151.364,283.75 149.164,291.063 C144.514,307.613 142.426,325.038 144.764,342.163 C146.139,353.688 148.551,365.425 155.026,375.288 C154.926,365.175 154.039,355.075 154.514,344.963 C154.926,332.888 158.439,321.125 163.314,310.15 C165.651,304.863 168.576,299.813 172.164,295.275 C177.389,288.675 182.826,281.713 190.789,278.275 C187.064,286.113 179.264,291.25 176.439,299.6 C170.651,315.313 165.889,331.875 166.626,348.788 C167.989,364.688 171.389,380.788 179.751,394.6 C189.214,413.663 204.839,429.463 223.476,439.663 C233.514,445.2 244.851,447.6 256.001,449.813 C260.039,450.675 264.189,450.175 268.126,449.063 C266.514,444.788 264.101,440.725 263.601,436.125 C263.576,431.125 266.439,426.763 268.401,422.35 C264.464,417.075 259.164,412.625 256.689,406.4 C254.676,399.838 258.401,393.45 260.701,387.5 C257.164,383.413 253.126,379.563 250.914,374.55 C249.151,370.638 249.664,366.025 251.676,362.313 C254.476,357.05 258.864,352.925 262.776,348.513 C257.826,343.25 251.614,339.075 247.714,332.9 C244.389,326.163 245.214,317.575 249.526,311.45 C253.026,306.3 257.364,301.813 261.426,297.125 C258.426,293.35 255.126,289.813 251.451,286.675 C246.401,282.413 242.476,276.963 239.439,271.125 C235.414,263.675 234.514,254.463 237.151,246.413 C240.214,240.713 245.376,236.5 249.101,231.238 C242.226,227.625 235.064,224.625 227.939,221.6 C224.826,220.2 221.551,218.888 219.076,216.475 C213.076,210.475 210.089,201.625 211.239,193.2 C212.226,184.188 216.664,176.05 221.839,168.788 C226.801,161.813 231.589,153.963 239.651,150.2 C245.951,146.888 253.226,146.713 260.176,147.1 C261.264,140.225 262.351,133.288 262.051,126.3 C262.014,120.263 261.001,114.063 262.689,108.163 C263.501,104.85 267.376,104.638 270.151,104.4 L274.994,104.25 C280.333,104.245 277.663,104.251 283.002,104.23 L286.271,104.322 z M292.401,399.25 C291.139,399.25 289.889,399.25 288.639,399.263 C288.501,401.925 288.376,404.588 288.264,407.25 C289.589,407.063 290.926,406.888 292.264,406.713 C293.076,404.213 293.526,401.725 292.401,399.25 L292.401,399.25 z M266.326,399.237 C265.189,401.725 265.651,404.225 266.464,406.725 C267.789,406.888 269.126,407.063 270.464,407.25 C270.351,404.575 270.226,401.913 270.089,399.263 C268.826,399.25 267.576,399.25 266.326,399.238 L266.326,399.237 z M292.626,365.099 L291.929,365.104 L291.188,365.287 C289.139,367.613 290.051,370.988 289.776,373.825 C291.714,373.338 293.689,372.975 295.539,372.188 C297.532,369.898 296.4,365.834 293.316,365.155 L292.626,365.099 z M266.808,365.093 C262.968,364.973 260.858,369.154 263.188,372.187 C265.026,372.975 267.001,373.35 268.939,373.825 C268.689,370.988 269.539,367.638 267.551,365.263 L266.808,365.093 z M295.588,318.35 C294.576,320.138 293.476,321.888 292.751,323.825 C292.939,326.063 293.614,328.225 294.164,330.4 C295.689,328.65 297.489,327.063 298.451,324.913 C297.851,322.588 296.651,320.475 295.589,318.35 L295.588,318.35 z M263.138,318.35 C262.076,320.475 260.876,322.588 260.276,324.913 C261.239,327.05 263.039,328.65 264.564,330.4 C265.101,328.213 265.789,326.063 265.976,323.813 C265.239,321.888 264.139,320.138 263.139,318.35 L263.138,318.35 z M263.713,246.037 C261.014,246.725 257.901,246.888 255.814,248.963 C253.576,251.138 251.914,254.175 252.189,257.375 C252.889,264.088 257.164,270.375 263.526,272.9 C265.214,264.038 265.114,254.925 263.714,246.038 L263.713,246.037 z M295.013,246.025 C293.614,254.925 293.514,264.025 295.189,272.888 C301.564,270.375 305.839,264.088 306.526,257.375 C306.801,254.175 305.139,251.125 302.914,248.963 C300.814,246.888 297.701,246.713 295.014,246.025 L295.013,246.025 z M300.551,154.525 C298.964,156.513 297.089,158.5 296.701,161.125 C294.664,171.45 295.401,182.038 295.251,192.5 C295.126,199.875 295.214,207.288 296.314,214.6 C305.139,215.7 313.564,212.088 321.214,208.088 C324.926,206.025 328.926,203.175 329.614,198.65 C330.601,192.288 328.089,185.425 323.139,181.288 C318.176,177.075 312.014,174.138 308.151,168.725 C305.051,164.313 303.076,159.263 300.551,154.525 L300.551,154.525 z M258.176,154.525 C254.801,160.738 252.501,167.875 247.014,172.65 C241.614,177.625 233.889,180.513 230.776,187.6 C228.339,192.888 227.601,200.275 232.389,204.5 C237.089,208.613 243.051,210.9 248.839,213.025 C253.151,214.725 257.839,214.925 262.414,214.6 C263.514,207.288 263.589,199.888 263.476,192.5 C263.326,182.038 264.064,171.45 262.026,161.125 C261.626,158.5 259.764,156.513 258.176,154.525 L258.176,154.525 z M504.463,5 L500.889,5 C500.414,9.063 500.314,13.563 497.464,16.813 C491.851,23.3 485.814,29.713 478.176,33.838 C467.176,40.025 455.076,43.925 443.026,47.488 C424.926,52.825 406.051,54.313 387.464,57 C379.064,58.375 370.464,59.65 362.751,63.463 C351.739,68.863 341.839,76.388 333.189,85.05 C329.201,89 325.089,92.963 320.089,95.625 C315.376,98.25 309.901,100.175 306.639,104.738 C304.464,107.813 302.539,111.363 302.376,115.2 C303.001,119.55 305.889,123.213 306.439,127.588 C306.814,130.813 306.639,134.075 306.664,137.325 C312.501,133.65 317.064,128.438 321.214,123.013 C324.001,125.938 326.489,129.275 327.414,133.3 C330.876,146.163 335.939,159.213 345.689,168.675 C351.989,175.3 360.489,180.15 369.751,180.688 C376.826,181.038 383.864,179.525 390.951,180.063 C388.351,178.85 385.739,177.663 383.151,176.438 C374.039,172.338 366.989,165.025 359.701,158.413 C354.476,153.688 350.601,147.675 348.226,141.063 C356.814,141.8 365.501,142.65 374.014,140.8 C372.726,138.163 371.451,135.538 370.226,132.875 C376.976,133.163 383.839,133.413 390.351,131.263 C384.439,125.088 376.164,122.238 369.576,116.95 C375.839,116.813 382.014,118.025 388.264,118.35 C392.426,118.65 396.451,117.3 400.314,115.925 C393.614,110.35 384.401,109.7 377.501,104.463 C385.576,103.988 393.651,105.763 401.714,104.85 C405.851,104.45 409.014,101.563 412.026,99 C405.576,96.213 398.764,94.425 392.251,91.8 C402.126,87.975 412.814,90.088 423.101,89.513 C440.501,88.65 457.901,86.825 474.914,82.988 C496.676,77.75 518.089,69.863 536.851,57.475 C540.939,54.8 545.226,52.438 549.339,49.788 C553.814,46.913 557.314,42.825 560.613,38.7 L560.614,19.438 C550.076,32.038 537.539,42.85 524.101,52.25 C505.939,64.088 485.626,72.5 464.626,77.775 C446.126,82.275 427.051,82.9 408.151,84.075 C395.714,84.413 383.026,83.288 370.876,86.625 C355.376,90.725 345.664,105.763 329.951,109.425 C324.589,111.238 318.939,110.013 314.014,107.538 C318.476,105.425 323.164,103.863 327.676,101.9 C335.126,98.663 340.864,92.75 347.114,87.738 C354.326,81.7 362.251,76.338 371.151,73.1 C389.326,66.025 408.989,64.938 428.126,62.4 C439.664,61.088 451.001,58.413 462.176,55.35 C473.414,52.25 484.401,47.663 493.814,40.688 C499.576,36.375 504.701,30.725 506.876,23.75 C508.676,17.45 506.314,11 504.463,5 z M57.913,5 L54.314,5 C52.414,10.988 50.039,17.45 51.851,23.75 C54.026,30.725 59.151,36.375 64.914,40.675 C74.326,47.663 85.301,52.25 96.551,55.35 C107.739,58.413 119.064,61.088 130.601,62.4 C149.739,64.938 169.401,66.025 187.576,73.1 C196.476,76.338 204.401,81.7 211.614,87.75 C217.864,92.75 223.601,98.65 231.051,101.9 C235.564,103.863 240.251,105.425 244.714,107.538 C240.426,109.488 235.701,111.163 230.951,109.913 C217.789,107.625 208.464,97.363 197.489,90.713 C183.689,82.688 167.126,84.425 151.826,84.113 C132.514,82.975 113.014,82.338 94.114,77.775 C73.676,72.663 53.951,64.525 36.139,53.25 C22.601,44.175 10.376,33.263 -0.637,21.275 L-0.636,39.175 C1.826,43.05 4.676,46.813 8.576,49.325 C12.676,52.013 17.014,54.3 21.114,56.988 C40.064,69.625 61.751,77.688 83.814,82.988 C100.826,86.825 118.226,88.65 135.626,89.513 C145.914,90.088 156.601,87.975 166.489,91.8 C159.976,94.425 153.151,96.213 146.701,98.988 C149.701,101.563 152.876,104.45 157.001,104.85 C165.064,105.763 173.139,103.988 181.226,104.463 C174.326,109.7 165.114,110.363 158.401,115.925 C162.276,117.3 166.289,118.638 170.464,118.35 C176.714,118.025 182.889,116.813 189.151,116.963 C182.564,122.238 174.276,125.088 168.376,131.263 C174.876,133.413 181.751,133.163 188.501,132.875 C187.264,135.538 185.989,138.163 184.714,140.8 C193.226,142.65 201.926,141.8 210.501,141.075 C208.114,147.675 204.251,153.688 199.026,158.4 C191.739,165.025 184.689,172.325 175.576,176.438 C172.976,177.663 170.376,178.85 167.776,180.063 C174.864,179.513 181.889,181.038 188.976,180.688 C198.239,180.15 206.739,175.3 213.039,168.675 C222.789,159.213 227.851,146.163 231.314,133.3 C232.239,129.275 234.714,125.938 237.514,123.013 C241.664,128.438 246.226,133.65 252.064,137.325 C252.076,134.075 251.914,130.825 252.289,127.588 C252.839,123.225 255.726,119.55 256.351,115.213 C256.189,111.363 254.264,107.813 252.076,104.738 C248.826,100.163 243.351,98.25 238.639,95.625 C233.639,92.963 229.526,89 225.539,85.05 C216.889,76.375 206.989,68.863 195.976,63.463 C188.589,59.8 180.364,58.488 172.314,57.163 C157.764,54.975 143.076,53.688 128.664,50.713 C119.164,48.625 109.764,46.013 100.639,42.638 C92.276,39.763 84.051,36.288 76.639,31.438 C71.926,28.35 68.051,24.2 64.176,20.15 C62.176,17.963 60.001,15.738 59.051,12.863 C58.301,10.313 58.189,7.625 57.913,5 z M179.789,142.487 L179.789,142.487 C170.026,144.975 160.276,147.575 150.451,149.812 C142.839,151.45 135.026,151.737 127.351,152.95 C127.401,153.587 127.514,154.837 127.564,155.475 C137.276,159.087 147.651,160.675 157.989,160.775 C165.714,160.437 173.301,158.787 181.001,158.075 C181.139,158.812 181.401,160.262 181.539,161 C173.789,165.237 164.426,164.112 156.751,168.462 C161.664,171.337 167.226,172.837 172.901,173.15 C177.426,168.1 183.389,164.712 188.226,160.012 C186.464,159.187 184.701,158.362 182.939,157.525 C184.826,157.087 186.726,156.637 188.614,156.187 C188.726,154.637 188.826,153.1 188.939,151.55 C185.714,148.712 182.614,145.737 179.789,142.487 z M378.939,142.475 L378.939,142.475 C376.126,145.725 373.014,148.712 369.789,151.55 C369.889,153.1 370.001,154.637 370.101,156.188 C371.989,156.637 373.889,157.087 375.789,157.525 C374.026,158.362 372.251,159.188 370.501,160.012 C375.339,164.7 381.289,168.112 385.826,173.137 C391.601,172.9 397.464,171.587 401.901,167.65 C393.801,164.875 384.939,164.887 377.189,161 C377.326,160.262 377.601,158.812 377.739,158.087 C385.426,158.787 393.014,160.438 400.739,160.775 C411.076,160.675 421.451,159.087 431.164,155.475 C431.214,154.837 431.326,153.587 431.376,152.95 C423.701,151.737 415.889,151.438 408.276,149.812 L393.579,146.242 L378.939,142.475 z M402.951,129.575 L402.951,129.575 C395.989,129.625 390.264,134.512 385.451,139.05 C390.364,142.312 395.876,144.812 401.814,145.325 C417.114,146.7 432.751,146.075 447.601,141.9 C452.126,140.625 456.326,138.488 460.389,136.137 C460.201,135.363 459.851,133.787 459.664,133.012 C452.026,132.575 444.464,133.75 436.864,134.087 C425.426,133.837 414.226,131.225 402.951,129.575 z M155.947,129.64 L154.538,129.663 L153.064,129.9 C145.151,131.475 137.164,132.662 129.164,133.65 C118.726,135.212 108.314,131.775 97.864,133.425 C99.751,136.3 102.114,139.037 105.539,140.037 C121.176,145.775 138.164,146.675 154.651,145.55 C161.364,145.262 167.764,142.812 173.276,139.05 C168.315,134.548 162.964,129.963 155.947,129.64 z M67.339,111.4 L67.339,111.4 C69.989,114.763 72.901,118.125 76.889,119.913 C84.189,123.288 92.051,125.25 99.889,126.925 C110.826,129.275 122.039,128.063 133.114,128.438 C140.851,128.713 148.551,127.813 156.214,126.775 C154.239,122.838 152.264,118.375 148.139,116.25 C144.776,114.788 140.989,115.4 137.451,115.65 C121.264,117.638 104.864,116.6 88.776,114.325 C81.651,113.2 74.551,111.838 67.339,111.4 z M491.376,111.4 C484.547,112.006 477.762,112.942 471.014,114.163 C456.039,116.363 440.826,117.45 425.714,116.125 C420.989,115.75 416.126,114.65 411.464,115.888 C406.776,117.688 404.601,122.6 402.514,126.775 C415.951,129.138 429.601,128.25 443.164,128.4 C455.526,128.513 467.689,125.375 479.201,121.1 C483.551,119.347 487.243,116.668 490.167,112.965 L491.376,111.4 z M554.339,53.437 L554.339,53.438 C544.439,62.775 531.901,68.325 519.864,74.3 C509.839,79.162 499.189,82.65 488.326,85.1 C484.101,86.012 479.989,87.438 476.164,89.463 C481.039,89.825 486.001,90.025 490.789,88.862 C499.326,86.8 508.014,85.537 516.626,83.812 C516.426,84.487 516.051,85.85 515.851,86.537 C508.276,88.612 500.726,91.025 492.901,91.975 C487.701,92.612 482.539,93.475 477.426,94.6 C475.101,95.463 472.776,96.338 470.326,96.725 C457.576,98.5 444.676,98.463 431.839,98.188 C428.389,98.35 424.614,97.838 421.464,99.537 C419.276,102.1 418.114,105.325 416.739,108.362 C421.326,108.963 425.964,109.3 430.601,109.275 C440.376,109.225 450.189,109.55 459.926,108.312 C470.451,107.537 480.739,105.025 491.239,104.062 C491.551,104.475 492.164,105.3 492.464,105.713 C496.151,103.8 499.989,102.162 503.901,100.762 C510.939,98.225 517.539,94.65 524.076,91.037 C526.064,89.812 528.276,88.637 529.551,86.6 C530.139,84.325 530.176,81.95 530.414,79.625 C534.639,76.7 539.326,74.525 543.589,71.65 C549.539,67.5 554.739,61.087 554.339,53.437 z M4.388,53.45 L4.389,53.45 C4.464,57.575 5.376,61.775 8.164,64.963 C13.126,71.975 21.476,74.938 28.314,79.638 C28.539,81.963 28.589,84.325 29.189,86.6 C30.451,88.65 32.664,89.813 34.651,91.038 C41.189,94.65 47.776,98.225 54.826,100.763 C58.739,102.163 62.564,103.8 66.264,105.713 C66.564,105.3 67.189,104.475 67.489,104.063 C82.689,105.825 97.739,109.175 113.114,109.25 C122.739,109.175 132.426,109.725 141.989,108.363 C140.601,105.338 139.439,102.113 137.264,99.538 C134.914,98.15 132.051,98.363 129.439,98.2 C119.714,98.138 109.976,98.688 100.276,97.888 C93.876,97.313 87.264,97.275 81.301,94.6 C76.189,93.475 71.026,92.613 65.826,91.975 C57.989,91.025 50.451,88.613 42.864,86.525 C42.676,85.85 42.301,84.5 42.114,83.813 C50.714,85.538 59.414,86.8 67.939,88.863 C72.726,90.013 77.676,89.825 82.551,89.463 C76.064,85.825 68.614,84.9 61.576,82.863 C53.789,80.663 46.164,77.825 38.876,74.3 C26.839,68.325 14.289,62.775 4.388,53.45 z M279.694,51.788 C272.005,52.542 275.245,51.967 269.914,53.125 C265.426,54.85 261.851,58.3 258.701,61.825 C253.989,67.113 254.464,74.788 255.439,81.313 C256.526,89.4 262.514,96.85 270.501,98.95 C275.651,99.988 281.001,99.925 286.214,99.325 C291.814,98.688 296.639,95.013 299.789,90.488 C302.714,86.238 303.614,80.975 303.876,75.913 C304.001,71.863 303.814,67.525 301.601,64 C299.851,61.238 297.439,58.963 294.976,56.863 C291.058,53.938 286.758,52.101 281.813,51.851 L279.694,51.788 z M48.126,37.312 L48.126,37.313 C48.864,41.463 49.751,45.888 52.864,48.988 C60.301,56.875 70.726,60.838 80.489,64.988 C96.689,70.838 113.876,73.325 130.976,74.663 C139.326,75.9 147.776,75.288 156.076,74.063 C145.576,71.35 134.739,70.425 124.026,68.963 C103.726,66.05 83.126,61.125 65.639,50 C59.489,46.213 54.189,41.225 48.126,37.312 z M510.601,37.313 L510.601,37.313 L510.601,37.313 C504.444,41.627 498.678,46.476 492.314,50.488 C479.339,58.738 464.401,63.2 449.501,66.463 C434.014,69.825 418.026,70.15 402.651,74.063 C410.951,75.288 419.401,75.888 427.751,74.663 C444.851,73.325 462.039,70.838 478.239,64.988 C488.001,60.838 498.426,56.875 505.864,48.988 C508.742,45.692 509.993,41.606 510.601,37.313 L510.601,37.313 z" fill="url(#Gradient_1)"/>
    <path d="M345.901,314.925 C348.301,314.663 350.701,314.4 353.101,314.138 C361.051,334.975 368.626,356 378.014,376.25 C372.751,376.25 367.501,376.225 362.251,376.075 C360.501,370.188 358.551,364.363 356.601,358.538 C349.589,357.975 342.551,357.975 335.526,358.35 C333.214,364.238 331.189,370.225 329.364,376.288 C326.476,376.25 323.589,376.213 320.701,376.175 C329.651,355.988 337.826,335.475 345.901,314.925 M338.001,352.738 C343.426,352.9 348.851,352.913 354.289,352.788 C351.751,345.875 349.214,338.975 346.376,332.175 C343.064,338.8 340.389,345.725 338.001,352.738 z" fill="#008751"/>
    <path d="M181.764,314.9 C186.589,314.938 191.414,314.913 196.239,314.825 C196.051,322.95 195.764,331.088 195.501,339.213 C204.739,339.725 213.989,339.725 223.226,339.213 C222.951,331.088 222.664,322.95 222.489,314.813 C227.314,314.913 232.151,314.925 236.976,314.9 C236.176,335.363 236.126,355.863 237.001,376.325 C232.064,376.263 227.126,376.2 222.189,376.088 C222.976,366.263 223.151,356.4 223.014,346.538 C213.914,346.313 204.814,346.263 195.714,346.525 C195.614,356.388 195.776,366.25 196.551,376.088 C191.614,376.2 186.676,376.263 181.751,376.338 C182.601,355.863 182.576,335.363 181.764,314.9 z" fill="#008751"/>
  </g>
  <g id="Layer_2">
    <g>
      <path d="M638.726,237.599 L622.905,237.599 L622.905,194.159 L578.477,194.159 L578.477,237.599 L562.722,237.599 L562.722,141.227 L578.477,141.227 L578.477,180.646 L622.905,180.646 L622.905,141.227 L638.726,141.227 z M694.294,238.917 Q677.288,238.917 667.697,228.997 Q658.105,219.076 658.105,201.674 Q658.105,183.81 667.004,173.593 Q675.903,163.375 691.46,163.375 Q705.896,163.375 714.268,172.142 Q722.639,180.91 722.639,196.268 L722.639,204.64 L674.058,204.64 Q674.387,215.253 679.792,220.955 Q685.198,226.657 695.02,226.657 Q701.479,226.657 707.05,225.437 Q712.62,224.218 719.014,221.383 L719.014,233.973 Q713.345,236.676 707.544,237.797 Q701.743,238.917 694.294,238.917 z M691.46,175.109 Q684.077,175.109 679.628,179.789 Q675.178,184.469 674.321,193.434 L707.412,193.434 Q707.28,184.403 703.062,179.756 Q698.843,175.109 691.46,175.109 z M785.854,237.599 L782.756,227.448 L782.229,227.448 Q776.956,234.105 771.616,236.511 Q766.277,238.917 757.905,238.917 Q747.161,238.917 741.129,233.117 Q735.098,227.316 735.098,216.703 Q735.098,205.431 743.469,199.696 Q751.841,193.961 768.979,193.434 L781.57,193.038 L781.57,189.149 Q781.57,182.162 778.307,178.701 Q775.044,175.241 768.188,175.241 Q762.585,175.241 757.444,176.889 Q752.302,178.536 747.556,180.778 L742.546,169.703 Q748.479,166.605 755.532,164.99 Q762.585,163.375 768.848,163.375 Q782.756,163.375 789.843,169.44 Q796.929,175.504 796.929,188.49 L796.929,237.599 z M762.783,227.052 Q771.221,227.052 776.329,222.339 Q781.438,217.626 781.438,209.122 L781.438,202.794 L772.078,203.19 Q761.135,203.585 756.158,206.848 Q751.182,210.111 751.182,216.835 Q751.182,221.713 754.082,224.382 Q756.982,227.052 762.783,227.052 z M834.041,237.599 L818.55,237.599 L818.55,135.031 L834.041,135.031 z M883.347,226.393 Q889.016,226.393 894.685,224.613 L894.685,236.281 Q892.114,237.401 888.06,238.159 Q884.006,238.917 879.656,238.917 Q857.639,238.917 857.639,215.714 L857.639,176.427 L847.686,176.427 L847.686,169.572 L858.364,163.903 L863.638,148.478 L873.196,148.478 L873.196,164.694 L893.96,164.694 L893.96,176.427 L873.196,176.427 L873.196,215.451 Q873.196,221.054 875.997,223.723 Q878.799,226.393 883.347,226.393 z M973.391,237.599 L957.834,237.599 L957.834,192.775 Q957.834,184.337 954.44,180.184 Q951.045,176.032 943.662,176.032 Q933.906,176.032 929.325,181.865 Q924.744,187.699 924.744,201.41 L924.744,237.599 L909.253,237.599 L909.253,135.031 L924.744,135.031 L924.744,161.068 Q924.744,167.33 923.953,174.45 L924.941,174.45 Q928.105,169.176 933.741,166.276 Q939.377,163.375 946.892,163.375 Q973.391,163.375 973.391,190.072 z M1091.45,237.599 L1081.826,210.836 L1044.978,210.836 L1035.552,237.599 L1018.94,237.599 L1054.998,140.831 L1072.136,140.831 L1108.193,237.599 z M1077.673,197.257 L1068.643,171.022 Q1067.654,168.385 1065.907,162.716 Q1064.16,157.047 1063.501,154.41 Q1061.721,162.518 1058.293,172.142 L1049.592,197.257 z M1170.684,237.599 L1168.508,228.041 L1167.717,228.041 Q1164.487,233.117 1158.522,236.017 Q1152.556,238.917 1144.91,238.917 Q1131.66,238.917 1125.134,232.326 Q1118.608,225.734 1118.608,212.352 L1118.608,164.694 L1134.231,164.694 L1134.231,209.65 Q1134.231,218.021 1137.659,222.207 Q1141.086,226.393 1148.403,226.393 Q1158.159,226.393 1162.74,220.559 Q1167.322,214.725 1167.322,201.014 L1167.322,164.694 L1182.878,164.694 L1182.878,237.599 z M1229.548,238.917 Q1215.903,238.917 1208.257,229.03 Q1200.61,219.142 1200.61,201.278 Q1200.61,183.348 1208.356,173.362 Q1216.101,163.375 1229.812,163.375 Q1244.182,163.375 1251.697,173.988 L1252.488,173.988 Q1251.367,166.144 1251.367,161.596 L1251.367,135.031 L1266.924,135.031 L1266.924,237.599 L1254.795,237.599 L1252.092,228.041 L1251.367,228.041 Q1243.918,238.917 1229.548,238.917 z M1233.701,226.393 Q1243.259,226.393 1247.61,221.021 Q1251.96,215.648 1252.092,203.585 L1252.092,201.41 Q1252.092,187.633 1247.61,181.832 Q1243.127,176.032 1233.569,176.032 Q1225.396,176.032 1220.979,182.656 Q1216.562,189.281 1216.562,201.542 Q1216.562,213.671 1220.847,220.032 Q1225.132,226.393 1233.701,226.393 z M1304.563,237.599 L1289.072,237.599 L1289.072,164.694 L1304.563,164.694 z M1288.149,145.38 Q1288.149,141.227 1290.424,138.986 Q1292.698,136.744 1296.917,136.744 Q1301.003,136.744 1303.278,138.986 Q1305.552,141.227 1305.552,145.38 Q1305.552,149.335 1303.278,151.609 Q1301.003,153.883 1296.917,153.883 Q1292.698,153.883 1290.424,151.609 Q1288.149,149.335 1288.149,145.38 z M1353.87,226.393 Q1359.539,226.393 1365.208,224.613 L1365.208,236.281 Q1362.637,237.401 1358.583,238.159 Q1354.529,238.917 1350.178,238.917 Q1328.162,238.917 1328.162,215.714 L1328.162,176.427 L1318.208,176.427 L1318.208,169.572 L1328.887,163.903 L1334.16,148.478 L1343.718,148.478 L1343.718,164.694 L1364.482,164.694 L1364.482,176.427 L1343.718,176.427 L1343.718,215.451 Q1343.718,221.054 1346.52,223.723 Q1349.321,226.393 1353.87,226.393 z" fill="url(#Gradient_2)"/>
      <path d="M638.726,237.599 L622.905,237.599 L622.905,194.159 L578.477,194.159 L578.477,237.599 L562.722,237.599 L562.722,141.227 L578.477,141.227 L578.477,180.646 L622.905,180.646 L622.905,141.227 L638.726,141.227 z M694.294,238.917 Q677.288,238.917 667.697,228.997 Q658.105,219.076 658.105,201.674 Q658.105,183.81 667.004,173.593 Q675.903,163.375 691.46,163.375 Q705.896,163.375 714.268,172.142 Q722.639,180.91 722.639,196.268 L722.639,204.64 L674.058,204.64 Q674.387,215.253 679.792,220.955 Q685.198,226.657 695.02,226.657 Q701.479,226.657 707.05,225.437 Q712.62,224.218 719.014,221.383 L719.014,233.973 Q713.345,236.676 707.544,237.797 Q701.743,238.917 694.294,238.917 z M691.46,175.109 Q684.077,175.109 679.628,179.789 Q675.178,184.469 674.321,193.434 L707.412,193.434 Q707.28,184.403 703.062,179.756 Q698.843,175.109 691.46,175.109 z M785.854,237.599 L782.756,227.448 L782.229,227.448 Q776.956,234.105 771.616,236.511 Q766.277,238.917 757.905,238.917 Q747.161,238.917 741.129,233.117 Q735.098,227.316 735.098,216.703 Q735.098,205.431 743.469,199.696 Q751.841,193.961 768.979,193.434 L781.57,193.038 L781.57,189.149 Q781.57,182.162 778.307,178.701 Q775.044,175.241 768.188,175.241 Q762.585,175.241 757.444,176.889 Q752.302,178.536 747.556,180.778 L742.546,169.703 Q748.479,166.605 755.532,164.99 Q762.585,163.375 768.848,163.375 Q782.756,163.375 789.843,169.44 Q796.929,175.504 796.929,188.49 L796.929,237.599 z M762.783,227.052 Q771.221,227.052 776.329,222.339 Q781.438,217.626 781.438,209.122 L781.438,202.794 L772.078,203.19 Q761.135,203.585 756.158,206.848 Q751.182,210.111 751.182,216.835 Q751.182,221.713 754.082,224.382 Q756.982,227.052 762.783,227.052 z M834.041,237.599 L818.55,237.599 L818.55,135.031 L834.041,135.031 z M883.347,226.393 Q889.016,226.393 894.685,224.613 L894.685,236.281 Q892.114,237.401 888.06,238.159 Q884.006,238.917 879.656,238.917 Q857.639,238.917 857.639,215.714 L857.639,176.427 L847.686,176.427 L847.686,169.572 L858.364,163.903 L863.638,148.478 L873.196,148.478 L873.196,164.694 L893.96,164.694 L893.96,176.427 L873.196,176.427 L873.196,215.451 Q873.196,221.054 875.997,223.723 Q878.799,226.393 883.347,226.393 z M973.391,237.599 L957.834,237.599 L957.834,192.775 Q957.834,184.337 954.44,180.184 Q951.045,176.032 943.662,176.032 Q933.906,176.032 929.325,181.865 Q924.744,187.699 924.744,201.41 L924.744,237.599 L909.253,237.599 L909.253,135.031 L924.744,135.031 L924.744,161.068 Q924.744,167.33 923.953,174.45 L924.941,174.45 Q928.105,169.176 933.741,166.276 Q939.377,163.375 946.892,163.375 Q973.391,163.375 973.391,190.072 z M1091.45,237.599 L1081.826,210.836 L1044.978,210.836 L1035.552,237.599 L1018.94,237.599 L1054.998,140.831 L1072.136,140.831 L1108.193,237.599 z M1077.673,197.257 L1068.643,171.022 Q1067.654,168.385 1065.907,162.716 Q1064.16,157.047 1063.501,154.41 Q1061.721,162.518 1058.293,172.142 L1049.592,197.257 z M1170.684,237.599 L1168.508,228.041 L1167.717,228.041 Q1164.487,233.117 1158.522,236.017 Q1152.556,238.917 1144.91,238.917 Q1131.66,238.917 1125.134,232.326 Q1118.608,225.734 1118.608,212.352 L1118.608,164.694 L1134.231,164.694 L1134.231,209.65 Q1134.231,218.021 1137.659,222.207 Q1141.086,226.393 1148.403,226.393 Q1158.159,226.393 1162.74,220.559 Q1167.322,214.725 1167.322,201.014 L1167.322,164.694 L1182.878,164.694 L1182.878,237.599 z M1229.548,238.917 Q1215.903,238.917 1208.257,229.03 Q1200.61,219.142 1200.61,201.278 Q1200.61,183.348 1208.356,173.362 Q1216.101,163.375 1229.812,163.375 Q1244.182,163.375 1251.697,173.988 L1252.488,173.988 Q1251.367,166.144 1251.367,161.596 L1251.367,135.031 L1266.924,135.031 L1266.924,237.599 L1254.795,237.599 L1252.092,228.041 L1251.367,228.041 Q1243.918,238.917 1229.548,238.917 z M1233.701,226.393 Q1243.259,226.393 1247.61,221.021 Q1251.96,215.648 1252.092,203.585 L1252.092,201.41 Q1252.092,187.633 1247.61,181.832 Q1243.127,176.032 1233.569,176.032 Q1225.396,176.032 1220.979,182.656 Q1216.562,189.281 1216.562,201.542 Q1216.562,213.671 1220.847,220.032 Q1225.132,226.393 1233.701,226.393 z M1304.563,237.599 L1289.072,237.599 L1289.072,164.694 L1304.563,164.694 z M1288.149,145.38 Q1288.149,141.227 1290.424,138.986 Q1292.698,136.744 1296.917,136.744 Q1301.003,136.744 1303.278,138.986 Q1305.552,141.227 1305.552,145.38 Q1305.552,149.335 1303.278,151.609 Q1301.003,153.883 1296.917,153.883 Q1292.698,153.883 1290.424,151.609 Q1288.149,149.335 1288.149,145.38 z M1353.87,226.393 Q1359.539,226.393 1365.208,224.613 L1365.208,236.281 Q1362.637,237.401 1358.583,238.159 Q1354.529,238.917 1350.178,238.917 Q1328.162,238.917 1328.162,215.714 L1328.162,176.427 L1318.208,176.427 L1318.208,169.572 L1328.887,163.903 L1334.16,148.478 L1343.718,148.478 L1343.718,164.694 L1364.482,164.694 L1364.482,176.427 L1343.718,176.427 L1343.718,215.451 Q1343.718,221.054 1346.52,223.723 Q1349.321,226.393 1353.87,226.393 z" fill-opacity="0" stroke="#008751" stroke-width="1.5"/>
    </g>
    <g>
      <path d="M833.219,332.947 L825.221,312.512 L799.469,312.512 L791.559,332.947 L784,332.947 L809.4,268.435 L815.685,268.435 L840.953,332.947 z M822.892,305.789 L815.421,285.881 Q813.971,282.102 812.433,276.609 Q811.466,280.828 809.664,285.881 L802.106,305.789 z M855.543,284.783 L855.543,316.028 Q855.543,321.917 858.224,324.817 Q860.904,327.717 866.617,327.717 Q874.176,327.717 877.669,323.586 Q881.163,319.456 881.163,310.095 L881.163,284.783 L888.458,284.783 L888.458,332.947 L882.438,332.947 L881.383,326.487 L880.987,326.487 Q878.746,330.046 874.769,331.936 Q870.792,333.826 865.694,333.826 Q856.905,333.826 852.533,329.651 Q848.16,325.476 848.16,316.292 L848.16,284.783 z M934.996,319.807 Q934.996,326.531 929.986,330.178 Q924.977,333.826 915.924,333.826 Q906.344,333.826 900.982,330.794 L900.982,324.026 Q904.454,325.784 908.431,326.794 Q912.408,327.805 916.1,327.805 Q921.813,327.805 924.889,325.982 Q927.965,324.158 927.965,320.422 Q927.965,317.61 925.526,315.61 Q923.087,313.611 916.012,310.886 Q909.288,308.381 906.454,306.514 Q903.619,304.646 902.235,302.273 Q900.851,299.9 900.851,296.604 Q900.851,290.715 905.641,287.31 Q910.431,283.904 918.78,283.904 Q926.559,283.904 933.985,287.068 L931.393,293.001 Q924.142,290.012 918.253,290.012 Q913.067,290.012 910.431,291.638 Q907.794,293.264 907.794,296.121 Q907.794,298.054 908.783,299.417 Q909.772,300.779 911.969,302.009 Q914.166,303.24 920.406,305.569 Q928.976,308.689 931.986,311.853 Q934.996,315.017 934.996,319.807 z M962.418,327.805 Q964.352,327.805 966.153,327.52 Q967.955,327.234 969.01,326.926 L969.01,332.507 Q967.823,333.079 965.516,333.452 Q963.209,333.826 961.363,333.826 Q947.389,333.826 947.389,319.104 L947.389,290.452 L940.489,290.452 L940.489,286.936 L947.389,283.904 L950.465,273.621 L954.684,273.621 L954.684,284.783 L968.658,284.783 L968.658,290.452 L954.684,290.452 L954.684,318.796 Q954.684,323.147 956.749,325.476 Q958.815,327.805 962.418,327.805 z M1000.607,283.904 Q1003.815,283.904 1006.363,284.431 L1005.353,291.199 Q1002.364,290.54 1000.079,290.54 Q994.234,290.54 990.082,295.286 Q985.929,300.032 985.929,307.107 L985.929,332.947 L978.634,332.947 L978.634,284.783 L984.654,284.783 L985.489,293.704 L985.841,293.704 Q988.522,289.002 992.301,286.453 Q996.08,283.904 1000.607,283.904 z M1043.189,332.947 L1041.739,326.091 L1041.388,326.091 Q1037.784,330.618 1034.203,332.222 Q1030.621,333.826 1025.26,333.826 Q1018.097,333.826 1014.032,330.134 Q1009.967,326.443 1009.967,319.631 Q1009.967,305.042 1033.302,304.338 L1041.476,304.075 L1041.476,301.086 Q1041.476,295.418 1039.037,292.715 Q1036.598,290.012 1031.236,290.012 Q1025.216,290.012 1017.613,293.704 L1015.372,288.123 Q1018.932,286.189 1023.172,285.09 Q1027.413,283.992 1031.676,283.992 Q1040.289,283.992 1044.442,287.815 Q1048.595,291.638 1048.595,300.076 L1048.595,332.947 z M1026.71,327.805 Q1033.521,327.805 1037.411,324.07 Q1041.3,320.335 1041.3,313.611 L1041.3,309.26 L1034.005,309.568 Q1025.304,309.876 1021.459,312.271 Q1017.613,314.666 1017.613,319.719 Q1017.613,323.674 1020.008,325.74 Q1022.403,327.805 1026.71,327.805 z M1070.919,332.947 L1063.624,332.947 L1063.624,264.568 L1070.919,264.568 z M1093.683,332.947 L1086.388,332.947 L1086.388,284.783 L1093.683,284.783 z M1085.772,271.731 Q1085.772,269.226 1087.003,268.062 Q1088.233,266.897 1090.079,266.897 Q1091.837,266.897 1093.111,268.084 Q1094.386,269.27 1094.386,271.731 Q1094.386,274.192 1093.111,275.4 Q1091.837,276.609 1090.079,276.609 Q1088.233,276.609 1087.003,275.4 Q1085.772,274.192 1085.772,271.731 z M1138.771,332.947 L1137.32,326.091 L1136.969,326.091 Q1133.365,330.618 1129.784,332.222 Q1126.202,333.826 1120.841,333.826 Q1113.678,333.826 1109.613,330.134 Q1105.548,326.443 1105.548,319.631 Q1105.548,305.042 1128.883,304.338 L1137.057,304.075 L1137.057,301.086 Q1137.057,295.418 1134.618,292.715 Q1132.179,290.012 1126.817,290.012 Q1120.797,290.012 1113.194,293.704 L1110.953,288.123 Q1114.513,286.189 1118.753,285.09 Q1122.994,283.992 1127.257,283.992 Q1135.87,283.992 1140.023,287.815 Q1144.176,291.638 1144.176,300.076 L1144.176,332.947 z M1122.291,327.805 Q1129.103,327.805 1132.992,324.07 Q1136.881,320.335 1136.881,313.611 L1136.881,309.26 L1129.586,309.568 Q1120.885,309.876 1117.04,312.271 Q1113.194,314.666 1113.194,319.719 Q1113.194,323.674 1115.589,325.74 Q1117.984,327.805 1122.291,327.805 z" fill="url(#Gradient_3)"/>
      <path d="M833.219,332.947 L825.221,312.512 L799.469,312.512 L791.559,332.947 L784,332.947 L809.4,268.435 L815.685,268.435 L840.953,332.947 z M822.892,305.789 L815.421,285.881 Q813.971,282.102 812.433,276.609 Q811.466,280.828 809.664,285.881 L802.106,305.789 z M855.543,284.783 L855.543,316.028 Q855.543,321.917 858.224,324.817 Q860.904,327.717 866.617,327.717 Q874.176,327.717 877.669,323.586 Q881.163,319.456 881.163,310.095 L881.163,284.783 L888.458,284.783 L888.458,332.947 L882.438,332.947 L881.383,326.487 L880.987,326.487 Q878.746,330.046 874.769,331.936 Q870.792,333.826 865.694,333.826 Q856.905,333.826 852.533,329.651 Q848.16,325.476 848.16,316.292 L848.16,284.783 z M934.996,319.807 Q934.996,326.531 929.986,330.178 Q924.977,333.826 915.924,333.826 Q906.344,333.826 900.982,330.794 L900.982,324.026 Q904.454,325.784 908.431,326.794 Q912.408,327.805 916.1,327.805 Q921.813,327.805 924.889,325.982 Q927.965,324.158 927.965,320.422 Q927.965,317.61 925.526,315.61 Q923.087,313.611 916.012,310.886 Q909.288,308.381 906.454,306.514 Q903.619,304.646 902.235,302.273 Q900.851,299.9 900.851,296.604 Q900.851,290.715 905.641,287.31 Q910.431,283.904 918.78,283.904 Q926.559,283.904 933.985,287.068 L931.393,293.001 Q924.142,290.012 918.253,290.012 Q913.067,290.012 910.431,291.638 Q907.794,293.264 907.794,296.121 Q907.794,298.054 908.783,299.417 Q909.772,300.779 911.969,302.009 Q914.166,303.24 920.406,305.569 Q928.976,308.689 931.986,311.853 Q934.996,315.017 934.996,319.807 z M962.418,327.805 Q964.352,327.805 966.153,327.52 Q967.955,327.234 969.01,326.926 L969.01,332.507 Q967.823,333.079 965.516,333.452 Q963.209,333.826 961.363,333.826 Q947.389,333.826 947.389,319.104 L947.389,290.452 L940.489,290.452 L940.489,286.936 L947.389,283.904 L950.465,273.621 L954.684,273.621 L954.684,284.783 L968.658,284.783 L968.658,290.452 L954.684,290.452 L954.684,318.796 Q954.684,323.147 956.749,325.476 Q958.815,327.805 962.418,327.805 z M1000.607,283.904 Q1003.815,283.904 1006.363,284.431 L1005.353,291.199 Q1002.364,290.54 1000.079,290.54 Q994.234,290.54 990.082,295.286 Q985.929,300.032 985.929,307.107 L985.929,332.947 L978.634,332.947 L978.634,284.783 L984.654,284.783 L985.489,293.704 L985.841,293.704 Q988.522,289.002 992.301,286.453 Q996.08,283.904 1000.607,283.904 z M1043.189,332.947 L1041.739,326.091 L1041.388,326.091 Q1037.784,330.618 1034.203,332.222 Q1030.621,333.826 1025.26,333.826 Q1018.097,333.826 1014.032,330.134 Q1009.967,326.443 1009.967,319.631 Q1009.967,305.042 1033.302,304.338 L1041.476,304.075 L1041.476,301.086 Q1041.476,295.418 1039.037,292.715 Q1036.598,290.012 1031.236,290.012 Q1025.216,290.012 1017.613,293.704 L1015.372,288.123 Q1018.932,286.189 1023.172,285.09 Q1027.413,283.992 1031.676,283.992 Q1040.289,283.992 1044.442,287.815 Q1048.595,291.638 1048.595,300.076 L1048.595,332.947 z M1026.71,327.805 Q1033.521,327.805 1037.411,324.07 Q1041.3,320.335 1041.3,313.611 L1041.3,309.26 L1034.005,309.568 Q1025.304,309.876 1021.459,312.271 Q1017.613,314.666 1017.613,319.719 Q1017.613,323.674 1020.008,325.74 Q1022.403,327.805 1026.71,327.805 z M1070.919,332.947 L1063.624,332.947 L1063.624,264.568 L1070.919,264.568 z M1093.683,332.947 L1086.388,332.947 L1086.388,284.783 L1093.683,284.783 z M1085.772,271.731 Q1085.772,269.226 1087.003,268.062 Q1088.233,266.897 1090.079,266.897 Q1091.837,266.897 1093.111,268.084 Q1094.386,269.27 1094.386,271.731 Q1094.386,274.192 1093.111,275.4 Q1091.837,276.609 1090.079,276.609 Q1088.233,276.609 1087.003,275.4 Q1085.772,274.192 1085.772,271.731 z M1138.771,332.947 L1137.32,326.091 L1136.969,326.091 Q1133.365,330.618 1129.784,332.222 Q1126.202,333.826 1120.841,333.826 Q1113.678,333.826 1109.613,330.134 Q1105.548,326.443 1105.548,319.631 Q1105.548,305.042 1128.883,304.338 L1137.057,304.075 L1137.057,301.086 Q1137.057,295.418 1134.618,292.715 Q1132.179,290.012 1126.817,290.012 Q1120.797,290.012 1113.194,293.704 L1110.953,288.123 Q1114.513,286.189 1118.753,285.09 Q1122.994,283.992 1127.257,283.992 Q1135.87,283.992 1140.023,287.815 Q1144.176,291.638 1144.176,300.076 L1144.176,332.947 z M1122.291,327.805 Q1129.103,327.805 1132.992,324.07 Q1136.881,320.335 1136.881,313.611 L1136.881,309.26 L1129.586,309.568 Q1120.885,309.876 1117.04,312.271 Q1113.194,314.666 1113.194,319.719 Q1113.194,323.674 1115.589,325.74 Q1117.984,327.805 1122.291,327.805 z" fill-opacity="0" stroke="#008751" stroke-width="1.5"/>
    </g>
  </g>
</svg>
