<?xml version="1.0" encoding="UTF-8" ?>
<!DOCTYPE svg PUBLIC "-//W3C//DTD SVG 1.1//EN" "http://www.w3.org/Graphics/SVG/1.1/DTD/svg11.dtd">
<svg width="198pt" height="215pt" viewBox="0 0 198 215" version="1.1" xmlns="http://www.w3.org/2000/svg">
<g id="#ffffffff">
<path fill="#ffffff" opacity="1.00" d=" M 47.45 19.85 C 48.63 15.77 49.68 11.65 50.99 7.61 C 51.99 11.66 52.97 15.72 53.97 19.77 C 51.79 19.80 49.62 19.82 47.45 19.85 Z" />
<path fill="#ffffff" opacity="1.00" d=" M 105.38 19.82 C 106.56 15.73 107.67 11.62 108.99 7.56 C 109.89 11.65 110.92 15.71 111.92 19.78 C 109.74 19.80 107.56 19.81 105.38 19.82 Z" />
<path fill="#ffffff" opacity="1.00" d=" M 174.22 196.18 L 174.78 196.19 L 174.77 196.75 L 174.22 196.74 L 174.22 196.18 Z" />
</g>
<g id="#01449cff">
<path fill="#01449c" opacity="1.00" d=" M 68.96 2.80 C 72.94 0.71 77.59 1.59 81.78 2.39 C 81.76 4.19 81.72 6.00 81.70 7.81 C 79.19 7.19 76.56 5.93 73.97 6.74 C 71.94 7.11 72.19 9.55 71.66 11.04 C 74.27 13.04 77.45 14.06 80.16 15.88 C 84.94 19.22 84.47 27.54 79.34 30.33 C 75.05 32.80 69.81 31.83 65.24 30.75 C 65.33 28.83 65.46 26.91 65.58 25.00 C 68.50 25.93 71.88 27.72 74.87 26.02 C 76.55 25.01 76.76 22.93 75.81 21.34 C 73.22 18.99 69.49 18.46 66.95 16.06 C 63.38 12.31 64.21 5.20 68.96 2.80 Z" />
<path fill="#01449c" opacity="1.00" d=" M 30.10 2.10 C 32.38 2.07 34.66 2.06 36.93 2.08 C 36.65 9.71 37.56 17.36 36.72 24.97 C 36.44 27.63 34.89 30.28 32.32 31.30 C 29.73 32.29 26.90 31.69 24.24 31.35 C 24.23 29.48 24.22 27.60 24.21 25.73 C 26.02 25.36 28.71 26.77 29.69 24.50 C 30.66 17.08 29.99 9.56 30.10 2.10 Z" />
<path fill="#01449c" opacity="1.00" d=" M 47.25 2.08 C 49.79 2.05 52.33 2.06 54.86 2.10 C 57.99 11.87 61.16 21.63 64.28 31.40 C 61.90 31.41 59.53 31.40 57.15 31.39 C 56.56 29.19 55.95 26.99 55.33 24.79 C 52.28 24.78 49.23 24.78 46.18 24.85 C 45.52 27.03 44.84 29.20 44.15 31.37 C 41.90 31.40 39.66 31.41 37.42 31.43 C 40.78 21.67 43.90 11.84 47.25 2.08 M 47.45 19.85 C 49.62 19.82 51.79 19.80 53.97 19.77 C 52.97 15.72 51.99 11.66 50.99 7.61 C 49.68 11.65 48.63 15.77 47.45 19.85 Z" />
<path fill="#01449c" opacity="1.00" d=" M 105.22 2.05 C 107.71 1.95 110.21 1.92 112.71 1.94 C 115.96 11.74 119.00 21.60 122.26 31.39 C 119.87 31.40 117.50 31.41 115.12 31.42 C 114.52 29.20 113.90 26.99 113.26 24.78 C 110.19 24.79 107.12 24.80 104.06 24.79 C 103.44 27.00 102.78 29.20 102.09 31.40 C 99.86 31.41 97.63 31.42 95.40 31.44 C 98.71 21.65 101.81 11.80 105.22 2.05 M 105.38 19.82 C 107.56 19.81 109.74 19.80 111.92 19.78 C 110.92 15.71 109.89 11.65 108.99 7.56 C 107.67 11.62 106.56 15.73 105.38 19.82 Z" />
<path fill="#01449c" opacity="1.00" d=" M 124.31 1.91 C 127.00 1.91 129.69 1.98 132.38 2.09 C 135.20 8.81 137.98 15.55 140.85 22.25 C 140.87 15.55 140.89 8.86 140.86 2.16 C 142.86 2.10 144.86 2.06 146.87 2.04 C 147.54 11.82 146.70 21.61 146.96 31.39 C 144.25 31.39 141.54 31.41 138.83 31.42 C 135.95 24.35 133.26 17.20 130.31 10.15 C 130.27 17.23 130.28 24.32 130.33 31.40 C 128.29 31.40 126.27 31.41 124.24 31.40 C 124.27 21.57 124.15 11.74 124.31 1.91 Z" />
<path fill="#01449c" opacity="1.00" d=" M 150.35 2.12 C 156.63 1.79 162.91 1.95 169.20 1.95 C 169.10 4.39 169.72 7.08 168.14 9.18 C 164.72 14.83 161.22 20.43 157.83 26.10 C 161.67 26.10 165.51 26.17 169.35 26.08 C 169.36 27.85 169.37 29.62 169.38 31.39 C 162.94 31.42 156.51 31.39 150.08 31.42 C 150.10 29.45 150.11 27.49 150.12 25.53 C 153.95 19.48 157.65 13.36 161.45 7.29 C 157.72 7.31 154.00 7.32 150.27 7.28 C 150.29 5.56 150.32 3.84 150.35 2.12 Z" />
<path fill="#01449c" opacity="1.00" d=" M 86.23 13.15 C 89.74 13.16 93.25 13.15 96.76 13.08 C 96.78 14.81 96.79 16.53 96.81 18.26 C 93.30 18.23 89.79 18.23 86.28 18.24 C 86.28 16.54 86.25 14.84 86.23 13.15 Z" />
<path fill="#01449c" opacity="1.00" d=" M 96.04 34.39 C 96.46 34.37 97.30 34.33 97.72 34.31 C 97.60 36.57 97.59 38.87 96.91 41.05 C 96.25 38.89 96.20 36.62 96.04 34.39 Z" />
<path fill="#01449c" opacity="1.00" d=" M 93.07 46.83 C 95.37 46.12 96.33 44.12 97.20 42.11 C 97.34 43.00 97.61 44.80 97.74 45.69 C 98.37 45.67 99.63 45.63 100.26 45.61 L 100.43 47.11 C 99.78 47.08 98.48 47.02 97.83 47.00 C 97.57 48.29 97.28 49.57 96.96 50.85 C 96.61 49.61 96.29 48.36 96.00 47.11 C 95.26 47.04 93.80 46.90 93.07 46.83 Z" />
<path fill="#01449c" opacity="1.00" d=" M 24.22 45.61 C 27.11 45.65 30.05 45.45 32.86 46.26 C 30.48 46.99 27.99 47.06 25.52 47.17 C 25.53 49.09 25.53 51.02 25.54 52.95 C 25.20 52.90 24.52 52.80 24.18 52.76 C 24.20 50.37 24.21 47.99 24.22 45.61 Z" />
<path fill="#01449c" opacity="1.00" d=" M 35.12 46.12 C 36.73 45.63 39.95 45.03 40.91 46.49 C 39.31 46.96 36.07 47.56 35.12 46.12 Z" />
<path fill="#01449c" opacity="1.00" d=" M 44.45 46.11 C 46.44 45.45 48.97 45.39 50.94 46.13 L 50.95 46.51 C 48.98 47.22 46.43 47.17 44.46 46.44 L 44.45 46.11 Z" />
<path fill="#01449c" opacity="1.00" d=" M 54.36 46.11 C 56.34 45.41 58.89 45.41 60.86 46.14 L 60.87 46.52 C 58.88 47.18 56.34 47.16 54.37 46.46 L 54.36 46.11 Z" />
<path fill="#01449c" opacity="1.00" d=" M 64.28 46.12 C 66.25 45.40 68.80 45.43 70.77 46.15 L 70.77 46.52 C 68.79 47.21 66.26 47.15 64.27 46.48 L 64.28 46.12 Z" />
<path fill="#01449c" opacity="1.00" d=" M 74.15 46.15 C 76.13 45.38 78.70 45.44 80.69 46.13 L 80.69 46.48 C 78.68 47.17 76.15 47.16 74.14 46.52 L 74.15 46.15 Z" />
<path fill="#01449c" opacity="1.00" d=" M 84.04 46.14 C 86.01 45.42 88.56 45.38 90.52 46.16 L 90.52 46.50 C 88.53 47.18 86.02 47.17 84.03 46.52 L 84.04 46.14 Z" />
<path fill="#01449c" opacity="1.00" d=" M 103.42 46.13 C 105.40 45.45 107.94 45.39 109.91 46.14 L 109.92 46.52 C 107.94 47.21 105.40 47.16 103.43 46.47 L 103.42 46.13 Z" />
<path fill="#01449c" opacity="1.00" d=" M 113.27 46.12 C 115.29 45.42 117.86 45.42 119.87 46.15 L 119.88 46.52 C 117.85 47.18 115.30 47.12 113.27 46.47 L 113.27 46.12 Z" />
<path fill="#01449c" opacity="1.00" d=" M 123.23 46.13 C 125.20 45.39 127.74 45.44 129.72 46.14 L 129.73 46.50 C 127.74 47.20 125.21 47.15 123.22 46.49 L 123.23 46.13 Z" />
<path fill="#01449c" opacity="1.00" d=" M 133.12 46.15 C 135.10 45.37 137.65 45.45 139.65 46.12 L 139.65 46.46 C 137.65 47.16 135.11 47.17 133.11 46.53 L 133.12 46.15 Z" />
<path fill="#01449c" opacity="1.00" d=" M 143.08 46.15 C 145.02 45.39 147.57 45.40 149.52 46.14 L 149.53 46.48 C 147.55 47.12 145.04 47.22 143.08 46.54 L 143.08 46.15 Z" />
<path fill="#01449c" opacity="1.00" d=" M 153.04 46.11 C 154.67 45.66 157.94 45.01 158.87 46.52 C 157.24 46.98 154.02 47.51 153.04 46.11 Z" />
<path fill="#01449c" opacity="1.00" d=" M 162.57 47.06 C 162.47 46.70 162.25 45.99 162.14 45.63 C 164.62 45.64 167.10 45.65 169.58 45.68 C 169.50 48.46 169.94 51.38 168.75 54.00 C 168.16 51.73 168.16 49.39 168.13 47.07 C 166.27 47.06 164.42 47.06 162.57 47.06 Z" />
<path fill="#01449c" opacity="1.00" d=" M 96.25 52.84 L 97.51 52.68 C 97.57 54.75 97.66 56.82 97.89 58.89 C 97.67 58.94 97.22 59.04 96.99 59.08 C 96.75 59.04 96.25 58.96 96.01 58.91 C 96.16 56.89 96.23 54.86 96.25 52.84 Z" />
<path fill="#01449c" opacity="1.00" d=" M 24.89 54.88 C 25.88 57.80 25.78 61.01 24.93 63.95 C 23.90 61.04 23.90 57.81 24.89 54.88 Z" />
<path fill="#01449c" opacity="1.00" d=" M 168.16 55.90 C 168.52 55.88 169.22 55.83 169.57 55.80 C 169.48 58.52 169.85 61.36 168.75 63.94 C 168.05 61.31 168.16 58.59 168.16 55.90 Z" />
<path fill="#01449c" opacity="1.00" d=" M 81.85 62.75 C 94.36 59.28 107.95 60.58 119.82 65.74 C 119.81 79.15 119.82 92.56 119.82 105.97 C 118.07 103.79 116.57 101.39 114.56 99.44 C 108.95 93.78 100.50 91.29 92.68 92.53 C 84.02 93.80 76.28 99.87 72.91 107.93 C 71.55 111.06 71.06 114.45 70.63 117.80 C 72.93 117.83 75.23 117.83 77.53 117.83 L 77.32 119.28 C 75.11 119.25 72.92 119.24 70.72 119.22 C 71.34 126.83 74.97 134.28 81.23 138.81 C 90.55 146.05 104.86 145.53 113.64 137.66 C 118.04 134.08 120.81 128.95 122.34 123.55 C 132.80 123.65 143.27 123.55 153.73 123.64 C 152.59 134.26 148.75 144.66 142.15 153.11 C 130.43 168.65 110.31 177.24 90.98 175.10 C 76.31 173.76 62.40 166.29 52.98 155.01 C 41.15 141.24 36.68 121.65 41.22 104.12 C 45.98 84.34 62.15 67.86 81.85 62.75 Z" />
<path fill="#01449c" opacity="1.00" d=" M 24.13 65.87 L 25.58 65.67 C 25.55 68.42 25.79 71.26 24.84 73.90 C 24.10 71.29 24.20 68.56 24.13 65.87 Z" />
<path fill="#01449c" opacity="1.00" d=" M 168.13 65.87 L 169.59 65.75 C 169.55 68.48 169.79 71.29 168.82 73.91 C 168.05 71.29 168.16 68.56 168.13 65.87 Z" />
<path fill="#01449c" opacity="1.00" d=" M 24.80 74.52 C 26.05 77.48 25.63 80.81 25.04 83.87 C 23.87 80.89 23.96 77.56 24.80 74.52 Z" />
<path fill="#01449c" opacity="1.00" d=" M 168.83 74.52 C 169.98 77.51 169.67 80.81 169.05 83.88 C 167.79 80.91 167.91 77.55 168.83 74.52 Z" />
<path fill="#01449c" opacity="1.00" d=" M 24.86 93.51 C 23.95 90.45 23.82 87.09 25.01 84.08 C 25.64 87.17 25.97 90.48 24.86 93.51 Z" />
<path fill="#01449c" opacity="1.00" d=" M 168.12 92.36 C 168.23 89.56 167.90 86.67 169.01 84.02 C 169.62 86.73 169.57 89.51 169.61 92.26 L 168.12 92.36 Z" />
<path fill="#01449c" opacity="1.00" d=" M 24.75 94.11 C 25.82 96.70 25.53 99.52 25.60 102.25 L 24.14 102.14 C 24.18 99.46 24.11 96.74 24.75 94.11 Z" />
<path fill="#01449c" opacity="1.00" d=" M 168.76 94.11 C 169.82 96.71 169.52 99.53 169.57 102.26 L 168.13 102.13 C 168.15 99.45 168.08 96.73 168.76 94.11 Z" />
<path fill="#01449c" opacity="1.00" d=" M 96.86 103.53 C 95.97 100.47 95.85 97.13 97.04 94.13 C 97.67 97.21 98.00 100.52 96.86 103.53 Z" />
<path fill="#01449c" opacity="1.00" d=" M 24.11 105.37 C 24.49 105.35 25.24 105.30 25.61 105.28 C 25.53 107.92 25.81 110.67 24.75 113.17 C 24.13 110.61 24.18 107.98 24.11 105.37 Z" />
<path fill="#01449c" opacity="1.00" d=" M 168.01 105.27 C 168.41 105.31 169.21 105.37 169.61 105.40 C 169.52 108.01 169.79 110.71 168.73 113.17 C 168.12 110.58 168.14 107.91 168.01 105.27 Z" />
<path fill="#01449c" opacity="1.00" d=" M 96.20 112.07 C 96.23 109.35 95.98 106.55 97.05 103.96 C 97.36 106.70 98.09 109.81 97.28 112.44 L 96.20 112.07 Z" />
<path fill="#01449c" opacity="1.00" d=" M 23.83 117.64 C 24.20 116.41 24.60 115.20 25.02 114.00 C 25.27 115.24 25.49 116.49 25.68 117.74 C 26.58 117.79 28.39 117.90 29.29 117.95 C 28.42 118.35 26.68 119.16 25.82 119.57 C 25.48 120.62 25.13 121.68 24.76 122.73 C 24.58 121.89 24.21 120.21 24.03 119.38 C 23.15 119.12 21.38 118.62 20.50 118.37 C 21.61 118.11 22.72 117.87 23.83 117.64 Z" />
<path fill="#01449c" opacity="1.00" d=" M 95.86 117.77 C 96.26 116.50 96.68 115.24 97.17 114.01 L 97.39 116.09 C 97.52 117.74 97.58 119.40 97.68 121.06 C 97.37 121.40 96.74 122.08 96.43 122.41 C 96.39 121.64 96.30 120.08 96.25 119.31 C 93.82 119.30 91.34 119.29 89.12 118.17 C 91.35 117.87 93.61 117.81 95.86 117.77 Z" />
<path fill="#01449c" opacity="1.00" d=" M 2.13 118.34 C 4.08 117.53 6.61 117.74 8.58 118.45 L 8.58 118.77 C 6.58 119.38 4.09 119.49 2.13 118.72 L 2.13 118.34 Z" />
<path fill="#01449c" opacity="1.00" d=" M 12.10 118.38 C 13.77 117.96 16.98 117.39 18.02 118.77 C 16.35 119.25 13.08 119.88 12.10 118.38 Z" />
<path fill="#01449c" opacity="1.00" d=" M 31.36 118.42 C 33.31 117.65 35.87 117.54 37.81 118.37 L 37.81 118.74 C 35.84 119.40 33.35 119.37 31.37 118.76 L 31.36 118.42 Z" />
<path fill="#01449c" opacity="1.00" d=" M 80.49 118.48 C 82.41 117.70 84.93 117.54 86.85 118.33 L 86.85 118.71 C 84.93 119.52 82.46 119.37 80.49 118.79 L 80.49 118.48 Z" />
<path fill="#01449c" opacity="1.00" d=" M 24.83 123.58 C 25.80 126.18 25.55 128.99 25.61 131.71 C 25.24 131.70 24.50 131.68 24.13 131.67 C 24.22 128.97 24.12 126.22 24.83 123.58 Z" />
<path fill="#01449c" opacity="1.00" d=" M 96.81 123.85 C 97.90 126.34 97.50 129.09 97.61 131.72 C 97.24 131.70 96.50 131.64 96.13 131.61 C 96.21 129.01 96.13 126.38 96.81 123.85 Z" />
<path fill="#01449c" opacity="1.00" d=" M 168.17 124.90 C 168.51 124.87 169.20 124.81 169.54 124.78 C 169.54 127.11 169.53 129.44 169.58 131.77 C 169.23 131.76 168.53 131.73 168.18 131.71 C 168.17 129.44 168.17 127.17 168.17 124.90 Z" />
<path fill="#01449c" opacity="1.00" d=" M 24.15 134.85 L 25.61 134.69 C 25.59 137.47 25.61 140.28 25.01 143.02 C 24.00 140.40 24.21 137.59 24.15 134.85 Z" />
<path fill="#01449c" opacity="1.00" d=" M 96.16 134.79 L 97.62 134.68 C 97.59 137.46 97.66 140.26 97.04 142.99 C 96.00 140.36 96.23 137.54 96.16 134.79 Z" />
<path fill="#01449c" opacity="1.00" d=" M 168.42 133.90 C 170.23 136.54 169.69 139.99 168.81 142.86 C 167.95 139.95 168.04 136.88 168.42 133.90 Z" />
<path fill="#01449c" opacity="1.00" d=" M 24.14 144.60 L 25.59 144.63 C 25.57 147.35 25.62 150.09 25.08 152.78 C 23.93 150.19 24.22 147.34 24.14 144.60 Z" />
<path fill="#01449c" opacity="1.00" d=" M 168.14 144.60 L 169.55 144.60 C 169.53 146.86 169.52 149.12 169.56 151.38 C 169.22 151.41 168.53 151.47 168.19 151.50 C 168.17 149.20 168.16 146.90 168.14 144.60 Z" />
<path fill="#01449c" opacity="1.00" d=" M 24.17 161.20 C 24.23 158.45 24.00 155.63 25.00 153.00 C 25.65 155.74 25.59 158.55 25.60 161.34 L 24.17 161.20 Z" />
<path fill="#01449c" opacity="1.00" d=" M 168.14 161.33 C 168.22 158.55 167.85 155.66 169.02 153.03 C 169.64 155.69 169.56 158.43 169.58 161.14 C 169.22 161.19 168.50 161.28 168.14 161.33 Z" />
<path fill="#01449c" opacity="1.00" d=" M 24.14 164.31 C 24.51 164.31 25.26 164.31 25.63 164.31 C 25.52 166.97 25.79 169.75 24.71 172.26 C 24.11 169.65 24.19 166.97 24.14 164.31 Z" />
<path fill="#01449c" opacity="1.00" d=" M 168.10 164.43 C 168.46 164.37 169.19 164.26 169.56 164.20 C 169.55 166.54 169.53 168.89 169.55 171.23 C 169.21 171.22 168.54 171.18 168.20 171.17 C 168.18 168.92 168.15 166.68 168.10 164.43 Z" />
<path fill="#01449c" opacity="1.00" d=" M 24.90 173.00 C 25.88 175.96 25.77 179.19 24.95 182.19 C 23.91 179.23 23.91 175.96 24.90 173.00 Z" />
<path fill="#01449c" opacity="1.00" d=" M 168.05 174.40 C 168.43 174.31 169.20 174.15 169.58 174.07 C 169.55 176.77 169.60 179.49 169.04 182.16 C 167.86 179.73 168.22 177.00 168.05 174.40 Z" />
<path fill="#01449c" opacity="1.00" d=" M 97.03 185.88 C 95.95 182.79 95.83 179.33 97.00 176.24 C 97.84 179.39 97.77 182.72 97.03 185.88 Z" />
<path fill="#01449c" opacity="1.00" d=" M 24.85 182.85 C 25.74 185.14 25.56 187.63 25.62 190.04 C 27.58 190.06 29.54 190.06 31.51 190.07 C 31.60 190.40 31.78 191.04 31.87 191.37 C 29.31 191.35 26.75 191.34 24.20 191.34 C 24.25 188.50 24.00 185.60 24.85 182.85 Z" />
<path fill="#01449c" opacity="1.00" d=" M 168.12 190.06 C 168.19 187.69 168.07 185.26 169.01 183.02 C 169.64 185.74 169.58 188.54 169.60 191.31 C 167.15 191.34 164.70 191.36 162.26 191.41 C 162.32 191.07 162.44 190.40 162.49 190.07 C 164.37 190.06 166.24 190.06 168.12 190.06 Z" />
<path fill="#01449c" opacity="1.00" d=" M 95.92 189.64 C 96.21 188.82 96.79 187.20 97.08 186.39 C 97.23 187.21 97.52 188.86 97.67 189.69 C 98.61 189.98 100.50 190.56 101.45 190.85 C 100.53 191.03 98.70 191.38 97.79 191.55 C 97.59 192.49 97.21 194.38 97.02 195.32 C 96.72 194.35 96.13 192.42 95.84 191.45 C 95.02 191.34 93.39 191.12 92.57 191.01 C 93.41 190.67 95.08 189.98 95.92 189.64 Z" />
<path fill="#01449c" opacity="1.00" d=" M 35.11 190.51 C 36.73 190.09 39.94 189.43 40.91 190.87 C 39.30 191.40 36.09 191.97 35.11 190.51 Z" />
<path fill="#01449c" opacity="1.00" d=" M 44.48 190.53 C 46.46 189.88 48.99 189.81 50.96 190.49 L 50.96 190.87 C 49.00 191.62 46.44 191.60 44.48 190.86 L 44.48 190.53 Z" />
<path fill="#01449c" opacity="1.00" d=" M 54.32 190.57 C 56.30 189.85 58.86 189.78 60.83 190.53 L 60.83 190.90 C 58.84 191.61 56.32 191.55 54.32 190.91 L 54.32 190.57 Z" />
<path fill="#01449c" opacity="1.00" d=" M 64.21 190.55 C 66.19 189.86 68.73 189.82 70.73 190.50 L 70.74 190.86 C 68.77 191.59 66.21 191.59 64.22 190.91 L 64.21 190.55 Z" />
<path fill="#01449c" opacity="1.00" d=" M 74.15 190.55 C 76.13 189.83 78.69 189.86 80.70 190.52 L 80.71 190.88 C 78.72 191.57 76.17 191.60 74.16 190.92 L 74.15 190.55 Z" />
<path fill="#01449c" opacity="1.00" d=" M 84.05 190.49 C 86.02 189.81 88.53 189.83 90.50 190.51 L 90.50 190.85 C 88.55 191.60 86.00 191.61 84.05 190.87 L 84.05 190.49 Z" />
<path fill="#01449c" opacity="1.00" d=" M 103.44 190.58 C 105.40 189.83 107.95 189.80 109.93 190.50 L 109.92 190.88 C 107.95 191.63 105.42 191.55 103.43 190.91 L 103.44 190.58 Z" />
<path fill="#01449c" opacity="1.00" d=" M 113.33 190.55 C 115.33 189.85 117.87 189.82 119.88 190.46 L 119.86 190.84 C 117.88 191.59 115.33 191.58 113.33 190.90 L 113.33 190.55 Z" />
<path fill="#01449c" opacity="1.00" d=" M 123.21 190.52 C 125.21 189.85 127.75 189.82 129.75 190.52 L 129.74 190.87 C 127.75 191.56 125.20 191.61 123.21 190.88 L 123.21 190.52 Z" />
<path fill="#01449c" opacity="1.00" d=" M 133.11 190.50 C 135.10 189.83 137.63 189.84 139.62 190.51 L 139.62 190.85 C 137.64 191.59 135.08 191.59 133.11 190.87 L 133.11 190.50 Z" />
<path fill="#01449c" opacity="1.00" d=" M 143.05 190.50 C 145.01 189.81 147.52 189.84 149.50 190.51 L 149.50 190.84 C 147.55 191.59 145.00 191.62 143.05 190.87 L 143.05 190.50 Z" />
<path fill="#01449c" opacity="1.00" d=" M 153.11 190.52 C 154.86 189.86 157.10 189.87 158.87 190.49 C 158.06 191.79 153.91 191.83 153.11 190.52 Z" />
<path fill="#01449c" opacity="1.00" d=" M 172.51 193.34 C 173.90 192.32 173.87 194.43 173.04 194.98 L 172.53 195.67 L 172.13 196.36 C 171.53 196.98 170.81 197.23 169.98 197.11 C 170.39 195.65 171.28 194.25 172.51 193.34 Z" />
<path fill="#01449c" opacity="1.00" d=" M 172.94 192.45 C 174.59 193.35 177.98 192.96 178.52 195.38 C 179.26 197.47 178.03 199.39 177.22 201.23 C 176.61 200.95 176.08 200.56 175.64 200.07 C 178.25 199.47 177.99 197.08 177.83 195.03 C 176.18 194.19 174.55 193.33 172.94 192.45 Z" />
<path fill="#01449c" opacity="1.00" d=" M 173.04 194.98 C 173.85 195.16 175.48 195.52 176.29 195.71 C 175.25 196.69 175.15 197.94 175.98 199.46 C 175.14 197.69 173.77 197.94 173.70 199.90 C 173.52 198.25 173.30 196.61 173.04 194.98 M 174.22 196.18 L 174.22 196.74 L 174.77 196.75 L 174.78 196.19 L 174.22 196.18 Z" />
<path fill="#01449c" opacity="1.00" d=" M 96.20 197.34 C 96.54 197.32 97.23 197.27 97.57 197.25 C 97.56 199.60 97.56 201.95 97.55 204.30 L 96.24 204.11 C 96.23 201.85 96.22 199.60 96.20 197.34 Z" />
<path fill="#01449c" opacity="1.00" d=" M 170.70 198.46 C 171.13 198.48 171.98 198.51 172.41 198.53 C 173.12 199.44 173.11 200.23 172.37 200.91 C 171.95 200.30 171.12 199.08 170.70 198.46 Z" />
<path fill="#01449c" opacity="1.00" d=" M 96.87 206.00 C 97.75 208.87 98.15 212.22 96.72 214.99 C 96.05 212.04 95.90 208.90 96.87 206.00 Z" />
</g>
<g id="#e61001ff">
<path fill="#e61001" opacity="1.00" d=" M 97.39 116.09 C 130.45 116.04 163.52 116.13 196.59 116.07 C 196.58 117.69 196.58 119.31 196.59 120.93 C 165.39 120.86 134.19 120.95 103.00 120.90 C 101.22 120.89 99.45 120.95 97.68 121.06 C 97.58 119.40 97.52 117.74 97.39 116.09 Z" />
</g>
</svg>
