<?xml version="1.0" encoding="UTF-8" ?>
<!DOCTYPE svg PUBLIC "-//W3C//DTD SVG 1.1//EN" "http://www.w3.org/Graphics/SVG/1.1/DTD/svg11.dtd">
<svg width="70pt" height="69pt" viewBox="0 0 70 69" version="1.1" xmlns="http://www.w3.org/2000/svg">

<g id="#d33042ff">
<path fill="#d33042" opacity="1.00" d=" M 29.41 2.55 C 35.12 1.44 41.10 2.28 46.51 4.33 C 57.32 8.46 65.09 19.41 65.51 30.97 C 66.23 42.02 60.32 53.19 50.84 58.89 C 47.72 60.74 44.25 61.87 40.89 63.23 C 36.94 63.52 32.98 63.54 29.03 63.26 C 26.15 61.99 23.11 61.12 20.29 59.73 C 12.18 55.52 6.11 47.45 4.67 38.38 C 3.59 33.19 4.14 27.79 5.63 22.74 C 8.87 12.23 18.57 4.17 29.41 2.55 M 26.93 7.35 C 23.63 8.23 20.72 10.03 17.86 11.84 C 17.73 12.18 17.47 12.88 17.35 13.22 C 13.78 15.48 12.06 19.34 9.94 22.82 C 8.20 30.09 7.36 38.25 11.18 45.00 C 12.46 46.75 13.87 48.41 15.40 49.94 C 16.14 52.36 18.70 53.04 20.03 54.83 C 21.38 55.87 23.12 56.27 24.62 57.08 C 28.14 58.16 32.09 59.63 35.71 58.52 C 35.39 57.66 34.76 55.95 34.45 55.10 L 33.50 55.94 C 34.14 53.57 34.64 51.16 35.03 48.74 C 35.44 48.77 36.26 48.84 36.67 48.87 C 36.90 50.37 37.13 51.86 37.37 53.36 C 36.74 55.05 36.47 56.84 36.08 58.59 C 39.64 59.56 42.91 57.43 46.28 56.57 L 46.21 55.44 C 50.19 53.62 54.29 51.57 56.81 47.89 C 57.61 46.35 58.41 44.81 59.21 43.28 C 61.78 36.35 61.72 28.71 59.12 21.80 L 58.06 21.80 C 57.85 21.46 57.42 20.77 57.20 20.43 C 55.87 15.58 51.74 12.55 47.96 9.63 C 47.40 9.68 46.29 9.79 45.73 9.84 C 45.73 9.43 45.73 8.61 45.72 8.20 C 42.72 7.38 39.74 6.41 36.67 5.86 C 33.39 5.93 30.07 6.40 26.93 7.35 Z" />
<path fill="#d33042" opacity="1.00" d=" M 32.25 7.61 C 33.76 7.08 35.30 6.60 36.91 6.53 C 37.92 7.54 37.70 9.11 37.51 10.38 C 37.14 13.59 36.93 16.82 36.70 20.04 C 35.61 19.37 34.50 18.74 33.41 18.07 C 33.45 17.02 33.49 15.97 33.53 14.91 C 34.19 14.81 35.51 14.61 36.16 14.51 C 34.83 12.23 33.50 9.94 32.25 7.61 Z" />
<path fill="#d33042" opacity="1.00" d=" M 33.54 21.90 C 34.71 22.39 35.91 22.79 37.10 23.22 C 37.14 26.02 37.14 28.83 37.05 31.64 C 36.96 33.34 36.84 35.05 36.74 36.75 C 36.10 36.11 35.46 35.47 34.83 34.82 C 34.51 34.41 33.87 33.58 33.56 33.17 C 35.02 32.33 33.85 30.96 33.80 29.82 C 33.75 27.18 33.67 24.54 33.54 21.90 Z" />
<path fill="#d33042" opacity="1.00" d=" M 34.50 42.87 C 34.60 41.51 34.71 40.14 34.82 38.78 C 35.25 39.02 36.12 39.49 36.55 39.72 C 36.89 41.75 37.25 43.78 37.50 45.82 C 37.24 46.23 36.73 47.03 36.47 47.44 C 36.05 47.04 35.23 46.23 34.82 45.83 C 34.71 44.84 34.60 43.86 34.50 42.87 Z" />
</g>
<g id="#1d7cc0ff">
<path fill="#1d7cc0" opacity="1.00" d=" M 17.86 11.84 C 20.72 10.03 23.63 8.23 26.93 7.35 C 26.52 7.58 25.68 8.04 25.26 8.27 C 24.72 12.74 24.51 17.23 24.54 21.73 C 20.39 21.64 16.24 21.59 12.09 21.59 C 12.38 19.64 14.33 18.66 14.71 16.78 C 15.55 15.57 16.88 14.65 17.35 13.22 C 17.47 12.88 17.73 12.18 17.86 11.84 Z" />
<path fill="#1d7cc0" opacity="1.00" d=" M 32.56 11.79 C 32.48 10.40 32.37 9.00 32.25 7.61 C 33.50 9.94 34.83 12.23 36.16 14.51 C 35.51 14.61 34.19 14.81 33.53 14.91 C 33.59 14.45 33.70 13.54 33.76 13.08 C 32.72 14.16 31.67 15.25 30.64 16.33 C 31.55 16.92 32.48 17.50 33.41 18.07 C 34.50 18.74 35.61 19.37 36.70 20.04 C 38.88 21.32 41.31 23.15 41.00 26.01 C 41.23 28.64 38.71 30.08 37.05 31.64 C 37.14 28.83 37.14 26.02 37.10 23.22 C 35.91 22.79 34.71 22.39 33.54 21.90 C 31.07 20.58 29.47 18.26 27.94 16.00 C 29.47 14.58 31.00 13.18 32.56 11.79 Z" />
<path fill="#1d7cc0" opacity="1.00" d=" M 45.73 9.84 C 46.29 9.79 47.40 9.68 47.96 9.63 C 51.74 12.55 55.87 15.58 57.20 20.43 C 57.42 20.77 57.85 21.46 58.06 21.80 C 53.99 21.81 49.92 21.81 45.85 21.80 C 45.79 17.81 45.76 13.83 45.73 9.84 Z" />
<path fill="#1d7cc0" opacity="1.00" d=" M 31.03 31.44 C 32.31 32.55 33.60 33.65 34.83 34.82 C 35.46 35.47 36.10 36.11 36.74 36.75 C 37.83 37.88 39.00 38.97 39.83 40.32 C 40.32 42.45 38.41 44.10 37.50 45.82 C 37.25 43.78 36.89 41.75 36.55 39.72 C 36.12 39.49 35.25 39.02 34.82 38.78 C 33.72 38.07 32.54 37.40 31.77 36.31 C 31.34 34.72 31.24 33.07 31.03 31.44 Z" />
<path fill="#1d7cc0" opacity="1.00" d=" M 13.11 44.31 C 16.71 43.41 20.82 43.42 24.68 43.06 C 24.67 47.73 24.66 52.41 24.62 57.08 C 23.12 56.27 21.38 55.87 20.03 54.83 C 18.70 53.04 16.14 52.36 15.40 49.94 C 14.26 48.23 13.64 46.27 13.11 44.31 Z" />
<path fill="#1d7cc0" opacity="1.00" d=" M 34.50 42.87 C 34.60 43.86 34.71 44.84 34.82 45.83 C 35.23 46.23 36.05 47.04 36.47 47.44 C 37.29 48.24 38.10 49.06 38.92 49.87 C 38.39 51.03 37.85 52.18 37.37 53.36 C 37.13 51.86 36.90 50.37 36.67 48.87 C 36.26 48.84 35.44 48.77 35.03 48.74 C 34.06 47.82 33.09 46.91 32.13 45.99 C 32.92 44.95 33.71 43.91 34.50 42.87 Z" />
<path fill="#1d7cc0" opacity="1.00" d=" M 45.88 43.18 C 50.32 43.17 54.76 43.19 59.21 43.28 C 58.41 44.81 57.61 46.35 56.81 47.89 C 54.29 51.57 50.19 53.62 46.21 55.44 C 45.92 51.36 45.82 47.27 45.88 43.18 Z" />
</g>
</svg>
