<?xml version="1.0" encoding="UTF-8" ?>
<!DOCTYPE svg PUBLIC "-//W3C//DTD SVG 1.1//EN" "http://www.w3.org/Graphics/SVG/1.1/DTD/svg11.dtd">
<svg width="335pt" height="261pt" viewBox="0 0 335 261" version="1.1" xmlns="http://www.w3.org/2000/svg">
<g id="#d5af29ff">
<path fill="#d5af29" opacity="1.00" d=" M 157.49 6.06 C 160.24 7.90 161.83 10.93 164.13 13.24 C 166.82 11.31 168.09 7.72 170.94 6.16 C 173.38 8.21 174.51 11.47 176.64 13.86 C 178.87 11.59 181.10 9.31 183.36 7.06 C 185.76 9.46 186.82 12.79 188.83 15.49 C 191.32 13.47 193.77 11.40 196.26 9.38 C 198.11 12.21 198.95 15.56 200.80 18.38 C 203.55 16.62 206.30 14.88 209.06 13.13 C 210.03 16.40 210.87 19.71 211.96 22.94 C 214.99 21.47 217.81 19.56 221.05 18.56 C 221.59 21.63 222.12 24.70 222.61 27.77 C 226.23 27.86 229.37 25.86 232.57 24.46 C 232.51 27.80 232.62 31.14 232.78 34.47 C 236.25 34.73 239.49 33.31 242.73 32.30 C 242.70 35.71 242.62 39.13 242.59 42.54 C 245.85 42.33 249.08 41.85 252.30 41.32 C 252.18 44.69 251.60 48.02 251.34 51.39 C 254.58 51.38 257.81 51.32 261.04 51.29 C 260.33 54.60 259.51 57.90 258.91 61.24 C 261.84 61.43 264.79 61.39 267.73 61.62 C 269.06 64.85 265.71 68.24 265.12 71.56 C 268.40 72.02 271.69 72.48 274.94 73.19 C 273.86 76.43 271.62 79.19 270.99 82.59 C 274.04 83.42 277.08 84.28 280.09 85.23 C 278.59 88.25 276.51 90.92 274.89 93.87 C 277.84 95.30 280.92 96.43 283.85 97.90 C 281.97 100.58 279.69 102.97 277.92 105.73 C 280.66 107.48 283.59 108.93 286.18 110.91 C 283.92 113.26 281.43 115.38 279.37 117.92 C 281.97 119.95 284.75 121.76 287.21 123.97 C 285.15 126.45 280.73 127.44 280.14 130.73 C 282.31 132.88 284.74 134.74 286.93 136.88 C 284.09 138.77 280.98 140.32 278.52 142.73 C 280.80 144.99 283.03 147.32 284.99 149.88 C 282.05 151.42 279.03 152.80 276.05 154.24 C 277.80 157.01 279.81 159.60 281.79 162.21 C 278.78 163.91 275.44 164.84 272.19 165.98 C 273.95 168.84 275.87 171.65 277.04 174.83 C 274.70 175.51 272.31 175.99 269.89 176.26 C 265.92 172.95 260.88 171.63 255.89 170.79 C 269.05 142.31 269.34 107.79 254.35 79.94 C 254.21 78.53 254.33 77.07 253.92 75.70 C 247.39 64.19 239.20 53.18 228.09 45.72 C 220.21 39.46 211.43 34.14 201.78 31.16 C 178.02 22.12 151.12 22.90 127.74 32.77 C 115.61 36.93 105.14 45.00 96.08 53.90 C 88.07 60.51 82.37 69.35 77.54 78.43 C 76.47 80.54 76.58 82.97 76.32 85.27 C 76.18 85.88 75.92 87.10 75.78 87.70 C 69.50 103.52 66.62 120.74 68.79 137.71 C 70.06 149.09 72.85 160.39 77.84 170.74 C 73.83 171.74 69.58 171.98 65.89 173.99 C 66.18 176.27 66.47 178.56 66.79 180.84 C 64.16 180.57 61.56 180.16 58.97 179.64 C 59.52 176.20 61.70 173.40 62.95 170.22 C 59.92 169.34 56.88 168.49 53.86 167.61 C 54.82 164.35 57.08 161.75 58.92 158.95 C 55.91 157.56 52.84 156.28 49.82 154.91 C 51.63 152.08 53.91 149.61 56.06 147.05 C 53.21 145.29 50.27 143.69 47.42 141.94 C 49.49 139.39 52.01 137.29 54.34 134.99 C 51.74 132.90 49.03 130.96 46.38 128.95 C 48.90 126.83 51.50 124.82 54.11 122.82 C 51.91 120.38 49.37 118.27 47.06 115.94 C 49.48 113.84 52.25 112.24 55.01 110.64 C 53.64 107.44 49.84 105.91 49.06 102.43 C 51.97 101.24 54.95 100.13 57.46 98.20 C 56.21 95.30 52.24 93.02 52.61 89.82 C 55.38 88.70 58.26 87.92 61.03 86.81 C 59.96 83.65 57.85 81.01 56.48 77.99 C 59.61 77.15 62.78 76.45 65.94 75.73 C 65.02 72.59 63.70 69.59 62.27 66.66 C 65.22 65.01 68.72 65.66 71.94 65.42 C 71.68 62.03 70.43 58.85 69.36 55.65 C 72.69 55.19 76.06 55.24 79.42 55.22 C 78.94 51.95 78.24 48.72 77.52 45.49 C 80.95 45.50 84.38 45.67 87.80 45.87 C 87.41 42.64 87.01 39.40 86.92 36.15 C 90.20 36.60 93.44 37.27 96.70 37.86 C 96.78 34.56 96.93 31.27 97.23 27.99 C 100.45 28.78 103.58 29.91 106.76 30.87 C 107.21 27.60 107.54 24.30 108.05 21.03 C 111.19 22.06 114.16 23.53 117.19 24.82 C 118.45 21.76 118.80 18.42 119.95 15.32 C 122.94 16.74 125.66 18.69 128.72 19.96 C 129.71 16.88 130.72 13.78 132.16 10.87 C 135.01 12.14 136.98 14.98 139.89 15.96 C 142.41 14.25 142.91 10.46 144.41 7.83 C 147.39 9.38 149.60 11.98 152.13 14.13 C 154.24 11.67 155.81 8.82 157.49 6.06 Z" />
<path fill="#d5af29" opacity="1.00" d=" M 115.09 73.93 C 110.20 66.04 116.61 56.89 123.02 52.16 C 123.38 52.24 124.11 52.40 124.48 52.48 C 125.61 59.17 122.71 65.49 118.90 70.78 C 124.58 69.04 133.46 68.07 136.69 73.77 C 130.54 78.00 121.06 78.84 115.09 73.93 Z" />
<path fill="#d5af29" opacity="1.00" d=" M 208.06 51.87 C 212.55 54.25 215.77 58.52 217.86 63.06 C 219.77 67.05 217.45 71.48 218.65 75.62 C 218.05 75.28 217.44 74.94 216.84 74.60 C 210.05 77.98 200.95 78.47 194.93 73.31 C 199.83 68.38 207.17 68.77 213.25 70.95 C 209.68 65.32 205.73 58.78 208.06 51.87 Z" />
<path fill="#d5af29" opacity="1.00" d=" M 103.44 85.54 C 98.41 77.78 101.97 65.64 110.45 62.25 C 111.69 68.27 110.32 74.27 108.15 79.89 C 113.68 78.94 119.45 77.85 124.76 80.38 C 124.73 80.93 124.67 82.03 124.64 82.58 C 118.63 87.19 110.50 88.02 103.44 85.54 Z" />
<path fill="#d5af29" opacity="1.00" d=" M 222.15 61.90 C 229.80 66.58 233.63 77.63 228.46 85.52 C 221.52 88.03 213.37 87.12 207.49 82.56 C 206.32 80.36 209.63 79.69 211.13 79.22 C 215.48 77.79 219.86 79.38 224.01 80.68 C 222.27 74.61 219.81 68.20 222.15 61.90 Z" />
<path fill="#d5af29" opacity="1.00" d=" M 90.60 86.33 C 91.46 81.68 93.57 77.21 96.94 73.85 C 100.19 79.30 98.23 85.70 99.16 91.58 C 104.20 90.33 109.45 88.00 114.76 90.29 C 114.71 90.87 114.61 92.02 114.57 92.60 C 109.98 96.69 104.11 98.97 97.96 98.99 C 94.65 98.52 93.75 101.80 93.35 104.37 C 97.91 102.21 102.88 99.98 107.97 101.86 C 103.97 108.04 97.77 112.44 90.48 113.76 C 90.19 116.04 89.96 118.33 89.78 120.63 C 92.87 117.09 98.39 110.74 103.24 114.68 C 100.92 121.49 95.77 126.55 89.59 129.98 C 89.75 132.01 89.90 134.04 90.06 136.07 C 92.59 131.35 96.04 126.49 101.83 125.89 C 101.81 133.55 97.74 140.28 91.99 145.08 C 92.41 146.30 92.83 147.53 93.24 148.75 C 95.69 144.90 98.36 140.96 102.59 138.87 C 102.68 139.34 102.87 140.30 102.96 140.77 C 103.43 147.43 101.81 154.42 97.00 159.27 C 96.49 159.55 95.46 160.09 94.95 160.36 C 85.47 161.25 78.75 152.10 77.56 143.59 C 82.95 143.72 86.89 147.54 91.15 150.28 C 90.61 147.96 90.14 145.14 87.36 144.58 C 79.61 141.96 76.41 133.18 76.03 125.67 C 82.01 127.04 85.11 132.69 88.74 137.05 C 88.59 134.50 88.32 131.95 87.96 129.41 C 79.05 125.76 76.32 115.46 78.36 106.72 C 83.33 110.10 85.57 115.78 88.29 120.88 C 89.37 117.84 90.29 113.94 87.28 111.67 C 80.63 105.97 81.56 95.46 85.93 88.66 C 89.68 93.29 89.92 99.34 91.88 104.71 C 97.24 98.64 89.10 92.86 90.60 86.33 Z" />
<path fill="#d5af29" opacity="1.00" d=" M 232.37 91.98 C 234.43 86.07 231.37 79.00 235.74 73.82 C 241.06 80.71 244.16 90.95 237.81 98.26 C 238.43 100.21 239.08 102.15 239.76 104.08 C 238.53 102.27 237.25 100.50 235.95 98.74 C 233.71 98.80 231.47 98.86 229.23 98.95 C 224.51 97.80 220.50 94.94 216.55 92.25 C 220.62 87.15 227.44 89.87 232.37 91.98 Z" />
<path fill="#d5af29" opacity="1.00" d=" M 239.91 105.41 C 242.91 100.49 241.45 92.94 246.50 88.85 C 249.57 95.69 251.67 105.57 245.17 111.10 C 241.96 113.33 242.30 117.69 243.66 120.91 C 246.52 115.90 248.47 109.94 253.69 106.80 C 254.11 111.50 254.45 116.42 252.80 120.94 C 250.90 127.00 241.61 128.46 243.66 135.98 C 246.99 131.75 250.56 127.32 255.91 125.65 C 255.82 130.58 254.95 135.78 251.63 139.64 C 248.52 144.51 239.87 143.91 240.68 151.24 C 245.13 148.27 249.11 143.68 254.94 143.95 C 253.04 149.41 250.41 155.08 245.50 158.44 C 241.94 160.26 237.37 159.74 234.49 162.91 C 234.51 162.67 234.55 162.19 234.57 161.94 C 235.20 158.45 232.44 155.84 231.00 152.97 C 228.67 148.95 229.24 144.12 229.24 139.67 C 234.59 140.56 236.41 146.10 238.51 150.32 C 239.19 148.64 239.84 146.95 240.47 145.26 C 234.25 140.66 230.45 133.59 230.20 125.83 C 236.22 126.18 239.37 131.49 242.04 136.16 C 242.12 134.11 242.20 132.07 242.28 130.03 C 240.02 128.37 237.72 126.75 235.35 125.25 C 232.31 121.74 229.87 117.64 228.89 113.06 C 234.52 112.35 238.73 116.09 242.05 120.10 C 241.82 118.01 241.59 115.92 241.35 113.83 C 234.17 112.39 227.86 108.22 223.95 102.00 C 224.42 101.71 225.38 101.13 225.85 100.84 C 231.11 100.41 235.39 103.36 239.91 105.41 Z" />
<path fill="#d5af29" opacity="1.00" d=" M 88.47 202.93 C 91.80 202.06 95.25 202.15 98.66 201.97 C 106.45 208.99 114.98 215.59 124.90 219.28 C 152.99 232.94 187.70 231.74 214.76 216.13 C 222.33 213.18 228.46 207.64 234.51 202.39 C 241.18 200.90 248.31 203.24 254.38 205.98 C 251.38 206.46 248.32 206.38 245.30 206.23 C 245.55 210.50 245.37 214.79 244.63 219.02 C 244.43 218.33 244.01 216.95 243.81 216.25 C 241.52 215.75 239.22 215.33 236.91 215.02 C 236.67 218.30 236.64 221.60 236.66 224.89 C 233.39 224.03 230.20 222.93 226.96 222.02 C 226.33 225.31 225.99 228.66 225.58 231.99 C 222.42 230.67 219.33 229.18 216.15 227.92 C 215.42 231.06 214.69 234.21 213.90 237.34 C 210.67 236.39 207.98 234.28 204.96 232.86 C 203.78 235.87 202.73 238.94 201.65 241.99 C 198.83 240.36 196.29 238.32 193.79 236.25 C 191.70 238.93 190.52 242.16 188.79 245.06 C 185.97 243.40 184.21 239.95 181.12 238.99 C 179.02 241.40 177.76 244.41 175.88 246.98 C 173.56 244.49 171.42 241.84 169.05 239.40 C 166.68 241.62 165.48 245.60 162.36 246.69 C 160.46 244.19 158.95 241.42 157.05 238.92 C 154.59 241.18 152.28 243.58 149.90 245.91 C 148.07 243.08 146.52 240.09 144.87 237.15 C 142.12 239.06 139.99 242.05 136.65 242.97 C 135.57 240.03 134.38 237.13 133.09 234.27 C 130.22 235.89 127.47 237.71 124.79 239.62 C 123.49 236.52 122.68 233.25 121.75 230.03 C 118.53 231.18 115.63 233.11 112.33 234.06 C 111.84 230.78 111.43 227.49 110.92 224.22 C 107.69 225.36 104.52 226.65 101.33 227.90 C 100.93 224.61 100.70 221.31 100.60 218.01 C 97.38 218.47 94.20 219.23 91.03 219.98 C 90.95 216.73 91.11 213.49 91.02 210.25 C 90.44 210.21 89.27 210.12 88.69 210.08 C 86.46 209.92 84.23 209.76 82.00 209.60 C 82.37 205.92 84.77 203.40 88.47 202.93 Z" />
</g>
<g id="#f3d38fff">
<path fill="#f3d38f" opacity="1.00" d=" M 126.36 35.09 C 143.19 28.95 161.53 25.70 179.38 28.58 C 169.51 31.16 159.23 28.10 149.34 30.37 C 146.73 31.13 147.97 34.57 147.69 36.53 C 150.43 36.56 150.03 33.81 150.40 31.89 C 150.66 33.15 150.94 34.41 151.22 35.67 C 165.66 32.19 180.86 34.31 194.97 38.29 C 197.19 38.75 199.60 39.98 201.81 38.80 C 202.51 40.49 203.83 41.69 205.58 42.25 C 240.81 58.25 264.41 97.75 258.70 136.53 C 259.39 136.91 260.09 137.30 260.80 137.68 C 260.24 137.92 259.13 138.40 258.58 138.64 C 257.03 149.42 253.80 159.83 248.75 169.47 C 248.00 169.34 246.50 169.07 245.75 168.93 C 246.86 166.35 247.96 163.76 248.98 161.14 C 243.71 161.67 238.83 163.80 234.16 166.16 C 234.27 165.08 234.38 164.00 234.49 162.91 C 237.37 159.74 241.94 160.26 245.50 158.44 C 250.41 155.08 253.04 149.41 254.94 143.95 C 249.11 143.68 245.13 148.27 240.68 151.24 C 239.87 143.91 248.52 144.51 251.63 139.64 C 254.95 135.78 255.82 130.58 255.91 125.65 C 250.56 127.32 246.99 131.75 243.66 135.98 C 241.61 128.46 250.90 127.00 252.80 120.94 C 254.45 116.42 254.11 111.50 253.69 106.80 C 248.47 109.94 246.52 115.90 243.66 120.91 C 242.30 117.69 241.96 113.33 245.17 111.10 C 251.67 105.57 249.57 95.69 246.50 88.85 C 241.45 92.94 242.91 100.49 239.91 105.41 C 235.39 103.36 231.11 100.41 225.85 100.84 C 226.96 100.18 228.08 99.54 229.23 98.95 C 231.47 98.86 233.71 98.80 235.95 98.74 C 237.25 100.50 238.53 102.27 239.76 104.08 C 239.08 102.15 238.43 100.21 237.81 98.26 C 244.16 90.95 241.06 80.71 235.74 73.82 C 231.37 79.00 234.43 86.07 232.37 91.98 C 227.44 89.87 220.62 87.15 216.55 92.25 C 213.70 95.16 209.97 96.90 206.10 97.99 C 208.36 94.90 211.05 92.16 213.81 89.51 C 213.31 88.95 212.80 88.38 212.30 87.82 C 209.07 90.24 205.90 92.93 201.95 94.07 C 203.04 91.93 204.33 89.91 205.72 87.95 C 205.31 87.64 204.51 87.02 204.10 86.71 C 201.22 89.56 198.28 92.36 195.14 94.92 C 196.02 92.65 196.91 90.38 197.78 88.10 C 197.43 87.79 196.72 87.17 196.37 86.86 C 194.83 88.64 193.25 90.40 191.58 92.07 C 191.33 90.36 191.09 88.65 190.86 86.95 C 189.09 88.76 187.23 90.47 185.32 92.12 C 185.95 89.56 186.42 86.94 186.35 84.29 C 183.74 87.48 181.94 91.21 180.32 94.98 C 180.58 92.18 180.61 89.35 180.08 86.58 C 178.20 89.55 176.72 92.74 175.35 95.98 C 175.98 91.91 176.37 87.78 176.05 83.66 C 172.27 88.71 172.60 95.26 171.41 101.17 C 170.58 94.35 172.86 87.29 170.45 80.68 C 168.86 87.23 168.75 94.00 168.57 100.69 C 168.26 100.69 167.65 100.67 167.34 100.66 C 167.24 95.33 168.97 89.07 165.22 84.59 C 164.89 87.80 164.70 91.02 164.32 94.21 C 162.83 90.77 162.30 86.93 160.21 83.75 C 160.30 87.84 160.59 91.92 160.83 96.00 C 159.81 93.16 158.64 90.37 157.31 87.65 C 156.60 89.33 155.91 91.02 155.22 92.71 C 154.01 91.43 152.79 90.16 151.57 88.89 C 152.03 92.01 152.71 95.09 153.60 98.11 C 150.87 94.38 149.23 89.86 145.78 86.67 C 146.22 89.77 146.96 92.81 147.83 95.81 C 146.51 94.92 145.19 94.04 143.87 93.15 C 144.18 95.05 144.49 96.96 144.81 98.86 C 143.09 97.51 141.35 96.19 139.56 94.93 C 139.42 96.99 140.02 98.97 140.84 100.84 C 137.84 98.14 134.62 95.69 131.15 93.62 C 132.35 96.02 133.65 98.38 135.00 100.70 C 132.43 99.65 129.85 98.64 127.26 97.65 C 128.12 99.73 128.98 101.80 129.85 103.87 C 126.98 102.51 124.20 100.35 120.86 100.59 C 122.08 102.41 123.38 104.17 124.74 105.89 C 121.82 105.34 118.83 105.14 115.89 105.60 C 117.99 107.30 120.09 109.03 122.06 110.89 C 117.74 110.46 111.74 105.54 108.85 110.72 C 112.82 112.60 116.98 114.02 121.02 115.74 C 115.07 116.37 108.21 109.86 103.24 114.68 C 98.39 110.74 92.87 117.09 89.78 120.63 C 89.96 118.33 90.19 116.04 90.48 113.76 C 97.77 112.44 103.97 108.04 107.97 101.86 C 102.88 99.98 97.91 102.21 93.35 104.37 C 93.75 101.80 94.65 98.52 97.96 98.99 C 104.11 98.97 109.98 96.69 114.57 92.60 C 114.61 92.02 114.71 90.87 114.76 90.29 C 109.45 88.00 104.20 90.33 99.16 91.58 C 98.23 85.70 100.19 79.30 96.94 73.85 C 93.57 77.21 91.46 81.68 90.60 86.33 C 89.10 92.86 97.24 98.64 91.88 104.71 C 89.92 99.34 89.68 93.29 85.93 88.66 C 81.56 95.46 80.63 105.97 87.28 111.67 C 90.29 113.94 89.37 117.84 88.29 120.88 C 85.57 115.78 83.33 110.10 78.36 106.72 C 76.32 115.46 79.05 125.76 87.96 129.41 C 88.32 131.95 88.59 134.50 88.74 137.05 C 85.11 132.69 82.01 127.04 76.03 125.67 C 76.41 133.18 79.61 141.96 87.36 144.58 C 90.14 145.14 90.61 147.96 91.15 150.28 C 86.89 147.54 82.95 143.72 77.56 143.59 C 78.75 152.10 85.47 161.25 94.95 160.36 C 95.94 162.16 96.91 163.96 97.89 165.76 C 93.04 163.37 88.02 161.01 82.52 160.87 C 83.54 163.57 84.91 166.13 86.55 168.52 C 85.00 168.90 83.44 169.30 81.89 169.69 C 80.53 170.02 79.19 170.40 77.84 170.74 C 72.85 160.39 70.06 149.09 68.79 137.71 C 69.26 137.87 70.22 138.18 70.69 138.34 C 71.11 142.20 71.82 146.02 73.02 149.72 C 73.67 149.81 74.96 149.99 75.61 150.08 C 73.30 151.71 74.11 154.26 74.86 156.51 C 75.70 156.45 76.55 156.38 77.40 156.32 C 75.10 159.61 77.41 163.19 78.95 166.23 C 80.04 165.82 81.13 165.41 82.22 165.01 C 81.41 161.35 80.29 157.77 78.81 154.33 C 78.25 154.24 77.15 154.07 76.59 153.98 C 78.46 148.61 76.96 140.63 72.19 137.10 C 72.91 137.00 74.35 136.79 75.07 136.69 C 74.29 135.99 73.51 135.29 72.74 134.59 C 76.87 129.99 70.63 123.19 74.70 119.32 C 73.84 119.03 72.98 118.75 72.12 118.46 C 72.71 118.21 73.90 117.72 74.49 117.47 C 76.56 96.12 86.38 75.67 101.79 60.74 C 104.43 57.82 107.81 55.51 109.66 51.95 C 114.95 51.00 118.94 47.06 123.61 44.68 C 123.06 43.14 122.50 41.61 121.95 40.08 C 102.24 50.48 87.38 68.04 77.91 87.99 C 77.95 87.56 78.03 86.72 78.07 86.30 C 77.31 86.77 76.54 87.23 75.78 87.70 C 75.92 87.10 76.18 85.88 76.32 85.27 C 82.62 74.63 89.53 64.38 96.08 53.90 C 105.14 45.00 115.61 36.93 127.74 32.77 C 127.28 33.55 126.82 34.32 126.36 35.09 M 122.44 40.80 C 122.84 41.48 123.63 42.84 124.03 43.51 C 128.54 42.59 132.63 40.41 136.91 38.80 C 137.07 37.47 137.22 36.13 137.37 34.80 C 137.94 36.22 137.66 38.93 139.97 38.16 C 141.52 36.69 140.20 34.58 140.07 32.83 C 133.99 34.77 127.19 36.33 122.44 40.80 M 115.09 73.93 C 121.06 78.84 130.54 78.00 136.69 73.77 C 133.46 68.07 124.58 69.04 118.90 70.78 C 122.71 65.49 125.61 59.17 124.48 52.48 C 124.11 52.40 123.38 52.24 123.02 52.16 C 116.61 56.89 110.20 66.04 115.09 73.93 M 208.06 51.87 C 205.73 58.78 209.68 65.32 213.25 70.95 C 207.17 68.77 199.83 68.38 194.93 73.31 C 200.95 78.47 210.05 77.98 216.84 74.60 C 217.44 74.94 218.05 75.28 218.65 75.62 C 217.45 71.48 219.77 67.05 217.86 63.06 C 215.77 58.52 212.55 54.25 208.06 51.87 M 103.44 85.54 C 110.50 88.02 118.63 87.19 124.64 82.58 C 124.67 82.03 124.73 80.93 124.76 80.38 C 119.45 77.85 113.68 78.94 108.15 79.89 C 110.32 74.27 111.69 68.27 110.45 62.25 C 101.97 65.64 98.41 77.78 103.44 85.54 M 222.15 61.90 C 219.81 68.20 222.27 74.61 224.01 80.68 C 219.86 79.38 215.48 77.79 211.13 79.22 C 209.63 79.69 206.32 80.36 207.49 82.56 C 213.37 87.12 221.52 88.03 228.46 85.52 C 233.63 77.63 229.80 66.58 222.15 61.90 Z" />
<path fill="#f3d38f" opacity="1.00" d=" M 186.58 29.73 C 191.73 28.94 197.04 33.59 201.78 31.16 C 211.43 34.14 220.21 39.46 228.09 45.72 C 236.38 57.47 247.56 67.06 254.35 79.94 C 269.34 107.79 269.05 142.31 255.89 170.79 C 255.06 170.62 254.24 170.46 253.41 170.31 C 253.07 168.64 252.70 166.99 252.29 165.34 C 253.14 165.55 254.00 165.77 254.86 165.98 C 254.70 165.04 254.56 164.09 254.42 163.15 C 255.41 162.27 256.59 161.48 257.08 160.18 C 262.23 147.12 263.71 132.85 262.80 118.92 C 262.75 117.33 261.55 116.20 260.69 114.99 C 262.72 113.03 262.21 109.84 259.80 108.46 C 261.91 102.65 257.87 96.49 256.30 90.87 C 255.25 90.49 254.22 90.11 253.18 89.72 C 253.97 89.35 254.77 88.97 255.56 88.59 C 246.02 66.10 227.80 47.73 205.81 37.27 C 199.52 34.41 192.35 33.77 186.58 29.73 Z" />
<path fill="#f3d38f" opacity="1.00" d=" M 188.35 126.39 C 199.25 123.77 210.79 121.02 221.92 123.91 C 226.32 124.97 230.85 125.03 235.35 125.25 C 237.72 126.75 240.02 128.37 242.28 130.03 C 242.20 132.07 242.12 134.11 242.04 136.16 C 239.37 131.49 236.22 126.18 230.20 125.83 C 230.45 133.59 234.25 140.66 240.47 145.26 C 239.84 146.95 239.19 148.64 238.51 150.32 C 236.41 146.10 234.59 140.56 229.24 139.67 C 229.24 144.12 228.67 148.95 231.00 152.97 C 232.44 155.84 235.20 158.45 234.57 161.94 C 233.75 162.63 232.93 163.31 232.11 164.00 C 231.52 159.30 230.10 154.00 225.38 151.86 C 224.30 156.17 223.96 160.61 223.87 165.04 C 218.21 162.37 211.86 164.94 205.93 163.48 C 196.60 162.02 187.09 162.79 177.79 161.25 C 179.79 161.09 181.80 160.95 183.81 160.83 C 182.25 157.63 180.86 154.35 179.92 150.91 C 183.37 154.06 183.49 161.19 189.11 161.15 C 186.55 156.17 182.65 152.06 179.79 147.26 C 180.84 147.85 181.89 148.45 182.94 149.05 C 182.81 147.77 182.68 146.50 182.56 145.23 C 182.88 144.97 183.51 144.44 183.83 144.17 C 189.61 147.76 194.05 153.23 200.34 156.02 C 197.79 150.95 191.44 149.67 188.72 144.66 C 196.48 148.92 203.95 153.71 211.20 158.80 C 213.36 160.27 215.71 161.79 218.45 161.53 C 208.46 153.87 196.96 148.43 186.91 140.86 C 195.38 142.65 201.81 149.37 210.36 150.85 C 203.13 145.79 194.68 142.73 186.97 138.44 C 187.71 138.34 189.20 138.14 189.94 138.04 C 189.50 137.50 188.62 136.41 188.18 135.86 C 193.66 136.34 198.79 138.71 204.33 138.74 C 198.03 135.93 191.12 134.91 184.43 133.43 C 187.08 133.28 189.74 133.16 192.40 132.97 C 190.26 132.31 188.11 131.70 185.94 131.14 C 193.04 130.57 200.20 131.78 207.24 130.56 C 201.30 129.73 195.28 130.25 189.32 129.59 C 188.99 128.52 188.67 127.46 188.35 126.39 M 190.74 127.93 C 196.91 128.34 203.01 126.88 209.13 126.35 C 203.06 125.99 196.46 126.00 190.74 127.93 Z" />
<path fill="#f3d38f" opacity="1.00" d=" M 260.27 130.93 C 263.23 129.39 260.41 134.28 260.27 130.93 Z" />
<path fill="#f3d38f" opacity="1.00" d=" M 136.24 143.31 C 141.00 143.01 145.13 140.35 149.20 138.12 C 149.12 139.30 149.04 140.49 148.98 141.68 C 147.56 143.19 146.12 144.67 144.66 146.13 C 146.52 145.38 148.37 144.63 150.23 143.87 C 148.36 145.90 146.50 147.95 144.65 149.99 C 146.25 149.41 147.86 148.82 149.47 148.25 C 146.43 153.27 141.57 156.83 138.62 161.91 C 130.20 162.96 121.59 165.06 113.14 163.24 C 111.48 163.13 110.07 164.34 108.57 164.91 C 108.31 160.58 108.44 156.11 106.85 152.01 C 101.50 151.71 100.58 159.15 99.51 163.18 C 98.67 161.87 97.83 160.57 97.00 159.27 C 101.81 154.42 103.43 147.43 102.96 140.77 C 103.39 142.75 103.89 144.72 104.36 146.69 C 115.18 148.31 125.54 143.80 136.24 143.31 Z" />
<path fill="#f3d38f" opacity="1.00" d=" M 228.24 201.02 C 228.71 200.64 229.64 199.87 230.10 199.48 C 231.57 200.45 233.04 201.42 234.51 202.39 C 228.46 207.64 222.33 213.18 214.76 216.13 C 218.88 209.79 226.04 206.60 231.07 201.12 C 230.36 201.10 228.95 201.05 228.24 201.02 Z" />
<path fill="#f3d38f" opacity="1.00" d=" M 98.66 201.97 C 100.27 201.66 101.86 201.26 103.48 200.96 C 109.36 208.42 118.77 212.00 124.90 219.28 C 114.98 215.59 106.45 208.99 98.66 201.97 Z" />
</g>
<g id="#dfb962ff">
<path fill="#dfb962" opacity="1.00" d=" M 149.34 30.37 C 159.23 28.10 169.51 31.16 179.38 28.58 C 181.79 28.92 184.18 29.35 186.58 29.73 C 192.35 33.77 199.52 34.41 205.81 37.27 C 227.80 47.73 246.02 66.10 255.56 88.59 C 254.77 88.97 253.97 89.35 253.18 89.72 C 254.22 90.11 255.25 90.49 256.30 90.87 C 257.87 96.49 261.91 102.65 259.80 108.46 C 262.21 109.84 262.72 113.03 260.69 114.99 C 261.55 116.20 262.75 117.33 262.80 118.92 C 263.71 132.85 262.23 147.12 257.08 160.18 C 256.59 161.48 255.41 162.27 254.42 163.15 C 254.56 164.09 254.70 165.04 254.86 165.98 C 254.00 165.77 253.14 165.55 252.29 165.34 C 252.70 166.99 253.07 168.64 253.41 170.31 C 251.85 170.02 250.30 169.75 248.75 169.47 C 253.80 159.83 257.03 149.42 258.58 138.64 C 259.13 138.40 260.24 137.92 260.80 137.68 C 260.09 137.30 259.39 136.91 258.70 136.53 C 264.41 97.75 240.81 58.25 205.58 42.25 C 203.83 41.69 202.51 40.49 201.81 38.80 C 199.60 39.98 197.19 38.75 194.97 38.29 C 180.86 34.31 165.66 32.19 151.22 35.67 C 150.94 34.41 150.66 33.15 150.40 31.89 C 150.03 33.81 150.43 36.56 147.69 36.53 C 147.97 34.57 146.73 31.13 149.34 30.37 M 260.27 130.93 C 260.41 134.28 263.23 129.39 260.27 130.93 Z" />
<path fill="#dfb962" opacity="1.00" d=" M 122.44 40.80 C 127.19 36.33 133.99 34.77 140.07 32.83 C 140.20 34.58 141.52 36.69 139.97 38.16 C 137.66 38.93 137.94 36.22 137.37 34.80 C 137.22 36.13 137.07 37.47 136.91 38.80 C 132.63 40.41 128.54 42.59 124.03 43.51 C 123.63 42.84 122.84 41.48 122.44 40.80 Z" />
<path fill="#dfb962" opacity="1.00" d=" M 77.91 87.99 C 87.38 68.04 102.24 50.48 121.95 40.08 C 122.50 41.61 123.06 43.14 123.61 44.68 C 118.94 47.06 114.95 51.00 109.66 51.95 C 107.81 55.51 104.43 57.82 101.79 60.74 C 86.38 75.67 76.56 96.12 74.49 117.47 C 73.90 117.72 72.71 118.21 72.12 118.46 C 72.98 118.75 73.84 119.03 74.70 119.32 C 70.63 123.19 76.87 129.99 72.74 134.59 C 73.51 135.29 74.29 135.99 75.07 136.69 C 74.35 136.79 72.91 137.00 72.19 137.10 C 76.96 140.63 78.46 148.61 76.59 153.98 C 77.15 154.07 78.25 154.24 78.81 154.33 C 80.29 157.77 81.41 161.35 82.22 165.01 C 81.13 165.41 80.04 165.82 78.95 166.23 C 77.41 163.19 75.10 159.61 77.40 156.32 C 76.55 156.38 75.70 156.45 74.86 156.51 C 74.11 154.26 73.30 151.71 75.61 150.08 C 74.96 149.99 73.67 149.81 73.02 149.72 C 71.82 146.02 71.11 142.20 70.69 138.34 C 69.80 121.30 70.94 103.79 77.91 87.99 Z" />
<path fill="#dfb962" opacity="1.00" d=" M 228.09 45.72 C 239.20 53.18 247.39 64.19 253.92 75.70 C 254.33 77.07 254.21 78.53 254.35 79.94 C 247.56 67.06 236.38 57.47 228.09 45.72 Z" />
<path fill="#dfb962" opacity="1.00" d=" M 77.54 78.43 C 82.37 69.35 88.07 60.51 96.08 53.90 C 89.53 64.38 82.62 74.63 76.32 85.27 C 76.58 82.97 76.47 80.54 77.54 78.43 Z" />
<path fill="#dfb962" opacity="1.00" d=" M 99.51 163.18 C 100.58 159.15 101.50 151.71 106.85 152.01 C 108.44 156.11 108.31 160.58 108.57 164.91 C 110.07 164.34 111.48 163.13 113.14 163.24 C 121.59 165.06 130.20 162.96 138.62 161.91 C 151.02 161.06 163.46 161.00 175.88 161.00 C 175.67 158.66 175.43 156.33 175.18 154.01 C 176.00 156.44 176.89 158.84 177.79 161.25 C 187.09 162.79 196.60 162.02 205.93 163.48 C 211.86 164.94 218.21 162.37 223.87 165.04 C 226.22 166.31 229.70 166.71 231.04 169.11 C 232.13 179.21 231.18 189.41 230.10 199.48 C 229.64 199.87 228.71 200.64 228.24 201.02 C 198.50 225.78 153.70 230.19 119.96 211.04 C 114.12 208.23 109.62 203.15 103.48 200.96 C 101.86 201.26 100.27 201.66 98.66 201.97 C 95.25 202.15 91.80 202.06 88.47 202.93 C 88.39 192.64 88.67 182.30 87.73 172.04 C 87.76 169.01 83.88 169.89 81.89 169.69 C 83.44 169.30 85.00 168.90 86.55 168.52 C 84.91 166.13 83.54 163.57 82.52 160.87 C 88.02 161.01 93.04 163.37 97.89 165.76 C 96.91 163.96 95.94 162.16 94.95 160.36 C 95.46 160.09 96.49 159.55 97.00 159.27 C 97.83 160.57 98.67 161.87 99.51 163.18 M 143.69 197.11 C 137.31 197.62 130.54 196.33 124.52 199.01 C 120.09 197.70 115.51 199.34 111.11 200.06 C 142.33 225.41 191.29 225.48 222.44 200.01 C 217.62 198.91 212.17 197.00 207.42 199.15 C 200.85 197.01 193.30 195.96 186.57 197.64 C 186.72 197.28 187.03 196.57 187.18 196.22 C 172.75 195.62 157.92 194.83 143.69 197.11 Z" />
</g>
<g id="#f6eac2ff">
<path fill="#f6eac2" opacity="1.00" d=" M 170.45 80.68 C 172.86 87.29 170.58 94.35 171.41 101.17 C 172.60 95.26 172.27 88.71 176.05 83.66 C 176.37 87.78 175.98 91.91 175.35 95.98 C 176.72 92.74 178.20 89.55 180.08 86.58 C 180.61 89.35 180.58 92.18 180.32 94.98 C 181.94 91.21 183.74 87.48 186.35 84.29 C 186.42 86.94 185.95 89.56 185.32 92.12 C 187.23 90.47 189.09 88.76 190.86 86.95 C 191.09 88.65 191.33 90.36 191.58 92.07 C 193.25 90.40 194.83 88.64 196.37 86.86 C 196.72 87.17 197.43 87.79 197.78 88.10 C 196.91 90.38 196.02 92.65 195.14 94.92 C 198.28 92.36 201.22 89.56 204.10 86.71 C 204.51 87.02 205.31 87.64 205.72 87.95 C 204.33 89.91 203.04 91.93 201.95 94.07 C 205.90 92.93 209.07 90.24 212.30 87.82 C 212.80 88.38 213.31 88.95 213.81 89.51 C 211.05 92.16 208.36 94.90 206.10 97.99 C 209.97 96.90 213.70 95.16 216.55 92.25 C 220.50 94.94 224.51 97.80 229.23 98.95 C 228.08 99.54 226.96 100.18 225.85 100.84 C 225.38 101.13 224.42 101.71 223.95 102.00 C 227.86 108.22 234.17 112.39 241.35 113.83 C 241.59 115.92 241.82 118.01 242.05 120.10 C 238.73 116.09 234.52 112.35 228.89 113.06 C 229.87 117.64 232.31 121.74 235.35 125.25 C 230.85 125.03 226.32 124.97 221.92 123.91 C 210.79 121.02 199.25 123.77 188.35 126.39 C 188.67 127.46 188.99 128.52 189.32 129.59 C 195.28 130.25 201.30 129.73 207.24 130.56 C 200.20 131.78 193.04 130.57 185.94 131.14 C 188.11 131.70 190.26 132.31 192.40 132.97 C 189.74 133.16 187.08 133.28 184.43 133.43 C 191.12 134.91 198.03 135.93 204.33 138.74 C 198.79 138.71 193.66 136.34 188.18 135.86 C 188.62 136.41 189.50 137.50 189.94 138.04 C 189.20 138.14 187.71 138.34 186.97 138.44 C 194.68 142.73 203.13 145.79 210.36 150.85 C 201.81 149.37 195.38 142.65 186.91 140.86 C 196.96 148.43 208.46 153.87 218.45 161.53 C 215.71 161.79 213.36 160.27 211.20 158.80 C 203.95 153.71 196.48 148.92 188.72 144.66 C 191.44 149.67 197.79 150.95 200.34 156.02 C 194.05 153.23 189.61 147.76 183.83 144.17 C 183.51 144.44 182.88 144.97 182.56 145.23 C 182.68 146.50 182.81 147.77 182.94 149.05 C 181.89 148.45 180.84 147.85 179.79 147.26 C 182.65 152.06 186.55 156.17 189.11 161.15 C 183.49 161.19 183.37 154.06 179.92 150.91 C 180.86 154.35 182.25 157.63 183.81 160.83 C 181.80 160.95 179.79 161.09 177.79 161.25 C 176.89 158.84 176.00 156.44 175.18 154.01 C 175.43 156.33 175.67 158.66 175.88 161.00 C 163.46 161.00 151.02 161.06 138.62 161.91 C 141.57 156.83 146.43 153.27 149.47 148.25 C 147.86 148.82 146.25 149.41 144.65 149.99 C 146.50 147.95 148.36 145.90 150.23 143.87 C 148.37 144.63 146.52 145.38 144.66 146.13 C 146.12 144.67 147.56 143.19 148.98 141.68 C 149.04 140.49 149.12 139.30 149.20 138.12 C 145.13 140.35 141.00 143.01 136.24 143.31 C 125.54 143.80 115.18 148.31 104.36 146.69 C 103.89 144.72 103.39 142.75 102.96 140.77 C 102.87 140.30 102.68 139.34 102.59 138.87 C 98.36 140.96 95.69 144.90 93.24 148.75 C 92.83 147.53 92.41 146.30 91.99 145.08 C 97.74 140.28 101.81 133.55 101.83 125.89 C 96.04 126.49 92.59 131.35 90.06 136.07 C 89.90 134.04 89.75 132.01 89.59 129.98 C 95.77 126.55 100.92 121.49 103.24 114.68 C 108.21 109.86 115.07 116.37 121.02 115.74 C 116.98 114.02 112.82 112.60 108.85 110.72 C 111.74 105.54 117.74 110.46 122.06 110.89 C 120.09 109.03 117.99 107.30 115.89 105.60 C 118.83 105.14 121.82 105.34 124.74 105.89 C 123.38 104.17 122.08 102.41 120.86 100.59 C 124.20 100.35 126.98 102.51 129.85 103.87 C 128.98 101.80 128.12 99.73 127.26 97.65 C 129.85 98.64 132.43 99.65 135.00 100.70 C 133.65 98.38 132.35 96.02 131.15 93.62 C 134.62 95.69 137.84 98.14 140.84 100.84 C 140.02 98.97 139.42 96.99 139.56 94.93 C 141.35 96.19 143.09 97.51 144.81 98.86 C 144.49 96.96 144.18 95.05 143.87 93.15 C 145.19 94.04 146.51 94.92 147.83 95.81 C 146.96 92.81 146.22 89.77 145.78 86.67 C 149.23 89.86 150.87 94.38 153.60 98.11 C 152.71 95.09 152.03 92.01 151.57 88.89 C 152.79 90.16 154.01 91.43 155.22 92.71 C 155.91 91.02 156.60 89.33 157.31 87.65 C 158.64 90.37 159.81 93.16 160.83 96.00 C 160.59 91.92 160.30 87.84 160.21 83.75 C 162.30 86.93 162.83 90.77 164.32 94.21 C 164.70 91.02 164.89 87.80 165.22 84.59 C 168.97 89.07 167.24 95.33 167.34 100.66 C 167.65 100.67 168.26 100.69 168.57 100.69 C 168.75 94.00 168.86 87.23 170.45 80.68 Z" />
<path fill="#f6eac2" opacity="1.00" d=" M 75.78 87.70 C 76.54 87.23 77.31 86.77 78.07 86.30 C 78.03 86.72 77.95 87.56 77.91 87.99 C 70.94 103.79 69.80 121.30 70.69 138.34 C 70.22 138.18 69.26 137.87 68.79 137.71 C 66.62 120.74 69.50 103.52 75.78 87.70 Z" />
<path fill="#f6eac2" opacity="1.00" d=" M 190.74 127.93 C 196.46 126.00 203.06 125.99 209.13 126.35 C 203.01 126.88 196.91 128.34 190.74 127.93 Z" />
<path fill="#f6eac2" opacity="1.00" d=" M 143.69 197.11 C 157.92 194.83 172.75 195.62 187.18 196.22 C 187.03 196.57 186.72 197.28 186.57 197.64 C 180.15 199.54 173.53 200.90 166.89 201.76 C 158.99 201.45 151.31 199.07 143.69 197.11 Z" />
<path fill="#f6eac2" opacity="1.00" d=" M 111.11 200.06 C 115.51 199.34 120.09 197.70 124.52 199.01 C 122.84 199.97 121.22 201.03 119.61 202.11 C 127.05 206.34 136.96 206.87 143.46 200.66 C 149.16 200.72 154.72 203.03 160.32 204.16 C 157.03 206.91 153.08 208.99 150.66 212.65 C 157.40 214.37 160.20 206.89 165.97 205.78 C 171.83 206.87 174.50 214.51 181.40 212.65 C 179.01 208.96 175.01 206.91 171.73 204.13 C 177.14 202.79 182.59 201.61 187.97 200.16 C 194.38 206.35 204.09 206.32 211.77 202.64 C 211.76 200.40 208.89 200.15 207.42 199.15 C 212.17 197.00 217.62 198.91 222.44 200.01 C 191.29 225.48 142.33 225.41 111.11 200.06 Z" />
<path fill="#f6eac2" opacity="1.00" d=" M 103.48 200.96 C 109.62 203.15 114.12 208.23 119.96 211.04 C 153.70 230.19 198.50 225.78 228.24 201.02 C 228.95 201.05 230.36 201.10 231.07 201.12 C 226.04 206.60 218.88 209.79 214.76 216.13 C 187.70 231.74 152.99 232.94 124.90 219.28 C 118.77 212.00 109.36 208.42 103.48 200.96 Z" />
</g>
<g id="#be8d3eff">
<path fill="#be8d3e" opacity="1.00" d=" M 225.38 151.86 C 230.10 154.00 231.52 159.30 232.11 164.00 C 232.93 163.31 233.75 162.63 234.57 161.94 C 234.55 162.19 234.51 162.67 234.49 162.91 C 234.38 164.00 234.27 165.08 234.16 166.16 C 238.83 163.80 243.71 161.67 248.98 161.14 C 247.96 163.76 246.86 166.35 245.75 168.93 C 246.50 169.07 248.00 169.34 248.75 169.47 C 250.30 169.75 251.85 170.02 253.41 170.31 C 254.24 170.46 255.06 170.62 255.89 170.79 C 260.88 171.63 265.92 172.95 269.89 176.26 C 269.18 176.82 268.46 177.39 267.76 177.96 C 268.93 180.66 270.10 183.37 271.24 186.09 C 269.50 186.57 267.76 187.01 266.02 187.45 C 266.03 188.50 266.02 189.54 266.00 190.59 C 269.92 191.49 273.83 192.43 277.73 193.43 C 277.59 196.53 277.37 199.63 277.16 202.73 C 287.45 207.70 294.11 217.14 302.05 224.93 C 309.00 231.81 318.38 235.70 328.08 236.34 C 320.42 239.03 312.15 239.70 304.30 241.84 C 311.03 247.48 319.00 251.34 327.06 254.67 C 321.10 254.91 315.01 254.80 309.38 252.59 C 298.97 249.28 292.23 239.70 282.04 235.93 C 275.48 232.89 268.18 233.27 261.15 233.14 C 261.34 230.22 261.53 227.30 261.72 224.38 C 256.00 222.87 250.16 221.85 244.43 220.39 C 244.48 220.04 244.58 219.36 244.63 219.02 C 245.37 214.79 245.55 210.50 245.30 206.23 C 248.32 206.38 251.38 206.46 254.38 205.98 C 248.31 203.24 241.18 200.90 234.51 202.39 C 233.04 201.42 231.57 200.45 230.10 199.48 C 231.18 189.41 232.13 179.21 231.04 169.11 C 229.70 166.71 226.22 166.31 223.87 165.04 C 223.96 160.61 224.30 156.17 225.38 151.86 Z" />
<path fill="#be8d3e" opacity="1.00" d=" M 77.84 170.74 C 79.19 170.40 80.53 170.02 81.89 169.69 C 83.88 169.89 87.76 169.01 87.73 172.04 C 88.67 182.30 88.39 192.64 88.47 202.93 C 84.77 203.40 82.37 205.92 82.00 209.60 C 84.23 209.76 86.46 209.92 88.69 210.08 C 89.08 213.50 89.37 216.94 89.52 220.38 C 83.76 221.78 77.95 223.00 72.19 224.40 C 72.30 227.33 72.42 230.26 72.47 233.20 C 66.06 233.28 59.42 232.89 53.34 235.33 C 42.21 238.89 34.94 249.21 23.85 252.84 C 18.44 254.96 12.54 254.93 6.83 254.63 C 14.55 250.88 23.00 247.73 29.18 241.59 C 22.26 239.66 13.75 240.12 7.90 236.26 C 15.10 235.03 22.29 232.69 28.03 228.03 C 38.01 220.03 44.75 208.22 56.65 202.58 C 56.37 199.52 56.15 196.45 56.12 193.38 C 58.89 192.72 61.65 192.03 64.41 191.35 C 65.93 188.06 67.92 184.58 66.79 180.84 C 66.47 178.56 66.18 176.27 65.89 173.99 C 69.58 171.98 73.83 171.74 77.84 170.74 Z" />
<path fill="#be8d3e" opacity="1.00" d=" M 186.57 197.64 C 193.30 195.96 200.85 197.01 207.42 199.15 C 208.89 200.15 211.76 200.40 211.77 202.64 C 204.09 206.32 194.38 206.35 187.97 200.16 C 182.59 201.61 177.14 202.79 171.73 204.13 C 175.01 206.91 179.01 208.96 181.40 212.65 C 174.50 214.51 171.83 206.87 165.97 205.78 C 160.20 206.89 157.40 214.37 150.66 212.65 C 153.08 208.99 157.03 206.91 160.32 204.16 C 154.72 203.03 149.16 200.72 143.46 200.66 C 136.96 206.87 127.05 206.34 119.61 202.11 C 121.22 201.03 122.84 199.97 124.52 199.01 C 130.54 196.33 137.31 197.62 143.69 197.11 C 151.31 199.07 158.99 201.45 166.89 201.76 C 173.53 200.90 180.15 199.54 186.57 197.64 Z" />
</g>
</svg>
