<?xml version="1.0" encoding="UTF-8" ?>
<!DOCTYPE svg PUBLIC "-//W3C//DTD SVG 1.1//EN" "http://www.w3.org/Graphics/SVG/1.1/DTD/svg11.dtd">
<svg width="223pt" height="259pt" viewBox="0 0 223 259" version="1.1" xmlns="http://www.w3.org/2000/svg">
<g id="#f9f7faff">
<path fill="#f9f7fa" opacity="1.00" d=" M 70.95 28.88 C 95.56 -2.69 146.51 -8.21 177.01 17.82 C 180.70 22.17 185.15 25.80 188.72 30.26 C 205.58 50.84 210.00 80.57 200.19 105.25 C 188.74 135.91 155.47 156.34 122.94 152.61 C 93.27 150.10 66.90 128.14 58.39 99.71 C 59.43 99.96 60.47 100.22 61.51 100.47 C 70.77 129.11 99.80 150.23 129.99 149.43 C 151.42 150.41 172.17 139.37 185.90 123.35 C 187.68 120.98 189.40 118.57 191.11 116.14 C 203.10 98.94 206.24 75.61 199.29 55.81 C 196.76 48.25 193.73 40.54 188.33 34.53 C 174.93 16.34 152.73 4.65 130.00 5.23 C 112.99 4.78 96.39 11.53 83.30 22.15 C 75.91 25.37 72.40 33.05 66.76 38.31 C 68.04 35.11 69.40 31.95 70.95 28.88 Z" />
<path fill="#f9f7fa" opacity="1.00" d=" M 70.75 149.64 C 74.91 146.20 75.79 140.53 79.49 136.75 C 82.06 138.74 84.61 140.75 87.06 142.88 C 84.71 147.15 79.85 148.40 76.45 151.42 C 56.39 177.32 35.79 202.82 15.48 228.52 C 13.49 231.06 10.78 232.85 8.15 234.65 C 7.55 231.34 6.82 228.04 5.74 224.84 C 27.18 199.59 48.96 174.60 70.75 149.64 Z" />
</g>
<g id="#000000be">
<path fill="#000000" opacity="0.75" d=" M 83.30 22.15 C 96.39 11.53 112.99 4.78 130.00 5.23 C 152.73 4.65 174.93 16.34 188.33 34.53 C 186.56 33.72 184.80 32.87 183.18 31.78 C 182.04 30.37 180.85 29.01 179.57 27.73 C 159.57 6.26 124.83 0.89 98.99 14.51 C 66.41 29.15 51.06 71.49 64.72 104.12 C 75.00 130.09 101.71 149.72 130.01 149.05 C 151.46 150.56 172.01 139.10 185.90 123.35 C 172.17 139.37 151.42 150.41 129.99 149.43 C 99.80 150.23 70.77 129.11 61.51 100.47 C 59.15 92.88 57.81 84.98 58.21 77.01 C 57.43 56.01 68.06 36.07 83.30 22.15 Z" />
<path fill="#000000" opacity="0.75" d=" M 188.62 28.14 C 191.56 28.50 193.02 31.20 194.79 33.21 C 207.00 47.24 213.09 65.63 214.47 83.99 C 214.76 105.13 206.19 126.24 190.97 140.98 C 170.83 161.30 138.87 169.36 111.80 159.42 C 107.43 158.41 102.31 154.59 98.27 158.31 C 90.81 161.86 87.45 169.56 83.21 176.11 C 67.91 198.01 52.04 219.52 35.47 240.48 C 32.48 244.53 28.13 247.94 23.01 248.50 C 17.06 247.73 10.67 244.36 8.14 238.70 C 14.68 242.94 23.67 239.90 27.74 233.69 C 47.66 207.52 68.54 181.84 85.18 153.40 C 89.27 152.81 92.31 150.00 93.86 146.25 C 105.19 151.36 117.42 155.20 129.99 154.52 C 165.38 155.49 198.67 127.91 204.88 93.15 C 209.85 70.44 203.14 46.08 188.62 28.14 Z" />
</g>
<g id="#919ca8d1">
<path fill="#919ca8" opacity="0.82" d=" M 98.99 14.51 C 124.83 0.89 159.57 6.26 179.57 27.73 C 174.60 25.89 170.57 22.30 165.68 20.31 C 147.68 11.92 126.09 11.15 107.69 18.73 C 100.55 21.53 94.44 26.22 87.99 30.24 C 89.58 23.70 93.42 18.27 98.99 14.51 Z" />
<path fill="#919ca8" opacity="0.82" d=" M 152.76 47.88 C 160.46 45.40 168.37 42.16 176.58 42.58 C 184.25 46.01 187.05 54.78 192.36 60.71 C 194.28 55.79 191.96 50.67 191.35 45.72 C 194.98 52.06 197.25 59.12 198.15 66.36 C 192.73 66.07 187.84 63.55 182.62 62.33 C 163.98 58.01 144.78 57.02 125.72 56.70 C 134.43 52.89 143.76 50.88 152.76 47.88 Z" />
<path fill="#919ca8" opacity="0.82" d=" M 82.65 71.96 C 114.41 62.74 148.31 62.03 180.81 67.58 C 186.66 69.23 193.28 67.96 198.54 71.46 C 199.43 82.45 197.42 93.85 192.64 103.80 C 186.76 111.97 180.87 120.90 171.83 125.87 C 178.43 115.06 187.95 103.85 185.70 90.22 C 181.92 85.11 175.04 83.00 168.94 82.30 C 158.24 83.30 147.17 83.77 137.15 88.09 C 127.41 91.34 117.09 95.25 110.17 103.19 C 106.63 106.85 106.22 112.11 104.51 116.66 C 101.67 118.25 98.78 115.03 97.22 112.86 C 89.36 100.63 83.45 86.61 82.65 71.96 Z" />
<path fill="#919ca8" opacity="0.82" d=" M 70.66 142.72 C 70.09 138.77 71.40 134.67 74.85 132.44 C 75.55 133.20 76.27 133.93 77.02 134.65 C 72.24 139.30 72.04 146.66 67.13 151.18 C 46.83 174.22 26.99 197.68 6.73 220.75 C 3.99 224.07 3.26 228.47 1.64 232.35 C -0.60 226.95 0.73 220.11 4.77 215.88 C 19.09 198.53 33.64 181.37 48.68 164.64 C 55.68 157.02 62.52 149.17 70.66 142.72 Z" />
</g>
<g id="#afbeceea">
<path fill="#afbece" opacity="0.92" d=" M 107.69 18.73 C 126.09 11.15 147.68 11.92 165.68 20.31 C 170.57 22.30 174.60 25.89 179.57 27.73 C 180.85 29.01 182.04 30.37 183.18 31.78 C 185.63 36.58 189.02 40.85 191.35 45.72 C 191.96 50.67 194.28 55.79 192.36 60.71 C 187.05 54.78 184.25 46.01 176.58 42.58 C 168.37 42.16 160.46 45.40 152.76 47.88 C 143.76 50.88 134.43 52.89 125.72 56.70 C 111.08 57.46 96.53 59.26 82.13 62.00 C 81.85 51.17 83.22 40.08 87.99 30.24 C 94.44 26.22 100.55 21.53 107.69 18.73 Z" />
<path fill="#afbece" opacity="0.92" d=" M 66.76 38.31 C 72.40 33.05 75.91 25.37 83.30 22.15 C 68.06 36.07 57.43 56.01 58.21 77.01 C 57.81 84.98 59.15 92.88 61.51 100.47 C 60.47 100.22 59.43 99.96 58.39 99.71 C 54.14 89.55 55.09 78.42 53.82 67.73 C 55.48 53.53 61.41 39.59 70.95 28.88 C 69.40 31.95 68.04 35.11 66.76 38.31 Z" />
<path fill="#afbece" opacity="0.92" d=" M 199.29 55.81 C 206.24 75.61 203.10 98.94 191.11 116.14 C 196.33 105.08 201.77 93.54 201.43 81.00 C 201.96 72.52 200.61 64.15 199.29 55.81 Z" />
<path fill="#afbece" opacity="0.92" d=" M 67.13 151.18 C 72.04 146.66 72.24 139.30 77.02 134.65 C 77.82 135.37 78.64 136.08 79.49 136.75 C 75.79 140.53 74.91 146.20 70.75 149.64 C 48.96 174.60 27.18 199.59 5.74 224.84 C 6.82 228.04 7.55 231.34 8.15 234.65 C 11.45 234.66 14.96 235.31 18.11 234.09 C 21.07 231.33 23.38 227.85 24.60 223.98 C 25.08 224.06 25.56 224.15 26.04 224.25 C 26.62 222.65 27.47 221.16 28.11 219.58 C 30.76 218.18 32.53 215.67 34.34 213.38 C 41.12 203.79 48.89 194.95 55.30 185.10 C 67.03 172.47 75.93 157.35 89.05 146.06 C 90.43 144.75 92.34 145.87 93.86 146.25 C 92.31 150.00 89.27 152.81 85.18 153.40 C 68.54 181.84 47.66 207.52 27.74 233.69 C 23.67 239.90 14.68 242.94 8.14 238.70 C 5.58 237.02 3.55 234.70 1.64 232.35 C 3.26 228.47 3.99 224.07 6.73 220.75 C 26.99 197.68 46.83 174.22 67.13 151.18 Z" />
</g>
<g id="#79828bbc">
<path fill="#79828b" opacity="0.74" d=" M 64.72 104.12 C 51.06 71.49 66.41 29.15 98.99 14.51 C 93.42 18.27 89.58 23.70 87.99 30.24 C 83.22 40.08 81.85 51.17 82.13 62.00 C 96.53 59.26 111.08 57.46 125.72 56.70 C 144.78 57.02 163.98 58.01 182.62 62.33 C 187.84 63.55 192.73 66.07 198.15 66.36 C 197.25 59.12 194.98 52.06 191.35 45.72 C 189.02 40.85 185.63 36.58 183.18 31.78 C 184.80 32.87 186.56 33.72 188.33 34.53 C 193.73 40.54 196.76 48.25 199.29 55.81 C 200.61 64.15 201.96 72.52 201.43 81.00 C 201.77 93.54 196.33 105.08 191.11 116.14 C 189.40 118.57 187.68 120.98 185.90 123.35 C 172.01 139.10 151.46 150.56 130.01 149.05 C 101.71 149.72 75.00 130.09 64.72 104.12 M 82.65 71.96 C 83.45 86.61 89.36 100.63 97.22 112.86 C 98.78 115.03 101.67 118.25 104.51 116.66 C 106.22 112.11 106.63 106.85 110.17 103.19 C 117.09 95.25 127.41 91.34 137.15 88.09 C 147.17 83.77 158.24 83.30 168.94 82.30 C 175.04 83.00 181.92 85.11 185.70 90.22 C 187.95 103.85 178.43 115.06 171.83 125.87 C 180.87 120.90 186.76 111.97 192.64 103.80 C 197.42 93.85 199.43 82.45 198.54 71.46 C 193.28 67.96 186.66 69.23 180.81 67.58 C 148.31 62.03 114.41 62.74 82.65 71.96 Z" />
<path fill="#79828b" opacity="0.74" d=" M 177.01 17.82 C 181.82 19.97 185.16 24.34 188.62 28.14 C 203.14 46.08 209.85 70.44 204.88 93.15 C 198.67 127.91 165.38 155.49 129.99 154.52 C 117.42 155.20 105.19 151.36 93.86 146.25 C 92.34 145.87 90.43 144.75 89.05 146.06 C 75.93 157.35 67.03 172.47 55.30 185.10 C 48.89 194.95 41.12 203.79 34.34 213.38 C 32.53 215.67 30.76 218.18 28.11 219.58 C 27.47 221.16 26.62 222.65 26.04 224.25 C 25.56 224.15 25.08 224.06 24.60 223.98 C 23.38 227.85 21.07 231.33 18.11 234.09 C 14.96 235.31 11.45 234.66 8.15 234.65 C 10.78 232.85 13.49 231.06 15.48 228.52 C 35.79 202.82 56.39 177.32 76.45 151.42 C 79.85 148.40 84.71 147.15 87.06 142.88 C 84.61 140.75 82.06 138.74 79.49 136.75 C 78.64 136.08 77.82 135.37 77.02 134.65 C 76.27 133.93 75.55 133.20 74.85 132.44 C 58.67 115.49 49.93 91.02 53.82 67.73 C 55.09 78.42 54.14 89.55 58.39 99.71 C 66.90 128.14 93.27 150.10 122.94 152.61 C 155.47 156.34 188.74 135.91 200.19 105.25 C 210.00 80.57 205.58 50.84 188.72 30.26 C 185.15 25.80 180.70 22.17 177.01 17.82 Z" />
</g>
</svg>
