<?xml version="1.0" encoding="UTF-8" ?>
<!DOCTYPE svg PUBLIC "-//W3C//DTD SVG 1.1//EN" "http://www.w3.org/Graphics/SVG/1.1/DTD/svg11.dtd">
<svg width="512pt" height="512pt" viewBox="0 0 512 512" version="1.1" xmlns="http://www.w3.org/2000/svg">
<g id="#0c53aaff">
<path fill="#0c53aa" opacity="1.00" d=" M 238.47 2.66 C 277.60 -0.13 317.38 6.31 353.59 21.43 C 410.66 45.03 458.37 90.28 485.00 146.00 C 516.35 210.45 518.27 288.33 490.27 354.29 C 465.76 413.17 418.11 461.91 359.86 487.85 C 297.12 516.26 222.70 517.34 159.13 490.86 C 100.82 466.97 52.21 420.49 25.73 363.30 C -5.42 297.32 -5.88 217.78 24.47 151.43 C 48.04 99.02 90.01 55.18 141.32 29.32 C 171.46 14.01 204.72 4.83 238.47 2.66 M 159.30 81.84 C 152.21 82.88 145.10 83.99 137.92 84.15 C 130.53 84.07 124.81 91.88 126.18 98.94 C 131.11 131.72 135.76 164.56 140.91 197.31 C 138.70 200.72 137.58 204.89 138.26 208.94 C 142.69 241.18 147.00 273.45 151.43 305.69 C 152.34 312.64 158.97 318.10 165.92 317.98 C 181.71 318.09 197.50 317.85 213.28 318.06 C 213.60 335.01 213.04 351.97 213.55 368.91 C 215.04 397.11 232.90 423.52 258.27 435.79 C 285.79 449.64 321.10 445.58 344.68 425.72 C 362.97 410.84 374.05 387.59 373.98 364.01 C 373.96 338.66 374.07 313.32 373.93 287.98 C 383.86 280.79 388.49 267.07 384.70 255.36 C 381.46 243.98 370.83 235.27 359.07 234.15 C 347.32 232.78 335.24 239.29 329.68 249.68 C 321.89 263.06 327.01 281.61 340.18 289.53 C 339.68 308.68 340.10 327.84 339.96 347.00 C 339.74 358.25 341.18 370.00 336.70 380.66 C 329.23 400.55 306.82 413.28 285.90 409.26 C 264.77 406.02 247.65 386.49 247.48 365.07 C 247.32 349.41 247.44 333.75 247.42 318.09 C 264.30 317.82 281.20 318.09 298.09 317.99 C 305.14 318.08 311.58 312.26 312.35 305.27 C 316.84 273.12 321.23 240.96 325.75 208.81 C 326.25 205.24 325.57 201.56 323.92 198.36 C 329.13 165.26 333.85 132.08 338.80 98.94 C 340.44 91.41 333.77 83.60 326.08 84.10 C 318.89 84.36 311.80 82.98 304.72 81.90 C 302.56 74.45 295.97 68.28 288.00 68.04 C 277.34 67.08 267.56 77.35 269.13 87.96 C 269.93 100.19 285.21 108.34 295.64 101.63 C 300.52 97.35 306.95 100.71 312.58 101.00 C 308.14 131.70 303.43 162.35 298.98 193.05 C 294.78 195.38 291.95 199.75 291.50 204.54 C 287.57 233.00 283.62 261.45 279.70 289.91 C 247.57 290.09 215.44 290.06 183.32 289.92 C 179.49 261.29 175.53 232.67 171.70 204.03 C 171.26 200.10 169.17 196.43 166.06 194.00 C 161.73 162.88 156.82 131.84 152.36 100.74 C 157.45 100.44 163.33 97.41 167.74 101.27 C 176.63 107.35 190.08 102.67 193.73 92.66 C 197.89 83.01 191.68 70.89 181.46 68.55 C 171.91 65.83 161.84 72.52 159.30 81.84 Z" />
</g>
<g id="#f4f4f4ff">
<path fill="#f4f4f4" opacity="1.00" d=" M 159.30 81.84 C 161.84 72.52 171.91 65.83 181.46 68.55 C 191.68 70.89 197.89 83.01 193.73 92.66 C 190.08 102.67 176.63 107.35 167.74 101.27 C 163.33 97.41 157.45 100.44 152.36 100.74 C 156.82 131.84 161.73 162.88 166.06 194.00 C 158.10 189.14 147.29 190.42 140.91 197.31 C 135.76 164.56 131.11 131.72 126.18 98.94 C 124.81 91.88 130.53 84.07 137.92 84.15 C 145.10 83.99 152.21 82.88 159.30 81.84 Z" />
<path fill="#f4f4f4" opacity="1.00" d=" M 269.13 87.96 C 267.56 77.35 277.34 67.08 288.00 68.04 C 295.97 68.28 302.56 74.45 304.72 81.90 C 311.80 82.98 318.89 84.36 326.08 84.10 C 333.77 83.60 340.44 91.41 338.80 98.94 C 333.85 132.08 329.13 165.26 323.92 198.36 C 317.82 191.38 307.39 188.85 298.98 193.05 C 303.43 162.35 308.14 131.70 312.58 101.00 C 306.95 100.71 300.52 97.35 295.64 101.63 C 285.21 108.34 269.93 100.19 269.13 87.96 Z" />
<path fill="#f4f4f4" opacity="1.00" d=" M 329.68 249.68 C 335.24 239.29 347.32 232.78 359.07 234.15 C 370.83 235.27 381.46 243.98 384.70 255.36 C 388.49 267.07 383.86 280.79 373.93 287.98 C 364.26 295.30 350.48 295.94 340.18 289.53 C 327.01 281.61 321.89 263.06 329.68 249.68 M 352.32 242.40 C 344.49 243.90 337.81 250.08 335.77 257.80 C 332.83 267.45 337.98 278.81 347.23 282.89 C 354.97 286.87 364.94 285.13 371.19 279.20 C 377.70 273.21 380.02 262.98 376.20 254.91 C 372.55 245.79 361.88 240.28 352.32 242.40 Z" />
</g>
<g id="#a3a3a3ff">
<path fill="#a3a3a3" opacity="1.00" d=" M 140.91 197.31 C 147.29 190.42 158.10 189.14 166.06 194.00 C 169.17 196.43 171.26 200.10 171.70 204.03 C 175.53 232.67 179.49 261.29 183.32 289.92 C 215.44 290.06 247.57 290.09 279.70 289.91 C 283.62 261.45 287.57 233.00 291.50 204.54 C 291.95 199.75 294.78 195.38 298.98 193.05 C 307.39 188.85 317.82 191.38 323.92 198.36 C 325.57 201.56 326.25 205.24 325.75 208.81 C 321.23 240.96 316.84 273.12 312.35 305.27 C 311.58 312.26 305.14 318.08 298.09 317.99 C 281.20 318.09 264.30 317.82 247.42 318.09 C 247.44 333.75 247.32 349.41 247.48 365.07 C 247.65 386.49 264.77 406.02 285.90 409.26 C 306.82 413.28 329.23 400.55 336.70 380.66 C 341.18 370.00 339.74 358.25 339.96 347.00 C 340.10 327.84 339.68 308.68 340.18 289.53 C 350.48 295.94 364.26 295.30 373.93 287.98 C 374.07 313.32 373.96 338.66 373.98 364.01 C 374.05 387.59 362.97 410.84 344.68 425.72 C 321.10 445.58 285.79 449.64 258.27 435.79 C 232.90 423.52 215.04 397.11 213.55 368.91 C 213.04 351.97 213.60 335.01 213.28 318.06 C 197.50 317.85 181.71 318.09 165.92 317.98 C 158.97 318.10 152.34 312.64 151.43 305.69 C 147.00 273.45 142.69 241.18 138.26 208.94 C 137.58 204.89 138.70 200.72 140.91 197.31 Z" />
<path fill="#a3a3a3" opacity="1.00" d=" M 352.32 242.40 C 361.88 240.28 372.55 245.79 376.20 254.91 C 380.02 262.98 377.70 273.21 371.19 279.20 C 364.94 285.13 354.97 286.87 347.23 282.89 C 337.98 278.81 332.83 267.45 335.77 257.80 C 337.81 250.08 344.49 243.90 352.32 242.40 Z" />
</g>
</svg>
