<?xml version="1.0" encoding="UTF-8" ?>
<!DOCTYPE svg PUBLIC "-//W3C//DTD SVG 1.1//EN" "http://www.w3.org/Graphics/SVG/1.1/DTD/svg11.dtd">
<svg width="240pt" height="240pt" viewBox="0 0 240 240" version="1.1" xmlns="http://www.w3.org/2000/svg">
<g id="#790b28ff">
<path fill="#790b28" opacity="1.00" d=" M 0.00 0.00 L 240.00 0.00 L 240.00 240.00 L 0.00 240.00 L 0.00 123.28 C 4.53 123.30 9.37 123.59 13.45 121.23 C 16.26 119.88 18.72 117.28 22.03 117.37 C 26.47 118.54 29.13 123.61 34.09 123.35 C 35.95 123.83 38.91 122.90 39.71 125.23 C 41.61 129.19 42.79 133.44 44.44 137.51 C 45.82 126.74 46.93 115.94 48.35 105.18 C 49.97 134.17 52.01 163.14 53.35 192.14 C 54.66 179.18 54.86 166.14 55.63 153.14 C 56.14 144.61 55.95 135.58 59.78 127.71 C 61.42 124.22 65.61 124.18 68.85 123.42 C 76.27 121.64 81.01 114.75 88.11 112.35 C 92.42 110.95 96.22 114.17 99.15 116.90 C 102.43 119.96 106.15 123.39 110.96 123.26 C 115.07 123.48 118.46 120.95 122.09 119.49 C 124.28 119.36 125.94 121.19 127.82 122.05 C 129.96 123.46 132.61 123.23 135.05 123.29 C 145.14 123.22 155.24 123.27 165.33 123.25 C 170.39 138.82 184.33 149.18 197.88 157.15 C 207.01 151.92 215.70 145.61 222.49 137.50 C 227.28 131.74 231.18 124.66 231.06 116.98 C 231.33 109.46 227.42 101.87 220.98 97.94 C 215.89 94.75 208.96 94.55 203.85 97.80 C 201.53 99.21 199.70 101.23 197.89 103.21 C 195.00 99.84 191.46 96.66 186.96 95.80 C 178.95 94.00 170.52 99.02 167.22 106.30 C 166.01 108.86 169.03 110.29 171.16 109.90 C 173.81 104.81 178.94 99.97 185.12 100.88 C 191.87 102.13 195.10 108.86 197.88 114.40 C 200.76 108.51 204.51 101.15 211.96 100.74 C 220.90 100.97 226.92 110.69 225.66 119.02 C 224.36 128.12 217.82 135.31 211.22 141.21 C 207.11 144.88 202.54 147.97 197.90 150.91 C 185.90 143.37 173.31 133.65 169.88 119.14 C 169.41 117.58 167.24 118.24 166.03 117.98 C 155.33 117.99 144.62 118.03 133.92 118.00 C 129.76 118.36 127.14 114.05 123.05 114.02 C 118.06 113.67 114.39 119.14 109.29 117.66 C 104.59 115.74 101.78 111.07 97.38 108.64 C 92.97 105.91 87.18 106.23 82.76 108.76 C 76.51 112.15 71.51 118.34 64.00 118.94 C 60.09 119.27 57.05 121.96 54.78 124.95 C 53.39 98.38 51.74 71.83 50.05 45.28 C 47.01 69.73 44.21 94.22 41.32 118.70 C 38.56 118.40 35.76 118.35 33.04 117.77 C 29.72 115.92 27.07 112.64 23.09 112.16 C 18.60 111.18 14.83 114.14 11.22 116.25 C 7.88 118.36 3.77 117.94 0.00 118.05 L 0.00 0.00 Z" />
</g>
<g id="#ffffffff">
<path fill="#ffffff" opacity="1.00" d=" M 50.05 45.28 C 51.74 71.83 53.39 98.38 54.78 124.95 C 57.05 121.96 60.09 119.27 64.00 118.94 C 71.51 118.34 76.51 112.15 82.76 108.76 C 87.18 106.23 92.97 105.91 97.38 108.64 C 101.78 111.07 104.59 115.74 109.29 117.66 C 114.39 119.14 118.06 113.67 123.05 114.02 C 127.14 114.05 129.76 118.36 133.92 118.00 C 144.62 118.03 155.33 117.99 166.03 117.98 C 167.24 118.24 169.41 117.58 169.88 119.14 C 173.31 133.65 185.90 143.37 197.90 150.91 C 202.54 147.97 207.11 144.88 211.22 141.21 C 217.82 135.31 224.36 128.12 225.66 119.02 C 226.92 110.69 220.90 100.97 211.96 100.74 C 204.51 101.15 200.76 108.51 197.88 114.40 C 195.10 108.86 191.87 102.13 185.12 100.88 C 178.94 99.97 173.81 104.81 171.16 109.90 C 169.03 110.29 166.01 108.86 167.22 106.30 C 170.52 99.02 178.95 94.00 186.96 95.80 C 191.46 96.66 195.00 99.84 197.89 103.21 C 199.70 101.23 201.53 99.21 203.85 97.80 C 208.96 94.55 215.89 94.75 220.98 97.94 C 227.42 101.87 231.33 109.46 231.06 116.98 C 231.18 124.66 227.28 131.74 222.49 137.50 C 215.70 145.61 207.01 151.92 197.88 157.15 C 184.33 149.18 170.39 138.82 165.33 123.25 C 155.24 123.27 145.14 123.22 135.05 123.29 C 132.61 123.23 129.96 123.46 127.82 122.05 C 125.94 121.19 124.28 119.36 122.09 119.49 C 118.46 120.95 115.07 123.48 110.96 123.26 C 106.15 123.39 102.43 119.96 99.15 116.90 C 96.22 114.17 92.42 110.95 88.11 112.35 C 81.01 114.75 76.27 121.64 68.85 123.42 C 65.61 124.18 61.42 124.22 59.78 127.71 C 55.95 135.58 56.14 144.61 55.63 153.14 C 54.86 166.14 54.66 179.18 53.35 192.14 C 52.01 163.14 49.97 134.17 48.35 105.18 C 46.93 115.94 45.82 126.74 44.44 137.51 C 42.79 133.44 41.61 129.19 39.71 125.23 C 38.91 122.90 35.95 123.83 34.09 123.35 C 29.13 123.61 26.47 118.54 22.03 117.37 C 18.72 117.28 16.26 119.88 13.45 121.23 C 9.37 123.59 4.53 123.30 0.00 123.28 L 0.00 118.05 C 3.77 117.94 7.88 118.36 11.22 116.25 C 14.83 114.14 18.60 111.18 23.09 112.16 C 27.07 112.64 29.72 115.92 33.04 117.77 C 35.76 118.35 38.56 118.40 41.32 118.70 C 44.21 94.22 47.01 69.73 50.05 45.28 Z" />
</g>
</svg>
