<?xml version="1.0" encoding="UTF-8" ?>
<!DOCTYPE svg PUBLIC "-//W3C//DTD SVG 1.1//EN" "http://www.w3.org/Graphics/SVG/1.1/DTD/svg11.dtd">
<svg width="300pt" height="300pt" viewBox="0 0 300 300" version="1.1" xmlns="http://www.w3.org/2000/svg">
<g id="#ffffffff">
</g>
<g id="#57a5f9ff">
<path fill="#57a5f9" opacity="1.00" d=" M 140.32 25.25 C 143.19 22.36 146.05 19.46 149.05 16.71 C 152.06 19.05 155.16 21.30 157.81 24.05 C 174.49 40.83 191.30 57.47 207.94 74.28 C 207.95 57.76 207.81 41.24 208.02 24.72 C 215.00 24.47 221.97 24.63 228.95 24.52 C 232.14 24.48 235.41 24.49 238.46 25.58 C 238.81 25.82 239.53 26.29 239.89 26.53 C 240.56 26.50 241.92 26.45 242.59 26.42 C 242.61 53.92 242.57 81.42 242.61 108.92 C 250.29 116.76 258.43 124.22 265.75 132.37 C 266.11 133.46 266.47 134.56 266.81 135.66 C 259.60 135.70 252.37 135.34 245.16 135.82 L 244.29 136.41 L 244.05 136.61 C 243.59 138.71 243.42 140.87 243.41 143.03 C 243.57 185.55 243.29 228.07 243.54 270.58 C 236.03 270.82 228.52 270.73 221.00 270.81 L 221.00 269.61 C 227.52 269.67 234.04 269.66 240.56 269.47 C 240.77 232.63 240.55 195.79 240.63 158.95 C 240.58 150.62 240.81 142.28 240.43 133.96 C 240.27 177.65 240.39 221.34 240.37 265.03 C 240.32 266.31 240.16 267.58 239.89 268.84 C 233.61 269.94 227.20 269.19 220.86 269.42 C 220.29 265.96 219.88 262.45 220.21 258.95 C 221.26 246.43 220.18 233.87 219.48 221.37 C 219.42 212.39 220.13 203.41 220.94 194.47 C 222.17 194.51 223.40 194.52 224.62 194.74 C 225.81 194.96 227.00 195.22 228.18 195.48 C 229.36 193.56 230.82 191.71 231.33 189.48 C 231.69 185.87 229.84 182.04 231.77 178.67 C 233.81 174.67 235.15 170.39 236.00 166.00 C 236.64 162.46 237.98 158.92 237.56 155.29 C 235.63 148.77 230.07 143.82 229.03 136.95 C 228.13 133.06 228.68 128.42 225.46 125.48 C 222.58 122.57 219.41 118.81 214.89 119.12 C 220.62 108.97 215.06 93.40 203.18 90.88 C 198.21 89.83 191.40 89.24 188.59 94.53 C 185.31 101.06 187.13 108.67 188.50 115.47 L 188.60 113.71 C 190.13 116.07 192.07 118.12 194.86 118.94 C 193.48 124.17 189.91 128.40 186.67 132.59 C 185.50 134.12 186.05 136.18 185.92 137.96 C 186.35 145.18 180.86 150.79 179.44 157.60 C 176.18 159.27 172.72 160.59 169.61 162.56 C 167.62 163.83 166.15 165.91 163.93 166.79 C 159.99 167.42 155.98 167.14 152.02 167.47 C 151.84 167.96 151.47 168.92 151.29 169.41 C 150.14 171.64 149.36 174.64 146.66 175.46 C 143.85 176.53 141.15 177.87 138.78 179.72 C 135.66 176.11 134.71 171.40 132.81 167.18 C 129.75 163.61 125.54 161.27 122.11 158.08 C 124.54 155.93 127.34 153.54 127.31 149.99 C 127.38 144.76 127.57 138.87 124.51 134.37 C 119.14 128.69 107.99 128.56 103.54 135.48 C 99.29 141.58 97.88 150.04 101.71 156.70 C 97.49 159.28 93.41 162.58 91.29 167.17 C 90.44 169.88 90.85 172.79 90.38 175.57 C 87.60 176.12 85.10 174.36 82.54 173.60 C 78.26 171.70 73.68 173.75 69.42 174.70 C 69.51 175.57 69.61 176.45 69.73 177.32 L 69.84 177.48 C 70.12 177.80 70.66 178.43 70.93 178.74 C 71.94 178.67 72.95 178.55 73.96 178.60 C 76.38 178.78 78.79 178.99 81.21 179.17 C 81.65 182.51 82.17 185.84 82.86 189.14 C 82.97 188.74 83.20 187.96 83.31 187.57 C 85.43 194.80 85.44 202.39 85.15 209.84 C 78.24 209.38 70.98 212.10 67.05 218.00 C 59.64 229.11 60.46 244.10 66.54 255.62 C 68.40 259.78 71.77 262.93 74.24 266.68 C 74.45 267.44 74.87 268.97 75.08 269.73 C 70.36 269.76 65.59 270.13 60.92 269.34 C 59.62 267.13 59.72 264.48 59.65 262.02 C 59.71 255.00 59.43 247.97 60.23 240.98 C 60.84 235.32 59.73 229.69 59.68 224.03 C 59.70 202.03 59.73 180.02 59.70 158.02 C 59.72 151.10 59.48 144.16 60.01 137.25 C 59.84 137.18 59.50 137.04 59.33 136.97 C 59.11 136.37 58.67 135.17 58.44 134.57 C 49.84 134.81 41.16 135.23 32.63 133.85 C 33.59 132.44 34.58 131.04 35.75 129.81 C 70.62 94.97 105.47 60.11 140.32 25.25 Z" />
<path fill="#57a5f9" opacity="1.00" d=" M 220.31 150.80 C 221.61 152.86 224.21 154.80 223.45 157.53 C 222.55 161.79 221.66 166.06 221.17 170.40 C 221.23 168.95 221.01 167.55 220.54 166.19 C 219.29 167.91 219.47 170.10 220.30 171.96 C 220.43 172.52 220.68 173.64 220.80 174.20 C 220.77 175.10 220.71 176.92 220.67 177.83 C 217.86 169.09 218.78 159.69 220.31 150.80 Z" />
<path fill="#57a5f9" opacity="1.00" d=" M 172.36 172.50 C 178.02 169.95 183.81 167.67 189.37 164.88 C 191.47 170.98 189.43 177.33 188.66 183.47 C 188.07 188.92 188.06 194.45 188.59 199.92 C 189.42 208.92 189.75 218.01 191.48 226.91 C 192.68 235.31 194.26 243.68 194.77 252.16 C 194.03 253.89 193.19 255.57 192.25 257.19 L 191.86 257.04 C 190.49 256.50 189.13 255.97 187.76 255.44 C 188.93 255.16 190.11 254.88 191.28 254.61 C 191.24 253.67 191.18 252.75 191.10 251.82 C 187.24 250.44 183.09 250.93 179.17 249.92 C 174.79 246.02 173.38 239.97 171.13 234.76 C 169.01 230.00 167.46 225.02 165.95 220.04 C 164.95 216.51 162.22 213.92 160.62 210.71 C 159.52 205.57 160.48 200.13 158.91 195.06 C 156.99 191.85 153.68 189.45 150.04 188.58 L 149.88 188.02 C 150.98 186.31 152.26 184.71 153.81 183.39 C 154.41 182.75 155.10 182.52 155.89 182.72 C 156.51 182.88 157.75 183.19 158.37 183.35 C 163.90 180.92 166.87 175.03 172.36 172.50 Z" />
<path fill="#57a5f9" opacity="1.00" d=" M 156.28 169.35 C 158.07 169.34 157.27 172.07 155.88 172.10 C 154.06 172.11 154.87 169.37 156.28 169.35 Z" />
<path fill="#57a5f9" opacity="1.00" d=" M 131.39 192.03 C 133.02 192.27 134.66 192.47 136.28 192.77 C 135.12 192.93 133.97 193.12 132.82 193.34 C 136.91 193.95 141.08 194.25 145.18 193.47 C 146.80 193.25 148.44 193.38 150.07 193.52 C 148.68 193.76 147.29 194.04 145.91 194.32 C 147.68 194.49 149.46 194.66 151.24 194.84 C 151.49 196.92 151.74 199.02 151.99 201.11 C 149.59 201.34 147.19 201.58 144.80 201.87 L 144.63 201.90 C 140.73 199.83 136.72 196.65 132.05 197.44 L 131.41 197.49 C 131.42 197.36 131.43 197.11 131.44 196.99 C 131.38 195.33 131.47 193.68 131.39 192.03 Z" />
<path fill="#57a5f9" opacity="1.00" d=" M 223.29 192.31 C 223.77 192.87 223.77 192.87 223.29 192.31 Z" />
<path fill="#57a5f9" opacity="1.00" d=" M 155.20 194.66 C 155.95 195.40 156.70 196.14 157.45 196.88 C 157.24 199.17 156.97 201.48 156.19 203.65 C 155.30 200.74 155.23 197.68 155.20 194.66 Z" />
<path fill="#57a5f9" opacity="1.00" d=" M 85.03 217.28 C 88.38 217.30 83.59 220.28 85.03 217.28 Z" />
<path fill="#57a5f9" opacity="1.00" d=" M 75.24 221.45 C 76.48 219.12 79.04 218.17 81.31 217.16 C 81.86 220.94 82.22 224.75 82.47 228.56 C 82.69 228.53 83.13 228.47 83.36 228.44 L 83.91 228.36 C 83.82 229.11 83.65 230.62 83.56 231.37 C 80.72 228.15 76.66 225.68 75.24 221.45 Z" />
<path fill="#57a5f9" opacity="1.00" d=" M 70.76 239.14 C 70.83 235.75 71.06 232.36 71.40 228.99 C 72.66 230.33 73.88 231.73 75.25 232.98 C 75.54 233.14 76.13 233.46 76.42 233.62 L 76.83 233.84 C 76.92 234.01 77.08 234.33 77.17 234.50 C 78.01 236.25 78.87 238.00 79.71 239.76 C 76.73 239.59 73.74 239.38 70.76 239.14 Z" />
<path fill="#57a5f9" opacity="1.00" d=" M 132.51 235.02 C 135.31 236.29 138.50 237.07 140.81 239.21 C 140.67 240.23 140.49 241.25 140.28 242.27 C 137.78 241.53 135.27 240.82 132.77 240.09 C 134.76 239.25 135.14 237.64 132.60 237.25 L 132.51 235.02 Z" />
<path fill="#57a5f9" opacity="1.00" d=" M 98.64 237.42 L 98.77 237.13 C 99.69 239.33 100.72 241.48 101.81 243.61 C 101.31 243.57 100.31 243.49 99.81 243.44 L 99.57 243.16 C 98.80 242.26 98.03 241.36 97.26 240.46 C 97.72 239.45 98.18 238.43 98.64 237.42 M 100.19 242.20 C 100.71 242.72 100.71 242.72 100.19 242.20 Z" />
<path fill="#57a5f9" opacity="1.00" d=" M 71.77 244.50 C 75.28 244.28 78.76 244.92 81.82 246.69 C 80.16 249.69 78.28 252.58 76.18 255.30 C 74.33 251.86 72.84 248.25 71.77 244.50 Z" />
<path fill="#57a5f9" opacity="1.00" d=" M 98.15 247.28 C 101.29 247.88 105.23 248.05 107.08 251.13 C 107.71 253.25 107.65 255.50 107.74 257.70 L 107.76 258.76 L 106.95 257.98 C 103.55 254.83 100.59 251.22 98.15 247.28 Z" />
<path fill="#57a5f9" opacity="1.00" d=" M 123.21 251.58 C 122.95 250.26 122.69 248.95 122.44 247.63 C 125.10 248.17 128.38 247.76 130.37 250.00 C 129.83 253.14 125.60 251.50 123.32 252.17 L 123.21 251.58 Z" />
<path fill="#57a5f9" opacity="1.00" d=" M 168.11 251.91 C 170.43 252.70 172.05 254.42 172.87 256.71 C 170.77 257.67 168.67 258.63 166.56 259.57 C 166.18 258.27 165.84 256.97 165.44 255.69 C 166.34 254.43 167.23 253.17 168.11 251.91 Z" />
<path fill="#57a5f9" opacity="1.00" d=" M 137.65 256.00 C 138.76 255.30 139.88 254.60 141.00 253.91 C 141.14 258.96 144.51 262.72 146.94 266.82 C 147.42 270.55 143.17 269.39 140.78 269.89 L 139.45 269.98 C 138.41 265.39 137.83 260.71 137.65 256.00 Z" />
<path fill="#57a5f9" opacity="1.00" d=" M 82.93 259.05 C 84.37 259.32 85.81 259.59 87.25 259.87 C 87.99 262.55 88.53 265.29 88.90 268.05 C 86.32 266.40 83.16 264.95 81.84 262.00 C 82.17 261.00 82.53 260.01 82.93 259.05 Z" />
<path fill="#57a5f9" opacity="1.00" d=" M 125.02 261.00 L 125.32 260.74 C 126.77 261.23 128.22 261.73 129.67 262.24 C 129.46 263.52 129.25 264.80 129.04 266.09 C 126.39 265.23 123.64 264.69 120.87 264.45 C 122.29 263.34 123.65 262.17 125.02 261.00 Z" />
<path fill="#57a5f9" opacity="1.00" d=" M 175.36 263.41 C 177.42 263.07 179.49 262.71 181.50 262.11 C 181.88 262.49 182.63 263.25 183.00 263.62 C 183.20 263.80 183.59 264.17 183.79 264.35 C 189.38 265.45 195.07 264.49 200.30 262.39 L 200.97 264.17 C 200.86 264.46 200.63 265.04 200.52 265.33 C 201.58 263.95 202.63 262.57 203.70 261.20 C 205.31 264.15 206.12 267.41 206.25 270.76 C 196.53 270.77 186.81 270.58 177.10 270.94 C 177.83 268.92 179.22 266.85 178.59 264.61 C 177.52 264.17 176.45 263.77 175.36 263.41 Z" />
<path fill="#57a5f9" opacity="1.00" d=" M 96.29 262.19 C 99.30 262.65 102.02 264.01 104.31 265.99 C 102.46 267.91 100.17 269.29 97.69 270.24 C 97.08 267.58 96.61 264.90 96.29 262.19 Z" />
<path fill="#57a5f9" opacity="1.00" d=" M 127.20 279.47 C 130.53 279.75 125.52 282.35 127.20 279.47 Z" />
</g>
<g id="#45709dff">
<path fill="#45709d" opacity="1.00" d=" M 208.03 23.72 C 218.42 23.77 228.80 23.70 239.18 23.76 L 238.46 25.58 C 235.41 24.49 232.14 24.48 228.95 24.52 C 221.97 24.63 215.00 24.47 208.02 24.72 L 208.03 23.72 Z" />
<path fill="#45709d" opacity="1.00" d=" M 188.59 94.53 C 191.40 89.24 198.21 89.83 203.18 90.88 C 215.06 93.40 220.62 108.97 214.89 119.12 C 213.16 119.02 211.46 118.73 209.82 118.19 C 211.09 116.29 213.10 114.56 212.99 112.08 C 213.03 105.11 210.94 97.41 204.94 93.22 C 201.76 90.28 197.17 91.35 193.25 91.06 C 191.03 93.00 188.44 95.02 187.97 98.14 C 186.52 103.34 188.87 108.49 188.60 113.71 L 188.50 115.47 C 187.13 108.67 185.31 101.06 188.59 94.53 Z" />
<path fill="#45709d" opacity="1.00" d=" M 214.89 119.12 C 219.41 118.81 222.58 122.57 225.46 125.48 C 228.68 128.42 228.13 133.06 229.03 136.95 C 230.07 143.82 235.63 148.77 237.56 155.29 C 237.98 158.92 236.64 162.46 236.00 166.00 C 235.15 170.39 233.81 174.67 231.77 178.67 C 229.84 182.04 231.69 185.87 231.33 189.48 C 230.82 191.71 229.36 193.56 228.18 195.48 C 227.00 195.22 225.81 194.96 224.62 194.74 C 226.04 192.08 227.81 189.16 227.00 186.02 C 226.78 183.74 225.66 181.21 226.94 179.07 C 230.81 173.07 231.46 165.77 233.02 158.97 C 234.52 153.08 229.73 148.47 227.31 143.63 C 224.45 139.06 224.25 133.59 223.54 128.43 C 221.57 124.85 218.29 122.27 215.17 119.74 L 214.89 119.12 Z" />
<path fill="#45709d" opacity="1.00" d=" M 103.54 135.48 C 107.99 128.56 119.14 128.69 124.51 134.37 C 127.57 138.87 127.38 144.76 127.31 149.99 C 127.34 153.54 124.54 155.93 122.11 158.08 C 125.54 161.27 129.75 163.61 132.81 167.18 C 134.71 171.40 135.66 176.11 138.78 179.72 C 141.15 177.87 143.85 176.53 146.66 175.46 C 149.36 174.64 150.14 171.64 151.29 169.41 C 152.16 169.21 153.92 168.82 154.80 168.62 C 153.84 169.38 152.89 170.13 151.92 170.86 C 150.74 172.88 149.51 174.88 148.19 176.82 C 146.81 176.78 145.44 176.82 144.06 176.93 C 141.68 178.36 140.09 180.74 137.92 182.44 C 133.82 179.03 129.92 174.35 129.86 168.75 C 126.99 163.80 121.37 161.61 117.65 157.45 C 120.81 155.78 123.25 152.74 122.89 148.98 C 122.73 143.36 123.57 136.15 118.46 132.35 C 115.61 129.74 111.38 131.37 108.14 132.23 C 102.15 136.19 99.85 144.10 100.56 150.98 C 100.57 153.44 102.28 155.29 103.78 157.04 C 98.22 158.70 94.71 163.34 91.60 167.91 C 91.65 170.72 91.71 173.54 91.74 176.35 C 89.79 176.90 87.85 177.48 85.91 178.05 C 84.06 176.47 82.46 174.28 80.02 173.64 C 76.84 173.77 73.58 174.24 70.62 175.48 C 70.43 175.98 70.04 176.98 69.84 177.48 L 69.73 177.32 C 69.61 176.45 69.51 175.57 69.42 174.70 C 73.68 173.75 78.26 171.70 82.54 173.60 C 85.10 174.36 87.60 176.12 90.38 175.57 C 90.85 172.79 90.44 169.88 91.29 167.17 C 93.41 162.58 97.49 159.28 101.71 156.70 C 97.88 150.04 99.29 141.58 103.54 135.48 Z" />
<path fill="#45709d" opacity="1.00" d=" M 265.75 132.37 C 267.14 133.68 268.40 135.12 269.50 136.68 C 261.10 136.63 252.67 137.06 244.29 136.41 L 245.16 135.82 C 252.37 135.34 259.60 135.70 266.81 135.66 C 266.47 134.56 266.11 133.46 265.75 132.37 Z" />
<path fill="#45709d" opacity="1.00" d=" M 240.43 133.96 C 240.81 142.28 240.58 150.62 240.63 158.95 C 240.55 195.79 240.77 232.63 240.56 269.47 C 234.04 269.66 227.52 269.67 221.00 269.61 L 221.00 270.81 C 228.52 270.73 236.03 270.82 243.54 270.58 C 243.29 228.07 243.57 185.55 243.41 143.03 C 243.42 140.87 243.59 138.71 244.05 136.61 C 245.20 140.29 244.62 144.20 244.73 147.99 C 244.80 189.47 244.58 230.96 244.84 272.44 C 236.92 272.29 229.01 272.44 221.10 272.33 C 221.22 273.52 221.37 274.73 221.51 275.93 C 218.34 276.87 215.11 277.75 211.78 277.76 C 213.57 277.04 215.42 276.46 217.27 275.90 C 217.35 275.45 217.52 274.55 217.60 274.10 C 218.17 274.23 219.30 274.48 219.86 274.61 C 219.89 274.32 219.95 273.74 219.98 273.45 C 219.29 273.47 217.93 273.51 217.24 273.52 C 216.84 269.46 215.73 265.47 215.63 261.38 C 216.04 255.94 216.59 250.48 216.24 245.02 C 215.75 238.37 216.48 231.65 215.25 225.06 C 214.99 220.05 214.77 214.98 215.55 209.99 C 216.55 201.74 215.06 192.81 219.17 185.22 C 219.64 184.88 220.60 184.20 221.08 183.86 C 221.14 186.85 221.10 189.89 219.75 192.64 C 220.74 191.97 221.73 191.28 222.71 190.59 C 222.15 191.89 221.29 193.08 220.94 194.47 C 220.13 203.41 219.42 212.39 219.48 221.37 C 220.18 233.87 221.26 246.43 220.21 258.95 C 219.88 262.45 220.29 265.96 220.86 269.42 C 227.20 269.19 233.61 269.94 239.89 268.84 C 240.16 267.58 240.32 266.31 240.37 265.03 C 240.39 221.34 240.27 177.65 240.43 133.96 Z" />
<path fill="#45709d" opacity="1.00" d=" M 37.41 135.33 C 44.10 135.52 50.79 135.42 57.48 135.40 C 57.51 136.01 57.53 136.62 57.51 137.24 C 50.78 136.24 43.96 136.90 37.19 136.78 C 37.24 136.41 37.35 135.69 37.41 135.33 Z" />
<path fill="#45709d" opacity="1.00" d=" M 59.33 136.97 C 59.50 137.04 59.84 137.18 60.01 137.25 C 59.48 144.16 59.72 151.10 59.70 158.02 C 59.73 180.02 59.70 202.03 59.68 224.03 C 59.73 229.69 60.84 235.32 60.23 240.98 C 59.43 247.97 59.71 255.00 59.65 262.02 C 59.72 264.48 59.62 267.13 60.92 269.34 C 65.59 270.13 70.36 269.76 75.08 269.73 C 74.87 268.97 74.45 267.44 74.24 266.68 C 76.94 268.93 79.73 271.11 82.94 272.61 C 76.37 272.23 69.79 272.34 63.22 272.48 C 63.16 272.00 63.03 271.03 62.97 270.55 C 67.92 270.76 72.89 270.92 77.84 270.56 C 71.53 269.99 65.16 270.60 58.87 269.63 C 58.91 225.73 58.84 181.83 58.91 137.94 C 59.01 137.70 59.23 137.21 59.33 136.97 Z" />
<path fill="#45709d" opacity="1.00" d=" M 216.18 145.10 C 217.81 146.80 219.12 148.77 220.31 150.80 C 218.78 159.69 217.86 169.09 220.67 177.83 C 220.71 176.92 220.77 175.10 220.80 174.20 C 221.19 174.72 221.97 175.77 222.36 176.30 C 220.78 179.18 218.68 181.75 217.15 184.67 C 217.12 179.82 215.04 175.32 214.68 170.53 C 214.62 162.03 214.91 153.52 216.18 145.10 Z" />
<path fill="#45709d" opacity="1.00" d=" M 183.17 165.05 C 185.59 163.54 186.83 160.89 188.38 158.61 C 188.71 160.70 189.02 162.79 189.37 164.88 C 183.81 167.67 178.02 169.95 172.36 172.50 C 166.87 175.03 163.90 180.92 158.37 183.35 C 157.75 183.19 156.51 182.88 155.89 182.72 C 159.58 178.44 163.79 174.55 168.60 171.57 C 173.62 169.80 178.64 167.90 183.17 165.05 Z" />
<path fill="#45709d" opacity="1.00" d=" M 220.30 171.96 C 219.47 170.10 219.29 167.91 220.54 166.19 C 221.01 167.55 221.23 168.95 221.17 170.40 C 220.96 170.79 220.52 171.57 220.30 171.96 Z" />
<path fill="#45709d" opacity="1.00" d=" M 149.43 182.68 C 150.06 179.25 152.98 177.22 155.89 175.78 C 155.08 178.12 153.70 180.18 152.33 182.22 C 152.70 182.51 153.44 183.10 153.81 183.39 C 152.26 184.71 150.98 186.31 149.88 188.02 L 149.28 188.29 C 147.55 188.31 145.83 188.28 144.10 188.23 C 145.87 186.37 147.69 184.56 149.43 182.68 Z" />
<path fill="#45709d" opacity="1.00" d=" M 73.96 178.60 C 76.01 177.96 78.11 177.45 80.17 176.85 C 80.66 177.02 81.65 177.38 82.14 177.55 C 82.24 180.92 83.16 184.21 83.31 187.57 C 83.20 187.96 82.97 188.74 82.86 189.14 C 82.17 185.84 81.65 182.51 81.21 179.17 C 78.79 178.99 76.38 178.78 73.96 178.60 Z" />
<path fill="#45709d" opacity="1.00" d=" M 126.41 182.75 C 127.91 184.24 129.37 185.77 130.82 187.31 C 129.74 187.29 127.59 187.26 126.51 187.25 C 126.47 185.75 126.43 184.24 126.41 182.75 Z" />
<path fill="#45709d" opacity="1.00" d=" M 150.04 188.58 C 153.68 189.45 156.99 191.85 158.91 195.06 C 160.48 200.13 159.52 205.57 160.62 210.71 C 162.22 213.92 164.95 216.51 165.95 220.04 C 167.46 225.02 169.01 230.00 171.13 234.76 C 173.38 239.97 174.79 246.02 179.17 249.92 C 183.09 250.93 187.24 250.44 191.10 251.82 C 191.18 252.75 191.24 253.67 191.28 254.61 C 190.11 254.88 188.93 255.16 187.76 255.44 C 189.13 255.97 190.49 256.50 191.86 257.04 C 188.92 259.69 184.95 260.39 181.50 262.11 C 179.49 262.71 177.42 263.07 175.36 263.41 C 176.45 263.77 177.52 264.17 178.59 264.61 C 179.22 266.85 177.83 268.92 177.10 270.94 C 186.81 270.58 196.53 270.77 206.25 270.76 C 206.12 267.41 205.31 264.15 203.70 261.20 C 202.63 262.57 201.58 263.95 200.52 265.33 C 200.63 265.04 200.86 264.46 200.97 264.17 C 201.77 262.48 202.63 260.83 203.44 259.15 C 203.84 258.90 204.64 258.39 205.04 258.14 C 206.53 262.72 207.01 267.63 207.37 272.43 C 196.68 272.24 185.98 272.57 175.29 272.24 C 174.10 273.26 172.92 274.30 171.76 275.35 C 168.88 276.11 165.99 277.14 162.97 276.54 C 164.98 275.63 167.56 275.82 169.10 274.07 C 171.17 271.73 172.94 269.14 174.78 266.63 C 174.39 265.44 174.01 264.25 173.63 263.07 C 168.57 263.55 163.11 262.47 158.52 265.21 C 160.24 263.07 161.33 260.55 162.14 257.95 C 161.28 255.75 160.43 253.56 159.44 251.42 C 159.69 249.97 159.92 248.52 160.14 247.07 C 161.19 248.66 162.38 250.15 163.83 251.39 C 164.44 252.80 164.94 254.23 165.44 255.69 C 165.84 256.97 166.18 258.27 166.56 259.57 C 165.94 260.00 164.71 260.85 164.10 261.27 C 164.41 261.73 165.04 262.63 165.36 263.08 C 172.39 261.92 180.31 262.51 186.09 257.57 C 185.55 255.40 183.23 254.31 181.75 252.82 C 183.58 253.46 185.44 254.02 187.34 254.43 C 187.18 253.64 186.86 252.05 186.69 251.26 C 182.65 250.11 177.05 254.15 174.31 249.61 C 172.48 246.73 170.38 243.94 169.22 240.70 C 167.24 234.48 163.96 228.75 162.47 222.36 C 161.48 217.89 159.23 213.79 155.86 210.68 C 155.88 208.34 155.71 205.95 156.19 203.65 C 156.97 201.48 157.24 199.17 157.45 196.88 C 156.70 196.14 155.95 195.40 155.20 194.66 C 153.79 192.39 149.07 191.39 150.04 188.58 Z" />
<path fill="#45709d" opacity="1.00" d=" M 126.78 191.77 C 128.32 191.85 129.85 191.94 131.39 192.03 C 131.47 193.68 131.38 195.33 131.44 196.99 C 129.85 197.02 128.26 197.04 126.67 197.05 C 126.72 195.29 126.76 193.53 126.78 191.77 Z" />
<path fill="#45709d" opacity="1.00" d=" M 132.82 193.34 C 133.97 193.12 135.12 192.93 136.28 192.77 C 139.26 192.44 142.26 192.90 145.18 193.47 C 141.08 194.25 136.91 193.95 132.82 193.34 Z" />
<path fill="#45709d" opacity="1.00" d=" M 145.91 194.32 C 147.29 194.04 148.68 193.76 150.07 193.52 C 153.86 194.72 152.45 199.38 153.00 202.36 C 150.26 202.19 147.53 202.04 144.80 201.87 C 147.19 201.58 149.59 201.34 151.99 201.11 C 151.74 199.02 151.49 196.92 151.24 194.84 C 149.46 194.66 147.68 194.49 145.91 194.32 Z" />
<path fill="#45709d" opacity="1.00" d=" M 132.05 197.44 C 136.72 196.65 140.73 199.83 144.63 201.90 C 139.93 202.37 136.12 199.18 132.05 197.44 Z" />
<path fill="#45709d" opacity="1.00" d=" M 70.94 222.02 C 71.86 217.12 77.77 215.58 82.14 216.23 C 82.72 220.28 83.06 224.35 83.36 228.44 C 83.13 228.47 82.69 228.53 82.47 228.56 C 82.22 224.75 81.86 220.94 81.31 217.16 C 79.04 218.17 76.48 219.12 75.24 221.45 C 76.66 225.68 80.72 228.15 83.56 231.37 C 84.57 232.69 83.79 234.61 83.83 236.18 C 79.55 231.45 74.84 227.06 70.94 222.02 Z" />
<path fill="#45709d" opacity="1.00" d=" M 66.44 235.04 C 66.76 231.38 66.63 227.22 69.41 224.42 C 71.82 227.43 74.09 230.55 76.42 233.62 C 76.13 233.46 75.54 233.14 75.25 232.98 C 73.88 231.73 72.66 230.33 71.40 228.99 C 71.06 232.36 70.83 235.75 70.76 239.14 C 73.74 239.38 76.73 239.59 79.71 239.76 C 78.87 238.00 78.01 236.25 77.17 234.50 C 78.99 236.58 80.65 238.79 82.21 241.08 C 77.49 240.62 72.74 240.48 68.04 239.93 C 66.41 238.90 66.43 236.74 66.44 235.04 Z" />
<path fill="#45709d" opacity="1.00" d=" M 91.39 228.31 C 92.06 226.10 94.79 227.28 96.44 226.87 C 95.92 229.85 93.85 232.12 92.12 234.48 C 91.80 232.43 91.47 230.38 91.39 228.31 Z" />
<path fill="#45709d" opacity="1.00" d=" M 89.61 237.51 C 87.42 235.05 87.35 231.22 88.68 228.33 C 89.22 231.36 89.55 234.43 89.61 237.51 Z" />
<path fill="#45709d" opacity="1.00" d=" M 99.92 228.30 C 101.58 231.07 102.90 234.19 102.92 237.47 C 101.22 234.70 99.93 231.60 99.92 228.30 Z" />
<path fill="#45709d" opacity="1.00" d=" M 104.01 228.83 C 105.84 230.50 107.24 232.57 108.10 234.89 C 107.61 234.68 106.64 234.27 106.16 234.06 C 105.43 232.32 104.66 230.60 104.01 228.83 Z" />
<path fill="#45709d" opacity="1.00" d=" M 111.09 229.93 C 112.01 228.85 114.55 230.03 113.49 231.42 C 112.56 232.53 110.08 231.31 111.09 229.93 Z" />
<path fill="#45709d" opacity="1.00" d=" M 131.88 230.62 C 134.61 231.95 137.36 233.24 140.22 234.25 L 140.21 235.40 C 137.78 234.56 135.37 233.64 132.94 232.80 C 132.67 232.26 132.14 231.17 131.88 230.62 Z" />
<path fill="#45709d" opacity="1.00" d=" M 118.20 233.27 C 118.74 233.83 118.74 233.83 118.20 233.27 Z" />
<path fill="#45709d" opacity="1.00" d=" M 93.72 238.04 C 94.89 236.61 95.53 234.28 97.50 233.82 C 97.78 234.72 98.36 236.52 98.64 237.42 C 98.18 238.43 97.72 239.45 97.26 240.46 C 98.03 241.36 98.80 242.26 99.57 243.16 C 97.78 243.05 96.00 242.93 94.22 242.80 C 93.70 241.27 92.26 239.50 93.72 238.04 Z" />
<path fill="#45709d" opacity="1.00" d=" M 112.99 233.72 C 114.42 233.83 115.86 233.94 117.29 234.06 C 117.01 235.36 116.71 236.66 116.39 237.96 C 116.83 239.49 117.67 241.35 115.28 241.36 C 114.52 238.81 113.77 236.26 112.99 233.72 Z" />
<path fill="#45709d" opacity="1.00" d=" M 125.21 235.90 C 126.81 236.16 128.95 235.38 129.98 237.01 C 130.45 239.87 129.50 242.65 128.88 245.40 C 128.39 244.99 127.40 244.18 126.91 243.78 C 127.45 243.41 128.54 242.67 129.09 242.31 C 127.70 240.23 126.40 238.10 125.21 235.90 Z" />
<path fill="#45709d" opacity="1.00" d=" M 107.89 236.49 C 110.15 238.24 110.45 241.17 110.88 243.78 C 109.11 241.74 108.43 239.07 107.89 236.49 Z" />
<path fill="#45709d" opacity="1.00" d=" M 120.88 237.68 C 124.32 238.28 125.63 241.98 126.85 244.79 C 124.17 243.08 122.24 240.50 120.88 237.68 Z" />
<path fill="#45709d" opacity="1.00" d=" M 104.55 240.19 C 105.93 239.93 106.41 240.50 105.96 241.90 C 104.59 242.14 104.12 241.57 104.55 240.19 Z" />
<path fill="#45709d" opacity="1.00" d=" M 100.19 242.20 C 100.71 242.72 100.71 242.72 100.19 242.20 Z" />
<path fill="#45709d" opacity="1.00" d=" M 67.59 242.77 C 72.12 243.30 76.61 244.14 81.13 244.78 C 81.61 245.77 82.09 246.77 82.58 247.77 C 79.82 251.28 77.95 255.43 74.98 258.76 C 70.79 254.55 68.31 248.63 67.59 242.77 M 71.77 244.50 C 72.84 248.25 74.33 251.86 76.18 255.30 C 78.28 252.58 80.16 249.69 81.82 246.69 C 78.76 244.92 75.28 244.28 71.77 244.50 Z" />
<path fill="#45709d" opacity="1.00" d=" M 119.51 243.39 C 120.74 242.25 122.66 243.78 123.16 245.01 C 122.42 246.41 118.40 245.26 119.51 243.39 Z" />
<path fill="#45709d" opacity="1.00" d=" M 132.61 246.60 C 132.63 242.97 136.54 244.05 138.97 243.95 C 138.38 244.95 137.79 245.95 137.19 246.94 C 135.67 246.82 134.14 246.71 132.61 246.60 Z" />
<path fill="#45709d" opacity="1.00" d=" M 93.28 245.89 C 96.84 246.31 100.43 246.60 103.94 247.40 C 105.94 248.21 107.32 250.03 108.96 251.38 C 108.68 253.50 108.34 255.63 107.74 257.70 C 107.65 255.50 107.71 253.25 107.08 251.13 C 105.23 248.05 101.29 247.88 98.15 247.28 C 100.59 251.22 103.55 254.83 106.95 257.98 C 106.97 259.24 106.58 260.41 105.80 261.51 C 101.03 256.86 96.69 251.62 93.28 245.89 Z" />
<path fill="#45709d" opacity="1.00" d=" M 117.97 246.79 C 119.44 246.96 120.91 247.14 122.38 247.34 L 122.44 247.63 C 122.69 248.95 122.95 250.26 123.21 251.58 C 121.44 251.06 119.68 250.52 117.93 249.95 C 117.94 249.16 117.96 247.58 117.97 246.79 Z" />
<path fill="#45709d" opacity="1.00" d=" M 85.54 249.94 C 87.99 250.76 86.95 254.67 87.89 256.82 C 85.82 256.23 83.73 255.67 81.66 255.08 C 82.93 253.35 84.16 251.58 85.54 249.94 Z" />
<path fill="#45709d" opacity="1.00" d=" M 133.26 255.76 C 135.91 253.96 138.46 252.03 140.91 249.98 C 141.46 250.26 142.55 250.82 143.09 251.10 C 142.62 252.99 141.73 254.93 142.29 256.91 C 143.09 261.03 146.54 263.73 148.72 267.10 C 148.17 268.07 147.61 269.05 147.07 270.04 C 144.55 270.17 142.03 270.32 139.52 270.07 L 140.78 269.89 C 143.17 269.39 147.42 270.55 146.94 266.82 C 144.51 262.72 141.14 258.96 141.00 253.91 C 139.88 254.60 138.76 255.30 137.65 256.00 C 137.83 260.71 138.41 265.39 139.45 269.98 L 139.57 270.58 C 139.12 270.60 138.20 270.65 137.75 270.67 C 138.16 270.85 138.99 271.20 139.41 271.38 C 139.22 275.47 141.53 279.68 139.26 283.56 C 137.39 287.49 132.68 288.02 128.84 287.85 C 130.65 287.02 132.83 286.67 134.20 285.09 C 137.35 281.63 137.28 276.11 134.89 272.27 C 133.28 270.10 134.84 267.46 135.02 265.10 C 134.66 264.72 133.94 263.97 133.58 263.59 C 133.76 260.98 133.72 258.34 133.26 255.76 Z" />
<path fill="#45709d" opacity="1.00" d=" M 93.10 252.93 C 95.32 255.00 97.47 257.13 99.47 259.41 C 97.64 259.01 95.82 258.52 94.02 258.01 C 93.71 256.31 93.40 254.62 93.10 252.93 Z" />
<path fill="#45709d" opacity="1.00" d=" M 116.35 255.36 C 120.73 256.79 125.34 257.72 129.91 256.60 C 129.66 257.46 129.43 258.31 129.20 259.18 C 126.81 258.53 124.42 257.77 121.94 257.67 C 119.14 257.61 117.24 259.91 115.19 261.46 C 115.63 259.43 116.00 257.40 116.35 255.36 Z" />
<path fill="#45709d" opacity="1.00" d=" M 156.30 256.33 C 157.63 255.24 159.08 257.56 157.95 258.56 C 156.67 259.57 155.12 257.30 156.30 256.33 Z" />
<path fill="#45709d" opacity="1.00" d=" M 80.15 257.23 C 82.86 258.05 85.76 258.40 88.30 259.70 C 89.24 263.19 89.61 266.81 90.16 270.38 C 85.35 268.40 79.72 266.12 77.38 261.16 C 78.01 259.66 79.14 258.47 80.15 257.23 M 82.93 259.05 C 82.53 260.01 82.17 261.00 81.84 262.00 C 83.16 264.95 86.32 266.40 88.90 268.05 C 88.53 265.29 87.99 262.55 87.25 259.87 C 85.81 259.59 84.37 259.32 82.93 259.05 Z" />
<path fill="#45709d" opacity="1.00" d=" M 121.38 259.86 C 122.59 260.23 123.81 260.61 125.02 261.00 C 123.65 262.17 122.29 263.34 120.87 264.45 C 117.99 266.33 115.49 268.81 114.38 272.14 C 108.79 273.65 103.79 277.34 97.71 276.80 C 101.28 275.50 105.32 274.87 108.06 272.00 C 110.82 269.78 112.34 266.34 115.35 264.42 C 117.41 262.96 119.38 261.39 121.38 259.86 Z" />
<path fill="#45709d" opacity="1.00" d=" M 191.35 263.44 C 194.15 262.23 196.86 260.85 199.71 259.78 C 199.86 260.43 200.15 261.73 200.30 262.39 C 195.07 264.49 189.38 265.45 183.79 264.35 C 183.59 264.17 183.20 263.80 183.00 263.62 C 185.76 263.97 188.70 264.63 191.35 263.44 Z" />
<path fill="#45709d" opacity="1.00" d=" M 92.00 260.15 C 96.33 261.63 101.77 261.63 104.88 265.45 C 103.92 270.11 98.00 270.96 94.00 271.24 C 92.91 267.63 92.36 263.89 92.00 260.15 M 96.29 262.19 C 96.61 264.90 97.08 267.58 97.69 270.24 C 100.17 269.29 102.46 267.91 104.31 265.99 C 102.02 264.01 99.30 262.65 96.29 262.19 Z" />
<path fill="#45709d" opacity="1.00" d=" M 151.44 266.88 C 153.11 266.96 154.78 267.08 156.45 267.22 C 155.40 268.32 154.32 269.44 152.91 270.10 C 152.29 269.08 151.80 268.01 151.44 266.88 Z" />
<path fill="#45709d" opacity="1.00" d=" M 121.62 271.44 C 119.82 270.58 121.84 269.34 122.50 268.66 C 123.04 270.24 123.53 271.84 123.96 273.46 C 123.14 272.83 122.36 272.15 121.62 271.44 Z" />
<path fill="#45709d" opacity="1.00" d=" M 125.01 268.84 C 125.92 269.27 126.83 269.70 127.74 270.14 C 127.23 271.28 126.72 272.43 126.21 273.57 C 125.69 272.03 125.34 270.43 125.01 268.84 Z" />
<path fill="#45709d" opacity="1.00" d=" M 139.52 270.95 C 142.83 270.73 146.15 270.28 149.46 270.46 C 149.86 270.91 150.66 271.83 151.07 272.29 C 147.32 271.87 142.57 273.75 139.52 270.95 Z" />
<path fill="#45709d" opacity="1.00" d=" M 162.15 270.72 C 163.02 269.63 166.20 270.27 165.04 271.95 C 164.17 273.08 160.94 272.39 162.15 270.72 Z" />
<path fill="#45709d" opacity="1.00" d=" M 151.17 271.45 C 151.77 271.96 151.77 271.96 151.17 271.45 Z" />
<path fill="#45709d" opacity="1.00" d=" M 118.99 272.59 C 120.27 271.90 122.40 273.72 121.57 275.04 C 120.24 275.88 118.00 273.95 118.99 272.59 Z" />
<path fill="#45709d" opacity="1.00" d=" M 130.30 274.19 C 130.78 274.79 130.78 274.79 130.30 274.19 Z" />
<path fill="#45709d" opacity="1.00" d=" M 120.21 277.12 C 121.57 275.70 123.78 277.94 122.38 279.29 C 121.09 280.71 118.71 278.43 120.21 277.12 Z" />
<path fill="#45709d" opacity="1.00" d=" M 128.07 276.99 C 129.99 277.51 132.68 277.66 131.92 280.47 C 130.57 279.38 129.30 278.21 128.07 276.99 Z" />
<path fill="#45709d" opacity="1.00" d=" M 125.01 282.96 C 122.94 283.40 122.60 279.40 124.76 279.85 C 125.77 280.40 126.30 282.43 125.01 282.96 Z" />
</g>
</svg>
