<?xml version="1.0" encoding="UTF-8" ?>
<!DOCTYPE svg PUBLIC "-//W3C//DTD SVG 1.1//EN" "http://www.w3.org/Graphics/SVG/1.1/DTD/svg11.dtd">
<svg width="128pt" height="128pt" viewBox="0 0 128 128" version="1.1" xmlns="http://www.w3.org/2000/svg">
<g id="#a11d19ff">
<path fill="#a11d19" opacity="1.00" d=" M 41.51 21.88 C 49.05 16.61 56.44 11.13 63.98 5.88 C 64.51 6.27 65.04 6.66 65.57 7.05 C 62.08 17.06 64.92 28.06 63.94 38.49 C 62.40 39.52 60.80 40.46 59.25 41.48 C 56.82 43.32 56.95 46.49 57.10 49.23 C 57.14 53.26 58.45 58.65 54.03 60.90 C 53.16 60.46 52.29 60.03 51.41 59.61 L 51.93 58.97 C 53.34 58.06 54.82 57.28 56.29 56.47 C 56.07 56.01 55.63 55.10 55.41 54.65 C 55.02 54.47 54.24 54.12 53.86 53.94 L 53.17 53.66 C 54.48 51.85 55.56 49.90 56.63 47.94 C 55.53 48.36 54.44 48.80 53.36 49.26 C 56.05 45.87 55.77 41.49 55.17 37.48 C 53.15 38.96 51.18 40.50 49.25 42.11 C 49.93 33.96 37.88 30.48 41.51 21.88 Z" />
<path fill="#a11d19" opacity="1.00" d=" M 8.03 80.85 C 8.46 80.57 9.32 80.00 9.75 79.72 C 10.33 80.16 11.49 81.05 12.07 81.49 C 11.16 82.03 10.28 82.61 9.41 83.22 C 9.06 82.63 8.38 81.44 8.03 80.85 Z" />
</g>
<g id="#bb4644ff">
<path fill="#bb4644" opacity="1.00" d=" M 63.94 38.49 C 64.92 28.06 62.08 17.06 65.57 7.05 C 75.09 13.94 84.66 20.76 94.24 27.58 C 95.65 29.66 96.94 31.82 98.08 34.06 C 98.50 35.56 98.83 37.10 99.16 38.63 C 99.36 44.14 99.82 49.63 100.63 55.08 C 93.04 51.06 85.30 46.44 79.72 39.83 C 74.82 39.28 70.93 36.10 67.07 33.33 C 66.25 34.91 65.45 36.50 64.54 38.03 L 63.94 38.49 Z" />
</g>
<g id="#8f1d1bff">
<path fill="#8f1d1b" opacity="1.00" d=" M 29.94 33.51 C 30.98 27.50 37.37 25.41 41.51 21.88 C 37.88 30.48 49.93 33.96 49.25 42.11 C 51.18 40.50 53.15 38.96 55.17 37.48 C 55.77 41.49 56.05 45.87 53.36 49.26 C 50.84 50.48 48.33 51.76 45.94 53.23 C 47.74 51.51 49.36 49.62 50.97 47.73 C 46.47 46.78 41.13 48.13 39.97 42.10 C 36.02 40.01 32.72 36.98 29.94 33.51 Z" />
</g>
<g id="#5f2319d5">
<path fill="#5f2319" opacity="0.84" d=" M 94.24 27.58 C 96.59 28.96 97.54 31.52 98.08 34.06 C 96.94 31.82 95.65 29.66 94.24 27.58 Z" />
</g>
<g id="#811d1dff">
<path fill="#811d1d" opacity="1.00" d=" M 29.94 33.51 C 32.72 36.98 36.02 40.01 39.97 42.10 C 41.13 48.13 46.47 46.78 50.97 47.73 C 49.36 49.62 47.74 51.51 45.94 53.23 C 42.10 55.82 38.18 58.29 34.09 60.47 C 34.49 64.78 34.75 69.11 35.67 73.35 C 34.95 74.43 34.23 75.52 33.50 76.61 C 33.32 76.03 32.97 74.89 32.79 74.31 C 32.72 70.62 32.97 66.92 32.90 63.22 C 32.88 62.75 32.83 61.81 32.81 61.34 C 29.19 60.98 25.54 60.97 21.91 61.00 C 25.84 52.25 27.27 42.67 29.94 33.51 Z" />
</g>
<g id="#b33633ff">
<path fill="#b33633" opacity="1.00" d=" M 64.54 38.03 C 65.45 36.50 66.25 34.91 67.07 33.33 C 70.93 36.10 74.82 39.28 79.72 39.83 C 85.30 46.44 93.04 51.06 100.63 55.08 C 99.82 49.63 99.36 44.14 99.16 38.63 C 101.29 45.59 102.65 52.77 105.20 59.59 L 105.54 60.47 C 101.88 60.85 98.22 61.42 94.72 62.61 C 93.21 61.83 91.61 61.25 90.00 60.73 C 90.53 60.46 91.61 59.94 92.15 59.67 C 90.40 58.54 88.64 57.43 86.88 56.32 C 87.66 57.79 88.44 59.27 89.22 60.74 C 88.78 60.74 87.90 60.74 87.46 60.74 C 84.78 57.99 83.75 63.49 87.17 61.61 C 86.97 62.18 86.57 63.30 86.38 63.87 C 84.20 62.57 82.09 61.18 79.88 59.96 C 81.67 57.15 77.24 55.76 76.68 58.86 C 75.56 58.50 74.44 58.16 73.32 57.84 C 75.72 59.70 78.24 61.43 80.81 63.06 C 77.54 64.53 74.44 61.97 71.13 62.16 C 66.55 61.86 61.93 62.05 57.41 62.76 C 57.00 62.54 56.19 62.08 55.79 61.86 C 55.21 61.53 54.62 61.21 54.03 60.90 C 58.45 58.65 57.14 53.26 57.10 49.23 C 57.66 48.80 58.77 47.95 59.33 47.53 C 60.23 49.11 61.16 50.69 62.08 52.26 C 61.33 52.25 59.82 52.24 59.07 52.23 C 59.23 53.03 59.55 54.62 59.71 55.42 L 59.49 55.76 C 62.83 55.62 66.17 55.62 69.51 55.76 L 69.29 55.42 C 69.45 54.62 69.77 53.02 69.92 52.23 C 69.17 52.24 67.67 52.25 66.92 52.26 C 67.78 50.82 68.64 49.37 69.47 47.91 C 70.23 48.05 71.77 48.34 72.53 48.49 C 71.80 46.25 71.11 43.94 69.75 41.98 C 68.06 40.60 66.29 39.32 64.54 38.03 M 72.57 47.92 C 74.33 52.56 79.42 55.21 84.21 55.22 C 80.66 52.30 76.69 49.94 72.57 47.92 M 75.20 54.45 C 73.70 55.65 75.90 57.71 77.14 56.38 C 78.64 55.18 76.43 53.11 75.20 54.45 M 59.92 58.91 C 62.69 60.88 66.31 60.88 69.08 58.90 C 66.05 59.47 62.95 59.48 59.92 58.91 Z" />
</g>
<g id="#dc626dff">
<path fill="#dc626d" opacity="1.00" d=" M 59.25 41.48 C 60.80 40.46 62.40 39.52 63.94 38.49 L 64.54 38.03 C 66.29 39.32 68.06 40.60 69.75 41.98 C 66.26 42.80 62.63 42.74 59.25 41.48 Z" />
</g>
<g id="#c53f42ff">
<path fill="#c53f42" opacity="1.00" d=" M 57.10 49.23 C 56.95 46.49 56.82 43.32 59.25 41.48 C 62.63 42.74 66.26 42.80 69.75 41.98 C 71.11 43.94 71.80 46.25 72.53 48.49 C 71.77 48.34 70.23 48.05 69.47 47.91 C 70.03 46.90 70.58 45.88 71.14 44.87 C 68.91 46.81 67.13 49.68 64.33 50.75 C 61.82 49.24 59.97 46.88 57.87 44.88 C 58.35 45.76 58.84 46.65 59.33 47.53 C 58.77 47.95 57.66 48.80 57.10 49.23 Z" />
<path fill="#c53f42" opacity="1.00" d=" M 0.39 88.88 C 1.99 86.14 4.11 83.75 6.63 81.84 C 6.98 82.42 7.68 83.58 8.02 84.16 C 5.53 85.80 3.00 87.40 0.39 88.88 Z" />
</g>
<g id="#781815ff">
<path fill="#781815" opacity="1.00" d=" M 57.87 44.88 C 59.97 46.88 61.82 49.24 64.33 50.75 C 67.13 49.68 68.91 46.81 71.14 44.87 C 70.58 45.88 70.03 46.90 69.47 47.91 C 68.64 49.37 67.78 50.82 66.92 52.26 C 67.71 53.31 68.52 54.35 69.29 55.42 L 69.51 55.76 C 66.17 55.62 62.83 55.62 59.49 55.76 L 59.71 55.42 C 60.48 54.35 61.29 53.31 62.08 52.26 C 61.16 50.69 60.23 49.11 59.33 47.53 C 58.84 46.65 58.35 45.76 57.87 44.88 Z" />
</g>
<g id="#aa373bff">
<path fill="#aa373b" opacity="1.00" d=" M 53.36 49.26 C 54.44 48.80 55.53 48.36 56.63 47.94 C 55.56 49.90 54.48 51.85 53.17 53.66 C 49.58 56.67 55.78 58.03 53.86 53.94 C 54.24 54.12 55.02 54.47 55.41 54.65 C 55.63 55.10 56.07 56.01 56.29 56.47 C 54.82 57.28 53.34 58.06 51.93 58.97 C 50.90 57.64 49.87 57.63 48.83 58.96 C 45.72 63.60 39.56 64.56 36.31 69.12 C 41.97 67.09 47.26 63.99 51.41 59.61 C 52.29 60.03 53.16 60.46 54.03 60.90 C 54.62 61.21 55.21 61.53 55.79 61.86 C 48.60 64.78 42.52 69.76 35.67 73.35 C 34.75 69.11 34.49 64.78 34.09 60.47 C 38.18 58.29 42.10 55.82 45.94 53.23 C 48.33 51.76 50.84 50.48 53.36 49.26 M 42.16 60.18 C 41.15 64.81 46.80 59.15 42.16 60.18 Z" />
</g>
<g id="#ca646eff">
<path fill="#ca646e" opacity="1.00" d=" M 72.57 47.92 C 76.69 49.94 80.66 52.30 84.21 55.22 C 79.42 55.21 74.33 52.56 72.57 47.92 Z" />
</g>
<g id="#f2eeeeff">
<path fill="#f2eeee" opacity="1.00" d=" M 59.07 52.23 C 59.82 52.24 61.33 52.25 62.08 52.26 C 61.29 53.31 60.48 54.35 59.71 55.42 C 59.55 54.62 59.23 53.03 59.07 52.23 Z" />
<path fill="#f2eeee" opacity="1.00" d=" M 66.92 52.26 C 67.67 52.25 69.17 52.24 69.92 52.23 C 69.77 53.02 69.45 54.62 69.29 55.42 C 68.52 54.35 67.71 53.31 66.92 52.26 Z" />
<path fill="#f2eeee" opacity="1.00" d=" M 76.68 58.86 C 77.24 55.76 81.67 57.15 79.88 59.96 C 78.81 59.60 77.74 59.23 76.68 58.86 Z" />
<path fill="#f2eeee" opacity="1.00" d=" M 48.83 58.96 C 49.87 57.63 50.90 57.64 51.93 58.97 L 51.41 59.61 C 50.77 59.45 49.48 59.12 48.83 58.96 Z" />
<path fill="#f2eeee" opacity="1.00" d=" M 59.92 58.91 C 62.95 59.48 66.05 59.47 69.08 58.90 C 66.31 60.88 62.69 60.88 59.92 58.91 Z" />
<path fill="#f2eeee" opacity="1.00" d=" M 52.37 65.94 C 56.56 69.91 63.31 73.42 68.13 68.31 C 69.05 67.38 69.94 66.42 70.82 65.46 C 77.90 69.23 84.69 73.48 91.59 77.55 C 91.80 87.46 91.72 97.36 91.33 107.26 C 93.50 97.00 83.03 93.24 75.74 89.69 C 75.74 86.02 75.72 82.35 75.72 78.69 C 68.47 78.47 61.21 78.50 53.96 78.58 C 53.97 79.46 53.98 81.23 53.98 82.11 C 50.58 80.17 47.29 78.05 44.04 75.87 C 45.88 73.06 47.66 70.20 49.77 67.58 C 50.64 67.03 51.50 66.49 52.37 65.94 Z" />
</g>
<g id="#e48f97ff">
<path fill="#e48f97" opacity="1.00" d=" M 53.86 53.94 C 55.78 58.03 49.58 56.67 53.17 53.66 L 53.86 53.94 Z" />
</g>
<g id="#e18890ff">
<path fill="#e18890" opacity="1.00" d=" M 75.20 54.45 C 76.43 53.11 78.64 55.18 77.14 56.38 C 75.90 57.71 73.70 55.65 75.20 54.45 Z" />
</g>
<g id="#c56067ff">
<path fill="#c56067" opacity="1.00" d=" M 86.88 56.32 C 88.64 57.43 90.40 58.54 92.15 59.67 C 91.61 59.94 90.53 60.46 90.00 60.73 L 89.22 60.74 C 88.44 59.27 87.66 57.79 86.88 56.32 Z" />
</g>
<g id="#852626ff">
<path fill="#852626" opacity="1.00" d=" M 73.32 57.84 C 74.44 58.16 75.56 58.50 76.68 58.86 C 77.74 59.23 78.81 59.60 79.88 59.96 C 82.09 61.18 84.20 62.57 86.38 63.87 C 87.32 64.42 88.28 64.95 89.25 65.48 C 90.52 66.18 91.78 66.91 93.07 67.58 C 94.27 68.81 95.34 70.18 96.06 71.75 L 96.36 73.05 C 96.30 82.15 96.56 91.27 95.86 100.36 C 95.79 101.86 95.72 103.35 95.66 104.85 C 96.61 105.46 97.57 106.06 98.52 106.66 C 97.92 106.88 96.70 107.31 96.09 107.53 C 96.23 107.90 96.50 108.64 96.64 109.01 L 96.96 109.81 C 98.42 113.01 100.99 115.46 103.55 117.78 C 100.76 117.47 97.99 117.03 95.19 116.85 C 95.18 114.18 95.17 111.51 95.11 108.84 L 95.09 108.14 C 94.80 97.71 95.08 87.26 95.02 76.83 C 91.86 71.08 85.84 67.17 80.81 63.06 C 78.24 61.43 75.72 59.70 73.32 57.84 Z" />
</g>
<g id="#6b1b1cff">
<path fill="#6b1b1c" opacity="1.00" d=" M 36.31 69.12 C 39.56 64.56 45.72 63.60 48.83 58.96 C 49.48 59.12 50.77 59.45 51.41 59.61 C 47.26 63.99 41.97 67.09 36.31 69.12 Z" />
</g>
<g id="#d4919fff">
<path fill="#d4919f" opacity="1.00" d=" M 42.16 60.18 C 46.80 59.15 41.15 64.81 42.16 60.18 Z" />
<path fill="#d4919f" opacity="1.00" d=" M 87.17 61.61 C 83.75 63.49 84.78 57.99 87.46 60.74 L 87.17 61.61 Z" />
</g>
<g id="#9d2321ff">
<path fill="#9d2321" opacity="1.00" d=" M 105.20 59.59 C 108.28 61.76 107.60 65.71 107.86 68.97 C 114.15 73.26 120.83 76.96 127.04 81.37 C 127.03 81.78 127.01 82.58 127.00 82.98 C 126.52 83.39 125.56 84.19 125.08 84.59 C 120.90 80.45 116.18 76.88 111.05 73.99 C 110.93 74.35 110.69 75.06 110.57 75.42 C 109.07 77.56 112.86 79.14 113.10 76.44 C 113.55 76.75 114.47 77.37 114.92 77.68 C 114.27 78.69 114.03 79.79 114.21 80.98 C 111.64 79.46 108.89 77.41 105.73 77.96 C 104.94 78.95 104.19 79.97 103.44 80.99 C 104.60 82.36 105.75 83.73 106.90 85.10 C 106.75 88.49 106.86 91.87 107.06 95.25 C 103.46 97.37 98.45 98.10 97.06 93.19 C 97.20 95.10 97.31 97.02 97.42 98.94 C 100.23 99.10 103.03 99.28 105.84 99.47 C 105.81 100.12 105.77 101.44 105.75 102.10 C 102.32 102.65 98.75 102.50 95.86 100.36 C 96.56 91.27 96.30 82.15 96.36 73.05 C 98.99 73.50 101.66 73.58 104.32 73.73 C 104.48 73.08 104.80 71.79 104.95 71.15 C 101.99 71.37 99.02 71.55 96.06 71.75 C 95.34 70.18 94.27 68.81 93.07 67.58 C 93.88 67.46 94.69 67.41 95.50 67.42 C 93.80 65.65 91.73 64.14 89.25 65.48 C 88.28 64.95 87.32 64.42 86.38 63.87 C 86.57 63.30 86.97 62.18 87.17 61.61 L 87.46 60.74 C 87.90 60.74 88.78 60.74 89.22 60.74 L 90.00 60.73 C 91.61 61.25 93.21 61.83 94.72 62.61 C 95.17 62.89 96.08 63.45 96.53 63.73 C 99.91 63.70 103.28 63.09 106.67 63.32 C 106.29 62.37 105.91 61.42 105.54 60.47 L 105.20 59.59 M 97.96 64.52 C 97.74 67.87 100.72 68.95 103.52 68.20 C 101.80 66.77 99.94 65.54 97.96 64.52 M 102.37 65.13 C 102.49 68.47 105.35 63.59 102.37 65.13 Z" />
</g>
<g id="#9d2523ff">
<path fill="#9d2523" opacity="1.00" d=" M 21.05 67.81 C 21.00 65.51 21.13 63.18 21.91 61.00 C 21.73 62.12 21.55 63.25 21.37 64.38 C 25.14 63.48 29.02 62.94 32.90 63.22 C 32.97 66.92 32.72 70.62 32.79 74.31 C 32.75 76.06 32.69 77.81 32.71 79.55 C 31.80 79.77 29.97 80.20 29.05 80.42 C 30.29 81.56 31.53 82.71 32.76 83.86 C 32.74 87.61 32.51 91.37 32.78 95.12 C 29.38 97.68 24.39 97.97 23.09 93.20 C 23.17 95.06 23.22 96.92 23.27 98.79 C 26.14 98.97 29.01 99.16 31.88 99.35 C 31.85 100.05 31.79 101.44 31.75 102.13 C 28.24 102.66 24.62 102.44 21.62 100.35 C 21.54 93.92 21.70 87.49 21.68 81.05 C 20.14 82.44 18.61 83.85 17.00 85.16 C 14.68 86.67 12.36 88.19 10.03 89.69 C 8.36 89.83 6.31 90.57 6.21 92.54 C 5.66 92.63 4.55 92.81 4.00 92.90 C 3.48 92.63 2.45 92.07 1.94 91.80 L 1.30 90.92 C 8.48 86.89 15.01 81.82 22.23 77.88 C 22.03 76.29 21.83 74.69 21.62 73.10 C 25.06 73.90 28.92 74.14 31.67 71.53 C 28.26 71.37 24.85 71.48 21.45 71.82 C 21.29 70.49 21.15 69.15 21.05 67.81 M 24.35 64.75 C 24.42 65.74 24.49 66.73 24.55 67.73 C 25.71 68.16 26.86 68.59 28.02 69.03 C 28.22 68.56 28.62 67.63 28.81 67.16 C 27.29 66.43 25.80 65.62 24.35 64.75 M 28.35 65.10 C 28.49 68.45 31.33 63.57 28.35 65.10 Z" />
</g>
<g id="#ca5257ff">
<path fill="#ca5257" opacity="1.00" d=" M 21.91 61.00 C 25.54 60.97 29.19 60.98 32.81 61.34 C 32.83 61.81 32.88 62.75 32.90 63.22 C 29.02 62.94 25.14 63.48 21.37 64.38 C 21.55 63.25 21.73 62.12 21.91 61.00 Z" />
</g>
<g id="#ba5559ff">
<path fill="#ba5559" opacity="1.00" d=" M 71.13 62.16 C 74.44 61.97 77.54 64.53 80.81 63.06 C 85.84 67.17 91.86 71.08 95.02 76.83 C 87.52 72.46 80.44 67.43 72.84 63.24 C 72.41 62.97 71.55 62.43 71.13 62.16 Z" />
</g>
<g id="#c85156ff">
<path fill="#c85156" opacity="1.00" d=" M 94.72 62.61 C 98.22 61.42 101.88 60.85 105.54 60.47 C 105.91 61.42 106.29 62.37 106.67 63.32 C 103.28 63.09 99.91 63.70 96.53 63.73 C 96.08 63.45 95.17 62.89 94.72 62.61 Z" />
</g>
<g id="#8a7d7fff">
<path fill="#8a7d7f" opacity="1.00" d=" M 35.67 73.35 C 42.52 69.76 48.60 64.78 55.79 61.86 C 56.19 62.08 57.00 62.54 57.41 62.76 L 56.24 63.46 C 54.94 64.27 53.66 65.11 52.37 65.94 C 51.50 66.49 50.64 67.03 49.77 67.58 C 44.34 70.57 38.93 73.61 33.50 76.61 C 34.23 75.52 34.95 74.43 35.67 73.35 Z" />
</g>
<g id="#0c0404ff">
<path fill="#0c0404" opacity="1.00" d=" M 57.41 62.76 C 61.93 62.05 66.55 61.86 71.13 62.16 C 71.55 62.43 72.41 62.97 72.84 63.24 C 67.32 63.68 61.78 63.51 56.24 63.46 L 57.41 62.76 Z" />
<path fill="#0c0404" opacity="1.00" d=" M 111.05 73.99 C 116.18 76.88 120.90 80.45 125.08 84.59 C 125.56 84.19 126.52 83.39 127.00 82.98 C 126.96 83.77 126.89 85.35 126.85 86.14 C 126.31 85.85 125.23 85.27 124.69 84.99 C 123.27 84.16 121.91 83.23 120.66 82.16 C 120.00 81.83 118.69 81.17 118.03 80.84 C 117.83 80.57 117.42 80.03 117.22 79.76 C 116.61 78.89 115.85 78.20 114.92 77.68 C 114.47 77.37 113.55 76.75 113.10 76.44 C 112.47 76.19 111.20 75.68 110.57 75.42 C 110.69 75.06 110.93 74.35 111.05 73.99 Z" />
<path fill="#0c0404" opacity="1.00" d=" M 17.00 85.16 C 18.61 83.85 20.14 82.44 21.68 81.05 C 21.70 87.49 21.54 93.92 21.62 100.35 C 21.68 102.17 21.78 103.98 21.87 105.80 C 22.62 105.94 24.13 106.21 24.88 106.35 C 23.95 106.66 23.02 106.98 22.09 107.29 C 22.11 110.56 22.12 113.83 22.10 117.11 C 25.75 117.18 29.40 117.21 33.04 117.10 L 32.94 117.59 C 29.05 117.51 25.15 117.50 21.26 117.48 C 20.80 106.04 21.25 94.59 21.01 83.14 C 19.67 83.80 18.32 84.45 17.00 85.16 Z" />
<path fill="#0c0404" opacity="1.00" d=" M 55.88 81.27 C 61.99 81.29 68.10 81.39 74.20 81.06 C 74.18 84.71 74.17 88.37 74.11 92.03 C 68.01 91.91 61.91 91.89 55.81 91.95 C 55.78 88.39 55.84 84.83 55.88 81.27 Z" />
</g>
<g id="#b83e3eff">
<path fill="#b83e3e" opacity="1.00" d=" M 56.24 63.46 C 61.78 63.51 67.32 63.68 72.84 63.24 C 72.34 63.79 71.33 64.90 70.82 65.46 C 69.94 66.42 69.05 67.38 68.13 68.31 C 63.63 68.38 59.00 67.35 56.24 63.46 Z" />
<path fill="#b83e3e" opacity="1.00" d=" M 114.83 81.39 C 115.43 80.99 116.62 80.17 117.22 79.76 C 117.42 80.03 117.83 80.57 118.03 80.84 C 117.38 82.52 119.99 84.27 120.66 82.16 C 121.91 83.23 123.27 84.16 124.69 84.99 C 124.64 85.56 124.54 86.70 124.49 87.27 C 121.10 85.61 117.89 83.62 114.83 81.39 Z" />
</g>
<g id="#a4a1a1ff">
<path fill="#a4a1a1" opacity="1.00" d=" M 52.37 65.94 C 53.66 65.11 54.94 64.27 56.24 63.46 C 59.00 67.35 63.63 68.38 68.13 68.31 C 63.31 73.42 56.56 69.91 52.37 65.94 Z" />
</g>
<g id="#a29f9fff">
<path fill="#a29f9f" opacity="1.00" d=" M 72.84 63.24 C 80.44 67.43 87.52 72.46 95.02 76.83 C 95.08 87.26 94.80 97.71 95.09 108.14 C 93.84 108.16 92.59 108.17 91.34 108.18 L 91.33 107.26 C 91.72 97.36 91.80 87.46 91.59 77.55 C 84.69 73.48 77.90 69.23 70.82 65.46 C 71.33 64.90 72.34 63.79 72.84 63.24 Z" />
<path fill="#a29f9f" opacity="1.00" d=" M 55.66 80.72 C 61.84 80.66 68.03 80.52 74.20 81.06 C 68.10 81.39 61.99 81.29 55.88 81.27 C 55.84 84.83 55.78 88.39 55.81 91.95 C 55.83 93.67 55.87 95.39 55.89 97.12 C 55.90 98.47 55.90 99.82 55.89 101.17 C 55.86 102.86 55.81 104.55 55.75 106.24 C 55.86 97.74 55.42 89.23 55.66 80.72 Z" />
</g>
<g id="#b74649ff">
<path fill="#b74649" opacity="1.00" d=" M 89.25 65.48 C 91.73 64.14 93.80 65.65 95.50 67.42 C 94.69 67.41 93.88 67.46 93.07 67.58 C 91.78 66.91 90.52 66.18 89.25 65.48 Z" />
</g>
<g id="#c45956ff">
<path fill="#c45956" opacity="1.00" d=" M 24.35 64.75 C 25.80 65.62 27.29 66.43 28.81 67.16 C 28.62 67.63 28.22 68.56 28.02 69.03 C 26.86 68.59 25.71 68.16 24.55 67.73 C 24.49 66.73 24.42 65.74 24.35 64.75 Z" />
</g>
<g id="#cf7c7cff">
<path fill="#cf7c7c" opacity="1.00" d=" M 28.35 65.10 C 31.33 63.57 28.49 68.45 28.35 65.10 Z" />
</g>
<g id="#c64d4aff">
<path fill="#c64d4a" opacity="1.00" d=" M 97.96 64.52 C 99.94 65.54 101.80 66.77 103.52 68.20 C 100.72 68.95 97.74 67.87 97.96 64.52 Z" />
</g>
<g id="#d17a79ff">
<path fill="#d17a79" opacity="1.00" d=" M 102.37 65.13 C 105.35 63.59 102.49 68.47 102.37 65.13 Z" />
</g>
<g id="#321b1aff">
<path fill="#321b1a" opacity="1.00" d=" M 19.42 69.39 C 19.97 68.86 20.51 68.34 21.05 67.81 C 21.15 69.15 21.29 70.49 21.45 71.82 L 21.62 73.10 C 21.83 74.69 22.03 76.29 22.23 77.88 C 15.01 81.82 8.48 86.89 1.30 90.92 C 0.98 90.46 0.33 89.54 0.00 89.08 L 0.00 82.61 L 0.23 82.86 C 0.65 83.22 1.48 83.95 1.89 84.32 C 5.96 80.94 9.58 76.37 15.10 75.45 C 14.79 75.70 14.16 76.21 13.85 76.46 C 13.43 76.79 12.59 77.44 12.18 77.77 C 11.33 78.38 10.52 79.03 9.75 79.72 C 9.32 80.00 8.46 80.57 8.03 80.85 C 7.68 81.09 6.98 81.59 6.63 81.84 C 4.11 83.75 1.99 86.14 0.39 88.88 C 3.00 87.40 5.53 85.80 8.02 84.16 C 8.37 83.92 9.06 83.45 9.41 83.22 C 10.28 82.61 11.16 82.03 12.07 81.49 L 12.77 81.11 C 16.10 79.54 19.10 77.37 21.74 74.82 C 20.85 74.47 19.07 73.79 18.18 73.44 C 18.58 72.09 18.97 70.73 19.42 69.39 Z" />
<path fill="#321b1a" opacity="1.00" d=" M 105.73 77.96 C 108.89 77.41 111.64 79.46 114.21 80.98 L 114.83 81.39 C 117.89 83.62 121.10 85.61 124.49 87.27 C 124.46 87.70 124.38 88.58 124.35 89.02 C 118.00 86.91 113.04 82.25 107.20 79.15 C 106.84 78.85 106.10 78.26 105.73 77.96 Z" />
<path fill="#321b1a" opacity="1.00" d=" M 55.81 91.95 C 61.91 91.89 68.01 91.91 74.11 92.03 C 74.07 93.72 74.03 95.42 74.00 97.11 C 67.97 97.24 61.93 97.24 55.89 97.12 C 55.87 95.39 55.83 93.67 55.81 91.95 Z" />
</g>
<g id="#e0d8d8ff">
<path fill="#e0d8d8" opacity="1.00" d=" M 33.50 76.61 C 38.93 73.61 44.34 70.57 49.77 67.58 C 47.66 70.20 45.88 73.06 44.04 75.87 C 47.29 78.05 50.58 80.17 53.98 82.11 C 54.02 90.55 53.99 98.99 53.98 107.44 C 47.25 108.00 40.48 107.68 33.74 107.47 C 33.68 97.19 34.62 86.84 33.50 76.61 Z" />
<path fill="#e0d8d8" opacity="1.00" d=" M 114.21 80.98 C 114.03 79.79 114.27 78.69 114.92 77.68 C 115.85 78.20 116.61 78.89 117.22 79.76 C 116.62 80.17 115.43 80.99 114.83 81.39 L 114.21 80.98 Z" />
<path fill="#e0d8d8" opacity="1.00" d=" M 6.63 81.84 C 6.98 81.59 7.68 81.09 8.03 80.85 C 8.38 81.44 9.06 82.63 9.41 83.22 C 9.06 83.45 8.37 83.92 8.02 84.16 C 7.68 83.58 6.98 82.42 6.63 81.84 Z" />
<path fill="#e0d8d8" opacity="1.00" d=" M 118.03 80.84 C 118.69 81.17 120.00 81.83 120.66 82.16 C 119.99 84.27 117.38 82.52 118.03 80.84 Z" />
</g>
<g id="#942e2fff">
<path fill="#942e2f" opacity="1.00" d=" M 0.23 82.86 C 5.56 77.00 13.11 73.99 19.42 69.39 C 18.97 70.73 18.58 72.09 18.18 73.44 C 19.07 73.79 20.85 74.47 21.74 74.82 C 19.10 77.37 16.10 79.54 12.77 81.11 C 13.04 79.91 12.84 78.80 12.18 77.77 C 12.59 77.44 13.43 76.79 13.85 76.46 C 15.16 79.93 18.97 75.28 15.10 75.45 C 9.58 76.37 5.96 80.94 1.89 84.32 C 1.48 83.95 0.65 83.22 0.23 82.86 Z" />
</g>
<g id="#d45961ff">
<path fill="#d45961" opacity="1.00" d=" M 21.45 71.82 C 24.85 71.48 28.26 71.37 31.67 71.53 C 28.92 74.14 25.06 73.90 21.62 73.10 L 21.45 71.82 Z" />
</g>
<g id="#cf4e55ff">
<path fill="#cf4e55" opacity="1.00" d=" M 96.06 71.75 C 99.02 71.55 101.99 71.37 104.95 71.15 C 104.80 71.79 104.48 73.08 104.32 73.73 C 101.66 73.58 98.99 73.50 96.36 73.05 L 96.06 71.75 Z" />
</g>
<g id="#934c4aff">
<path fill="#934c4a" opacity="1.00" d=" M 32.71 79.55 C 32.69 77.81 32.75 76.06 32.79 74.31 C 32.97 74.89 33.32 76.03 33.50 76.61 C 34.62 86.84 33.68 97.19 33.74 107.47 L 33.73 108.27 C 33.57 103.87 33.11 99.50 32.78 95.12 C 32.51 91.37 32.74 87.61 32.76 83.86 C 32.76 82.43 32.73 80.99 32.71 79.55 Z" />
</g>
<g id="#785e72ff">
<path fill="#785e72" opacity="1.00" d=" M 13.85 76.46 C 14.16 76.21 14.79 75.70 15.10 75.45 C 18.97 75.28 15.16 79.93 13.85 76.46 Z" />
<path fill="#785e72" opacity="1.00" d=" M 113.10 76.44 C 112.86 79.14 109.07 77.56 110.57 75.42 C 111.20 75.68 112.47 76.19 113.10 76.44 Z" />
</g>
<g id="#e9e2e2ff">
<path fill="#e9e2e2" opacity="1.00" d=" M 9.75 79.72 C 10.52 79.03 11.33 78.38 12.18 77.77 C 12.84 78.80 13.04 79.91 12.77 81.11 L 12.07 81.49 C 11.49 81.05 10.33 80.16 9.75 79.72 Z" />
<path fill="#e9e2e2" opacity="1.00" d=" M 75.74 89.69 C 83.03 93.24 93.50 97.00 91.33 107.26 L 91.34 108.18 C 86.13 108.18 80.93 108.15 75.73 108.23 C 75.71 102.05 75.72 95.87 75.74 89.69 Z" />
</g>
<g id="#b03e1bff">
<path fill="#b03e1b" opacity="1.00" d=" M 53.96 78.58 C 61.21 78.50 68.47 78.47 75.72 78.69 C 75.72 82.35 75.74 86.02 75.74 89.69 C 75.72 95.87 75.71 102.05 75.73 108.23 C 75.30 108.23 74.45 108.24 74.02 108.25 C 74.00 105.89 73.96 103.53 73.96 101.16 C 73.97 99.81 73.98 98.46 74.00 97.11 C 74.03 95.42 74.07 93.72 74.11 92.03 C 74.17 88.37 74.18 84.71 74.20 81.06 C 68.03 80.52 61.84 80.66 55.66 80.72 C 55.42 89.23 55.86 97.74 55.75 106.24 L 55.71 107.20 C 55.28 107.26 54.41 107.38 53.98 107.44 C 53.99 98.99 54.02 90.55 53.98 82.11 C 53.98 81.23 53.97 79.46 53.96 78.58 Z" />
</g>
<g id="#c45b5eff">
<path fill="#c45b5e" opacity="1.00" d=" M 105.73 77.96 C 106.10 78.26 106.84 78.85 107.20 79.15 C 107.13 81.14 106.99 83.12 106.90 85.10 C 105.75 83.73 104.60 82.36 103.44 80.99 C 104.19 79.97 104.94 78.95 105.73 77.96 Z" />
</g>
<g id="#c96266ff">
<path fill="#c96266" opacity="1.00" d=" M 29.05 80.42 C 29.97 80.20 31.80 79.77 32.71 79.55 C 32.73 80.99 32.76 82.43 32.76 83.86 C 31.53 82.71 30.29 81.56 29.05 80.42 Z" />
</g>
<g id="#9b2623ff">
<path fill="#9b2623" opacity="1.00" d=" M 107.20 79.15 C 113.04 82.25 118.00 86.91 124.35 89.02 C 124.38 88.58 124.46 87.70 124.49 87.27 C 124.54 86.70 124.64 85.56 124.69 84.99 C 125.23 85.27 126.31 85.85 126.85 86.14 C 126.67 88.19 126.36 90.23 126.07 92.28 C 123.64 92.67 121.21 92.37 118.96 91.37 C 118.47 90.99 117.50 90.24 117.01 89.86 C 116.79 89.62 116.35 89.15 116.13 88.92 C 115.60 88.62 114.54 88.02 114.00 87.71 C 113.70 87.62 113.08 87.43 112.78 87.34 C 112.36 86.90 111.53 86.01 111.12 85.56 C 109.95 85.16 108.79 84.75 107.64 84.35 C 107.33 94.96 108.03 105.61 107.32 116.21 C 107.65 109.23 107.44 102.23 107.06 95.25 C 106.86 91.87 106.75 88.49 106.90 85.10 C 106.99 83.12 107.13 81.14 107.20 79.15 Z" />
</g>
<g id="#1b0608a3">
<path fill="#1b0608" opacity="0.64" d=" M 111.12 85.56 C 111.53 86.01 112.36 86.90 112.78 87.34 C 112.36 86.90 111.53 86.01 111.12 85.56 Z" />
</g>
<g id="#18070891">
<path fill="#180708" opacity="0.57" d=" M 114.00 87.71 C 114.54 88.02 115.60 88.62 116.13 88.92 C 115.60 88.62 114.54 88.02 114.00 87.71 Z" />
</g>
<g id="#16050688">
<path fill="#160506" opacity="0.53" d=" M 6.21 92.54 C 6.31 90.57 8.36 89.83 10.03 89.69 C 9.24 91.15 8.03 92.59 6.21 92.54 Z" />
</g>
<g id="#1003037f">
<path fill="#100303" opacity="0.50" d=" M 117.01 89.86 C 117.50 90.24 118.47 90.99 118.96 91.37 C 118.47 90.99 117.50 90.24 117.01 89.86 Z" />
</g>
<g id="#350d0c8d">
<path fill="#350d0c" opacity="0.55" d=" M 1.94 91.80 C 2.45 92.07 3.48 92.63 4.00 92.90 C 3.48 92.63 2.45 92.07 1.94 91.80 Z" />
</g>
<g id="#68110fff">
<path fill="#68110f" opacity="1.00" d=" M 23.09 93.20 C 24.39 97.97 29.38 97.68 32.78 95.12 C 33.11 99.50 33.57 103.87 33.73 108.27 L 33.76 109.08 C 33.71 111.77 33.51 114.45 33.04 117.10 C 29.40 117.21 25.75 117.18 22.10 117.11 C 22.12 113.83 22.11 110.56 22.09 107.29 C 23.02 106.98 23.95 106.66 24.88 106.35 C 24.13 106.21 22.62 105.94 21.87 105.80 C 21.78 103.98 21.68 102.17 21.62 100.35 C 24.62 102.44 28.24 102.66 31.75 102.13 C 31.79 101.44 31.85 100.05 31.88 99.35 C 29.01 99.16 26.14 98.97 23.27 98.79 C 23.22 96.92 23.17 95.06 23.09 93.20 M 23.06 108.21 C 21.49 111.17 26.41 108.39 23.06 108.21 Z" />
</g>
<g id="#6c110eff">
<path fill="#6c110e" opacity="1.00" d=" M 97.06 93.19 C 98.45 98.10 103.46 97.37 107.06 95.25 C 107.44 102.23 107.65 109.23 107.32 116.21 C 106.31 117.22 104.87 117.45 103.55 117.78 C 100.99 115.46 98.42 113.01 96.96 109.81 C 99.34 110.35 97.78 106.78 96.64 109.01 C 96.50 108.64 96.23 107.90 96.09 107.53 C 96.70 107.31 97.92 106.88 98.52 106.66 C 97.57 106.06 96.61 105.46 95.66 104.85 C 95.72 103.35 95.79 101.86 95.86 100.36 C 98.75 102.50 102.32 102.65 105.75 102.10 C 105.77 101.44 105.81 100.12 105.84 99.47 C 103.03 99.28 100.23 99.10 97.42 98.94 C 97.31 97.02 97.20 95.10 97.06 93.19 Z" />
</g>
<g id="#554847ff">
<path fill="#554847" opacity="1.00" d=" M 55.89 97.12 C 61.93 97.24 67.97 97.24 74.00 97.11 C 73.98 98.46 73.97 99.81 73.96 101.16 C 67.94 101.40 61.91 101.40 55.89 101.17 C 55.90 99.82 55.90 98.47 55.89 97.12 Z" />
</g>
<g id="#73726fff">
<path fill="#73726f" opacity="1.00" d=" M 55.89 101.17 C 61.91 101.40 67.94 101.40 73.96 101.16 C 73.96 103.53 74.00 105.89 74.02 108.25 C 60.59 108.35 47.16 108.27 33.73 108.27 L 33.74 107.47 C 40.48 107.68 47.25 108.00 53.98 107.44 C 54.41 107.38 55.28 107.26 55.71 107.20 L 55.75 106.24 C 55.81 104.55 55.86 102.86 55.89 101.17 Z" />
</g>
<g id="#b05e63ff">
<path fill="#b05e63" opacity="1.00" d=" M 23.06 108.21 C 26.41 108.39 21.49 111.17 23.06 108.21 Z" />
<path fill="#b05e63" opacity="1.00" d=" M 96.64 109.01 C 97.78 106.78 99.34 110.35 96.96 109.81 L 96.64 109.01 Z" />
</g>
<g id="#0000003f">
<path fill="#000000" opacity="0.25" d=" M 33.73 108.27 C 47.16 108.27 60.59 108.35 74.02 108.25 C 74.45 108.24 75.30 108.23 75.73 108.23 C 80.93 108.15 86.13 108.18 91.34 108.18 C 92.59 108.17 93.84 108.16 95.09 108.14 L 95.11 108.84 C 86.87 109.27 79.34 113.57 71.01 113.20 C 58.52 113.15 45.48 114.40 33.76 109.08 L 33.73 108.27 Z" />
</g>
<g id="#0000001b">
<path fill="#000000" opacity="0.11" d=" M 33.76 109.08 C 45.48 114.40 58.52 113.15 71.01 113.20 C 79.34 113.57 86.87 109.27 95.11 108.84 C 95.17 111.51 95.18 114.18 95.19 116.85 C 74.76 121.15 53.49 120.99 32.94 117.59 L 33.04 117.10 C 33.51 114.45 33.71 111.77 33.76 109.08 Z" />
</g>
</svg>
