<?xml version="1.0" encoding="UTF-8" ?>
<!DOCTYPE svg PUBLIC "-//W3C//DTD SVG 1.1//EN" "http://www.w3.org/Graphics/SVG/1.1/DTD/svg11.dtd">
<svg width="256pt" height="256pt" viewBox="0 0 256 256" version="1.1" xmlns="http://www.w3.org/2000/svg">
<g id="#fefbfbff">
<path fill="#fefbfb" opacity="1.00" d=" M 0.00 0.00 L 256.00 0.00 L 256.00 256.00 L 0.00 256.00 L 0.00 0.00 M 136.72 33.11 C 109.78 35.25 82.86 39.34 55.93 42.25 C 55.89 44.50 55.89 46.75 55.93 49.00 C 55.92 53.58 55.93 58.17 55.89 62.76 C 53.90 63.10 51.91 63.44 49.92 63.79 C 41.54 64.50 33.16 65.15 24.79 65.88 C 24.93 67.37 25.08 68.87 25.24 70.36 C 26.78 83.28 25.16 96.35 26.16 109.31 C 26.14 110.80 26.11 112.29 26.08 113.78 C 25.53 131.51 26.09 149.26 25.80 167.00 C 25.89 169.38 25.47 171.96 26.65 174.15 C 25.90 181.88 25.08 189.86 26.15 197.57 L 25.75 197.72 C 76.07 203.94 126.44 209.83 176.76 216.01 C 179.91 216.13 183.21 217.17 186.30 216.24 C 200.51 207.69 215.20 199.93 229.55 191.61 C 231.40 161.15 230.25 130.54 231.14 100.02 C 230.82 97.99 231.81 95.23 230.22 93.68 C 216.03 79.17 200.81 65.64 186.05 51.70 C 183.19 52.06 180.32 52.37 177.46 52.65 C 172.17 44.30 165.25 37.08 159.04 29.40 C 151.73 31.38 144.11 31.57 136.72 33.11 Z" />
</g>
<g id="#b2afafff">
<path fill="#b2afaf" opacity="1.00" d=" M 136.72 33.11 C 144.11 31.57 151.73 31.38 159.04 29.40 C 165.25 37.08 172.17 44.30 177.46 52.65 C 176.77 52.72 175.40 52.86 174.71 52.93 C 155.36 54.38 136.07 56.45 116.71 57.81 C 118.25 57.43 119.76 57.00 121.28 56.56 C 121.29 56.14 121.30 55.28 121.30 54.85 C 128.77 53.32 138.53 56.42 144.33 50.67 C 148.11 45.18 156.05 40.50 154.26 32.87 C 150.83 33.21 147.41 33.63 143.99 34.10 C 143.81 35.44 143.65 36.78 143.50 38.13 C 143.35 36.93 143.16 35.75 142.97 34.56 C 142.09 34.63 141.22 34.71 140.34 34.79 L 139.48 34.91 C 138.57 34.29 137.65 33.69 136.72 33.11 Z" />
</g>
<g id="#c1bfc1ff">
<path fill="#c1bfc1" opacity="1.00" d=" M 55.93 42.25 C 82.86 39.34 109.78 35.25 136.72 33.11 C 137.65 33.69 138.57 34.29 139.48 34.91 C 138.19 35.12 136.90 35.34 135.61 35.56 C 133.34 35.90 131.05 36.04 128.76 36.08 C 126.85 36.10 124.95 36.09 123.05 36.03 C 122.39 37.71 121.76 39.41 121.25 41.15 C 121.17 39.77 121.07 38.40 120.96 37.03 C 117.96 37.39 114.97 37.79 111.98 38.22 C 111.51 43.62 111.55 49.05 112.16 54.44 C 115.21 54.20 118.26 53.99 121.31 53.80 L 121.30 54.85 C 121.30 55.28 121.29 56.14 121.28 56.56 C 119.76 57.00 118.25 57.43 116.71 57.81 C 107.91 58.68 99.09 59.51 90.27 60.12 C 86.58 60.08 82.91 59.70 79.23 59.51 C 81.12 53.86 80.46 47.87 79.54 42.12 C 79.10 42.10 78.22 42.04 77.78 42.02 C 77.07 42.04 75.66 42.07 74.96 42.09 C 72.35 42.26 69.74 42.52 67.14 42.75 C 65.62 42.89 64.10 43.04 62.60 43.24 L 62.43 43.84 C 62.13 45.15 61.87 46.46 61.65 47.78 C 61.35 49.42 61.04 51.06 60.74 52.70 C 59.16 51.44 57.56 50.20 55.93 49.00 C 55.89 46.75 55.89 44.50 55.93 42.25 M 91.04 41.05 C 87.62 41.07 84.20 41.31 80.82 41.84 C 80.55 46.74 80.70 51.65 81.24 56.53 C 84.28 55.04 88.77 55.71 90.83 52.88 C 90.86 54.55 91.00 56.20 91.13 57.86 C 97.75 57.09 104.40 56.65 111.03 55.91 C 110.40 50.13 113.29 41.86 108.77 37.73 C 103.14 39.60 95.66 38.49 91.04 41.05 Z" />
</g>
<g id="#c7c3c4ff">
<path fill="#c7c3c4" opacity="1.00" d=" M 143.99 34.10 C 147.41 33.63 150.83 33.21 154.26 32.87 C 156.05 40.50 148.11 45.18 144.33 50.67 C 143.78 46.51 143.54 42.32 143.50 38.13 C 143.65 36.78 143.81 35.44 143.99 34.10 Z" />
</g>
<g id="#6a91b1ff">
<path fill="#6a91b1" opacity="1.00" d=" M 140.34 34.79 C 141.22 34.71 142.09 34.63 142.97 34.56 C 143.16 35.75 143.35 36.93 143.50 38.13 C 143.54 42.32 143.78 46.51 144.33 50.67 C 138.53 56.42 128.77 53.32 121.30 54.85 L 121.31 53.80 C 121.37 49.58 121.34 45.36 121.25 41.15 C 121.76 39.41 122.39 37.71 123.05 36.03 C 125.76 41.17 124.48 47.16 125.41 52.70 C 130.43 53.12 135.50 52.73 140.35 51.33 C 141.14 45.85 141.73 40.23 140.34 34.79 Z" />
</g>
<g id="#9ebcd0ff">
<path fill="#9ebcd0" opacity="1.00" d=" M 135.61 35.56 C 136.90 35.34 138.19 35.12 139.48 34.91 L 140.34 34.79 C 141.73 40.23 141.14 45.85 140.35 51.33 C 135.50 52.73 130.43 53.12 125.41 52.70 C 124.48 47.16 125.76 41.17 123.05 36.03 C 124.95 36.09 126.85 36.10 128.76 36.08 C 128.20 38.22 126.62 41.31 129.36 42.66 C 132.82 44.30 135.98 41.86 138.13 39.35 C 137.28 38.09 136.44 36.83 135.61 35.56 Z" />
</g>
<g id="#c3d5e3ff">
<path fill="#c3d5e3" opacity="1.00" d=" M 128.76 36.08 C 131.05 36.04 133.34 35.90 135.61 35.56 C 136.44 36.83 137.28 38.09 138.13 39.35 C 135.98 41.86 132.82 44.30 129.36 42.66 C 126.62 41.31 128.20 38.22 128.76 36.08 Z" />
</g>
<g id="#d8d4d4ff">
<path fill="#d8d4d4" opacity="1.00" d=" M 111.98 38.22 C 114.97 37.79 117.96 37.39 120.96 37.03 C 121.07 38.40 121.17 39.77 121.25 41.15 C 121.34 45.36 121.37 49.58 121.31 53.80 C 118.26 53.99 115.21 54.20 112.16 54.44 C 111.55 49.05 111.51 43.62 111.98 38.22 Z" />
</g>
<g id="#a1bed2ff">
<path fill="#a1bed2" opacity="1.00" d=" M 91.04 41.05 C 95.66 38.49 103.14 39.60 108.77 37.73 C 108.55 43.34 108.73 48.95 108.63 54.55 C 103.96 55.35 99.19 55.53 94.50 54.80 C 94.30 50.18 94.07 45.56 93.81 40.94 C 92.86 41.25 91.91 41.55 90.97 41.86 L 91.04 41.05 M 95.70 43.94 C 98.50 45.45 101.65 45.44 104.69 44.77 C 105.12 43.80 105.56 42.84 105.99 41.88 C 102.42 39.98 97.96 40.24 95.70 43.94 Z" />
</g>
<g id="#6b91b0ff">
<path fill="#6b91b0" opacity="1.00" d=" M 108.77 37.73 C 113.29 41.86 110.40 50.13 111.03 55.91 C 104.40 56.65 97.75 57.09 91.13 57.86 C 91.00 56.20 90.86 54.55 90.83 52.88 C 90.83 49.21 90.78 45.53 90.97 41.86 C 91.91 41.55 92.86 41.25 93.81 40.94 C 94.07 45.56 94.30 50.18 94.50 54.80 C 99.19 55.53 103.96 55.35 108.63 54.55 C 108.73 48.95 108.55 43.34 108.77 37.73 Z" />
</g>
<g id="#d8d6d5ff">
<path fill="#d8d6d5" opacity="1.00" d=" M 80.82 41.84 C 84.20 41.31 87.62 41.07 91.04 41.05 L 90.97 41.86 C 90.78 45.53 90.83 49.21 90.83 52.88 C 88.77 55.71 84.28 55.04 81.24 56.53 C 80.70 51.65 80.55 46.74 80.82 41.84 Z" />
</g>
<g id="#c7dbe7ff">
<path fill="#c7dbe7" opacity="1.00" d=" M 95.70 43.94 C 97.96 40.24 102.42 39.98 105.99 41.88 C 105.56 42.84 105.12 43.80 104.69 44.77 C 101.65 45.44 98.50 45.45 95.70 43.94 Z" />
</g>
<g id="#c1d4e1ff">
<path fill="#c1d4e1" opacity="1.00" d=" M 67.14 42.75 C 69.74 42.52 72.35 42.26 74.96 42.09 C 75.18 44.00 75.41 45.91 75.65 47.82 C 73.04 49.16 69.19 51.23 66.87 48.32 C 66.68 46.46 66.97 44.60 67.14 42.75 Z" />
<path fill="#c1d4e1" opacity="1.00" d=" M 101.01 70.91 C 104.30 70.40 107.61 70.07 110.94 69.91 C 110.55 70.50 110.16 71.10 109.77 71.69 C 111.70 76.61 105.76 79.63 101.81 77.28 C 101.30 75.20 101.18 73.05 101.01 70.91 Z" />
</g>
<g id="#a1bdd1ff">
<path fill="#a1bdd1" opacity="1.00" d=" M 74.96 42.09 C 75.66 42.07 77.07 42.04 77.78 42.02 C 77.73 46.70 78.45 51.53 77.09 56.08 C 74.24 58.96 69.12 59.11 65.56 57.50 C 64.31 53.34 64.60 48.95 64.46 44.66 C 63.95 44.46 62.94 44.05 62.43 43.84 L 62.60 43.24 C 64.10 43.04 65.62 42.89 67.14 42.75 C 66.97 44.60 66.68 46.46 66.87 48.32 C 69.19 51.23 73.04 49.16 75.65 47.82 C 75.41 45.91 75.18 44.00 74.96 42.09 Z" />
<path fill="#a1bdd1" opacity="1.00" d=" M 72.85 72.89 C 73.57 72.93 75.00 73.00 75.72 73.03 C 75.61 78.22 75.33 83.40 74.68 88.55 C 71.21 88.86 67.66 89.54 64.20 88.79 C 61.15 84.56 62.81 78.81 62.14 73.91 C 63.33 74.04 64.51 74.21 65.69 74.38 C 64.13 77.09 63.81 80.47 68.01 80.03 C 72.84 81.13 73.52 76.38 72.85 72.89 Z" />
</g>
<g id="#6990b0ff">
<path fill="#6990b0" opacity="1.00" d=" M 77.78 42.02 C 78.22 42.04 79.10 42.10 79.54 42.12 C 80.46 47.87 81.12 53.86 79.23 59.51 C 73.47 59.21 67.73 59.92 61.99 60.20 C 61.77 56.06 61.51 51.92 61.65 47.78 C 61.87 46.46 62.13 45.15 62.43 43.84 C 62.94 44.05 63.95 44.46 64.46 44.66 C 64.60 48.95 64.31 53.34 65.56 57.50 C 69.12 59.11 74.24 58.96 77.09 56.08 C 78.45 51.53 77.73 46.70 77.78 42.02 Z" />
</g>
<g id="#b2afb0ff">
<path fill="#b2afb0" opacity="1.00" d=" M 60.74 52.70 C 61.04 51.06 61.35 49.42 61.65 47.78 C 61.51 51.92 61.77 56.06 61.99 60.20 C 67.73 59.92 73.47 59.21 79.23 59.51 C 82.91 59.70 86.58 60.08 90.27 60.12 C 76.82 61.41 63.38 62.75 49.92 63.79 C 51.91 63.44 53.90 63.10 55.89 62.76 C 55.93 58.17 55.92 53.58 55.93 49.00 C 57.56 50.20 59.16 51.44 60.74 52.70 Z" />
</g>
<g id="#a06603ff">
<path fill="#a06603" opacity="1.00" d=" M 174.71 52.93 C 175.40 52.86 176.77 52.72 177.46 52.65 C 180.32 52.37 183.19 52.06 186.05 51.70 C 200.81 65.64 216.03 79.17 230.22 93.68 C 215.44 83.01 202.23 70.28 187.94 58.98 C 185.55 57.22 182.42 57.84 179.66 57.88 C 181.36 57.42 183.03 56.87 184.71 56.34 C 184.61 55.46 184.50 54.58 184.40 53.71 C 181.18 53.37 177.95 53.03 174.71 52.93 Z" />
</g>
<g id="#b77f00ff">
<path fill="#b77f00" opacity="1.00" d=" M 116.71 57.81 C 136.07 56.45 155.36 54.38 174.71 52.93 C 177.95 53.03 181.18 53.37 184.40 53.71 C 184.50 54.58 184.61 55.46 184.71 56.34 C 183.03 56.87 181.36 57.42 179.66 57.88 C 148.39 61.12 116.91 62.45 85.67 65.99 C 78.06 66.39 70.48 67.13 62.88 67.62 C 54.05 68.45 45.16 68.67 36.40 70.10 C 32.69 70.37 28.96 70.36 25.24 70.36 C 25.08 68.87 24.93 67.37 24.79 65.88 C 33.16 65.15 41.54 64.50 49.92 63.79 C 63.38 62.75 76.82 61.41 90.27 60.12 C 99.09 59.51 107.91 58.68 116.71 57.81 Z" />
</g>
<g id="#b7b4b4ff">
<path fill="#b7b4b4" opacity="1.00" d=" M 85.67 65.99 C 116.91 62.45 148.39 61.12 179.66 57.88 C 182.42 57.84 185.55 57.22 187.94 58.98 C 202.23 70.28 215.44 83.01 230.22 93.68 C 231.81 95.23 230.82 97.99 231.14 100.02 C 230.25 130.54 231.40 161.15 229.55 191.61 C 215.20 199.93 200.51 207.69 186.30 216.24 C 183.21 217.17 179.91 216.13 176.76 216.01 C 176.85 215.17 176.95 214.33 177.05 213.50 C 179.67 213.68 182.29 213.73 184.92 213.80 C 185.03 212.52 185.15 211.24 185.27 209.97 C 154.81 205.58 124.09 202.97 93.52 199.33 C 95.60 189.95 94.62 179.70 92.42 170.42 C 91.89 169.30 91.32 168.21 90.76 167.13 C 89.36 166.91 87.96 166.69 86.57 166.47 C 88.91 165.81 91.25 165.17 93.59 164.53 C 93.89 159.28 93.94 154.03 93.95 148.78 C 93.65 145.71 94.73 141.97 92.73 139.38 C 81.74 137.84 70.52 139.53 59.52 137.80 L 58.60 137.71 C 64.58 135.87 70.88 137.21 77.01 137.20 C 83.17 137.49 89.66 136.45 95.44 139.18 C 106.04 135.93 117.17 139.01 128.02 138.27 C 131.76 138.29 138.40 137.69 138.56 143.03 C 138.81 163.01 138.49 183.01 138.69 203.00 C 139.54 203.03 141.22 203.08 142.07 203.10 C 142.14 200.20 142.22 197.30 142.41 194.41 L 142.56 193.62 C 142.61 195.32 142.72 197.02 142.85 198.71 C 142.95 199.94 143.06 201.17 143.17 202.40 C 152.93 202.66 163.47 206.05 172.48 200.65 C 179.59 198.05 181.81 189.85 181.72 183.01 C 181.53 159.71 181.84 136.40 181.62 113.10 C 180.07 113.00 178.52 112.88 176.98 112.80 C 174.29 112.66 171.61 112.60 168.92 112.59 C 151.20 112.38 133.47 113.37 115.76 112.79 C 138.44 112.21 161.15 112.47 183.83 111.91 C 183.84 110.13 183.85 108.35 183.86 106.57 C 178.69 106.50 173.52 106.63 168.36 106.45 L 167.51 106.40 C 169.38 106.34 171.25 106.22 173.13 106.08 C 175.59 105.89 178.05 105.67 180.51 105.45 C 181.43 90.63 182.34 75.72 180.78 60.90 C 177.43 60.83 174.07 60.79 170.72 60.87 C 155.76 60.95 140.89 62.65 125.98 63.69 C 112.72 66.42 99.12 65.82 85.67 65.99 M 187.07 60.92 C 187.29 78.61 186.27 96.37 187.93 114.01 C 190.32 127.63 188.93 141.46 189.33 155.20 C 188.50 171.78 185.86 188.43 187.29 205.01 C 200.51 199.26 213.23 192.08 225.45 184.42 C 226.76 176.82 226.74 169.06 225.79 161.42 C 225.47 152.69 225.85 143.94 225.66 135.20 C 225.27 121.50 230.63 107.64 226.83 94.20 C 213.92 82.71 200.41 71.90 187.07 60.92 M 97.39 139.50 C 97.39 140.55 97.42 141.61 97.49 142.66 C 97.18 146.26 96.74 149.96 97.60 153.51 C 96.70 157.94 96.82 162.49 97.86 166.88 C 99.30 167.04 100.74 167.23 102.18 167.45 C 101.68 167.60 100.69 167.91 100.19 168.06 C 100.34 169.55 100.48 171.04 100.62 172.53 C 101.69 172.63 102.76 172.68 103.83 172.70 C 97.15 176.44 101.01 185.67 104.52 190.45 C 110.39 198.06 122.45 199.06 129.53 192.57 C 134.64 186.33 133.52 177.73 133.56 170.23 C 134.77 169.42 135.99 168.62 137.22 167.82 C 137.36 164.67 137.30 161.51 137.01 158.37 C 137.20 155.31 137.26 152.24 137.22 149.17 C 136.94 146.23 138.73 140.21 134.05 140.38 C 121.84 139.85 109.61 139.33 97.39 139.50 M 187.78 209.98 C 190.88 210.12 193.86 209.19 196.42 207.48 C 202.96 203.48 210.00 200.30 216.26 195.87 C 206.16 198.88 196.53 204.12 187.78 209.98 Z" />
</g>
<g id="#e6e4e4ff">
<path fill="#e6e4e4" opacity="1.00" d=" M 125.98 63.69 C 140.89 62.65 155.76 60.95 170.72 60.87 C 171.30 62.63 171.76 64.54 173.08 65.92 C 177.10 69.77 177.40 75.87 176.72 81.06 C 175.03 89.33 174.70 97.79 173.13 106.08 C 171.25 106.22 169.38 106.34 167.51 106.40 C 166.43 106.32 165.36 106.23 164.29 106.12 C 165.12 105.29 165.95 104.46 166.78 103.64 C 166.17 102.55 165.56 101.46 164.95 100.38 C 165.74 99.74 166.54 99.11 167.33 98.47 C 165.79 95.06 167.16 91.46 167.82 88.02 C 167.70 86.34 167.68 84.65 167.70 82.97 C 167.62 81.25 167.71 79.53 168.01 77.83 C 168.15 73.14 164.79 70.30 160.11 70.81 C 159.86 75.98 159.69 81.16 159.31 86.33 C 159.05 79.93 159.06 73.51 158.72 67.11 C 158.33 67.14 157.54 67.19 157.14 67.21 C 150.28 67.12 143.45 67.75 136.62 68.35 C 135.37 74.61 136.02 81.02 135.71 87.35 C 135.25 81.98 135.21 76.58 134.96 71.20 C 128.75 70.85 122.54 71.15 116.34 71.39 C 115.36 70.88 114.38 70.39 113.40 69.92 C 112.78 69.92 111.55 69.91 110.94 69.91 C 107.61 70.07 104.30 70.40 101.01 70.91 C 99.34 71.18 97.68 71.48 96.00 71.71 L 95.21 71.76 C 89.86 72.15 84.50 72.16 79.14 72.26 C 79.53 73.49 79.92 74.71 80.31 75.94 C 79.75 75.98 78.62 76.06 78.06 76.10 C 77.91 75.38 77.63 73.95 77.49 73.23 C 77.04 73.18 76.16 73.08 75.72 73.03 C 75.00 73.00 73.57 72.93 72.85 72.89 C 68.97 72.91 65.06 73.00 61.26 73.85 C 60.47 74.47 59.71 75.12 58.98 75.81 C 55.66 76.08 52.31 76.06 48.99 75.68 C 47.57 75.53 46.16 75.36 44.74 75.22 C 41.10 74.89 37.44 74.69 33.78 74.68 C 35.37 72.86 37.36 71.13 39.95 71.30 C 49.81 71.09 59.80 70.85 69.37 68.20 C 67.21 67.95 65.05 67.71 62.88 67.62 C 70.48 67.13 78.06 66.39 85.67 65.99 C 99.12 65.82 112.72 66.42 125.98 63.69 Z" />
</g>
<g id="#d6d3d3ff">
<path fill="#d6d3d3" opacity="1.00" d=" M 170.72 60.87 C 174.07 60.79 177.43 60.83 180.78 60.90 C 182.34 75.72 181.43 90.63 180.51 105.45 C 178.05 105.67 175.59 105.89 173.13 106.08 C 174.70 97.79 175.03 89.33 176.72 81.06 C 177.40 75.87 177.10 69.77 173.08 65.92 C 171.76 64.54 171.30 62.63 170.72 60.87 Z" />
</g>
<g id="#dcdad9ff">
<path fill="#dcdad9" opacity="1.00" d=" M 187.07 60.92 C 200.41 71.90 213.92 82.71 226.83 94.20 C 230.63 107.64 225.27 121.50 225.66 135.20 C 225.85 143.94 225.47 152.69 225.79 161.42 C 226.74 169.06 226.76 176.82 225.45 184.42 C 213.23 192.08 200.51 199.26 187.29 205.01 C 185.86 188.43 188.50 171.78 189.33 155.20 C 188.93 141.46 190.32 127.63 187.93 114.01 C 186.27 96.37 187.29 78.61 187.07 60.92 M 194.89 82.89 C 196.10 83.79 197.32 84.68 198.54 85.56 C 197.15 86.20 195.77 86.85 194.39 87.50 C 195.17 90.99 195.00 94.58 194.64 98.10 C 195.19 98.85 195.75 99.60 196.30 100.35 C 195.97 101.27 195.63 102.19 195.30 103.12 C 195.94 103.89 196.58 104.66 197.23 105.44 C 196.66 106.08 196.10 106.73 195.54 107.37 C 196.11 108.34 196.68 109.32 197.26 110.29 C 196.98 111.21 196.70 112.14 196.42 113.07 C 196.90 113.80 197.37 114.54 197.85 115.28 C 197.81 132.05 197.97 148.88 197.82 165.68 C 197.44 166.39 197.07 167.09 196.70 167.80 C 196.65 170.43 196.67 173.07 196.80 175.70 C 196.42 176.41 196.04 177.12 195.65 177.83 C 195.66 180.92 195.36 184.55 199.21 185.39 C 198.53 186.35 197.59 187.22 197.46 188.44 C 201.56 189.64 205.87 189.22 210.06 188.80 C 209.64 187.62 209.17 186.47 208.76 185.30 C 210.36 184.80 211.95 184.30 213.55 183.80 C 213.66 182.68 213.77 181.56 213.88 180.44 C 214.80 179.66 215.71 178.89 216.63 178.11 C 216.37 177.25 216.12 176.40 215.87 175.55 C 216.38 174.76 216.90 173.97 217.42 173.19 C 216.98 169.74 216.94 166.24 217.44 162.79 C 216.90 161.97 216.35 161.16 215.81 160.35 C 216.51 159.57 217.21 158.80 217.92 158.02 C 217.19 157.15 216.47 156.28 215.74 155.41 C 216.46 154.62 217.18 153.82 217.91 153.03 C 217.21 152.18 216.52 151.33 215.83 150.48 C 216.36 149.73 216.89 148.98 217.42 148.23 C 216.68 138.94 217.34 129.60 217.17 120.30 C 217.56 119.59 217.96 118.88 218.36 118.18 C 217.93 113.10 218.26 107.99 218.30 102.90 C 216.81 99.46 215.28 96.02 214.30 92.39 C 213.09 91.77 211.89 91.16 210.69 90.56 C 210.99 89.67 211.29 88.77 211.59 87.88 C 209.61 87.13 207.62 86.38 205.64 85.63 C 205.98 84.66 206.32 83.69 206.66 82.72 C 202.81 81.52 198.70 81.47 194.89 82.89 Z" />
</g>
<g id="#c2d5e4ff">
<path fill="#c2d5e4" opacity="1.00" d=" M 136.62 68.35 C 143.45 67.75 150.28 67.12 157.14 67.21 C 156.66 67.28 155.70 67.41 155.22 67.48 C 154.00 67.69 152.78 67.91 151.57 68.13 C 151.90 69.85 152.29 71.58 152.28 73.34 C 149.29 76.39 144.64 74.91 141.04 74.03 C 141.73 72.43 142.37 70.82 143.06 69.23 C 141.79 69.04 140.51 68.84 139.24 68.66 C 138.58 68.58 137.27 68.43 136.62 68.35 Z" />
</g>
<g id="#7394b2ff">
<path fill="#7394b2" opacity="1.00" d=" M 157.14 67.21 C 157.54 67.19 158.33 67.14 158.72 67.11 C 159.06 73.51 159.05 79.93 159.31 86.33 C 151.45 86.74 143.58 87.10 135.71 87.35 C 136.02 81.02 135.37 74.61 136.62 68.35 C 137.27 68.43 138.58 68.58 139.24 68.66 C 139.36 74.06 139.24 79.47 139.95 84.84 C 145.17 85.25 150.42 85.16 155.63 84.58 C 156.06 78.89 156.95 73.05 155.22 67.48 C 155.70 67.41 156.66 67.28 157.14 67.21 Z" />
</g>
<g id="#d9d7d6ff">
<path fill="#d9d7d6" opacity="1.00" d=" M 36.40 70.10 C 45.16 68.67 54.05 68.45 62.88 67.62 C 65.05 67.71 67.21 67.95 69.37 68.20 C 59.80 70.85 49.81 71.09 39.95 71.30 C 37.36 71.13 35.37 72.86 33.78 74.68 C 33.55 74.93 33.09 75.43 32.86 75.68 C 30.59 80.79 31.81 86.56 31.89 91.95 C 32.60 91.96 34.03 91.97 34.75 91.98 C 34.58 97.37 35.49 102.71 35.98 108.06 C 49.40 109.01 62.83 107.65 76.25 108.25 C 64.58 108.89 52.88 108.60 41.21 109.15 C 37.43 109.27 33.64 109.27 29.85 109.29 C 28.03 97.20 28.06 84.92 28.52 72.72 C 31.14 71.83 33.74 70.89 36.40 70.10 Z" />
</g>
<g id="#9fbcd1ff">
<path fill="#9fbcd1" opacity="1.00" d=" M 151.57 68.13 C 152.78 67.91 154.00 67.69 155.22 67.48 C 156.95 73.05 156.06 78.89 155.63 84.58 C 150.42 85.16 145.17 85.25 139.95 84.84 C 139.24 79.47 139.36 74.06 139.24 68.66 C 140.51 68.84 141.79 69.04 143.06 69.23 C 142.37 70.82 141.73 72.43 141.04 74.03 C 144.64 74.91 149.29 76.39 152.28 73.34 C 152.29 71.58 151.90 69.85 151.57 68.13 Z" />
</g>
<g id="#c0bdbdff">
<path fill="#c0bdbd" opacity="1.00" d=" M 25.24 70.36 C 28.96 70.36 32.69 70.37 36.40 70.10 C 33.74 70.89 31.14 71.83 28.52 72.72 C 28.06 84.92 28.03 97.20 29.85 109.29 C 28.62 109.30 27.39 109.30 26.16 109.31 C 25.16 96.35 26.78 83.28 25.24 70.36 Z" />
</g>
<g id="#a5c0d3ff">
<path fill="#a5c0d3" opacity="1.00" d=" M 110.94 69.91 C 111.55 69.91 112.78 69.92 113.40 69.92 C 111.84 74.33 112.58 79.10 111.52 83.58 C 109.07 87.64 102.92 87.53 99.90 84.19 C 98.73 80.30 99.48 76.16 99.22 72.16 C 98.86 72.10 98.15 71.97 97.80 71.91 C 97.35 71.86 96.45 71.76 96.00 71.71 C 97.68 71.48 99.34 71.18 101.01 70.91 C 101.18 73.05 101.30 75.20 101.81 77.28 C 105.76 79.63 111.70 76.61 109.77 71.69 C 110.16 71.10 110.55 70.50 110.94 69.91 Z" />
<path fill="#a5c0d3" opacity="1.00" d=" M 137.80 116.41 C 139.76 114.51 142.69 115.22 145.15 114.95 C 145.01 116.94 144.48 119.01 145.04 120.97 C 147.07 123.62 151.94 123.64 153.98 120.99 C 154.58 119.03 153.99 116.93 153.86 114.94 C 155.65 115.01 157.43 115.12 159.22 115.27 C 158.38 115.52 157.55 115.76 156.71 116.01 C 156.72 120.32 157.09 124.80 155.72 128.94 C 153.01 132.93 145.97 132.97 143.67 128.53 C 142.37 124.48 142.67 120.15 142.61 115.96 C 142.22 116.00 141.46 116.07 141.07 116.11 C 139.98 116.21 138.89 116.32 137.80 116.41 Z" />
</g>
<g id="#80a4bdff">
<path fill="#80a4bd" opacity="1.00" d=" M 113.40 69.92 C 114.38 70.39 115.36 70.88 116.34 71.39 C 116.06 76.99 116.07 82.59 116.00 88.20 C 110.22 88.76 104.43 89.19 98.63 89.08 C 97.86 83.39 97.74 77.64 97.80 71.91 C 98.15 71.97 98.86 72.10 99.22 72.16 C 99.48 76.16 98.73 80.30 99.90 84.19 C 102.92 87.53 109.07 87.64 111.52 83.58 C 112.58 79.10 111.84 74.33 113.40 69.92 Z" />
</g>
<g id="#f8f5f5ff">
<path fill="#f8f5f5" opacity="1.00" d=" M 116.34 71.39 C 122.54 71.15 128.75 70.85 134.96 71.20 C 135.21 76.58 135.25 81.98 135.71 87.35 C 143.58 87.10 151.45 86.74 159.31 86.33 C 159.69 81.16 159.86 75.98 160.11 70.81 C 164.79 70.30 168.15 73.14 168.01 77.83 C 167.71 79.53 167.62 81.25 167.70 82.97 C 167.68 84.65 167.70 86.34 167.82 88.02 C 167.16 91.46 165.79 95.06 167.33 98.47 C 166.54 99.11 165.74 99.74 164.95 100.38 C 165.56 101.46 166.17 102.55 166.78 103.64 C 165.95 104.46 165.12 105.29 164.29 106.12 C 165.36 106.23 166.43 106.32 167.51 106.40 L 168.36 106.45 C 137.66 107.30 106.95 107.69 76.25 108.25 C 62.83 107.65 49.40 109.01 35.98 108.06 C 35.49 102.71 34.58 97.37 34.75 91.98 C 39.36 91.97 43.96 91.65 48.56 91.40 C 48.74 86.16 48.78 80.92 48.99 75.68 C 52.31 76.06 55.66 76.08 58.98 75.81 C 59.46 80.78 59.43 85.78 59.39 90.77 C 65.54 90.76 71.70 90.60 77.84 90.11 C 77.86 85.44 78.16 80.77 78.06 76.10 C 78.62 76.06 79.75 75.98 80.31 75.94 C 79.92 74.71 79.53 73.49 79.14 72.26 C 84.50 72.16 89.86 72.15 95.21 71.76 C 95.32 77.51 95.26 83.26 95.31 89.01 C 96.42 89.04 97.52 89.06 98.63 89.08 C 104.43 89.19 110.22 88.76 116.00 88.20 C 116.07 82.59 116.06 76.99 116.34 71.39 Z" />
<path fill="#f8f5f5" opacity="1.00" d=" M 97.39 139.50 C 109.61 139.33 121.84 139.85 134.05 140.38 C 138.73 140.21 136.94 146.23 137.22 149.17 C 134.97 149.47 132.72 149.77 130.47 150.08 C 131.29 151.17 132.11 152.26 132.93 153.36 C 129.00 154.34 124.17 154.88 122.57 150.17 L 122.41 149.41 C 119.69 149.34 116.96 149.27 114.24 149.21 C 114.04 151.04 113.83 152.87 113.63 154.71 C 111.76 154.58 109.89 154.58 108.02 154.48 C 106.51 154.36 105.00 154.18 103.50 154.00 C 103.71 152.76 103.93 151.52 104.15 150.28 C 102.32 149.69 100.49 149.10 98.66 148.51 C 98.22 146.57 97.77 144.63 97.49 142.66 C 97.42 141.61 97.39 140.55 97.39 139.50 Z" />
</g>
<g id="#678fb0ff">
<path fill="#678fb0" opacity="1.00" d=" M 95.21 71.76 L 96.00 71.71 C 96.45 71.76 97.35 71.86 97.80 71.91 C 97.74 77.64 97.86 83.39 98.63 89.08 C 97.52 89.06 96.42 89.04 95.31 89.01 C 95.26 83.26 95.32 77.51 95.21 71.76 Z" />
</g>
<g id="#c2d7e5ff">
<path fill="#c2d7e5" opacity="1.00" d=" M 61.26 73.85 C 65.06 73.00 68.97 72.91 72.85 72.89 C 73.52 76.38 72.84 81.13 68.01 80.03 C 63.81 80.47 64.13 77.09 65.69 74.38 C 64.51 74.21 63.33 74.04 62.14 73.91 L 61.26 73.85 Z" />
</g>
<g id="#6b94b4ff">
<path fill="#6b94b4" opacity="1.00" d=" M 75.72 73.03 C 76.16 73.08 77.04 73.18 77.49 73.23 C 77.63 73.95 77.91 75.38 78.06 76.10 C 78.16 80.77 77.86 85.44 77.84 90.11 C 71.70 90.60 65.54 90.76 59.39 90.77 C 59.43 85.78 59.46 80.78 58.98 75.81 C 59.71 75.12 60.47 74.47 61.26 73.85 L 62.14 73.91 C 62.81 78.81 61.15 84.56 64.20 88.79 C 67.66 89.54 71.21 88.86 74.68 88.55 C 75.33 83.40 75.61 78.22 75.72 73.03 Z" />
</g>
<g id="#bfd3e1ff">
<path fill="#bfd3e1" opacity="1.00" d=" M 32.86 75.68 C 33.09 75.43 33.55 74.93 33.78 74.68 C 37.44 74.69 41.10 74.89 44.74 75.22 C 44.97 76.68 45.21 78.14 45.45 79.59 C 43.49 81.27 41.57 82.98 39.68 84.72 C 37.27 82.41 35.35 79.52 36.25 76.03 C 35.72 75.97 34.66 75.86 34.13 75.80 L 32.86 75.68 Z" />
</g>
<g id="#7297b6ff">
<path fill="#7297b6" opacity="1.00" d=" M 44.74 75.22 C 46.16 75.36 47.57 75.53 48.99 75.68 C 48.78 80.92 48.74 86.16 48.56 91.40 C 43.96 91.65 39.36 91.97 34.75 91.98 C 34.03 91.97 32.60 91.96 31.89 91.95 C 31.81 86.56 30.59 80.79 32.86 75.68 L 34.13 75.80 C 34.42 80.17 33.79 84.68 35.07 88.92 C 37.76 90.99 41.61 90.36 44.66 89.49 C 47.27 86.84 45.74 82.81 45.45 79.59 C 45.21 78.14 44.97 76.68 44.74 75.22 Z" />
</g>
<g id="#9fbdd1ff">
<path fill="#9fbdd1" opacity="1.00" d=" M 34.13 75.80 C 34.66 75.86 35.72 75.97 36.25 76.03 C 35.35 79.52 37.27 82.41 39.68 84.72 C 41.57 82.98 43.49 81.27 45.45 79.59 C 45.74 82.81 47.27 86.84 44.66 89.49 C 41.61 90.36 37.76 90.99 35.07 88.92 C 33.79 84.68 34.42 80.17 34.13 75.80 Z" />
</g>
<g id="#f2f0efff">
<path fill="#f2f0ef" opacity="1.00" d=" M 194.89 82.89 C 198.70 81.47 202.81 81.52 206.66 82.72 C 206.32 83.69 205.98 84.66 205.64 85.63 C 207.62 86.38 209.61 87.13 211.59 87.88 C 211.29 88.77 210.99 89.67 210.69 90.56 C 211.89 91.16 213.09 91.77 214.30 92.39 C 215.28 96.02 216.81 99.46 218.30 102.90 C 218.26 107.99 217.93 113.10 218.36 118.18 C 217.96 118.88 217.56 119.59 217.17 120.30 C 217.34 129.60 216.68 138.94 217.42 148.23 C 216.89 148.98 216.36 149.73 215.83 150.48 C 216.52 151.33 217.21 152.18 217.91 153.03 C 217.18 153.82 216.46 154.62 215.74 155.41 C 216.47 156.28 217.19 157.15 217.92 158.02 C 217.21 158.80 216.51 159.57 215.81 160.35 C 216.35 161.16 216.90 161.97 217.44 162.79 C 216.94 166.24 216.98 169.74 217.42 173.19 C 216.90 173.97 216.38 174.76 215.87 175.55 C 216.12 176.40 216.37 177.25 216.63 178.11 C 215.71 178.89 214.80 179.66 213.88 180.44 C 213.77 181.56 213.66 182.68 213.55 183.80 C 211.95 184.30 210.36 184.80 208.76 185.30 C 209.17 186.47 209.64 187.62 210.06 188.80 C 205.87 189.22 201.56 189.64 197.46 188.44 C 197.59 187.22 198.53 186.35 199.21 185.39 C 195.36 184.55 195.66 180.92 195.65 177.83 C 196.04 177.12 196.42 176.41 196.80 175.70 C 196.67 173.07 196.65 170.43 196.70 167.80 C 197.07 167.09 197.44 166.39 197.82 165.68 C 197.97 148.88 197.81 132.05 197.85 115.28 C 197.37 114.54 196.90 113.80 196.42 113.07 C 196.70 112.14 196.98 111.21 197.26 110.29 C 196.68 109.32 196.11 108.34 195.54 107.37 C 196.10 106.73 196.66 106.08 197.23 105.44 C 196.58 104.66 195.94 103.89 195.30 103.12 C 195.63 102.19 195.97 101.27 196.30 100.35 C 195.75 99.60 195.19 98.85 194.64 98.10 C 195.00 94.58 195.17 90.99 194.39 87.50 C 195.77 86.85 197.15 86.20 198.54 85.56 C 197.32 84.68 196.10 83.79 194.89 82.89 Z" />
</g>
<g id="#b77c00ff">
<path fill="#b77c00" opacity="1.00" d=" M 76.25 108.25 C 106.95 107.69 137.66 107.30 168.36 106.45 C 173.52 106.63 178.69 106.50 183.86 106.57 C 183.85 108.35 183.84 110.13 183.83 111.91 C 161.15 112.47 138.44 112.21 115.76 112.79 C 99.27 113.10 82.77 113.45 66.28 113.29 C 53.30 111.67 40.24 114.25 27.23 112.89 C 27.24 112.25 27.26 110.97 27.27 110.34 C 31.92 109.98 36.56 109.51 41.21 109.15 C 52.88 108.60 64.58 108.89 76.25 108.25 Z" />
</g>
<g id="#915503ff">
<path fill="#915503" opacity="1.00" d=" M 26.16 109.31 C 27.39 109.30 28.62 109.30 29.85 109.29 C 33.64 109.27 37.43 109.27 41.21 109.15 C 36.56 109.51 31.92 109.98 27.27 110.34 C 27.26 110.97 27.24 112.25 27.23 112.89 C 40.24 114.25 53.30 111.67 66.28 113.29 C 55.73 113.55 45.18 113.51 34.64 113.90 C 33.16 113.86 31.68 113.83 30.20 113.81 C 28.83 113.80 27.45 113.79 26.08 113.78 C 26.11 112.29 26.14 110.80 26.16 109.31 Z" />
<path fill="#915503" opacity="1.00" d=" M 53.82 139.93 C 53.53 137.00 56.05 134.72 58.92 135.15 C 84.61 135.32 110.28 136.18 135.96 136.61 C 138.58 136.61 142.23 137.74 142.15 140.96 C 142.49 158.77 142.00 176.60 142.41 194.41 C 142.22 197.30 142.14 200.20 142.07 203.10 C 141.22 203.08 139.54 203.03 138.69 203.00 C 138.49 183.01 138.81 163.01 138.56 143.03 C 138.40 137.69 131.76 138.29 128.02 138.27 C 117.17 139.01 106.04 135.93 95.44 139.18 C 89.66 136.45 83.17 137.49 77.01 137.20 C 70.88 137.21 64.58 135.87 58.60 137.71 C 57.11 139.43 57.35 141.84 57.25 143.96 C 57.37 155.61 57.26 167.26 57.24 178.91 C 56.05 179.99 54.86 181.09 53.66 182.17 C 53.98 168.10 53.61 154.01 53.82 139.93 Z" />
</g>
<g id="#f7f4f4ff">
<path fill="#f7f4f4" opacity="1.00" d=" M 66.28 113.29 C 82.77 113.45 99.27 113.10 115.76 112.79 C 133.47 113.37 151.20 112.38 168.92 112.59 C 167.60 113.88 165.80 115.16 166.10 117.26 C 166.17 138.60 166.04 159.94 166.18 181.27 C 166.09 184.69 164.63 189.15 160.68 189.59 C 154.95 190.35 149.14 189.75 143.39 190.12 C 143.09 191.28 142.82 192.45 142.56 193.62 L 142.41 194.41 C 142.00 176.60 142.49 158.77 142.15 140.96 C 142.23 137.74 138.58 136.61 135.96 136.61 C 110.28 136.18 84.61 135.32 58.92 135.15 C 56.05 134.72 53.53 137.00 53.82 139.93 C 53.61 154.01 53.98 168.10 53.66 182.17 C 53.65 182.98 53.62 184.60 53.60 185.41 L 53.49 184.78 C 53.19 183.30 52.84 181.83 52.50 180.36 C 49.05 179.88 45.61 179.30 42.25 178.39 C 41.87 176.31 40.81 174.49 39.50 172.86 C 39.96 172.12 40.42 171.38 40.89 170.65 C 40.47 169.76 40.05 168.88 39.63 168.00 C 40.04 167.12 40.45 166.24 40.86 165.37 C 40.44 164.58 40.02 163.80 39.60 163.03 C 40.01 162.15 40.43 161.27 40.84 160.39 C 40.43 159.58 40.03 158.78 39.62 157.98 C 40.03 157.20 40.43 156.42 40.83 155.64 C 40.42 154.75 40.01 153.86 39.59 152.98 C 40.00 152.21 40.41 151.44 40.82 150.68 C 40.53 149.87 40.25 149.06 39.97 148.25 C 40.29 146.50 40.38 144.73 40.24 142.97 C 40.56 139.38 40.46 135.61 38.34 132.52 C 42.87 132.61 47.41 132.69 51.94 132.67 C 52.37 127.25 52.20 121.82 51.77 116.42 L 51.77 115.76 C 49.82 115.78 47.88 115.79 45.94 115.75 C 42.10 115.67 38.36 114.76 34.64 113.90 C 45.18 113.51 55.73 113.55 66.28 113.29 M 64.45 115.61 L 65.14 116.08 C 64.23 121.61 64.47 127.22 64.76 132.78 C 70.97 132.92 77.17 133.28 83.38 133.22 C 83.87 127.25 83.71 121.26 83.69 115.28 C 77.28 115.37 70.85 115.08 64.45 115.61 M 100.70 115.22 C 99.88 121.33 100.30 127.51 100.29 133.66 C 107.28 133.82 114.26 134.08 121.25 134.05 C 121.54 127.82 121.44 121.58 121.29 115.35 C 114.43 115.03 107.56 115.47 100.70 115.22 M 137.80 116.41 C 138.16 122.29 137.66 128.18 138.12 134.06 C 145.83 134.46 153.56 134.54 161.27 134.39 C 161.38 129.04 161.80 123.63 160.74 118.34 C 161.08 117.13 161.34 115.91 161.51 114.68 C 160.94 114.83 159.79 115.12 159.22 115.27 C 157.43 115.12 155.65 115.01 153.86 114.94 C 150.95 114.93 148.05 114.94 145.15 114.95 C 142.69 115.22 139.76 114.51 137.80 116.41 Z" />
<path fill="#f7f4f4" opacity="1.00" d=" M 59.52 137.80 C 70.52 139.53 81.74 137.84 92.73 139.38 C 94.73 141.97 93.65 145.71 93.95 148.78 C 93.10 149.25 92.25 149.72 91.40 150.20 C 91.79 154.28 87.99 155.20 84.82 153.77 C 83.35 153.41 81.89 153.04 80.44 152.62 C 80.20 150.78 79.95 148.95 79.72 147.12 C 77.00 147.10 74.29 147.09 71.58 147.10 C 71.11 148.36 70.62 149.61 70.12 150.86 C 67.57 151.91 65.31 153.49 62.93 154.88 C 62.66 153.34 62.36 151.81 62.10 150.28 C 61.09 150.10 60.09 149.92 59.08 149.74 C 59.04 145.76 59.19 141.77 59.52 137.80 Z" />
</g>
<g id="#e0ddddff">
<path fill="#e0dddd" opacity="1.00" d=" M 168.92 112.59 C 171.61 112.60 174.29 112.66 176.98 112.80 C 174.90 136.88 176.88 161.18 175.92 185.32 C 175.24 191.76 169.68 196.61 163.80 198.50 C 156.88 199.75 149.83 198.08 142.85 198.71 C 142.72 197.02 142.61 195.32 142.56 193.62 C 142.82 192.45 143.09 191.28 143.39 190.12 C 149.14 189.75 154.95 190.35 160.68 189.59 C 164.63 189.15 166.09 184.69 166.18 181.27 C 166.04 159.94 166.17 138.60 166.10 117.26 C 165.80 115.16 167.60 113.88 168.92 112.59 Z" />
</g>
<g id="#c6c3c3ff">
<path fill="#c6c3c3" opacity="1.00" d=" M 176.98 112.80 C 178.52 112.88 180.07 113.00 181.62 113.10 C 181.84 136.40 181.53 159.71 181.72 183.01 C 181.81 189.85 179.59 198.05 172.48 200.65 C 163.47 206.05 152.93 202.66 143.17 202.40 C 143.06 201.17 142.95 199.94 142.85 198.71 C 149.83 198.08 156.88 199.75 163.80 198.50 C 169.68 196.61 175.24 191.76 175.92 185.32 C 176.88 161.18 174.90 136.88 176.98 112.80 Z" />
</g>
<g id="#c1bdbdff">
<path fill="#c1bdbd" opacity="1.00" d=" M 26.08 113.78 C 27.45 113.79 28.83 113.80 30.20 113.81 C 30.53 133.79 30.03 153.80 30.43 173.77 C 31.06 184.91 43.19 190.22 53.03 189.92 C 52.97 190.66 52.85 192.14 52.79 192.88 C 46.66 191.51 39.99 190.94 34.63 187.41 C 30.03 184.37 29.15 178.66 26.65 174.15 C 25.47 171.96 25.89 169.38 25.80 167.00 C 26.09 149.26 25.53 131.51 26.08 113.78 Z" />
</g>
<g id="#d5d4d3ff">
<path fill="#d5d4d3" opacity="1.00" d=" M 30.20 113.81 C 31.68 113.83 33.16 113.86 34.64 113.90 C 38.36 114.76 42.10 115.67 45.94 115.75 C 45.98 117.78 46.00 119.82 46.01 121.86 C 44.22 121.77 42.43 121.68 40.64 121.59 C 40.59 119.79 40.54 117.98 40.49 116.18 C 38.76 116.09 37.03 115.99 35.30 115.96 L 35.20 116.74 C 34.64 121.98 34.88 127.25 34.65 132.51 C 33.90 143.83 34.54 155.19 34.25 166.53 C 34.11 171.50 34.21 177.18 38.22 180.78 C 41.89 185.40 48.21 185.01 53.49 184.78 C 53.33 186.49 53.18 188.20 53.03 189.92 C 43.19 190.22 31.06 184.91 30.43 173.77 C 30.03 153.80 30.53 133.79 30.20 113.81 Z" />
</g>
<g id="#c2d4e2ff">
<path fill="#c2d4e2" opacity="1.00" d=" M 64.45 115.61 C 70.85 115.08 77.28 115.37 83.69 115.28 C 83.71 121.26 83.87 127.25 83.38 133.22 C 83.35 127.55 83.56 121.85 82.67 116.24 C 82.19 116.20 81.22 116.12 80.74 116.08 C 79.73 116.03 78.71 115.98 77.70 115.94 C 78.83 119.20 77.37 123.62 73.18 122.85 C 69.43 122.70 69.81 118.86 70.26 116.23 C 68.33 116.01 66.39 115.80 64.45 115.61 Z" />
</g>
<g id="#b3cadaff">
<path fill="#b3cada" opacity="1.00" d=" M 100.70 115.22 C 107.56 115.47 114.43 115.03 121.29 115.35 C 119.76 115.60 118.23 115.85 116.70 116.11 C 116.41 119.76 116.33 123.48 115.34 127.04 C 114.60 130.61 109.61 130.54 107.01 129.14 C 105.03 125.34 105.16 120.92 105.13 116.76 C 103.65 116.24 102.17 115.73 100.70 115.22 Z" />
</g>
<g id="#c3d4e2ff">
<path fill="#c3d4e2" opacity="1.00" d=" M 145.15 114.95 C 148.05 114.94 150.95 114.93 153.86 114.94 C 153.99 116.93 154.58 119.03 153.98 120.99 C 151.94 123.64 147.07 123.62 145.04 120.97 C 144.48 119.01 145.01 116.94 145.15 114.95 Z" />
</g>
<g id="#8dacc5ff">
<path fill="#8dacc5" opacity="1.00" d=" M 159.22 115.27 C 159.79 115.12 160.94 114.83 161.51 114.68 C 161.34 115.91 161.08 117.13 160.74 118.34 C 158.75 122.94 158.93 128.00 158.93 132.91 C 153.29 133.50 147.60 133.50 141.96 132.91 C 141.12 127.35 140.99 121.72 141.07 116.11 C 141.46 116.07 142.22 116.00 142.61 115.96 C 142.67 120.15 142.37 124.48 143.67 128.53 C 145.97 132.97 153.01 132.93 155.72 128.94 C 157.09 124.80 156.72 120.32 156.71 116.01 C 157.55 115.76 158.38 115.52 159.22 115.27 Z" />
</g>
<g id="#a3c0d3ff">
<path fill="#a3c0d3" opacity="1.00" d=" M 35.30 115.96 C 37.03 115.99 38.76 116.09 40.49 116.18 C 40.54 117.98 40.59 119.79 40.64 121.59 C 42.43 121.68 44.22 121.77 46.01 121.86 C 46.00 119.82 45.98 117.78 45.94 115.75 C 47.88 115.79 49.82 115.78 51.77 115.76 L 51.77 116.42 C 51.21 116.74 50.09 117.39 49.53 117.72 C 49.32 121.36 49.96 125.19 48.71 128.68 C 46.42 131.57 41.52 131.37 38.72 129.33 C 37.52 125.48 37.82 121.37 37.64 117.40 C 37.03 117.23 35.81 116.90 35.20 116.74 L 35.30 115.96 Z" />
</g>
<g id="#a2bed2ff">
<path fill="#a2bed2" opacity="1.00" d=" M 64.45 115.61 C 66.39 115.80 68.33 116.01 70.26 116.23 C 69.81 118.86 69.43 122.70 73.18 122.85 C 77.37 123.62 78.83 119.20 77.70 115.94 C 78.71 115.98 79.73 116.03 80.74 116.08 C 80.64 120.25 81.22 124.48 80.39 128.60 C 77.92 133.82 67.01 132.61 67.65 126.05 C 67.45 123.23 67.46 120.41 67.39 117.59 C 66.83 117.22 65.71 116.46 65.14 116.08 L 64.45 115.61 Z" />
</g>
<g id="#698fb0ff">
<path fill="#698fb0" opacity="1.00" d=" M 80.74 116.08 C 81.22 116.12 82.19 116.20 82.67 116.24 C 83.56 121.85 83.35 127.55 83.38 133.22 C 77.17 133.28 70.97 132.92 64.76 132.78 C 64.47 127.22 64.23 121.61 65.14 116.08 C 65.71 116.46 66.83 117.22 67.39 117.59 C 67.46 120.41 67.45 123.23 67.65 126.05 C 67.01 132.61 77.92 133.82 80.39 128.60 C 81.22 124.48 80.64 120.25 80.74 116.08 Z" />
</g>
<g id="#88a9c3ff">
<path fill="#88a9c3" opacity="1.00" d=" M 100.29 133.66 C 100.30 127.51 99.88 121.33 100.70 115.22 C 102.17 115.73 103.65 116.24 105.13 116.76 C 105.16 120.92 105.03 125.34 107.01 129.14 C 109.61 130.54 114.60 130.61 115.34 127.04 C 116.33 123.48 116.41 119.76 116.70 116.11 C 118.23 115.85 119.76 115.60 121.29 115.35 C 121.44 121.58 121.54 127.82 121.25 134.05 C 114.26 134.08 107.28 133.82 100.29 133.66 M 100.97 132.98 C 101.62 132.97 102.93 132.95 103.59 132.94 C 103.05 127.37 103.73 121.64 102.03 116.23 C 100.00 121.58 100.48 127.40 100.97 132.98 Z" />
</g>
<g id="#6a91b0ff">
<path fill="#6a91b0" opacity="1.00" d=" M 137.80 116.41 C 138.89 116.32 139.98 116.21 141.07 116.11 C 140.99 121.72 141.12 127.35 141.96 132.91 C 147.60 133.50 153.29 133.50 158.93 132.91 C 158.93 128.00 158.75 122.94 160.74 118.34 C 161.80 123.63 161.38 129.04 161.27 134.39 C 153.56 134.54 145.83 134.46 138.12 134.06 C 137.66 128.18 138.16 122.29 137.80 116.41 Z" />
<path fill="#6a91b0" opacity="1.00" d=" M 100.97 132.98 C 100.48 127.40 100.00 121.58 102.03 116.23 C 103.73 121.64 103.05 127.37 103.59 132.94 C 102.93 132.95 101.62 132.97 100.97 132.98 Z" />
</g>
<g id="#7599b6ff">
<path fill="#7599b6" opacity="1.00" d=" M 35.20 116.74 C 35.81 116.90 37.03 117.23 37.64 117.40 C 37.82 121.37 37.52 125.48 38.72 129.33 C 41.52 131.37 46.42 131.57 48.71 128.68 C 49.96 125.19 49.32 121.36 49.53 117.72 C 50.09 117.39 51.21 116.74 51.77 116.42 C 52.20 121.82 52.37 127.25 51.94 132.67 C 47.41 132.69 42.87 132.61 38.34 132.52 C 37.42 132.51 35.57 132.51 34.65 132.51 C 34.88 127.25 34.64 121.98 35.20 116.74 Z" />
</g>
<g id="#e7e6e6ff">
<path fill="#e7e6e6" opacity="1.00" d=" M 34.25 166.53 C 34.54 155.19 33.90 143.83 34.65 132.51 C 35.57 132.51 37.42 132.51 38.34 132.52 C 40.46 135.61 40.56 139.38 40.24 142.97 C 40.38 144.73 40.29 146.50 39.97 148.25 C 40.25 149.06 40.53 149.87 40.82 150.68 C 40.41 151.44 40.00 152.21 39.59 152.98 C 40.01 153.86 40.42 154.75 40.83 155.64 C 40.43 156.42 40.03 157.20 39.62 157.98 C 40.03 158.78 40.43 159.58 40.84 160.39 C 40.43 161.27 40.01 162.15 39.60 163.03 C 40.02 163.80 40.44 164.58 40.86 165.37 C 40.45 166.24 40.04 167.12 39.63 168.00 C 40.05 168.88 40.47 169.76 40.89 170.65 C 40.42 171.38 39.96 172.12 39.50 172.86 C 40.81 174.49 41.87 176.31 42.25 178.39 C 45.61 179.30 49.05 179.88 52.50 180.36 C 52.84 181.83 53.19 183.30 53.49 184.78 C 48.21 185.01 41.89 185.40 38.22 180.78 C 34.21 177.18 34.11 171.50 34.25 166.53 Z" />
</g>
<g id="#c5c2c2ff">
<path fill="#c5c2c2" opacity="1.00" d=" M 57.25 143.96 C 57.35 141.84 57.11 139.43 58.60 137.71 L 59.52 137.80 C 59.19 141.77 59.04 145.76 59.08 149.74 C 59.11 152.75 59.07 155.75 59.08 158.76 C 58.79 161.70 59.57 164.47 62.23 166.03 C 60.95 175.50 60.22 185.48 64.51 194.36 C 67.43 194.58 70.36 194.82 73.28 195.12 C 73.92 195.18 75.19 195.30 75.83 195.36 C 80.48 195.68 87.71 197.08 89.64 191.40 C 91.55 185.16 93.27 177.82 89.43 171.93 C 90.42 171.42 91.42 170.92 92.42 170.42 C 94.62 179.70 95.60 189.95 93.52 199.33 C 78.94 197.61 64.28 196.59 49.77 194.37 C 51.17 194.29 52.56 194.19 53.95 194.06 C 54.72 193.99 56.26 193.83 57.03 193.76 C 57.25 188.81 57.31 183.86 57.24 178.91 C 57.26 167.26 57.37 155.61 57.25 143.96 Z" />
</g>
<g id="#edeaeaff">
<path fill="#edeaea" opacity="1.00" d=" M 97.49 142.66 C 97.77 144.63 98.22 146.57 98.66 148.51 C 100.49 149.10 102.32 149.69 104.15 150.28 C 103.93 151.52 103.71 152.76 103.50 154.00 C 105.00 154.18 106.51 154.36 108.02 154.48 C 108.19 156.80 108.34 159.13 108.48 161.46 C 110.29 161.56 112.10 161.70 113.91 161.81 C 113.98 163.85 114.07 165.88 114.15 167.92 C 117.03 168.09 119.92 168.24 122.81 168.36 C 122.95 166.41 123.10 164.47 123.24 162.53 C 125.30 162.44 127.35 162.44 129.41 162.42 C 129.37 161.83 129.31 160.65 129.28 160.06 C 129.22 158.49 129.18 156.92 129.15 155.36 C 127.16 155.15 125.16 154.94 123.17 154.73 C 122.98 153.21 122.81 151.68 122.57 150.17 C 124.17 154.88 129.00 154.34 132.93 153.36 C 132.11 152.26 131.29 151.17 130.47 150.08 C 132.72 149.77 134.97 149.47 137.22 149.17 C 137.26 152.24 137.20 155.31 137.01 158.37 C 134.00 161.29 131.08 164.29 127.87 166.98 C 124.08 169.99 126.30 175.39 125.82 179.50 C 126.22 185.28 121.02 191.13 114.94 189.26 C 109.55 187.22 107.09 180.76 107.81 175.29 C 109.65 166.27 99.37 161.72 97.60 153.51 C 96.74 149.96 97.18 146.26 97.49 142.66 Z" />
</g>
<g id="#e5e3e3ff">
<path fill="#e5e3e3" opacity="1.00" d=" M 71.58 147.10 C 74.29 147.09 77.00 147.10 79.72 147.12 C 79.95 148.95 80.20 150.78 80.44 152.62 L 79.80 152.40 C 79.47 150.87 79.21 149.33 78.94 147.79 C 76.47 147.71 74.00 147.65 71.53 147.60 C 71.58 149.33 71.60 151.06 71.72 152.79 C 70.93 152.63 69.35 152.32 68.56 152.17 C 67.78 152.94 67.00 153.72 66.24 154.50 C 66.39 156.02 66.54 157.55 66.69 159.08 C 68.30 159.23 69.92 159.38 71.54 159.53 C 71.60 161.07 71.66 162.62 71.68 164.17 L 71.67 165.41 C 73.79 165.44 75.92 165.46 78.04 165.37 L 79.09 165.29 C 79.26 163.66 79.39 162.03 79.52 160.39 C 81.06 160.22 82.59 160.05 84.13 159.85 L 84.97 159.71 C 84.98 157.73 84.90 155.75 84.82 153.77 C 87.99 155.20 91.79 154.28 91.40 150.20 C 92.25 149.72 93.10 149.25 93.95 148.78 C 93.94 154.03 93.89 159.28 93.59 164.53 C 91.25 165.17 88.91 165.81 86.57 166.47 C 86.65 168.07 86.74 169.66 86.89 171.25 C 88.93 180.48 87.10 193.53 75.83 195.36 C 75.19 195.30 73.92 195.18 73.28 195.12 C 70.83 191.48 67.42 188.43 65.75 184.32 C 63.90 178.19 65.55 171.77 66.07 165.57 C 63.38 163.70 60.98 161.43 59.08 158.76 C 59.07 155.75 59.11 152.75 59.08 149.74 C 60.09 149.92 61.09 150.10 62.10 150.28 C 62.36 151.81 62.66 153.34 62.93 154.88 C 65.31 153.49 67.57 151.91 70.12 150.86 C 70.62 149.61 71.11 148.36 71.58 147.10 M 80.37 160.93 C 80.24 162.66 80.11 164.38 79.98 166.11 C 76.50 166.19 73.02 166.30 69.55 166.48 C 69.69 170.31 70.82 174.57 68.54 178.01 C 69.52 179.96 70.23 182.04 71.18 184.01 C 74.24 185.81 77.98 184.86 81.32 184.57 C 83.21 178.31 81.92 171.84 81.57 165.48 C 83.36 164.34 85.01 162.99 86.40 161.39 C 84.39 161.21 82.38 161.06 80.37 160.93 Z" />
</g>
<g id="#f55330ff">
<path fill="#f55330" opacity="1.00" d=" M 71.53 147.60 C 74.00 147.65 76.47 147.71 78.94 147.79 C 79.21 149.33 79.47 150.87 79.80 152.40 L 80.44 152.62 C 81.89 153.04 83.35 153.41 84.82 153.77 C 84.90 155.75 84.98 157.73 84.97 159.71 L 84.13 159.85 C 84.10 159.15 84.03 157.74 84.00 157.04 C 81.74 156.16 79.49 155.25 77.19 154.46 C 77.56 152.63 77.93 150.81 78.29 148.99 C 76.62 148.99 74.95 149.00 73.29 149.00 C 73.04 150.34 72.81 151.69 72.57 153.03 L 71.72 152.79 C 71.60 151.06 71.58 149.33 71.53 147.60 Z" />
</g>
<g id="#fe8d72ff">
<path fill="#fe8d72" opacity="1.00" d=" M 73.29 149.00 C 74.95 149.00 76.62 148.99 78.29 148.99 C 77.93 150.81 77.56 152.63 77.19 154.46 C 75.66 153.94 74.12 153.47 72.57 153.03 C 72.81 151.69 73.04 150.34 73.29 149.00 Z" />
</g>
<g id="#f74c26ff">
<path fill="#f74c26" opacity="1.00" d=" M 114.24 149.21 C 116.96 149.27 119.69 149.34 122.41 149.41 L 122.57 150.17 C 122.81 151.68 122.98 153.21 123.17 154.73 C 125.16 154.94 127.16 155.15 129.15 155.36 C 129.18 156.92 129.22 158.49 129.28 160.06 C 124.14 158.05 118.92 156.26 113.63 154.71 C 113.83 152.87 114.04 151.04 114.24 149.21 M 115.66 150.79 C 115.75 152.25 115.84 153.72 115.93 155.18 C 117.67 155.23 119.40 155.28 121.14 155.32 C 121.21 153.83 121.28 152.34 121.34 150.85 C 119.45 150.83 117.55 150.81 115.66 150.79 Z" />
</g>
<g id="#ff977cff">
<path fill="#ff977c" opacity="1.00" d=" M 115.66 150.79 C 117.55 150.81 119.45 150.83 121.34 150.85 C 121.28 152.34 121.21 153.83 121.14 155.32 C 119.40 155.28 117.67 155.23 115.93 155.18 C 115.84 153.72 115.75 152.25 115.66 150.79 Z" />
</g>
<g id="#fd3201ff">
<path fill="#fd3201" opacity="1.00" d=" M 66.24 154.50 C 67.00 153.72 67.78 152.94 68.56 152.17 C 69.35 152.32 70.93 152.63 71.72 152.79 L 72.57 153.03 C 74.12 153.47 75.66 153.94 77.19 154.46 C 79.49 155.25 81.74 156.16 84.00 157.04 C 84.03 157.74 84.10 159.15 84.13 159.85 C 82.59 160.05 81.06 160.22 79.52 160.39 C 79.39 162.03 79.26 163.66 79.09 165.29 L 78.04 165.37 C 77.85 163.81 77.67 162.25 77.48 160.69 C 75.09 161.02 72.82 161.86 71.68 164.17 C 71.66 162.62 71.60 161.07 71.54 159.53 C 69.92 159.38 68.30 159.23 66.69 159.08 C 66.54 157.55 66.39 156.02 66.24 154.50 Z" />
<path fill="#fd3201" opacity="1.00" d=" M 108.02 154.48 C 109.89 154.58 111.76 154.58 113.63 154.71 C 118.92 156.26 124.14 158.05 129.28 160.06 C 129.31 160.65 129.37 161.83 129.41 162.42 C 127.35 162.44 125.30 162.44 123.24 162.53 L 122.59 162.58 C 122.31 163.94 122.08 165.31 121.87 166.68 C 120.76 164.53 118.88 163.18 116.54 162.67 C 116.18 164.10 115.83 165.53 115.48 166.96 C 114.96 165.24 114.43 163.53 113.91 161.81 C 112.10 161.70 110.29 161.56 108.48 161.46 C 108.34 159.13 108.19 156.80 108.02 154.48 Z" />
</g>
<g id="#d7d5d5ff">
<path fill="#d7d5d5" opacity="1.00" d=" M 97.60 153.51 C 99.37 161.72 109.65 166.27 107.81 175.29 C 107.09 180.76 109.55 187.22 114.94 189.26 C 121.02 191.13 126.22 185.28 125.82 179.50 C 126.30 175.39 124.08 169.99 127.87 166.98 C 131.08 164.29 134.00 161.29 137.01 158.37 C 137.30 161.51 137.36 164.67 137.22 167.82 C 135.99 168.62 134.77 169.42 133.56 170.23 C 133.52 177.73 134.64 186.33 129.53 192.57 C 122.45 199.06 110.39 198.06 104.52 190.45 C 101.01 185.67 97.15 176.44 103.83 172.70 C 104.74 172.07 105.65 171.43 106.55 170.79 C 105.36 169.34 104.36 167.31 102.18 167.45 C 100.74 167.23 99.30 167.04 97.86 166.88 C 96.82 162.49 96.70 157.94 97.60 153.51 Z" />
</g>
<g id="#d6d4d4ff">
<path fill="#d6d4d4" opacity="1.00" d=" M 59.08 158.76 C 60.98 161.43 63.38 163.70 66.07 165.57 C 65.55 171.77 63.90 178.19 65.75 184.32 C 67.42 188.43 70.83 191.48 73.28 195.12 C 70.36 194.82 67.43 194.58 64.51 194.36 C 60.22 185.48 60.95 175.50 62.23 166.03 C 59.57 164.47 58.79 161.70 59.08 158.76 Z" />
<path fill="#d6d4d4" opacity="1.00" d=" M 187.78 209.98 C 196.53 204.12 206.16 198.88 216.26 195.87 C 210.00 200.30 202.96 203.48 196.42 207.48 C 193.86 209.19 190.88 210.12 187.78 209.98 Z" />
</g>
<g id="#fe6843ff">
<path fill="#fe6843" opacity="1.00" d=" M 71.68 164.17 C 72.82 161.86 75.09 161.02 77.48 160.69 C 77.67 162.25 77.85 163.81 78.04 165.37 C 75.92 165.46 73.79 165.44 71.67 165.41 L 71.68 164.17 Z" />
</g>
<g id="#f2efefff">
<path fill="#f2efef" opacity="1.00" d=" M 80.37 160.93 C 82.38 161.06 84.39 161.21 86.40 161.39 C 85.01 162.99 83.36 164.34 81.57 165.48 C 81.92 171.84 83.21 178.31 81.32 184.57 C 77.98 184.86 74.24 185.81 71.18 184.01 C 70.23 182.04 69.52 179.96 68.54 178.01 C 70.82 174.57 69.69 170.31 69.55 166.48 C 73.02 166.30 76.50 166.19 79.98 166.11 C 80.11 164.38 80.24 162.66 80.37 160.93 Z" />
</g>
<g id="#fb623fff">
<path fill="#fb623f" opacity="1.00" d=" M 113.91 161.81 C 114.43 163.53 114.96 165.24 115.48 166.96 C 115.83 165.53 116.18 164.10 116.54 162.67 C 118.88 163.18 120.76 164.53 121.87 166.68 C 122.08 165.31 122.31 163.94 122.59 162.58 L 123.24 162.53 C 123.10 164.47 122.95 166.41 122.81 168.36 C 119.92 168.24 117.03 168.09 114.15 167.92 C 114.07 165.88 113.98 163.85 113.91 161.81 Z" />
</g>
<g id="#9e6302ff">
<path fill="#9e6302" opacity="1.00" d=" M 86.89 171.25 C 86.74 169.66 86.65 168.07 86.57 166.47 C 87.96 166.69 89.36 166.91 90.76 167.13 C 91.32 168.21 91.89 169.30 92.42 170.42 C 91.42 170.92 90.42 171.42 89.43 171.93 C 88.80 171.76 87.53 171.42 86.89 171.25 Z" />
</g>
<g id="#9d6002ff">
<path fill="#9d6002" opacity="1.00" d=" M 102.18 167.45 C 104.36 167.31 105.36 169.34 106.55 170.79 C 105.65 171.43 104.74 172.07 103.83 172.70 C 102.76 172.68 101.69 172.63 100.62 172.53 C 100.48 171.04 100.34 169.55 100.19 168.06 C 100.69 167.91 101.68 167.60 102.18 167.45 Z" />
</g>
<g id="#d4d2d2ff">
<path fill="#d4d2d2" opacity="1.00" d=" M 86.89 171.25 C 87.53 171.42 88.80 171.76 89.43 171.93 C 93.27 177.82 91.55 185.16 89.64 191.40 C 87.71 197.08 80.48 195.68 75.83 195.36 C 87.10 193.53 88.93 180.48 86.89 171.25 Z" />
</g>
<g id="#b3b1b1ff">
<path fill="#b3b1b1" opacity="1.00" d=" M 26.65 174.15 C 29.15 178.66 30.03 184.37 34.63 187.41 C 39.99 190.94 46.66 191.51 52.79 192.88 C 52.85 192.14 52.97 190.66 53.03 189.92 C 53.18 188.20 53.33 186.49 53.49 184.78 L 53.60 185.41 C 53.76 188.29 53.87 191.18 53.95 194.06 C 52.56 194.19 51.17 194.29 49.77 194.37 C 42.21 193.51 34.67 192.42 27.06 192.15 C 27.34 193.10 27.63 194.04 27.92 194.99 C 28.06 195.41 28.32 196.27 28.45 196.69 C 27.87 196.91 26.73 197.35 26.15 197.57 C 25.08 189.86 25.90 181.88 26.65 174.15 Z" />
</g>
<g id="#a47331ff">
<path fill="#a47331" opacity="1.00" d=" M 53.66 182.17 C 54.86 181.09 56.05 179.99 57.24 178.91 C 57.31 183.86 57.25 188.81 57.03 193.76 C 56.26 193.83 54.72 193.99 53.95 194.06 C 53.87 191.18 53.76 188.29 53.60 185.41 C 53.62 184.60 53.65 182.98 53.66 182.17 Z" />
</g>
<g id="#e9e6e6ff">
<path fill="#e9e6e6" opacity="1.00" d=" M 27.06 192.15 C 34.67 192.42 42.21 193.51 49.77 194.37 C 64.28 196.59 78.94 197.61 93.52 199.33 C 124.09 202.97 154.81 205.58 185.27 209.97 C 185.15 211.24 185.03 212.52 184.92 213.80 C 182.29 213.73 179.67 213.68 177.05 213.50 C 167.97 212.69 159.18 209.71 150.00 209.85 C 133.84 209.52 118.20 204.76 102.06 204.53 C 88.23 203.79 74.80 199.84 60.94 199.64 C 49.84 198.83 38.85 197.06 27.92 194.99 C 27.63 194.04 27.34 193.10 27.06 192.15 Z" />
</g>
<g id="#c6c2c2ff">
<path fill="#c6c2c2" opacity="1.00" d=" M 27.92 194.99 C 38.85 197.06 49.84 198.83 60.94 199.64 C 74.80 199.84 88.23 203.79 102.06 204.53 C 118.20 204.76 133.84 209.52 150.00 209.85 C 159.18 209.71 167.97 212.69 177.05 213.50 C 176.95 214.33 176.85 215.17 176.76 216.01 C 126.44 209.83 76.07 203.94 25.75 197.72 L 26.15 197.57 C 26.73 197.35 27.87 196.91 28.45 196.69 C 28.32 196.27 28.06 195.41 27.92 194.99 Z" />
</g>
</svg>
