<?xml version="1.0" encoding="UTF-8" ?>
<!DOCTYPE svg PUBLIC "-//W3C//DTD SVG 1.1//EN" "http://www.w3.org/Graphics/SVG/1.1/DTD/svg11.dtd">
<svg width="201pt" height="256pt" viewBox="0 0 201 256" version="1.1" xmlns="http://www.w3.org/2000/svg">
<g id="#000000ff">
<path fill="#000000" opacity="1.00" d=" M 66.32 0.00 L 135.41 0.00 C 141.09 1.81 146.25 6.62 146.27 12.94 C 146.57 26.93 146.25 40.93 146.37 54.92 C 161.61 55.03 176.86 54.76 192.09 55.01 C 196.14 54.75 198.80 57.97 201.00 60.88 L 201.00 250.04 C 199.46 252.41 197.44 254.44 195.09 256.00 L 6.06 256.00 C 3.69 254.32 1.80 252.10 0.00 249.85 L 0.00 61.60 C 1.88 58.30 4.74 54.89 8.91 55.03 C 24.21 54.74 39.53 55.05 54.84 54.92 C 54.96 40.93 54.62 26.93 54.96 12.95 C 55.02 6.50 60.33 1.45 66.32 0.00 M 73.39 23.00 C 73.21 37.99 73.32 53.01 73.33 68.01 C 72.93 71.21 75.84 73.63 78.92 73.22 C 82.83 72.90 88.46 74.75 90.92 70.73 C 91.98 65.57 91.21 60.23 91.39 54.99 C 97.53 54.89 103.67 54.91 109.81 54.96 C 110.00 60.18 109.24 65.51 110.30 70.66 C 112.06 74.23 116.79 73.05 120.02 73.32 C 123.06 73.46 127.80 73.08 127.81 69.03 C 128.04 53.69 127.98 38.31 127.84 22.97 C 128.05 18.72 123.18 18.20 120.01 18.40 C 116.72 18.64 111.84 17.49 110.20 21.27 C 109.33 26.39 109.96 31.64 109.81 36.81 C 103.67 36.80 97.53 36.79 91.39 36.82 C 90.28 30.94 94.97 19.20 86.07 18.51 C 81.81 18.63 73.84 16.76 73.39 23.00 M 18.45 73.37 C 18.47 128.18 18.46 182.98 18.46 237.78 C 36.68 237.73 54.91 237.79 73.13 237.75 C 73.26 227.16 73.00 216.56 73.22 205.97 C 72.95 202.80 76.04 200.83 78.94 201.20 C 93.63 201.24 108.33 201.15 123.03 201.25 C 125.74 200.97 128.17 203.20 128.04 205.95 C 128.37 216.55 128.03 227.17 128.16 237.78 C 146.36 237.75 164.56 237.77 182.76 237.77 C 182.75 182.96 182.79 128.15 182.74 73.35 C 170.65 73.38 158.56 73.37 146.47 73.36 C 147.77 81.51 142.98 91.12 133.97 91.55 C 111.67 91.71 89.34 91.77 67.04 91.52 C 58.10 90.96 53.56 81.41 54.72 73.34 C 42.63 73.40 30.54 73.35 18.45 73.37 Z" />
<path fill="#000000" opacity="1.00" d=" M 39.30 110.20 C 43.65 109.44 48.29 109.32 52.61 110.37 C 56.19 112.58 54.81 117.56 55.11 121.07 C 55.47 124.33 54.01 128.46 50.05 128.19 C 45.43 128.24 36.62 130.06 36.61 123.05 C 36.88 118.87 34.93 112.74 39.30 110.20 Z" />
<path fill="#000000" opacity="1.00" d=" M 75.41 110.44 C 79.70 109.23 84.40 109.52 88.78 110.16 C 93.41 112.88 91.21 119.41 91.47 123.84 C 90.67 130.21 82.39 128.07 77.93 128.18 C 74.03 128.40 72.71 124.25 73.08 121.07 C 73.41 117.59 71.95 112.72 75.41 110.44 Z" />
<path fill="#000000" opacity="1.00" d=" M 112.31 110.23 C 117.16 109.95 124.28 107.83 127.61 112.39 C 128.07 117.23 129.96 124.19 125.61 127.66 C 120.76 128.19 113.63 130.14 110.20 125.68 C 109.80 120.80 107.76 113.60 112.31 110.23 Z" />
<path fill="#000000" opacity="1.00" d=" M 148.42 110.48 C 153.32 109.80 161.06 107.72 164.26 112.63 C 164.72 117.83 167.08 128.26 159.05 128.26 C 154.83 128.11 147.04 129.95 146.36 123.92 C 146.56 119.58 144.63 113.66 148.42 110.48 Z" />
<path fill="#000000" opacity="1.00" d=" M 39.51 146.72 C 43.71 146.05 48.11 146.01 52.31 146.77 C 55.84 148.34 54.90 152.90 55.14 156.01 C 54.95 158.85 55.56 162.87 52.41 164.31 C 48.18 165.17 43.71 165.10 39.46 164.40 C 35.75 162.87 36.66 158.20 36.46 155.00 C 36.59 152.10 36.11 147.93 39.51 146.72 Z" />
<path fill="#000000" opacity="1.00" d=" M 113.33 146.56 C 117.30 146.15 121.39 146.00 125.33 146.76 C 129.19 148.52 127.97 153.62 128.24 157.03 C 128.58 160.45 127.36 165.18 123.02 164.75 C 118.55 164.63 110.17 166.68 109.74 160.06 C 110.02 155.70 107.71 148.16 113.33 146.56 Z" />
<path fill="#000000" opacity="1.00" d=" M 39.33 183.35 C 44.64 182.88 55.46 180.49 55.05 188.90 C 55.02 193.21 56.55 201.30 50.05 201.31 C 45.38 201.30 36.51 203.19 36.60 196.05 C 36.86 191.94 34.96 185.78 39.33 183.35 Z" />
<path fill="#000000" opacity="1.00" d=" M 149.21 183.29 C 154.21 183.09 164.23 180.46 164.64 187.99 C 164.51 192.42 166.57 200.72 160.06 201.26 C 155.35 201.31 146.20 203.29 146.26 196.09 C 146.63 191.96 144.45 185.45 149.21 183.29 Z" />
</g>
<g id="#000000fe">
<path fill="#000000" opacity="1.00" d=" M 76.42 146.65 C 81.51 146.38 91.67 144.03 91.58 151.93 C 91.42 156.22 93.32 164.24 87.00 164.70 C 82.43 164.58 73.61 166.87 73.21 160.02 C 73.54 155.74 71.19 148.58 76.42 146.65 Z" />
<path fill="#000000" opacity="1.00" d=" M 149.44 146.66 C 153.64 146.13 158.07 145.88 162.20 146.91 C 166.28 149.78 164.40 155.75 164.62 159.99 C 164.36 166.45 156.26 164.71 151.93 164.80 C 148.54 165.25 145.74 162.46 146.23 159.06 C 146.58 155.05 144.52 148.45 149.44 146.66 Z" />
</g>
</svg>
