<?xml version="1.0" encoding="UTF-8" ?>
<!DOCTYPE svg PUBLIC "-//W3C//DTD SVG 1.1//EN" "http://www.w3.org/Graphics/SVG/1.1/DTD/svg11.dtd">
<svg width="200pt" height="200pt" viewBox="0 0 200 200" version="1.1" xmlns="http://www.w3.org/2000/svg">
<g id="#1f3d5866">
<path fill="#1f3d58" opacity="0.40" d=" M 95.61 9.61 C 97.32 7.74 100.30 6.36 102.34 8.61 C 110.71 16.04 118.46 24.17 126.92 31.51 C 127.12 28.47 127.48 25.45 127.61 22.42 C 139.75 22.30 151.90 22.37 164.04 22.37 C 164.57 35.25 164.56 48.14 164.56 61.02 C 164.41 64.35 165.61 67.63 168.16 69.82 C 178.29 79.31 188.66 88.54 198.64 98.18 C 196.35 100.73 193.82 103.04 191.19 105.23 C 180.53 96.13 170.76 86.06 160.35 76.69 C 157.87 74.37 154.93 71.79 155.03 68.07 C 154.74 56.14 155.18 44.19 154.89 32.26 C 149.07 32.44 143.24 32.56 137.42 32.56 C 137.29 39.80 137.41 47.04 136.95 54.26 C 124.35 42.94 112.27 31.06 99.74 19.66 C 68.88 47.87 38.92 77.08 8.09 105.33 C 5.53 103.06 3.10 100.67 0.79 98.15 C 32.31 68.54 64.07 39.19 95.61 9.61 Z" />
<path fill="#1f3d58" opacity="0.40" d=" M 55.25 78.12 C 57.09 66.23 68.97 57.06 81.03 58.86 C 89.93 57.92 95.43 65.87 99.77 72.33 C 102.85 67.40 106.31 62.15 111.95 59.92 C 121.99 56.83 134.29 59.57 140.21 68.79 C 148.21 80.48 145.09 96.31 137.17 107.18 C 128.28 119.24 115.37 127.71 101.89 133.87 C 99.16 135.43 96.36 133.33 93.90 132.25 C 79.64 125.06 65.75 115.22 58.27 100.69 C 54.48 93.83 54.43 85.71 55.25 78.12 Z" />
<path fill="#1f3d58" opacity="0.40" d=" M 31.22 91.28 C 33.42 86.77 41.25 88.02 41.71 93.11 C 42.75 106.69 41.47 120.38 42.29 133.98 C 43.75 145.64 55.69 151.17 62.73 159.29 C 65.68 163.70 72.95 160.45 71.57 155.41 C 67.38 147.08 58.62 141.95 54.52 133.56 C 52.36 128.99 58.73 123.73 62.64 127.29 C 70.09 133.51 75.92 141.43 82.69 148.36 C 87.06 153.20 92.77 157.94 93.14 164.97 C 93.58 174.02 93.25 183.10 93.23 192.16 C 83.47 192.23 73.70 192.41 63.95 192.11 C 58.91 192.06 56.35 186.99 53.11 183.92 C 44.24 173.54 32.33 164.06 30.43 149.66 C 28.75 135.18 29.93 120.54 29.58 106.00 C 29.74 101.10 28.96 95.82 31.22 91.28 Z" />
<path fill="#1f3d58" opacity="0.40" d=" M 157.53 94.18 C 157.60 90.17 162.17 87.28 165.81 89.00 C 169.40 90.36 169.84 94.64 169.82 97.94 C 169.81 112.30 169.69 126.65 169.74 141.01 C 169.82 148.43 168.24 155.94 164.51 162.41 C 159.47 171.09 151.63 177.61 145.28 185.27 C 142.42 188.25 139.84 192.84 135.04 192.27 C 125.69 192.16 116.34 192.22 106.99 191.90 C 106.35 183.27 107.07 174.62 106.74 165.97 C 106.46 161.10 109.01 156.72 112.26 153.31 C 119.35 145.72 126.37 138.06 133.37 130.38 C 135.60 128.01 138.86 125.17 142.34 126.66 C 145.89 128.22 145.78 133.11 143.88 135.93 C 139.43 142.66 132.70 147.60 128.45 154.46 C 125.89 158.47 131.85 163.84 135.49 160.54 C 141.69 155.46 146.96 149.30 152.88 143.88 C 158.17 139.09 157.36 131.45 157.36 125.01 C 157.48 114.73 157.00 104.44 157.53 94.18 Z" />
</g>
</svg>
