<?xml version="1.0" encoding="UTF-8" ?>
<!DOCTYPE svg PUBLIC "-//W3C//DTD SVG 1.1//EN" "http://www.w3.org/Graphics/SVG/1.1/DTD/svg11.dtd">
<svg width="512pt" height="512pt" viewBox="0 0 512 512" version="1.1" xmlns="http://www.w3.org/2000/svg">
<g id="#333333ff">
<path fill="#333333" opacity="1.00" d=" M 252.30 7.29 C 271.79 0.88 294.14 4.23 310.83 16.18 C 326.56 27.06 337.05 44.85 339.39 63.79 C 325.61 66.07 311.92 68.99 298.09 70.91 C 281.38 71.26 264.65 71.07 247.94 70.99 C 233.85 69.02 219.85 66.28 205.83 63.84 C 208.81 38.14 227.56 15.05 252.30 7.29 Z" />
<path fill="#333333" opacity="1.00" d=" M 205.31 73.84 C 214.46 74.99 223.61 76.22 232.66 78.02 C 232.70 86.79 232.68 95.55 232.65 104.32 C 226.17 103.74 219.69 103.16 213.21 102.62 C 208.49 93.74 205.92 83.86 205.31 73.84 Z" />
<path fill="#333333" opacity="1.00" d=" M 312.32 78.03 C 321.31 76.26 330.41 75.07 339.50 73.91 C 339.01 83.95 336.06 93.72 331.52 102.65 C 325.12 103.22 318.72 103.84 312.32 104.33 C 312.31 95.57 312.28 86.80 312.32 78.03 Z" />
<path fill="#333333" opacity="1.00" d=" M 221.21 114.32 C 224.83 114.63 228.46 114.75 232.07 115.21 C 236.53 115.51 239.31 120.27 243.97 119.95 C 263.00 120.04 282.05 120.02 301.09 119.96 C 305.10 120.33 307.95 117.27 311.29 115.68 C 315.39 114.73 319.66 114.82 323.85 114.44 C 311.48 128.79 293.01 137.85 274.00 138.04 C 253.97 138.71 234.15 129.53 221.21 114.32 Z" />
<path fill="#333333" opacity="1.00" d=" M 208.64 161.64 C 219.58 150.62 236.24 148.83 251.00 149.59 C 275.45 150.46 300.47 147.01 324.38 153.66 C 329.19 155.01 334.26 156.47 337.94 160.05 C 356.78 178.55 375.73 196.94 394.59 215.41 C 398.45 219.23 402.81 222.74 405.42 227.61 C 410.67 236.89 410.08 249.15 403.80 257.81 C 385.14 283.49 366.67 309.31 348.04 335.02 C 342.38 343.10 331.27 346.44 322.04 343.04 C 312.99 339.92 306.53 330.58 306.98 320.97 C 306.94 314.54 310.71 309.08 313.55 303.60 C 323.40 284.79 333.18 265.94 343.02 247.13 C 337.52 242.52 332.23 237.67 326.56 233.27 C 327.19 238.68 332.47 244.50 328.85 249.72 C 315.33 273.73 301.15 297.48 289.69 322.57 C 279.68 322.54 269.66 322.56 259.65 322.53 C 248.09 297.54 233.43 274.12 219.75 250.25 C 215.61 244.88 220.90 238.62 221.74 232.97 C 216.15 237.55 210.71 242.31 205.25 247.06 C 216.35 268.83 227.54 290.57 238.70 312.31 C 243.85 322.24 239.51 335.56 229.74 340.86 C 220.71 346.27 207.98 343.85 201.64 335.43 C 182.54 309.51 163.40 283.62 144.32 257.68 C 136.67 247.13 137.90 231.33 147.10 222.10 C 167.60 201.94 188.20 181.87 208.64 161.64 Z" />
<path fill="#333333" opacity="1.00" d=" M 100.44 340.59 C 118.51 338.29 137.48 344.71 150.25 357.76 C 163.90 371.11 170.32 391.29 167.03 410.10 C 163.05 436.41 139.63 458.13 113.06 459.96 C 91.79 462.07 69.95 451.62 58.14 433.84 C 46.44 416.94 44.56 393.90 53.20 375.28 C 61.57 356.58 80.08 342.96 100.44 340.59 Z" />
<path fill="#333333" opacity="1.00" d=" M 203.82 361.76 C 215.19 358.04 227.25 359.12 239.01 358.96 C 274.82 358.98 310.63 358.96 346.44 358.97 C 346.46 393.09 346.50 427.22 346.42 461.34 C 304.95 461.38 263.49 461.39 222.02 461.34 C 205.90 461.03 188.57 454.47 179.70 440.33 C 173.86 431.27 176.25 420.12 175.78 409.99 C 176.09 401.57 174.88 392.95 176.83 384.68 C 180.70 372.74 192.27 365.14 203.82 361.76 Z" />
<path fill="#333333" opacity="1.00" d=" M 358.95 358.95 C 394.22 358.98 429.50 358.99 464.77 358.95 C 464.79 408.99 464.80 459.04 464.76 509.09 C 429.51 509.18 394.26 509.15 359.01 509.11 C 358.90 459.06 359.02 409.00 358.95 358.95 Z" />
<path fill="#333333" opacity="1.00" d=" M 47.20 475.01 C 146.95 474.94 246.70 475.05 346.45 474.96 C 346.45 486.34 346.49 497.72 346.44 509.10 C 246.70 509.18 146.96 509.15 47.22 509.11 C 47.18 497.74 47.21 486.38 47.20 475.01 Z" />
</g>
</svg>
